<svg xmlns="http://www.w3.org/2000/svg" viewBox="0 0 360 440" fill="none" aria-hidden="true">
  <!-- Left figure -->
  <path fill="#FFFFFF" d="M 118 34
    C 92 34 74 56 76 82
    C 68 88 58 104 52 126
    C 42 168 44 228 54 292
    L 48 432 H 96
    L 100 330
    C 92 338 82 338 76 328
    L 72 432 H 174
    L 178 286
    C 182 228 174 172 154 136
    C 140 110 128 96 124 84
    C 120 58 106 34 118 34 Z"/>
  <!-- Right figure -->
  <path fill="#FFFFFF" d="M 242 38
    C 268 38 286 60 284 86
    C 292 92 302 108 308 130
    C 318 172 316 232 306 296
    L 312 432 H 264
    L 260 334
    C 268 342 278 342 284 332
    L 288 432 H 186
    L 182 290
    C 178 232 186 176 206 140
    C 220 114 232 100 236 88
    C 240 62 254 38 242 38 Z"/>
  <!-- Shared chest where copy sits -->
  <path fill="#FFFFFF" d="M 154 118
    C 170 108 190 108 206 118
    C 214 150 216 190 212 230
    C 208 270 198 300 180 304
    C 162 300 152 270 148 230
    C 144 190 146 150 154 118 Z"/>
  <!-- Embracing arms -->
  <path fill="#FFFFFF" d="M 62 148
    C 98 186 140 206 180 208
    C 220 206 262 186 298 148
    C 268 182 224 198 180 200
    C 136 198 92 182 62 148 Z"/>
</svg>
