<svg width="240" height="72" viewBox="0 0 240 72" fill="none" xmlns="http://www.w3.org/2000/svg">
<rect x="52.9922" y="9.24805" width="13.2479" height="24.6032" rx="3.78511" fill="#FF6C37"/>
<path d="M54 14.0016C54 12.8961 54.8961 12 56.0016 12H62.0063C63.1117 12 64.0078 12.8961 64.0078 14.0016V34.0172C64.0078 35.1226 63.1117 36.0188 62.0063 36.0188H56.0016C54.8961 36.0188 54 35.1226 54 34.0172V14.0016Z" fill="#C94B2D"/>
<path d="M28.6387 4.63158C33.4799 0.694378 40.4195 0.694463 45.2607 4.63158L69.0391 23.9695C72.1145 26.4707 73.8993 30.225 73.8994 34.1892V58.5974C73.8994 65.7973 68.0631 71.6344 60.8633 71.6345H13.0371C5.83717 71.6345 0 65.7973 0 58.5974V34.1892C9.64224e-05 30.225 1.78586 26.4707 4.86133 23.9695L28.6387 4.63158Z" fill="#FF6C37"/>
<circle cx="33.2818" cy="31.1963" r="8.12308" transform="rotate(12.7073 33.2818 31.1963)" fill="white"/>
<path d="M23.6422 35.5894C22.0975 31.4231 22.7167 27.6553 25.4996 24.2858C27.4705 21.897 30.088 20.7103 33.352 20.7256C40.0615 20.9831 44.958 26.3035 43.5903 32.9642C42.2371 39.5609 36.3161 42.9523 29.8873 41.0327C27.0276 40.1775 24.9459 38.3631 23.6422 35.5894ZM41.3834 33.1043C41.6396 31.9683 41.6695 30.7929 41.4714 29.6453C41.2734 28.4978 40.8512 27.4004 40.229 26.416C39.6069 25.4316 38.7969 24.5793 37.8454 23.9079C36.8939 23.2365 35.8194 22.7591 34.6834 22.5029C32.3891 21.9856 29.9832 22.4008 27.995 23.6573C26.0069 24.9138 24.5993 26.9086 24.0819 29.203C23.5646 31.4973 23.9799 33.9032 25.2364 35.8913C26.4929 37.8795 28.4877 39.287 30.782 39.8044C31.918 40.0606 33.0934 40.0905 34.241 39.8924C35.3886 39.6943 36.4859 39.2721 37.4703 38.65C38.4548 38.0278 39.307 37.2179 39.9784 36.2663C40.6498 35.3148 41.1273 34.2404 41.3834 33.1043Z" fill="#F7F8F5"/>
<path d="M41.3742 33.1C41.1181 34.236 40.6406 35.3104 39.9692 36.262C39.2978 37.2135 38.4456 38.0235 37.4612 38.6456C36.4767 39.2678 35.3794 39.6899 34.2318 39.888C33.0842 40.0861 31.9088 40.0562 30.7728 39.8C28.4785 39.2827 26.4837 37.8751 25.2272 35.8869C23.9707 33.8988 23.5554 31.4929 24.0728 29.1986C24.5901 26.9043 25.9977 24.9094 27.9858 23.6529C29.974 22.3964 32.3799 21.9812 34.6742 22.4985C35.8102 22.7547 36.8847 23.2321 37.8362 23.9035C38.7877 24.5749 39.5977 25.4272 40.2198 26.4116C40.842 27.3961 41.2642 28.4934 41.4622 29.641C41.6603 30.7886 41.6304 31.9639 41.3742 33.1ZM38.6902 28.8357C38.8361 28.1884 38.719 27.5096 38.3645 26.9487C38.01 26.3878 37.4472 25.9907 36.7999 25.8447C36.4794 25.7724 36.1478 25.764 35.824 25.8199C35.5003 25.8758 35.1907 25.9949 34.9129 26.1704C34.6352 26.3459 34.3948 26.5744 34.2053 26.8429C34.0159 27.1113 33.8812 27.4145 33.809 27.735C33.7367 28.0555 33.7282 28.3871 33.7841 28.7108C33.84 29.0346 33.9591 29.3442 34.1346 29.6219C34.3102 29.8997 34.5387 30.1401 34.8071 30.3295C35.0756 30.519 35.3787 30.6537 35.6992 30.7259C36.3465 30.8719 37.0253 30.7547 37.5862 30.4002C38.1471 30.0457 38.5442 29.4829 38.6902 28.8357ZM31.0069 33.5216C31.1093 33.0675 31.0271 32.5913 30.7784 32.1978C30.5297 31.8043 30.1349 31.5256 29.6807 31.4232C29.2266 31.3208 28.7504 31.403 28.3569 31.6517C27.9634 31.9004 27.6848 32.2953 27.5824 32.7494C27.48 33.2035 27.5622 33.6797 27.8109 34.0732C28.0596 34.4668 28.4544 34.7454 28.9085 34.8478C29.3627 34.9502 29.8389 34.868 30.2324 34.6193C30.6259 34.3706 30.9045 33.9757 31.0069 33.5216Z" fill="#3C362D"/>
<circle cx="57.7598" cy="37.8842" r="7.23053" transform="rotate(12.7073 57.7598 37.8842)" fill="white"/>
<path d="M49.1785 41.7944C47.8036 38.0859 48.3547 34.7321 50.8318 31.7328C52.5862 29.6065 54.916 28.5501 57.8214 28.5638C63.7937 28.793 68.1521 33.5288 66.9348 39.4576C65.7302 45.3295 60.4598 48.3483 54.7374 46.6396C52.1919 45.8784 50.3389 44.2633 49.1785 41.7944ZM64.9704 39.5824C65.1984 38.5712 65.225 37.525 65.0487 36.5035C64.8724 35.482 64.4966 34.5052 63.9428 33.629C63.389 32.7527 62.668 31.9941 61.8211 31.3964C60.9741 30.7988 60.0177 30.3738 59.0065 30.1458C56.9643 29.6853 54.8227 30.0549 53.0531 31.1734C51.2834 32.2918 50.0304 34.0675 49.5699 36.1097C49.1094 38.1519 49.479 40.2934 50.5975 42.0631C51.7159 43.8328 53.4916 45.0857 55.5338 45.5463C56.545 45.7743 57.5912 45.8009 58.6127 45.6246C59.6342 45.4483 60.611 45.0725 61.4872 44.5187C62.3635 43.9649 63.1221 43.2439 63.7197 42.397C64.3174 41.55 64.7423 40.5936 64.9704 39.5824Z" fill="#F7F8F5"/>
<path d="M64.961 39.5792C64.7329 40.5904 64.308 41.5468 63.7103 42.3937C63.1127 43.2407 62.3541 43.9617 61.4778 44.5155C60.6016 45.0693 59.6248 45.445 58.6033 45.6214C57.5818 45.7977 56.5356 45.771 55.5244 45.543C53.4822 45.0825 51.7065 43.8296 50.5881 42.0599C49.4696 40.2902 49.1 38.1487 49.5605 36.1065C50.021 34.0642 51.274 32.2886 53.0437 31.1702C54.8134 30.0517 56.9549 29.6821 58.9971 30.1426C60.0083 30.3706 60.9647 30.7956 61.8117 31.3932C62.6586 31.9908 63.3796 32.7495 63.9334 33.6257C64.4872 34.502 64.863 35.4787 65.0393 36.5002C65.2156 37.5217 65.189 38.568 64.961 39.5792ZM62.5718 35.7834C62.7017 35.2072 62.5974 34.6031 62.2819 34.1038C61.9664 33.6045 61.4654 33.251 60.8892 33.1211C60.604 33.0568 60.3088 33.0493 60.0206 33.099C59.7324 33.1487 59.4568 33.2548 59.2096 33.411C58.9624 33.5672 58.7484 33.7706 58.5798 34.0096C58.4112 34.2485 58.2913 34.5184 58.2269 34.8037C58.1626 35.0889 58.1551 35.3841 58.2048 35.6723C58.2546 35.9605 58.3606 36.2361 58.5168 36.4833C58.6731 36.7305 58.8765 36.9445 59.1154 37.1131C59.3544 37.2817 59.6242 37.4016 59.9095 37.466C60.4857 37.5959 61.0898 37.4916 61.5891 37.1761C62.0884 36.8605 62.4419 36.3596 62.5718 35.7834ZM55.7328 39.9545C55.8239 39.5503 55.7508 39.1264 55.5294 38.7761C55.308 38.4258 54.9565 38.1778 54.5523 38.0867C54.1481 37.9955 53.7242 38.0687 53.374 38.2901C53.0237 38.5114 52.7757 38.8629 52.6845 39.2671C52.5934 39.6713 52.6665 40.0952 52.8879 40.4455C53.1093 40.7958 53.4607 41.0438 53.865 41.1349C54.2692 41.2261 54.6931 41.1529 55.0433 40.9315C55.3936 40.7102 55.6416 40.3587 55.7328 39.9545Z" fill="#3C362D"/>
<path d="M29.4745 9.64837L31.0788 8.33574C33.1972 6.60254 34.2564 5.73593 35.4404 5.42021C36.3989 5.16465 37.4076 5.16465 38.366 5.42021C39.5501 5.73593 40.6093 6.60253 42.7276 8.33573L42.7276 8.33574L44.332 9.64837C44.6734 9.92776 44.8442 10.0675 44.8595 10.1904C44.8716 10.2878 44.8368 10.3852 44.7658 10.4529C44.6761 10.5384 44.4555 10.5384 44.0143 10.5384H29.7922C29.351 10.5384 29.1304 10.5384 29.0406 10.4529C28.9696 10.3852 28.9349 10.2878 28.947 10.1904C28.9623 10.0675 29.133 9.92776 29.4745 9.64837Z" fill="#C94B2D"/>
<path d="M228.28 71.9995C226.053 71.9995 224.128 71.5532 222.505 70.6606C220.892 69.759 219.647 68.4742 218.773 66.8062C217.898 65.1382 217.461 63.1592 217.461 60.8691C217.461 58.561 217.898 56.5729 218.773 54.9049C219.647 53.2279 220.892 51.9386 222.505 51.037C224.128 50.1354 226.053 49.6846 228.28 49.6846C230.516 49.6846 232.441 50.1354 234.055 51.037C235.669 51.9386 236.913 53.2279 237.788 54.9049C238.662 56.5729 239.1 58.561 239.1 60.8691C239.1 63.1592 238.662 65.1382 237.788 66.8062C236.913 68.4742 235.669 69.759 234.055 70.6606C232.441 71.5532 230.516 71.9995 228.28 71.9995ZM228.28 67.3337C229.29 67.3337 230.066 66.7837 230.606 65.6837C231.147 64.5838 231.418 62.9654 231.418 60.8285C231.418 58.6917 231.147 57.0733 230.606 55.9733C230.066 54.8734 229.29 54.3234 228.28 54.3234C227.271 54.3234 226.495 54.8734 225.954 55.9733C225.413 57.0733 225.143 58.6917 225.143 60.8285C225.143 62.9654 225.413 64.5838 225.954 65.6837C226.495 66.7837 227.271 67.3337 228.28 67.3337Z" fill="#181716"/>
<path d="M164.113 71.6087V66.9428H166.277V54.744H164.113V50.0781H175.081L179.639 61.8442L184.346 50.0781H194.259V54.744H192.095V66.9428H194.259V71.6087H183.399V66.9428H185.292V57.9898L179.91 71.6087H176.069L170.686 57.9898V66.9428H172.579V71.6087H164.113Z" fill="#181716"/>
<path d="M151.624 71.9995C149.397 71.9995 147.472 71.5532 145.849 70.6606C144.235 69.759 142.991 68.4742 142.117 66.8062C141.242 65.1382 140.805 63.1592 140.805 60.8691C140.805 58.561 141.242 56.5729 142.117 54.9049C142.991 53.2279 144.235 51.9386 145.849 51.037C147.472 50.1354 149.397 49.6846 151.624 49.6846C153.86 49.6846 155.785 50.1354 157.399 51.037C159.013 51.9386 160.257 53.2279 161.132 54.9049C162.006 56.5729 162.443 58.561 162.443 60.8691C162.443 63.1592 162.006 65.1382 161.132 66.8062C160.257 68.4742 159.013 69.759 157.399 70.6606C155.785 71.5532 153.86 71.9995 151.624 71.9995ZM151.624 67.3337C152.634 67.3337 153.409 66.7837 153.95 65.6837C154.491 64.5838 154.762 62.9654 154.762 60.8285C154.762 58.6917 154.491 57.0733 153.95 55.9733C153.409 54.8734 152.634 54.3234 151.624 54.3234C150.614 54.3234 149.839 54.8734 149.298 55.9733C148.757 57.0733 148.486 58.6917 148.486 60.8285C148.486 62.9654 148.757 64.5838 149.298 65.6837C149.839 66.7837 150.614 67.3337 151.624 67.3337Z" fill="#181716"/>
<path d="M128.331 71.9995C126.104 71.9995 124.179 71.5532 122.556 70.6606C120.942 69.759 119.698 68.4742 118.824 66.8062C117.949 65.1382 117.512 63.1592 117.512 60.8691C117.512 58.561 117.949 56.5729 118.824 54.9049C119.698 53.2279 120.942 51.9386 122.556 51.037C124.179 50.1354 126.104 49.6846 128.331 49.6846C130.567 49.6846 132.492 50.1354 134.106 51.037C135.72 51.9386 136.964 53.2279 137.839 54.9049C138.713 56.5729 139.15 58.561 139.15 60.8691C139.15 63.1592 138.713 65.1382 137.839 66.8062C136.964 68.4742 135.72 69.759 134.106 70.6606C132.492 71.5532 130.567 71.9995 128.331 71.9995ZM128.331 67.3337C129.341 67.3337 130.116 66.7837 130.657 65.6837C131.198 64.5838 131.469 62.9654 131.469 60.8285C131.469 58.6917 131.198 57.0733 130.657 55.9733C130.116 54.8734 129.341 54.3234 128.331 54.3234C127.321 54.3234 126.546 54.8734 126.005 55.9733C125.464 57.0733 125.193 58.6917 125.193 60.8285C125.193 62.9654 125.464 64.5838 126.005 65.6837C126.546 66.7837 127.321 67.3337 128.331 67.3337Z" fill="#181716"/>
<path d="M94.0078 71.6087V66.9428H96.1717V54.744H94.0078V50.0781H106.437C109.123 50.0781 111.188 50.583 112.631 51.5928C114.073 52.5936 114.795 54.0633 114.795 56.0017C114.795 57.255 114.483 58.2963 113.861 59.1258C113.239 59.9553 112.396 60.5459 111.332 60.8975C112.18 61.177 112.806 61.6143 113.212 62.2094C113.627 62.8044 113.843 63.5302 113.861 64.3868L113.888 65.5093C113.906 65.9871 114.01 66.3478 114.199 66.5912C114.398 66.8256 114.731 66.9428 115.2 66.9428H116.634V71.6087H111.927C110.205 71.6087 108.93 71.212 108.1 70.4186C107.28 69.6161 106.86 68.444 106.842 66.9023L106.815 65.1035C106.788 63.661 106.121 62.9397 104.814 62.9397H103.042V66.9428H104.868V71.6087H94.0078ZM105.138 54.6087H103.042V59.1799H105.138C106.869 59.1799 107.735 58.4181 107.735 56.8943C107.735 55.3706 106.869 54.6087 105.138 54.6087Z" fill="#181716"/>
<path d="M128.787 47.0361V42.4213H132.666V37.6058L126.459 30.3424H124.52V25.7275H136.612V30.3424H135.14L137.762 33.5126L140.009 30.3424H138.538V25.7275H147.019V30.3424H145.079L139.461 37.8867V42.4213H143.34V47.0361H128.787Z" fill="#181716"/>
<path d="M94 47.0364V42.4216H96.1402V30.3561H94V25.7412H104.848L109.356 37.3787L114.011 25.7412H123.816V30.3561H121.676V42.4216H123.816V47.0364H113.075V42.4216H114.947V33.5664L109.624 47.0364H105.825L100.501 33.5664V42.4216H102.374V47.0364H94Z" fill="#181716"/>
<path d="M215.85 49.9234H215.809V49.8467L196.53 49.9023H196.473V54.3883L201.762 60.4905L196.473 66.7008L196.502 71.3435H196.996H215.85V67.4417V66.8019H212.07H203.738L209.911 60.5091L203.738 54.1997H215.85V49.9234Z" fill="#181716"/>
</svg>
