<svg preserveAspectRatio="none" width="100%" height="100%" overflow="visible" style="display: block;" viewBox="0 0 145.906 69.3061" fill="none" xmlns="http://www.w3.org/2000/svg">
<g id="Group 7">
<path id="Vector" d="M30.7254 0.226505C49.6292 -1.93055 66.7355 11.5592 69.0465 30.4447C71.357 49.3303 58.0072 66.5458 39.1416 69.0102C20.0569 71.5036 2.59753 57.9649 0.260183 38.8609C-2.07771 19.7563 11.6025 2.40778 30.7254 0.226505Z" fill="var(--fill-0, white)"/>
<path id="Vector_2" d="M41.7702 16.985C51.8672 16.223 60.6897 23.7474 61.5309 33.8384C62.3726 43.9294 54.9182 52.8106 44.8341 53.7314C34.6365 54.663 25.6337 47.1069 24.7834 36.9023C23.9325 26.6983 31.5592 17.7552 41.7702 16.985Z" fill="var(--fill-0, #272423)"/>
<path id="Vector_3" d="M105.775 0.719511C124.575 -2.4262 142.354 10.2966 145.445 29.1057C148.534 47.9148 135.759 65.6567 116.941 68.691C98.2015 71.7124 80.5495 59.0021 77.4726 40.2715C74.3958 21.5409 87.0535 3.8523 105.775 0.719511Z" fill="var(--fill-0, white)"/>
<path id="Vector_4" d="M100.967 17.3115C110.852 16.1426 119.835 23.1498 121.108 33.0217C122.381 42.8943 115.468 51.9504 105.61 53.327C99.1408 54.2307 92.6842 51.5887 88.7032 46.4092C84.7217 41.2296 83.8299 34.3112 86.3669 28.2911C88.9045 22.2714 94.4801 18.0784 100.967 17.3115Z" fill="var(--fill-0, #272423)"/>
</g>
</svg>
