<svg preserveAspectRatio="none" width="100%" height="100%" overflow="visible" style="display: block;" viewBox="0 0 143.386 82.8388" fill="none" xmlns="http://www.w3.org/2000/svg">
<g id="Rectangle 56">
<path d="M1.86168 41.4822C1.86168 33.2294 7.40347 26.005 15.3744 23.8667L91.8439 3.35262C119.688 -4.1171 145.848 19.9038 140.774 48.2829C136.725 70.929 114.197 85.2871 91.9593 79.3938L15.4279 59.1119C7.4306 56.9926 1.86168 49.7555 1.86168 41.4822Z" fill="var(--fill-0, #724527)"/>
<path d="M16.9876 23.4756L17.3351 24.9091L16.9876 23.4756ZM18.0821 23.286L18.2382 24.7527L18.0821 23.286ZM18.6388 23.2267L18.4827 21.76L18.6388 23.2267ZM19.1956 23.1674L19.3518 24.6341V24.6341L19.1956 23.1674ZM20.1929 22.6153L19.0931 21.6324L20.1929 22.6153ZM20.6333 22.1225L21.7331 23.1054L20.6333 22.1225ZM21.0738 21.6296L22.1736 22.6125L21.0738 21.6296ZM22.1662 21.4319L21.5577 22.7756L22.1662 21.4319ZM23.4699 22.0223L24.0783 20.6786L23.4699 22.0223ZM24.5779 21.8832L23.561 20.8148L24.5779 21.8832ZM25.0341 21.449L26.0511 22.5174L25.0341 21.449ZM25.4903 21.0148L24.4734 19.9464L25.4903 21.0148ZM27.6936 20.6888L27.7848 19.2166L27.6936 20.6888ZM28.786 20.4914L29.3999 21.8326L28.786 20.4914ZM29.8061 20.0245L29.1922 18.6833L29.8061 20.0245ZM30.8611 19.6875L31.1364 21.1366L30.8611 19.6875ZM31.406 19.584L31.1307 18.1349L31.406 19.584ZM31.9509 19.4805L31.6757 18.0314L31.9509 19.4805ZM32.9612 18.977L31.9998 17.8584L32.9612 18.977ZM33.892 18.1771L32.9306 17.0584L33.892 18.1771ZM34.942 17.8217L35.0543 16.351L34.942 17.8217ZM36.1113 17.911L36.2236 16.4403L36.1113 17.911ZM37.243 17.8598L36.9884 16.4069L37.243 17.8598ZM37.7899 17.7639L38.0445 19.2168L37.7899 17.7639ZM38.3369 17.6681L38.0823 16.2152L38.3369 17.6681ZM39.3547 17.1925L38.4288 16.0444L39.3547 17.1925ZM40.2964 16.4332L39.3704 15.285L40.2964 16.4332ZM41.3006 15.907L40.91 14.4847L41.3006 15.907ZM42.3674 15.6141L42.7579 17.0365L42.3674 15.6141ZM43.4936 15.5427L43.3084 17.006L43.4936 15.5427ZM44.0864 15.6177L43.9012 17.081L44.0864 15.6177ZM44.6792 15.6927L44.494 17.1561L44.6792 15.6927ZM45.8763 15.8855L46.1584 14.4377L45.8763 15.8855ZM47.0848 16.121L46.8027 17.5688L47.0848 16.121ZM48.088 15.5912L49.3438 16.3649L48.088 15.5912ZM48.487 14.9436L49.7428 15.7174L48.487 14.9436ZM48.886 14.2961L47.6302 13.5224L48.886 14.2961ZM49.9085 13.8381L49.4795 15.2493L49.9085 13.8381ZM50.532 14.0276L50.961 12.6164L50.532 14.0276ZM51.1555 14.2172L51.5845 12.8059L51.1555 14.2172ZM52.2514 14.0328L53.167 15.1892L52.2514 14.0328ZM53.1961 13.2848L54.1117 14.4412L53.1961 13.2848ZM54.1851 12.7017L54.7385 14.069L54.1851 12.7017ZM55.2183 12.2836L54.6649 10.9163L55.2183 12.2836ZM56.3161 12.1063L56.3967 10.6335L56.3161 12.1063ZM56.8973 12.1381L56.8167 13.6109L56.8973 12.1381ZM57.4785 12.1699L57.5592 10.6972L57.4785 12.1699ZM58.5442 11.8729L57.7158 10.6525L58.5442 11.8729ZM59.0287 11.5441L59.8571 12.7645L59.0287 11.5441ZM59.5131 11.2152L58.6847 9.99483L59.5131 11.2152ZM61.2706 11.362L60.7543 12.7437L61.2706 11.362ZM61.907 11.5998L62.4233 10.2181L61.907 11.5998ZM62.9989 11.4003L64.0206 12.4642L62.9989 11.4003ZM63.9096 10.5257L62.8879 9.46183L63.9096 10.5257ZM64.9828 10.2566L64.5952 11.6798L64.9828 10.2566ZM65.6006 10.4249L65.2131 11.848L65.6006 10.4249ZM66.2184 10.5931L66.606 9.16992L66.2184 10.5931ZM67.3229 10.4405L66.511 9.20906L67.3229 10.4405ZM68.2961 9.79892L69.108 11.0304L68.2961 9.79892ZM70.4737 9.37727L70.3859 7.90489L70.4737 9.37727ZM71.472 8.82882L72.5991 9.78024L71.472 8.82882ZM71.9065 8.31399L73.0337 9.2654L71.9065 8.31399ZM72.3411 7.79916L71.214 6.84774L72.3411 7.79916ZM73.3172 7.16829L73.0082 5.72602L73.3172 7.16829ZM74.4003 6.93622L74.7094 8.37849L74.4003 6.93622ZM75.5727 7.03706L75.0932 8.43194L75.5727 7.03706ZM76.8345 7.47082L76.355 8.86569L76.8345 7.47082ZM77.9076 7.20165L76.8167 6.20893L77.9076 7.20165ZM78.7922 6.22956L79.8831 7.22228L78.7922 6.22956ZM80.5532 6.38965L79.9042 7.71419L80.5532 6.38965ZM81.2126 6.71271L81.8616 5.38817L81.2126 6.71271ZM82.2716 6.39105L83.5253 7.16826L82.2716 6.39105ZM82.6714 5.74631L81.4177 4.96909L82.6714 5.74631ZM83.0711 5.10157L81.8175 4.32436L83.0711 5.10157ZM84.0744 4.57213L84.3512 3.12333L84.0744 4.57213ZM85.2816 4.80273L85.0049 6.25154L85.2816 4.80273ZM86.4062 4.72507L86.9185 6.10823L86.4062 4.72507ZM87.448 4.33915L86.9357 2.956L87.448 4.33915ZM88.4631 3.85369L87.7119 2.58435L88.4631 3.85369ZM88.9574 3.56119L88.2061 2.29185L88.9574 3.56119ZM89.4516 3.26868L90.2028 4.53802L89.4516 3.26868ZM90.5253 2.99579L90.4754 4.46995L90.5253 2.99579ZM91.1049 3.01541L91.1548 1.54125L91.1049 3.01541ZM91.6844 3.03502L91.6345 4.50918L91.6844 3.03502ZM92.7627 2.72009L93.5844 3.94501L92.7627 2.72009ZM93.2614 2.38554L92.4397 1.16063L93.2614 2.38554ZM93.7601 2.051L92.9384 0.826079L93.7601 2.051ZM94.89 2.11982L94.0957 3.3627L94.89 2.11982ZM96.1524 2.92657L96.9466 1.68369L96.1524 2.92657ZM97.2801 2.80355L96.2071 1.79144L97.2801 2.80355ZM97.7766 2.27716L96.7036 1.26505L97.7766 2.27716ZM98.2731 1.75077L99.3461 2.76288L98.2731 1.75077ZM99.3494 1.70295L100.288 0.565494L99.3494 1.70295ZM100.509 2.66009L99.5697 3.79755L100.509 2.66009ZM102.699 3.10105L102.665 1.62646L102.699 3.10105ZM103.792 2.8902L104.288 4.27944L103.792 2.8902ZM106.527 2.60434L106.937 1.18758L106.527 2.60434ZM107.061 2.75889L106.65 4.17564L107.061 2.75889ZM108.119 3.06798L108.535 1.6531L108.119 3.06798ZM108.643 3.22251L108.226 4.63738L108.643 3.22251ZM109.168 3.37705L109.584 1.96217L109.168 3.37705ZM110.339 3.19885L109.665 1.88704L110.339 3.19885ZM110.987 2.86612L110.312 1.55431L110.987 2.86612ZM111.634 2.53339L112.308 3.8452L111.634 2.53339ZM112.685 2.79686L111.464 3.624L112.685 2.79686ZM113.089 3.39307L114.31 2.56592L113.089 3.39307ZM113.493 3.98927L112.271 4.81641L113.493 3.98927ZM114.543 4.41859L114.175 2.99035L114.543 4.41859ZM115.837 4.08482L116.205 5.51306L115.837 4.08482ZM116.847 4.47918L115.609 5.28091L116.847 4.47918ZM117.574 5.60166L118.812 4.79992L117.574 5.60166ZM118.432 6.38801L119.043 5.04566L118.432 6.38801ZM119.421 6.83823L120.032 5.49589L119.421 6.83823ZM120.448 7.22986L120.009 8.63786L120.448 7.22986ZM121.515 7.56289L121.076 8.97089L121.515 7.56289ZM122.575 7.93166L123.104 6.55462L122.575 7.93166ZM123.629 8.33617L123.101 9.7132L123.629 8.33617ZM124.507 8.99551L125.677 8.09765L124.507 8.99551ZM125.208 9.9097L124.038 10.8076L125.208 9.9097ZM126.113 10.5594L126.597 9.16623L126.113 10.5594ZM127.222 10.9448L127.706 9.55154L127.222 10.9448ZM127.957 11.7554L126.542 12.1709L127.957 11.7554ZM128.32 12.9912L129.735 12.5757L128.32 12.9912ZM130.709 13.7537L130.613 15.2256L130.709 13.7537ZM131.648 14.3711L130.258 14.8655L131.648 14.3711ZM131.85 14.9403L130.461 15.4347L131.85 14.9403ZM132.053 15.5094L133.443 15.015L132.053 15.5094ZM132.794 16.3662L132.1 17.6676L132.794 16.3662ZM133.334 16.6539L132.639 17.9552L133.334 16.6539ZM133.873 16.9415L134.567 15.6402L133.873 16.9415ZM134.29 17.9915L135.747 18.224L134.29 17.9915ZM134.047 19.5161L132.59 19.2837L134.047 19.5161ZM134.591 20.5099L135.075 19.1167L134.591 20.5099ZM135.257 20.7414L135.741 19.3481L135.257 20.7414ZM135.922 20.9728L135.438 22.366L135.922 20.9728ZM136.537 21.862L138.008 21.9761L136.537 21.862ZM136.486 22.5198L137.957 22.6339L136.486 22.5198ZM136.435 23.1776L134.964 23.0634L136.435 23.1776ZM136.811 24.2378L135.798 25.3108L136.811 24.2378ZM137.237 24.6403L138.249 23.5674L137.237 24.6403ZM137.664 25.0428L136.652 26.1158L137.664 25.0428ZM138.089 26.0374L136.614 26.032L138.089 26.0374ZM138.084 27.2216L139.559 27.227L138.084 27.2216ZM138.302 28.3107L136.953 28.9075L138.302 28.3107ZM138.522 28.8077L137.173 29.4046L138.522 28.8077ZM138.742 29.3047L140.091 28.7079L138.742 29.3047ZM139.5 30.2258L140.413 29.0671L139.5 30.2258ZM140.576 31.0738L139.663 32.2324L140.576 31.0738ZM140.937 32.108L139.521 31.6955L140.937 32.108ZM140.581 33.3283L141.997 33.7408L140.581 33.3283ZM140.515 34.4769L139.07 34.7749L140.515 34.4769ZM140.626 35.0153L139.181 35.3133L140.626 35.0153ZM140.737 35.5538L142.181 35.2558L140.737 35.5538ZM140.702 36.6546L142.129 37.0254L140.702 36.6546ZM140.556 37.217L139.128 36.8462L140.556 37.217ZM140.677 38.873L141.841 37.9662L140.677 38.873ZM141.505 39.9354L140.342 40.8421L141.505 39.9354ZM141.911 41.0263L140.436 41.0037L141.911 41.0263ZM141.902 41.5861L140.428 41.5635L141.902 41.5861ZM141.894 42.1458L143.369 42.1684L141.894 42.1458ZM141.678 43.248L140.3 42.7222L141.678 43.248ZM141.264 44.3327L142.643 44.8585L141.264 44.3327ZM140.969 45.4181L142.425 45.6545L140.969 45.4181ZM140.881 45.9611L142.337 46.1975L140.881 45.9611ZM140.793 46.5041L139.337 46.2678L140.793 46.5041ZM140.776 47.6249L139.312 47.8041L140.776 47.6249ZM140.917 48.7803L142.381 48.6011L140.917 48.7803ZM140.889 49.9095L142.34 50.1708L140.889 49.9095ZM140.69 51.0123L139.238 50.7509L140.69 51.0123ZM140.454 52.1084L141.885 52.4668L140.454 52.1084ZM140.181 53.1976L141.612 53.5561L140.181 53.1976ZM139.91 54.292L141.342 54.6444L139.91 54.292ZM139.774 54.8418L141.207 55.1942L139.774 54.8418ZM139.639 55.3916L138.207 55.0392L139.639 55.3916ZM139.308 56.4728L137.924 55.9634L139.308 56.4728ZM139.113 57.0042L137.729 56.4948L139.113 57.0042ZM138.917 57.5356L137.533 57.0263L138.917 57.5356ZM138.239 58.4533L139.161 59.6047L138.239 58.4533ZM137.757 58.8396L138.679 59.991L137.757 58.8396ZM137.274 59.2259L136.353 58.0746L137.274 59.2259ZM136.388 60.0129L137.427 61.06L136.388 60.0129ZM135.58 60.8141L134.542 59.7669L135.58 60.8141ZM134.916 61.6933L133.621 60.9876L134.916 61.6933ZM134.394 62.6505L135.69 63.3561L134.394 62.6505ZM134.102 63.7906L135.575 63.8613L134.102 63.7906ZM134.07 64.4522L132.597 64.3816L134.07 64.4522ZM134.039 65.1138L132.565 65.0432L134.039 65.1138ZM133.352 65.9579L132.956 64.5371L133.352 65.9579ZM132.042 66.323L132.438 67.7439L132.042 66.323ZM131.293 67.1678L132.753 67.3766L131.293 67.1678ZM131.198 67.83L129.738 67.6213L131.198 67.83ZM131.104 68.4922L132.564 68.701L131.104 68.4922ZM130.329 69.2518L130.12 67.7917L130.329 69.2518ZM129.65 69.3491L129.441 67.889L129.65 69.3491ZM128.97 69.4464L129.18 70.9065L128.97 69.4464ZM127.916 69.9389L126.846 68.9232L127.916 69.9389ZM127.54 70.3341L128.61 71.3498L127.54 70.3341ZM127.165 70.7293L128.235 71.745L127.165 70.7293ZM126.606 71.7907L125.184 71.3985L126.606 71.7907ZM126.238 73.1232L127.66 73.5154L126.238 73.1232ZM125.504 73.983L125.992 75.3746L125.504 73.983ZM124.401 74.3701L124.89 75.7618L124.401 74.3701ZM123.317 74.757L123.82 76.1437L123.317 74.757ZM122.784 74.9502L122.281 73.5635L122.784 74.9502ZM122.251 75.1435L121.748 73.7568L122.251 75.1435ZM121.263 75.6587L120.411 74.4544L121.263 75.6587ZM120.352 76.3026L121.203 77.507L120.352 76.3026ZM119.278 76.5967L119.344 75.1232L119.278 76.5967ZM118.04 76.541L117.974 78.0145L118.04 76.541ZM116.973 76.8518L117.861 78.0294L116.973 76.8518ZM116.075 77.529L115.186 76.3514L116.075 77.529ZM115.093 77.9993L114.739 76.5675L115.093 77.9993ZM114.561 78.1309L114.915 79.5628L114.561 78.1309ZM114.029 78.2626L114.383 79.6944L114.029 78.2626ZM112.963 78.5048L113.263 79.9491L112.963 78.5048ZM112.43 78.6154L112.729 80.0597L112.43 78.6154ZM111.896 78.726L111.597 77.2817L111.896 78.726ZM110.844 79.0119L110.372 77.6144L110.844 79.0119ZM109.806 79.3623L109.334 77.9649L109.806 79.3623ZM108.776 79.8308L108.042 78.551L108.776 79.8308ZM108.264 80.124L108.997 81.4038L108.264 80.124ZM107.752 80.4173L107.019 79.1375L107.752 80.4173ZM106.695 80.8889L106.237 79.4869L106.695 80.8889ZM105.603 81.2456L106.062 82.6476L105.603 81.2456ZM104.486 81.0147L105.344 79.8151L104.486 81.0147ZM103.342 80.1962L102.483 81.3958L103.342 80.1962ZM102.226 79.8749L102.462 81.331L102.226 79.8749ZM101.139 80.0508L100.903 78.5947L101.139 80.0508ZM100.015 80.481L100.764 81.7515L100.015 80.481ZM99.4346 80.8233L98.6852 79.5528L99.4346 80.8233ZM98.8543 81.1656L99.6037 82.436L98.8543 81.1656ZM97.7389 81.258L98.3628 79.9215L97.7389 81.258ZM97.2038 81.0083L96.5799 82.3448L97.2038 81.0083ZM96.6687 80.7585L96.0448 82.095L96.6687 80.7585ZM95.6085 80.3026L96.1476 78.9296L95.6085 80.3026ZM94.5584 79.8903L94.0194 81.2633L94.5584 79.8903ZM93.5037 79.5338L93.1009 80.9528L93.5037 79.5338ZM92.4444 79.2331L92.8472 77.8142L92.4444 79.2331ZM91.348 79.0624L91.4011 77.5883L91.348 79.0624ZM90.7812 79.0419L90.8343 77.5679V77.5679L90.7812 79.0419ZM90.2144 79.0215L90.1612 80.4955L90.2144 79.0215ZM89.1067 78.8828L89.4216 77.4419L89.1067 78.8828ZM88.5658 78.7646L88.2508 80.2056L88.5658 78.7646ZM88.0249 78.6464L87.71 80.0874L88.0249 78.6464ZM86.8976 78.5818L86.7632 77.113L86.8976 78.5818ZM86.3111 78.6355L86.1768 77.1666L86.3111 78.6355ZM85.7247 78.6891L85.8591 80.158L85.7247 78.6891ZM84.6495 78.4279L85.4482 77.1879L84.6495 78.4279ZM84.1607 78.1131L84.9594 76.8731L84.1607 78.1131ZM82.6304 77.4099L82.4357 78.872L82.6304 77.4099ZM82.0777 77.3363L81.883 78.7984L82.0777 77.3363ZM81.525 77.2627L81.7197 75.8006L81.525 77.2627ZM80.5231 76.7249L79.4631 77.7505L80.5231 76.7249ZM79.6247 75.7964L80.6847 74.7707L79.6247 75.7964ZM78.5685 75.4635L78.8803 76.9052L78.5685 75.4635ZM77.3544 75.7261L77.0426 74.2844L77.3544 75.7261ZM76.2621 75.5297L77.0874 74.3072L76.2621 75.5297ZM75.2913 74.8743L76.1166 73.6518L75.2913 74.8743ZM74.2758 74.3879L74.6989 72.9749L74.2758 74.3879ZM73.7456 74.2291L74.1688 72.8161L73.7456 74.2291ZM73.2155 74.0703L72.7924 75.4833L73.2155 74.0703ZM72.1905 73.6197L71.4412 74.8902L72.1905 73.6197ZM71.6956 73.3279L72.4449 72.0574L71.6956 73.3279ZM71.2007 73.036L70.4514 74.3065L71.2007 73.036ZM70.081 72.9428L70.5278 74.3485L70.081 72.9428ZM69.4561 73.1414L69.0094 71.7357L69.4561 73.1414ZM68.8313 73.34L69.2781 74.7457L68.8313 73.34ZM67.6365 73.53L67.6144 75.0048L67.6365 73.53ZM67.0665 73.5214L67.0444 74.9963L67.0665 73.5214ZM66.4966 73.5129L66.5187 72.0381L66.4966 73.5129ZM65.4988 72.9594L66.659 72.0486L65.4988 72.9594ZM65.071 72.4145L63.9109 73.3253L65.071 72.4145ZM64.6432 71.8696L65.8034 70.9587L64.6432 71.8696ZM63.5868 71.5375L64.0598 72.9346L63.5868 71.5375ZM62.3295 71.9632L61.8565 70.5661L62.3295 71.9632ZM61.2098 71.8699L60.4296 73.1217L61.2098 71.8699ZM60.7187 71.5638L61.4989 70.3121L60.7187 71.5638ZM60.2276 71.2577L59.4474 72.5095L60.2276 71.2577ZM59.1466 71.0186L58.9802 69.553L59.1466 71.0186ZM57.9666 71.1525L58.133 72.6181L57.9666 71.1525ZM56.8954 70.8764L57.7516 69.6753L56.8954 70.8764ZM55.9328 70.1902L55.0766 71.3912L55.9328 70.1902ZM54.9753 69.4848L54.0823 70.6589L54.9753 69.4848ZM54.499 69.1226L55.392 67.9486L54.499 69.1226ZM54.0228 68.7604L54.9157 67.5864L54.0228 68.7604ZM52.889 68.7203L52.2402 67.3956L52.889 68.7203ZM51.5739 69.3644L52.2227 70.6891L51.5739 69.3644ZM50.4614 69.2437L49.4326 70.3007L50.4614 69.2437ZM49.5516 68.3582L50.5805 67.3012L49.5516 68.3582ZM48.5622 67.7733L48.9411 66.3478L48.5622 67.7733ZM48.0276 67.6313L48.4065 66.2057L48.0276 67.6313ZM47.4931 67.4892L47.1142 68.9147L47.4931 67.4892ZM46.4532 67.0948L45.7942 68.4144L46.4532 67.0948ZM45.4425 66.5901L46.1014 65.2705L45.4425 66.5901ZM44.3598 66.3571L44.3104 64.883L44.3598 66.3571ZM43.7824 66.3765L43.8318 67.8507L43.7824 66.3765ZM43.2051 66.3958L43.1557 64.9217L43.2051 66.3958ZM42.1693 65.9856L41.1608 67.0619L42.1693 65.9856ZM41.2526 65.1266L42.2611 64.0503L41.2526 65.1266ZM40.1908 64.8147L40.4731 66.2624L40.1908 64.8147ZM39.5874 64.9324L39.8697 66.3801L39.5874 64.9324ZM38.984 65.05L38.7017 63.6023L38.984 65.05ZM37.8975 64.8314L37.0548 66.0419L37.8975 64.8314ZM36.9313 64.1587L37.774 62.9482L36.9313 64.1587ZM35.85 63.9207L35.6109 62.4652L35.85 63.9207ZM35.2517 64.019L35.4908 65.4745L35.2517 64.019ZM34.6534 64.1172L34.8925 65.5727L34.6534 64.1172ZM33.4727 64.254L33.3756 62.7822L33.4727 64.254ZM32.3079 64.3309L32.4051 65.8027L32.3079 64.3309ZM30.7123 63.8743L30.0647 65.1995L30.7123 63.8743ZM30.2057 63.6267L30.8532 62.3015L30.2057 63.6267ZM29.1935 63.1278L28.5367 64.4485L29.1935 63.1278ZM28.1823 62.6249L28.839 61.3042L28.1823 62.6249ZM27.1153 62.3326L27.008 63.8037L27.1153 62.3326ZM26.554 62.2916L26.4467 63.7627L26.554 62.2916ZM25.9926 62.2507L26.0999 60.7796L25.9926 62.2507ZM24.8625 62.1966L24.8967 60.722L24.8625 62.1966ZM23.725 62.1702L23.6908 63.6448L23.725 62.1702ZM22.6647 61.8527L21.8884 63.1069L22.6647 61.8527ZM21.6816 61.2442L22.4579 59.99L21.6816 61.2442ZM20.7118 60.5851L19.8329 61.7697L20.7118 60.5851ZM20.2336 60.2303L21.1125 59.0458L20.2336 60.2303ZM18.6744 59.636L18.3974 58.1873L18.6744 59.636ZM17.4689 59.8665L17.1919 58.4178L17.4689 59.8665ZM16.3298 59.8318L16.727 58.4113L16.3298 59.8318ZM15.257 59.5318L14.8597 60.9523L15.257 59.5318ZM14.2876 58.9609L15.3157 57.9033L14.2876 58.9609ZM13.4217 58.1191L12.3935 59.1768L13.4217 58.1191ZM12.3678 57.6956L12.3616 59.1706L12.3678 57.6956ZM11.126 57.6905L11.1322 56.2155L11.126 57.6905ZM10.2133 57.133L8.90783 57.8195L10.2133 57.133ZM9.62967 56.0232L8.32419 56.7097L9.62967 56.0232ZM8.83466 55.2184L9.4906 53.8973L8.83466 55.2184ZM8.33146 54.9686L8.98741 53.6475L8.33146 54.9686ZM7.82827 54.7187L7.17232 56.0399L7.82827 54.7187ZM6.93995 54.0711L5.88017 55.097L6.93995 54.0711ZM6.16967 53.2754L7.22945 52.2494L6.16967 53.2754ZM5.59848 52.3421L4.2052 52.8262L5.59848 52.3421ZM5.41241 51.8067L6.80568 51.3225L5.41241 51.8067ZM5.22635 51.2712L3.83307 51.7554L5.22635 51.2712ZM4.46953 50.4093L3.73706 51.6895L4.46953 50.4093ZM3.32802 49.7562L4.06048 48.4759L3.32802 49.7562ZM2.53657 48.8942L1.17287 49.4563L2.53657 48.8942ZM2.31588 48.3588L3.67958 47.7967L2.31588 48.3588ZM1.75183 46.7221L0.310316 47.0346L1.75183 46.7221ZM1.50651 45.5906L2.94802 45.278L1.50651 45.5906ZM1.74343 44.4238L3.00918 45.1811L1.74343 44.4238ZM2.46261 43.2218L1.19686 42.4644L2.46261 43.2218ZM2.609 42.0838L1.23811 42.6281L2.609 42.0838ZM2.18262 41.0099L3.55351 40.4656L2.18262 41.0099ZM1.92264 39.3486L0.44892 39.4099L1.92264 39.3486ZM2.05569 37.6936L3.45266 38.167L2.05569 37.6936ZM2.41534 36.6323L1.01838 36.1589L2.41534 36.6323ZM2.82235 35.5964L4.16763 36.2012L2.82235 35.5964ZM3.27672 34.5858L1.93144 33.9809L3.27672 34.5858ZM4.27817 32.6217L2.9753 31.9302L4.27817 32.6217ZM4.8345 31.6715L3.59375 30.8739L4.8345 31.6715ZM5.13274 31.2075L6.37349 32.0051L5.13274 31.2075ZM5.43098 30.7436L4.19023 29.946L5.43098 30.7436ZM5.9694 29.7408L4.62219 29.1403L5.9694 29.7408ZM6.44975 28.6633L5.10255 28.0627L6.44975 28.6633ZM7.38213 28.0784L7.28403 26.6066L7.38213 28.0784ZM8.07432 28.0322L8.17241 29.504L8.07432 28.0322ZM8.76651 27.9861L8.86461 29.4578L8.76651 27.9861ZM9.8085 27.512L10.9506 28.4454L9.8085 27.512ZM10.1583 27.084L11.3004 28.0175L10.1583 27.084ZM10.5081 26.656L9.36604 25.7226L10.5081 26.656ZM12.3911 25.6911L11.9036 24.299L12.3911 25.6911ZM13.3896 25.2948L13.9904 26.6419L13.3896 25.2948ZM13.8771 25.0774L14.4778 26.4245L13.8771 25.0774ZM14.3645 24.86L13.7637 23.5129L14.3645 24.86ZM14.9825 24.4486L13.7591 23.6248L14.9825 24.4486ZM15.2438 24.0607L16.4673 24.8845L15.2438 24.0607ZM15.9121 23.7363L15.5646 22.3028L15.9121 23.7363ZM16.4499 23.6059L16.7974 25.0394L17.3351 24.9091L16.9876 23.4756L16.64 22.0421L16.1023 22.1725L16.4499 23.6059ZM16.9876 23.4756L17.3351 24.9091C17.6298 24.8376 17.9307 24.7854 18.2382 24.7527L18.0821 23.286L17.9259 21.8192C17.4911 21.8655 17.0623 21.9398 16.64 22.0421L16.9876 23.4756ZM18.0821 23.286L18.2382 24.7527L18.795 24.6934L18.6388 23.2267L18.4827 21.76L17.9259 21.8192L18.0821 23.286ZM18.6388 23.2267L18.795 24.6934L19.3518 24.6341L19.1956 23.1674L19.0395 21.7007L18.4827 21.76L18.6388 23.2267ZM19.1956 23.1674L19.3518 24.6341C20.1506 24.5491 20.8019 24.1473 21.2927 23.5982L20.1929 22.6153L19.0931 21.6324C19.0393 21.6926 19.0092 21.7091 19.0089 21.7093C19.0085 21.7095 19.0125 21.7073 19.0201 21.7049C19.0278 21.7025 19.0348 21.7012 19.0395 21.7007L19.1956 23.1674ZM20.1929 22.6153L21.2927 23.5982L21.7331 23.1054L20.6333 22.1225L19.5336 21.1396L19.0931 21.6324L20.1929 22.6153ZM20.6333 22.1225L21.7331 23.1054L22.1736 22.6125L21.0738 21.6296L19.974 20.6467L19.5336 21.1396L20.6333 22.1225ZM21.0738 21.6296L22.1736 22.6125C22.1447 22.6449 22.0298 22.749 21.8298 22.7852C21.6426 22.8191 21.5347 22.7652 21.5577 22.7756L22.1662 21.4319L22.7746 20.0883C22.3631 19.9019 21.8558 19.7826 21.3045 19.8824C20.7404 19.9844 20.2966 20.2858 19.974 20.6467L21.0738 21.6296ZM22.1662 21.4319L21.5577 22.7756L22.2096 23.0708L22.818 21.7271L23.4264 20.3834L22.7746 20.0883L22.1662 21.4319ZM22.818 21.7271L22.2096 23.0708L22.8615 23.3659L23.4699 22.0223L24.0783 20.6786L23.4264 20.3834L22.818 21.7271ZM23.4699 22.0223L22.8615 23.3659C23.2579 23.5455 23.7356 23.664 24.2565 23.5986C24.7934 23.5312 25.245 23.2847 25.5949 22.9516L24.5779 21.8832L23.561 20.8148C23.6068 20.7713 23.7216 20.6926 23.8892 20.6716C24.0407 20.6526 24.1164 20.6959 24.0783 20.6786L23.4699 22.0223ZM24.5779 21.8832L25.5949 22.9516L26.0511 22.5174L25.0341 21.449L24.0172 20.3806L23.561 20.8148L24.5779 21.8832ZM25.0341 21.449L26.0511 22.5174L26.5073 22.0832L25.4903 21.0148L24.4734 19.9464L24.0172 20.3806L25.0341 21.449ZM25.4903 21.0148L26.5073 22.0832C26.5228 22.0684 26.5305 22.0636 26.5295 22.0643C26.5281 22.0651 26.5202 22.07 26.5061 22.0754C26.4918 22.0809 26.4763 22.085 26.4615 22.0871C26.4545 22.0882 26.4487 22.0886 26.4444 22.0888C26.4422 22.0889 26.4406 22.0889 26.4394 22.0889C26.4389 22.0889 26.4384 22.0889 26.4382 22.0889C26.4379 22.0889 26.4377 22.0889 26.4377 22.0889L26.5289 20.6167L26.6201 19.1445C25.7874 19.0929 25.0483 19.3992 24.4734 19.9464L25.4903 21.0148ZM26.5289 20.6167L26.4377 22.0889L27.0201 22.1249L27.1113 20.6528L27.2025 19.1806L26.6201 19.1445L26.5289 20.6167ZM27.1113 20.6528L27.0201 22.1249L27.6024 22.161L27.6936 20.6888L27.7848 19.2166L27.2025 19.1806L27.1113 20.6528ZM27.6936 20.6888L27.6024 22.161C28.2228 22.1994 28.8302 22.0934 29.3999 21.8326L28.786 20.4914L28.1721 19.1503C28.0618 19.2008 27.9409 19.2263 27.7848 19.2166L27.6936 20.6888ZM28.786 20.4914L29.3999 21.8326L29.91 21.5991L29.2961 20.258L28.6822 18.9168L28.1721 19.1503L28.786 20.4914ZM29.2961 20.258L29.91 21.5991L30.42 21.3657L29.8061 20.0245L29.1922 18.6833L28.6822 18.9168L29.2961 20.258ZM29.8061 20.0245L30.42 21.3657C30.6532 21.2589 30.8912 21.1832 31.1364 21.1366L30.8611 19.6875L30.5858 18.2384C30.1044 18.3299 29.6391 18.4787 29.1922 18.6833L29.8061 20.0245ZM30.8611 19.6875L31.1364 21.1366L31.6813 21.0331L31.406 19.584L31.1307 18.1349L30.5858 18.2384L30.8611 19.6875ZM31.406 19.584L31.6813 21.0331L32.2262 20.9296L31.9509 19.4805L31.6757 18.0314L31.1307 18.1349L31.406 19.584ZM31.9509 19.4805L32.2262 20.9296C32.8695 20.8074 33.4379 20.5123 33.9226 20.0957L32.9612 18.977L31.9998 17.8584C31.8641 17.9751 31.759 18.0156 31.6757 18.0314L31.9509 19.4805ZM32.9612 18.977L33.9226 20.0957L34.388 19.6957L33.4266 18.577L32.4652 17.4584L31.9998 17.8584L32.9612 18.977ZM33.4266 18.577L34.388 19.6957L34.8534 19.2957L33.892 18.1771L32.9306 17.0584L32.4652 17.4584L33.4266 18.577ZM33.892 18.1771L34.8534 19.2957C34.8678 19.2833 34.8753 19.279 34.8753 19.279C34.8753 19.279 34.874 19.2798 34.8712 19.2811C34.8684 19.2823 34.8646 19.2839 34.86 19.2854C34.8502 19.2887 34.8406 19.2908 34.8328 19.2917C34.8251 19.2926 34.8236 19.292 34.8298 19.2925L34.942 17.8217L35.0543 16.351C34.2543 16.29 33.5224 16.5498 32.9306 17.0584L33.892 18.1771ZM34.942 17.8217L34.8298 19.2925L35.4144 19.3371L35.5267 17.8664L35.6389 16.3956L35.0543 16.351L34.942 17.8217ZM35.5267 17.8664L35.4144 19.3371L35.9991 19.3817L36.1113 17.911L36.2236 16.4403L35.6389 16.3956L35.5267 17.8664ZM36.1113 17.911L35.9991 19.3817C36.5046 19.4203 37.0053 19.3989 37.4975 19.3126L37.243 17.8598L36.9884 16.4069C36.7514 16.4484 36.4977 16.4612 36.2236 16.4403L36.1113 17.911ZM37.243 17.8598L37.4975 19.3126L38.0445 19.2168L37.7899 17.7639L37.5354 16.3111L36.9884 16.4069L37.243 17.8598ZM37.7899 17.7639L38.0445 19.2168L38.5915 19.1209L38.3369 17.6681L38.0823 16.2152L37.5354 16.3111L37.7899 17.7639ZM38.3369 17.6681L38.5915 19.1209C39.2237 19.0102 39.7902 18.7362 40.2806 18.3407L39.3547 17.1925L38.4288 16.0444C38.2915 16.1551 38.1794 16.1982 38.0823 16.2152L38.3369 17.6681ZM39.3547 17.1925L40.2806 18.3407L40.7515 17.961L39.8255 16.8129L38.8996 15.6647L38.4288 16.0444L39.3547 17.1925ZM39.8255 16.8129L40.7515 17.961L41.2223 17.5813L40.2964 16.4332L39.3704 15.285L38.8996 15.6647L39.8255 16.8129ZM40.2964 16.4332L41.2223 17.5813C41.3933 17.4434 41.5485 17.3685 41.6911 17.3294L41.3006 15.907L40.91 14.4847C40.3414 14.6408 39.8272 14.9167 39.3704 15.285L40.2964 16.4332ZM41.3006 15.907L41.6911 17.3294L42.2245 17.1829L41.834 15.7606L41.4434 14.3382L40.91 14.4847L41.3006 15.907ZM41.834 15.7606L42.2245 17.1829L42.7579 17.0365L42.3674 15.6141L41.9768 14.1918L41.4434 14.3382L41.834 15.7606ZM42.3674 15.6141L42.7579 17.0365C42.9116 16.9943 43.0903 16.9784 43.3084 17.006L43.4936 15.5427L43.6788 14.0794C43.1064 14.0069 42.5344 14.0387 41.9768 14.1918L42.3674 15.6141ZM43.4936 15.5427L43.3084 17.006L43.9012 17.081L44.0864 15.6177L44.2716 14.1544L43.6788 14.0794L43.4936 15.5427ZM44.0864 15.6177L43.9012 17.081L44.494 17.1561L44.6792 15.6927L44.8644 14.2294L44.2716 14.1544L44.0864 15.6177ZM44.6792 15.6927L44.494 17.1561C44.8558 17.2018 45.2225 17.2608 45.5942 17.3333L45.8763 15.8855L46.1584 14.4377C45.7244 14.3532 45.293 14.2837 44.8644 14.2294L44.6792 15.6927ZM45.8763 15.8855L45.5942 17.3333L46.1984 17.451L46.4805 16.0032L46.7626 14.5555L46.1584 14.4377L45.8763 15.8855ZM46.4805 16.0032L46.1984 17.451L46.8027 17.5688L47.0848 16.121L47.3669 14.6732L46.7626 14.5555L46.4805 16.0032ZM47.0848 16.121L46.8027 17.5688C47.3045 17.6665 47.8355 17.611 48.3265 17.3517C48.7931 17.1053 49.1181 16.7312 49.3438 16.3649L48.088 15.5912L46.8323 14.8175C46.7919 14.8829 46.8168 14.8129 46.9489 14.7431C47.0168 14.7073 47.096 14.681 47.1795 14.6699C47.2616 14.659 47.3267 14.6654 47.3669 14.6732L47.0848 16.121ZM48.088 15.5912L49.3438 16.3649L49.7428 15.7174L48.487 14.9436L47.2312 14.1699L46.8323 14.8175L48.088 15.5912ZM48.487 14.9436L49.7428 15.7174L50.1418 15.0698L48.886 14.2961L47.6302 13.5224L47.2312 14.1699L48.487 14.9436ZM48.886 14.2961L50.1418 15.0698C50.1737 15.018 50.1247 15.123 49.944 15.2039C49.853 15.2447 49.7552 15.2665 49.662 15.2697C49.5721 15.2729 49.5085 15.2581 49.4795 15.2493L49.9085 13.8381L50.3375 12.4269C49.8479 12.278 49.2855 12.2665 48.7381 12.5117C48.2166 12.7453 47.8642 13.1425 47.6302 13.5224L48.886 14.2961ZM49.9085 13.8381L49.4795 15.2493L50.103 15.4389L50.532 14.0276L50.961 12.6164L50.3375 12.4269L49.9085 13.8381ZM50.532 14.0276L50.103 15.4389L50.7265 15.6284L51.1555 14.2172L51.5845 12.8059L50.961 12.6164L50.532 14.0276ZM51.1555 14.2172L50.7265 15.6284C51.5606 15.882 52.4377 15.7666 53.167 15.1892L52.2514 14.0328L51.3358 12.8763C51.3433 12.8704 51.3622 12.8569 51.3928 12.8429C51.4239 12.8287 51.4595 12.8175 51.4965 12.8113C51.5745 12.7982 51.6117 12.8142 51.5845 12.8059L51.1555 14.2172ZM52.2514 14.0328L53.167 15.1892L53.6394 14.8152L52.7238 13.6588L51.8082 12.5023L51.3358 12.8763L52.2514 14.0328ZM52.7238 13.6588L53.6394 14.8152L54.1117 14.4412L53.1961 13.2848L52.2806 12.1284L51.8082 12.5023L52.7238 13.6588ZM53.1961 13.2848L54.1117 14.4412C54.3254 14.272 54.5343 14.1516 54.7385 14.069L54.1851 12.7017L53.6317 11.3345C53.1471 11.5306 52.6967 11.7989 52.2806 12.1284L53.1961 13.2848ZM54.1851 12.7017L54.7385 14.069L55.2551 13.8599L54.7017 12.4927L54.1483 11.1254L53.6317 11.3345L54.1851 12.7017ZM54.7017 12.4927L55.2551 13.8599L55.7717 13.6508L55.2183 12.2836L54.6649 10.9163L54.1483 11.1254L54.7017 12.4927ZM55.2183 12.2836L55.7717 13.6508C55.9061 13.5964 56.0546 13.5692 56.2354 13.5791L56.3161 12.1063L56.3967 10.6335C55.8026 10.601 55.2193 10.6919 54.6649 10.9163L55.2183 12.2836ZM56.3161 12.1063L56.2354 13.5791L56.8167 13.6109L56.8973 12.1381L56.9779 10.6653L56.3967 10.6335L56.3161 12.1063ZM56.8973 12.1381L56.8167 13.6109L57.3979 13.6427L57.4785 12.1699L57.5592 10.6972L56.9779 10.6653L56.8973 12.1381ZM57.4785 12.1699L57.3979 13.6427C58.1099 13.6817 58.7841 13.4928 59.3726 13.0933L58.5442 11.8729L57.7158 10.6525C57.6583 10.6915 57.6221 10.7006 57.5592 10.6972L57.4785 12.1699ZM58.5442 11.8729L59.3726 13.0933L59.8571 12.7645L59.0287 11.5441L58.2003 10.3237L57.7158 10.6525L58.5442 11.8729ZM59.0287 11.5441L59.8571 12.7645L60.3415 12.4356L59.5131 11.2152L58.6847 9.99483L58.2003 10.3237L59.0287 11.5441ZM59.5131 11.2152L60.3415 12.4356C60.3251 12.4468 60.2985 12.4619 60.2623 12.4748C60.2259 12.4879 60.1889 12.4955 60.155 12.4982C60.0858 12.5038 60.0669 12.4869 60.1178 12.5059L60.6341 11.1242L61.1503 9.74249C60.3606 9.44742 59.4709 9.46119 58.6847 9.99483L59.5131 11.2152ZM60.6341 11.1242L60.1178 12.5059L60.7543 12.7437L61.2706 11.362L61.7868 9.9803L61.1503 9.74249L60.6341 11.1242ZM61.2706 11.362L60.7543 12.7437L61.3908 12.9815L61.907 11.5998L62.4233 10.2181L61.7868 9.9803L61.2706 11.362ZM61.907 11.5998L61.3908 12.9815C61.7966 13.1331 62.2665 13.2106 62.7634 13.1198C63.2679 13.0276 63.6896 12.782 64.0206 12.4642L62.9989 11.4003L61.9772 10.3364C62.0045 10.3102 62.0925 10.2436 62.2331 10.2179C62.3661 10.1936 62.4418 10.225 62.4233 10.2181L61.907 11.5998ZM62.9989 11.4003L64.0206 12.4642L64.4759 12.0269L63.4542 10.963L62.4326 9.89914L61.9772 10.3364L62.9989 11.4003ZM63.4542 10.963L64.4759 12.0269L64.9313 11.5896L63.9096 10.5257L62.8879 9.46183L62.4326 9.89914L63.4542 10.963ZM63.9096 10.5257L64.9313 11.5896C64.9244 11.5962 64.8681 11.6445 64.7643 11.6705C64.6616 11.6962 64.5945 11.6796 64.5952 11.6798L64.9828 10.2566L65.3703 8.83345C64.467 8.58745 63.572 8.80494 62.8879 9.46183L63.9096 10.5257ZM64.9828 10.2566L64.5952 11.6798L65.2131 11.848L65.6006 10.4249L65.9882 9.00169L65.3703 8.83345L64.9828 10.2566ZM65.6006 10.4249L65.2131 11.848L65.8309 12.0163L66.2184 10.5931L66.606 9.16992L65.9882 9.00169L65.6006 10.4249ZM66.2184 10.5931L65.8309 12.0163C66.6063 12.2274 67.4193 12.1437 68.1347 11.672L67.3229 10.4405L66.511 9.20906C66.5151 9.20638 66.5265 9.19956 66.5447 9.1926C66.5632 9.18555 66.5828 9.18055 66.6016 9.17795C66.6417 9.17242 66.6483 9.18146 66.606 9.16992L66.2184 10.5931ZM67.3229 10.4405L68.1347 11.672L68.6213 11.3512L67.8095 10.1197L66.9976 8.88826L66.511 9.20906L67.3229 10.4405ZM67.8095 10.1197L68.6213 11.3512L69.108 11.0304L68.2961 9.79892L67.4843 8.56745L66.9976 8.88826L67.8095 10.1197ZM68.2961 9.79892L69.108 11.0304C69.2236 10.9542 69.3253 10.9234 69.4342 10.9169L69.3464 9.4445L69.2586 7.97212C68.616 8.01044 68.0174 8.21595 67.4843 8.56745L68.2961 9.79892ZM69.3464 9.4445L69.4342 10.9169L69.9979 10.8833L69.9101 9.41089L69.8223 7.9385L69.2586 7.97212L69.3464 9.4445ZM69.9101 9.41089L69.9979 10.8833L70.5615 10.8497L70.4737 9.37727L70.3859 7.90489L69.8223 7.9385L69.9101 9.41089ZM70.4737 9.37727L70.5615 10.8497C71.4175 10.7986 72.1033 10.3677 72.5991 9.78024L71.472 8.82882L70.3448 7.87741C70.2959 7.93542 70.2763 7.94079 70.2949 7.93062C70.304 7.92561 70.3184 7.91903 70.3371 7.91362C70.3558 7.9082 70.3729 7.90567 70.3859 7.90489L70.4737 9.37727ZM71.472 8.82882L72.5991 9.78024L73.0337 9.2654L71.9065 8.31399L70.7794 7.36257L70.3448 7.87741L71.472 8.82882ZM71.9065 8.31399L73.0337 9.2654L73.4682 8.75057L72.3411 7.79916L71.214 6.84774L70.7794 7.36257L71.9065 8.31399ZM72.3411 7.79916L73.4682 8.75057C73.5337 8.67303 73.5805 8.63739 73.603 8.62282C73.6143 8.61556 73.6209 8.61257 73.6232 8.61161C73.6254 8.6107 73.6261 8.61059 73.6262 8.61055L73.3172 7.16829L73.0082 5.72602C72.2631 5.88566 71.6676 6.31035 71.214 6.84774L72.3411 7.79916ZM73.3172 7.16829L73.6262 8.61055L74.1678 8.49452L73.8588 7.05225L73.5498 5.60999L73.0082 5.72602L73.3172 7.16829ZM73.8588 7.05225L74.1678 8.49452L74.7094 8.37849L74.4003 6.93622L74.0913 5.49395L73.5498 5.60999L73.8588 7.05225ZM74.4003 6.93622L74.7094 8.37849C74.7591 8.36783 74.8742 8.35666 75.0932 8.43194L75.5727 7.03706L76.0523 5.64219C75.4301 5.4283 74.7637 5.34989 74.0913 5.49395L74.4003 6.93622ZM75.5727 7.03706L75.0932 8.43194L75.7241 8.64882L76.2036 7.25394L76.6831 5.85907L76.0523 5.64219L75.5727 7.03706ZM76.2036 7.25394L75.7241 8.64882L76.355 8.86569L76.8345 7.47082L77.314 6.07594L76.6831 5.85907L76.2036 7.25394ZM76.8345 7.47082L76.355 8.86569C76.7791 9.01151 77.2686 9.07017 77.777 8.94265C78.2872 8.81469 78.693 8.53019 78.9986 8.19437L77.9076 7.20165L76.8167 6.20893C76.8274 6.19714 76.9069 6.11952 77.0594 6.08128C77.21 6.04349 77.3104 6.07471 77.314 6.07594L76.8345 7.47082ZM77.9076 7.20165L78.9986 8.19437L79.4409 7.70833L78.3499 6.7156L77.259 5.72288L76.8167 6.20893L77.9076 7.20165ZM78.3499 6.7156L79.4409 7.70833L79.8831 7.22228L78.7922 6.22956L77.7013 5.23684L77.259 5.72288L78.3499 6.7156ZM78.7922 6.22956L79.8831 7.22228C79.8446 7.26463 79.7162 7.37361 79.5046 7.40491C79.312 7.4334 79.2088 7.37346 79.2449 7.39113L79.8939 6.06658L80.5429 4.74203C80.1394 4.54432 79.6327 4.40385 79.0729 4.48667C78.4941 4.5723 78.0347 4.87045 77.7013 5.23684L78.7922 6.22956ZM79.8939 6.06658L79.2449 7.39113L79.9042 7.71419L80.5532 6.38965L81.2022 5.0651L80.5429 4.74203L79.8939 6.06658ZM80.5532 6.38965L79.9042 7.71419L80.5636 8.03726L81.2126 6.71271L81.8616 5.38817L81.2022 5.0651L80.5532 6.38965ZM81.2126 6.71271L80.5636 8.03726C81.0064 8.25427 81.598 8.39884 82.2357 8.20517C82.8642 8.01428 83.2734 7.57442 83.5253 7.16826L82.2716 6.39105L81.018 5.61383C81.0033 5.6375 81.1029 5.46616 81.3783 5.38249C81.663 5.29605 81.8582 5.38654 81.8616 5.38817L81.2126 6.71271ZM82.2716 6.39105L83.5253 7.16826L83.925 6.52352L82.6714 5.74631L81.4177 4.96909L81.018 5.61383L82.2716 6.39105ZM82.6714 5.74631L83.925 6.52352L84.3247 5.87879L83.0711 5.10157L81.8175 4.32436L81.4177 4.96909L82.6714 5.74631ZM83.0711 5.10157L84.3247 5.87879C84.3648 5.81405 84.3404 5.88265 84.2101 5.95136C84.1433 5.98662 84.0654 6.01255 83.983 6.02369C83.9021 6.03463 83.8376 6.02857 83.7977 6.02094L84.0744 4.57213L84.3512 3.12333C83.8505 3.02769 83.322 3.08451 82.8334 3.34232C82.3687 3.58751 82.0438 3.95927 81.8175 4.32436L83.0711 5.10157ZM84.0744 4.57213L83.7977 6.02094L84.4013 6.13624L84.678 4.68743L84.9548 3.23863L84.3512 3.12333L84.0744 4.57213ZM84.678 4.68743L84.4013 6.13624L85.0049 6.25154L85.2816 4.80273L85.5584 3.35393L84.9548 3.23863L84.678 4.68743ZM85.2816 4.80273L85.0049 6.25154C85.6425 6.37333 86.2929 6.33998 86.9185 6.10823L86.4062 4.72507L85.8938 3.34191C85.8249 3.36744 85.7256 3.38586 85.5584 3.35393L85.2816 4.80273ZM86.4062 4.72507L86.9185 6.10823L87.4394 5.91527L86.9271 4.53211L86.4147 3.14896L85.8938 3.34191L86.4062 4.72507ZM86.9271 4.53211L87.4394 5.91527L87.9604 5.72231L87.448 4.33915L86.9357 2.956L86.4147 3.14896L86.9271 4.53211ZM87.448 4.33915L87.9604 5.72231C88.3933 5.56195 88.8114 5.36154 89.2144 5.12303L88.4631 3.85369L87.7119 2.58435C87.4559 2.73585 87.1973 2.85908 86.9357 2.956L87.448 4.33915ZM88.4631 3.85369L89.2144 5.12303L89.7086 4.83052L88.9574 3.56119L88.2061 2.29185L87.7119 2.58435L88.4631 3.85369ZM88.9574 3.56119L89.7086 4.83052L90.2028 4.53802L89.4516 3.26868L88.7003 1.99935L88.2061 2.29185L88.9574 3.56119ZM89.4516 3.26868L90.2028 4.53802C90.2878 4.48776 90.3673 4.46629 90.4754 4.46995L90.5253 2.99579L90.5752 1.52164C89.9106 1.49914 89.2743 1.6596 88.7003 1.99935L89.4516 3.26868ZM90.5253 2.99579L90.4754 4.46995L91.055 4.48956L91.1049 3.01541L91.1548 1.54125L90.5752 1.52164L90.5253 2.99579ZM91.1049 3.01541L91.055 4.48956L91.6345 4.50918L91.6844 3.03502L91.7343 1.56087L91.1548 1.54125L91.1049 3.01541ZM91.6844 3.03502L91.6345 4.50918C92.3419 4.53312 93.0045 4.33399 93.5844 3.94501L92.7627 2.72009L91.941 1.49517C91.8559 1.55225 91.7996 1.56308 91.7343 1.56087L91.6844 3.03502ZM92.7627 2.72009L93.5844 3.94501L94.0831 3.61046L93.2614 2.38554L92.4397 1.16063L91.941 1.49517L92.7627 2.72009ZM93.2614 2.38554L94.0831 3.61046L94.5818 3.27592L93.7601 2.051L92.9384 0.826079L92.4397 1.16063L93.2614 2.38554ZM93.7601 2.051L94.5818 3.27592C94.5468 3.29936 94.4918 3.32866 94.4183 3.34941C94.3437 3.37045 94.2692 3.37728 94.2022 3.3732C94.0719 3.36526 94.0307 3.32117 94.0957 3.3627L94.89 2.11982L95.6843 0.876946C95.3284 0.649564 94.8886 0.459544 94.3816 0.428661C93.8502 0.39629 93.3556 0.546201 92.9384 0.826079L93.7601 2.051ZM94.89 2.11982L94.0957 3.3627L94.7269 3.76607L95.5212 2.5232L96.3154 1.28032L95.6843 0.876946L94.89 2.11982ZM95.5212 2.5232L94.7269 3.76607L95.3581 4.16944L96.1524 2.92657L96.9466 1.68369L96.3154 1.28032L95.5212 2.5232ZM96.1524 2.92657L95.3581 4.16944C95.7605 4.42661 96.2938 4.631 96.9098 4.5638C97.5337 4.49574 98.0149 4.17414 98.353 3.81566L97.2801 2.80355L96.2071 1.79144C96.2142 1.78388 96.3419 1.65825 96.5899 1.6312C96.83 1.60501 96.965 1.69543 96.9466 1.68369L96.1524 2.92657ZM97.2801 2.80355L98.353 3.81566L98.8496 3.28927L97.7766 2.27716L96.7036 1.26505L96.2071 1.79144L97.2801 2.80355ZM97.7766 2.27716L98.8496 3.28927L99.3461 2.76288L98.2731 1.75077L97.2002 0.738658L96.7036 1.26505L97.7766 2.27716ZM98.2731 1.75077L99.3461 2.76288C99.3412 2.76809 99.1761 2.93494 98.8559 2.94916C98.5479 2.96285 98.3872 2.82136 98.4103 2.8404L99.3494 1.70295L100.288 0.565494C99.925 0.265493 99.3917 -0.0275526 98.725 0.00207138C98.0461 0.032238 97.5361 0.382517 97.2002 0.738658L98.2731 1.75077ZM99.3494 1.70295L98.4103 2.8404L98.99 3.31897L99.929 2.18152L100.868 1.04406L100.288 0.565494L99.3494 1.70295ZM99.929 2.18152L98.99 3.31897L99.5697 3.79755L100.509 2.66009L101.448 1.52264L100.868 1.04406L99.929 2.18152ZM100.509 2.66009L99.5697 3.79755C100.121 4.25269 100.828 4.62014 101.66 4.60072L101.625 3.12613L101.591 1.65153C101.643 1.65031 101.665 1.66284 101.646 1.65467C101.622 1.64455 101.555 1.61114 101.448 1.52264L100.509 2.66009ZM101.625 3.12613L101.66 4.60072L102.197 4.58819L102.162 3.11359L102.128 1.63899L101.591 1.65153L101.625 3.12613ZM102.162 3.11359L102.197 4.58819L102.734 4.57565L102.699 3.10105L102.665 1.62646L102.128 1.63899L102.162 3.11359ZM102.699 3.10105L102.734 4.57565C103.264 4.56328 103.784 4.45933 104.288 4.27944L103.792 2.8902L103.297 1.50096C103.06 1.5855 102.851 1.62212 102.665 1.62646L102.699 3.10105ZM103.792 2.8902L104.288 4.27944L104.844 4.08112L104.348 2.69188L103.853 1.30264L103.297 1.50096L103.792 2.8902ZM104.348 2.69188L104.844 4.08112L105.4 3.8828L104.904 2.49356L104.408 1.10432L103.853 1.30264L104.348 2.69188ZM104.904 2.49356L105.4 3.8828C105.498 3.84772 105.544 3.85521 105.583 3.86654L105.993 2.44979L106.404 1.03303C105.732 0.8383 105.051 0.874968 104.408 1.10432L104.904 2.49356ZM105.993 2.44979L105.583 3.86654L106.117 4.02109L106.527 2.60434L106.937 1.18758L106.404 1.03303L105.993 2.44979ZM106.527 2.60434L106.117 4.02109L106.65 4.17564L107.061 2.75889L107.471 1.34213L106.937 1.18758L106.527 2.60434ZM107.061 2.75889L106.65 4.17564C107.004 4.27807 107.354 4.38047 107.702 4.48285L108.119 3.06798L108.535 1.6531C108.184 1.54944 107.829 1.44578 107.471 1.34213L107.061 2.75889ZM108.119 3.06798L107.702 4.48285L108.226 4.63738L108.643 3.22251L109.06 1.80764L108.535 1.6531L108.119 3.06798ZM108.643 3.22251L108.226 4.63738L108.751 4.79192L109.168 3.37705L109.584 1.96217L109.06 1.80764L108.643 3.22251ZM109.168 3.37705L108.751 4.79192C109.571 5.03358 110.36 4.8469 111.014 4.51066L110.339 3.19885L109.665 1.88704C109.56 1.94099 109.507 1.95058 109.501 1.95153C109.499 1.95187 109.507 1.95041 109.524 1.95142C109.542 1.95244 109.563 1.95572 109.584 1.96217L109.168 3.37705ZM110.339 3.19885L111.014 4.51066L111.661 4.17793L110.987 2.86612L110.312 1.55431L109.665 1.88704L110.339 3.19885ZM110.987 2.86612L111.661 4.17793L112.308 3.8452L111.634 2.53339L110.96 1.22158L110.312 1.55431L110.987 2.86612ZM111.634 2.53339L112.308 3.8452C112.316 3.8412 112.138 3.93288 111.862 3.86362C111.583 3.79365 111.464 3.62513 111.464 3.624L112.685 2.79686L113.906 1.96972C113.636 1.57112 113.208 1.15995 112.579 1.00216C111.952 0.845079 111.383 1.00375 110.96 1.22158L111.634 2.53339ZM112.685 2.79686L111.464 3.624L111.867 4.22021L113.089 3.39307L114.31 2.56592L113.906 1.96972L112.685 2.79686ZM113.089 3.39307L111.867 4.22021L112.271 4.81641L113.493 3.98927L114.714 3.16213L114.31 2.56592L113.089 3.39307ZM113.493 3.98927L112.271 4.81641C112.525 5.19151 112.891 5.5523 113.399 5.76011C113.918 5.97207 114.445 5.96725 114.912 5.84683L114.543 4.41859L114.175 2.99035C114.21 2.98118 114.347 2.96044 114.515 3.02929C114.673 3.094 114.729 3.1845 114.714 3.16213L113.493 3.98927ZM114.543 4.41859L114.912 5.84683L115.559 5.67994L115.19 4.25171L114.822 2.82347L114.175 2.99035L114.543 4.41859ZM115.19 4.25171L115.559 5.67994L116.205 5.51306L115.837 4.08482L115.469 2.65658L114.822 2.82347L115.19 4.25171ZM115.837 4.08482L116.205 5.51306C116.192 5.51657 116.058 5.54475 115.877 5.47401C115.696 5.40331 115.616 5.29208 115.609 5.28091L116.847 4.47918L118.085 3.67745C117.836 3.29212 117.467 2.92808 116.949 2.72593C116.431 2.52373 115.913 2.54183 115.469 2.65658L115.837 4.08482ZM116.847 4.47918L115.609 5.28091L115.973 5.84215L117.211 5.04042L118.449 4.23868L118.085 3.67745L116.847 4.47918ZM117.211 5.04042L115.973 5.84215L116.336 6.40339L117.574 5.60166L118.812 4.79992L118.449 4.23868L117.211 5.04042ZM117.574 5.60166L116.336 6.40339C116.696 6.95914 117.181 7.43922 117.821 7.73036L118.432 6.38801L119.043 5.04566C119.023 5.03664 118.937 4.99249 118.812 4.79992L117.574 5.60166ZM118.432 6.38801L117.821 7.73036L118.315 7.95547L118.926 6.61312L119.538 5.27077L119.043 5.04566L118.432 6.38801ZM118.926 6.61312L118.315 7.95547L118.809 8.18058L119.421 6.83823L120.032 5.49589L119.538 5.27077L118.926 6.61312ZM119.421 6.83823L118.809 8.18058C119.196 8.35682 119.596 8.50909 120.009 8.63786L120.448 7.22986L120.888 5.82187C120.589 5.72862 120.304 5.61981 120.032 5.49589L119.421 6.83823ZM120.448 7.22986L120.009 8.63786L120.542 8.80437L120.982 7.39638L121.421 5.98838L120.888 5.82187L120.448 7.22986ZM120.982 7.39638L120.542 8.80437L121.076 8.97089L121.515 7.56289L121.955 6.15489L121.421 5.98838L120.982 7.39638ZM121.515 7.56289L121.076 8.97089C121.401 9.07243 121.725 9.18501 122.047 9.30869L122.575 7.93166L123.104 6.55462C122.724 6.40863 122.341 6.27536 121.955 6.15489L121.515 7.56289ZM122.575 7.93166L122.047 9.30869L122.574 9.51095L123.102 8.13391L123.631 6.75688L123.104 6.55462L122.575 7.93166ZM123.102 8.13391L122.574 9.51095L123.101 9.7132L123.629 8.33617L124.158 6.95913L123.631 6.75688L123.102 8.13391ZM123.629 8.33617L123.101 9.7132C123.192 9.74842 123.265 9.79975 123.337 9.89337L124.507 8.99551L125.677 8.09765C125.281 7.58181 124.769 7.19358 124.158 6.95913L123.629 8.33617ZM124.507 8.99551L123.337 9.89337L123.687 10.3505L124.858 9.45261L126.028 8.55474L125.677 8.09765L124.507 8.99551ZM124.858 9.45261L123.687 10.3505L124.038 10.8076L125.208 9.9097L126.378 9.01184L126.028 8.55474L124.858 9.45261ZM125.208 9.9097L124.038 10.8076C124.451 11.3453 124.993 11.7315 125.629 11.9527L126.113 10.5594L126.597 9.16623C126.495 9.13053 126.434 9.08358 126.378 9.01184L125.208 9.9097ZM126.113 10.5594L125.629 11.9527L126.183 12.1453L126.667 10.7521L127.152 9.35888L126.597 9.16623L126.113 10.5594ZM126.667 10.7521L126.183 12.1453L126.737 12.338L127.222 10.9448L127.706 9.55154L127.152 9.35888L126.667 10.7521ZM127.222 10.9448L126.737 12.338C126.725 12.3338 126.702 12.3241 126.673 12.3052C126.643 12.2861 126.615 12.2621 126.59 12.235C126.539 12.1783 126.533 12.1412 126.542 12.1709L127.957 11.7554L129.372 11.3398C129.133 10.5228 128.574 9.85339 127.706 9.55154L127.222 10.9448ZM127.957 11.7554L126.542 12.1709L126.723 12.7888L128.139 12.3733L129.554 11.9578L129.372 11.3398L127.957 11.7554ZM128.139 12.3733L126.723 12.7888L126.905 13.4068L128.32 12.9912L129.735 12.5757L129.554 11.9578L128.139 12.3733ZM128.32 12.9912L126.905 13.4068C127.044 13.8809 127.321 14.332 127.774 14.6603C128.21 14.9774 128.7 15.1003 129.141 15.1292L129.237 13.6574L129.334 12.1855C129.284 12.1823 129.376 12.1781 129.507 12.2732C129.572 12.3203 129.627 12.3786 129.669 12.441C129.71 12.5016 129.728 12.5513 129.735 12.5757L128.32 12.9912ZM129.237 13.6574L129.141 15.1292L129.877 15.1774L129.973 13.7056L130.07 12.2337L129.334 12.1855L129.237 13.6574ZM129.973 13.7056L129.877 15.1774L130.613 15.2256L130.709 13.7537L130.806 12.2819L130.07 12.2337L129.973 13.7056ZM130.709 13.7537L130.613 15.2256C130.681 15.23 130.615 15.2391 130.501 15.1644C130.444 15.1264 130.388 15.0758 130.342 15.0154C130.296 14.956 130.271 14.9018 130.258 14.8655L131.648 14.3711L133.038 13.8767C132.871 13.4088 132.568 12.9929 132.123 12.6999C131.696 12.4194 131.228 12.3096 130.806 12.2819L130.709 13.7537ZM131.648 14.3711L130.258 14.8655L130.461 15.4347L131.85 14.9403L133.24 14.4458L133.038 13.8767L131.648 14.3711ZM131.85 14.9403L130.461 15.4347L130.663 16.0039L132.053 15.5094L133.443 15.015L133.24 14.4458L131.85 14.9403ZM132.053 15.5094L130.663 16.0039C130.923 16.7339 131.421 17.305 132.1 17.6676L132.794 16.3662L133.489 15.0649C133.471 15.0556 133.462 15.0488 133.458 15.0457C133.454 15.0428 133.454 15.0419 133.455 15.0429C133.456 15.044 133.455 15.044 133.454 15.0415C133.452 15.0387 133.448 15.0307 133.443 15.015L132.053 15.5094ZM132.794 16.3662L132.1 17.6676L132.639 17.9552L133.334 16.6539L134.028 15.3525L133.489 15.0649L132.794 16.3662ZM133.334 16.6539L132.639 17.9552L133.178 18.2429L133.873 16.9415L134.567 15.6402L134.028 15.3525L133.334 16.6539ZM133.873 16.9415L133.178 18.2429C133.137 18.221 133.077 18.1805 133.016 18.1138C132.953 18.0459 132.906 17.9688 132.876 17.8928C132.818 17.7467 132.847 17.6747 132.834 17.759L134.29 17.9915L135.747 18.224C135.814 17.8 135.814 17.299 135.617 16.8029C135.408 16.2763 135.027 15.8859 134.567 15.6402L133.873 16.9415ZM134.29 17.9915L132.834 17.759L132.712 18.5213L134.168 18.7538L135.625 18.9863L135.747 18.224L134.29 17.9915ZM134.168 18.7538L132.712 18.5213L132.59 19.2837L134.047 19.5161L135.503 19.7486L135.625 18.9863L134.168 18.7538ZM134.047 19.5161L132.59 19.2837C132.517 19.7448 132.532 20.3133 132.828 20.8541C133.135 21.4137 133.627 21.7365 134.107 21.9031L134.591 20.5099L135.075 19.1167C135.111 19.1291 135.291 19.2091 135.416 19.4374C135.53 19.647 135.496 19.7957 135.503 19.7486L134.047 19.5161ZM134.591 20.5099L134.107 21.9031L134.772 22.1346L135.257 20.7414L135.741 19.3481L135.075 19.1167L134.591 20.5099ZM135.257 20.7414L134.772 22.1346L135.438 22.366L135.922 20.9728L136.407 19.5796L135.741 19.3481L135.257 20.7414ZM135.922 20.9728L135.438 22.366C135.454 22.3716 135.318 22.3273 135.196 22.1496C135.066 21.9616 135.063 21.7894 135.066 21.7479L136.537 21.862L138.008 21.9761C138.045 21.4961 137.957 20.9564 137.622 20.4721C137.294 19.9979 136.835 19.7283 136.407 19.5796L135.922 20.9728ZM136.537 21.862L135.066 21.7479L135.015 22.4057L136.486 22.5198L137.957 22.6339L138.008 21.9761L136.537 21.862ZM136.486 22.5198L135.015 22.4057L134.964 23.0634L136.435 23.1776L137.906 23.2917L137.957 22.6339L136.486 22.5198ZM136.435 23.1776L134.964 23.0634C134.901 23.8838 135.146 24.6957 135.798 25.3108L136.811 24.2378L137.823 23.1649C137.831 23.1722 137.844 23.1868 137.859 23.2091C137.874 23.2316 137.885 23.2558 137.894 23.2789C137.911 23.3273 137.902 23.3405 137.906 23.2917L136.435 23.1776ZM136.811 24.2378L135.798 25.3108L136.225 25.7133L137.237 24.6403L138.249 23.5674L137.823 23.1649L136.811 24.2378ZM137.237 24.6403L136.225 25.7133L136.652 26.1158L137.664 25.0428L138.676 23.9699L138.249 23.5674L137.237 24.6403ZM137.664 25.0428L136.652 26.1158C136.657 26.1205 136.654 26.1188 136.648 26.1099C136.641 26.1008 136.634 26.0878 136.627 26.0718C136.62 26.0558 136.616 26.042 136.615 26.0325C136.613 26.0234 136.614 26.0225 136.614 26.032L138.089 26.0374L139.564 26.0429C139.566 25.2445 139.261 24.5212 138.676 23.9699L137.664 25.0428ZM138.089 26.0374L136.614 26.032L136.611 26.6241L138.086 26.6295L139.561 26.6349L139.564 26.0429L138.089 26.0374ZM138.086 26.6295L136.611 26.6241L136.609 27.2162L138.084 27.2216L139.559 27.227L139.561 26.6349L138.086 26.6295ZM138.084 27.2216L136.609 27.2162C136.607 27.7995 136.715 28.3701 136.953 28.9075L138.302 28.3107L139.651 27.7138C139.595 27.5886 139.558 27.4331 139.559 27.227L138.084 27.2216ZM138.302 28.3107L136.953 28.9075L137.173 29.4046L138.522 28.8077L139.871 28.2109L139.651 27.7138L138.302 28.3107ZM138.522 28.8077L137.173 29.4046L137.393 29.9016L138.742 29.3047L140.091 28.7079L139.871 28.2109L138.522 28.8077ZM138.742 29.3047L137.393 29.9016C137.659 30.5029 138.087 30.9908 138.587 31.3844L139.5 30.2258L140.413 29.0671C140.195 28.8954 140.118 28.7692 140.091 28.7079L138.742 29.3047ZM139.5 30.2258L138.587 31.3844L139.125 31.8084L140.038 30.6498L140.951 29.4912L140.413 29.0671L139.5 30.2258ZM140.038 30.6498L139.125 31.8084L139.663 32.2324L140.576 31.0738L141.489 29.9152L140.951 29.4912L140.038 30.6498ZM140.576 31.0738L139.663 32.2324C139.677 32.2433 139.596 32.1824 139.543 32.0298C139.486 31.8679 139.508 31.7377 139.521 31.6955L140.937 32.108L142.353 32.5204C142.484 32.0714 142.505 31.5654 142.328 31.0589C142.155 30.5615 141.834 30.187 141.489 29.9152L140.576 31.0738ZM140.937 32.108L139.521 31.6955L139.343 32.3057L140.759 32.7181L142.175 33.1306L142.353 32.5204L140.937 32.108ZM140.759 32.7181L139.343 32.3057L139.165 32.9158L140.581 33.3283L141.997 33.7408L142.175 33.1306L140.759 32.7181ZM140.581 33.3283L139.165 32.9158C138.99 33.5173 138.94 34.146 139.07 34.7749L140.515 34.4769L141.959 34.179C141.941 34.09 141.936 33.9529 141.997 33.7408L140.581 33.3283ZM140.515 34.4769L139.07 34.7749L139.181 35.3133L140.626 35.0153L142.07 34.7174L141.959 34.179L140.515 34.4769ZM140.626 35.0153L139.181 35.3133L139.292 35.8517L140.737 35.5538L142.181 35.2558L142.07 34.7174L140.626 35.0153ZM140.737 35.5538L139.292 35.8517C139.318 35.9768 139.318 36.1147 139.274 36.2838L140.702 36.6546L142.129 37.0254C142.28 36.4445 142.304 35.8486 142.181 35.2558L140.737 35.5538ZM140.702 36.6546L139.274 36.2838L139.128 36.8462L140.556 37.217L141.983 37.5878L142.129 37.0254L140.702 36.6546ZM140.556 37.217L139.128 36.8462L138.982 37.4085L140.409 37.7794L141.837 38.1502L141.983 37.5878L140.556 37.217ZM140.409 37.7794L138.982 37.4085C138.75 38.3015 139.007 39.1291 139.514 39.7797L140.677 38.873L141.841 37.9662C141.806 37.9216 141.822 37.9274 141.836 37.983C141.843 38.0101 141.847 38.0416 141.846 38.0747C141.846 38.1076 141.841 38.1336 141.837 38.1502L140.409 37.7794ZM140.677 38.873L139.514 39.7797L139.928 40.3109L141.091 39.4042L142.255 38.4974L141.841 37.9662L140.677 38.873ZM141.091 39.4042L139.928 40.3109L140.342 40.8421L141.505 39.9354L142.669 39.0286L142.255 38.4974L141.091 39.4042ZM141.505 39.9354L140.342 40.8421C140.402 40.9185 140.424 40.9674 140.431 40.9875C140.435 40.9977 140.436 41.0027 140.436 41.0034C140.436 41.004 140.436 41.004 140.436 41.0038C140.436 41.0036 140.436 41.0035 140.436 41.0037L141.911 41.0263L143.386 41.0489C143.398 40.275 143.108 39.5921 142.669 39.0286L141.505 39.9354ZM141.911 41.0263L140.436 41.0037L140.428 41.5635L141.902 41.5861L143.377 41.6087L143.386 41.0489L141.911 41.0263ZM141.902 41.5861L140.428 41.5635L140.419 42.1232L141.894 42.1458L143.369 42.1684L143.377 41.6087L141.902 41.5861ZM141.894 42.1458L140.419 42.1232C140.416 42.318 140.379 42.5154 140.3 42.7222L141.678 43.248L143.056 43.7737C143.253 43.2574 143.36 42.72 143.369 42.1684L141.894 42.1458ZM141.678 43.248L140.3 42.7222L140.093 43.2646L141.471 43.7904L142.849 44.3161L143.056 43.7737L141.678 43.248ZM141.471 43.7904L140.093 43.2646L139.886 43.807L141.264 44.3327L142.643 44.8585L142.849 44.3161L141.471 43.7904ZM141.264 44.3327L139.886 43.807C139.715 44.257 139.589 44.7157 139.513 45.1818L140.969 45.4181L142.425 45.6545C142.467 45.3966 142.538 45.1317 142.643 44.8585L141.264 44.3327ZM140.969 45.4181L139.513 45.1818L139.425 45.7248L140.881 45.9611L142.337 46.1975L142.425 45.6545L140.969 45.4181ZM140.881 45.9611L139.425 45.7248L139.337 46.2678L140.793 46.5041L142.249 46.7405L142.337 46.1975L140.881 45.9611ZM140.793 46.5041L139.337 46.2678C139.255 46.775 139.249 47.2887 139.312 47.8041L140.776 47.6249L142.24 47.4456C142.209 47.1906 142.214 46.9572 142.249 46.7405L140.793 46.5041ZM140.776 47.6249L139.312 47.8041L139.382 48.3818L140.846 48.2026L142.31 48.0234L142.24 47.4456L140.776 47.6249ZM140.846 48.2026L139.382 48.3818L139.453 48.9595L140.917 48.7803L142.381 48.6011L142.31 48.0234L140.846 48.2026ZM140.917 48.7803L139.453 48.9595C139.483 49.2038 139.476 49.4315 139.437 49.6481L140.889 49.9095L142.34 50.1708C142.434 49.6522 142.446 49.1272 142.381 48.6011L140.917 48.7803ZM140.889 49.9095L139.437 49.6481L139.338 50.1995L140.789 50.4609L142.241 50.7222L142.34 50.1708L140.889 49.9095ZM140.789 50.4609L139.338 50.1995L139.238 50.7509L140.69 51.0123L142.142 51.2736L142.241 50.7222L140.789 50.4609ZM140.69 51.0123L139.238 50.7509C139.178 51.0859 139.106 51.4188 139.024 51.7499L140.454 52.1084L141.885 52.4668C141.984 52.0717 142.07 51.6739 142.142 51.2736L140.69 51.0123ZM140.454 52.1084L139.024 51.7499L138.887 52.2945L140.318 52.653L141.749 53.0115L141.885 52.4668L140.454 52.1084ZM140.318 52.653L138.887 52.2945L138.751 52.8392L140.181 53.1976L141.612 53.5561L141.749 53.0115L140.318 52.653ZM140.181 53.1976L138.751 52.8392C138.659 53.2043 138.568 53.5712 138.477 53.9397L139.91 54.292L141.342 54.6444C141.432 54.2799 141.522 53.9172 141.612 53.5561L140.181 53.1976ZM139.91 54.292L138.477 53.9397L138.342 54.4895L139.774 54.8418L141.207 55.1942L141.342 54.6444L139.91 54.292ZM139.774 54.8418L138.342 54.4895L138.207 55.0392L139.639 55.3916L141.071 55.7439L141.207 55.1942L139.774 54.8418ZM139.639 55.3916L138.207 55.0392C138.13 55.3525 138.036 55.6605 137.924 55.9634L139.308 56.4728L140.693 56.9821C140.842 56.5765 140.968 56.1636 141.071 55.7439L139.639 55.3916ZM139.308 56.4728L137.924 55.9634L137.729 56.4948L139.113 57.0042L140.497 57.5136L140.693 56.9821L139.308 56.4728ZM139.113 57.0042L137.729 56.4948L137.533 57.0263L138.917 57.5356L140.302 58.045L140.497 57.5136L139.113 57.0042ZM138.917 57.5356L137.533 57.0263C137.504 57.1056 137.449 57.1965 137.317 57.302L138.239 58.4533L139.161 59.6047C139.673 59.1951 140.07 58.6742 140.302 58.045L138.917 57.5356ZM138.239 58.4533L137.317 57.302L136.835 57.6883L137.757 58.8396L138.679 59.991L139.161 59.6047L138.239 58.4533ZM137.757 58.8396L136.835 57.6883L136.353 58.0746L137.274 59.2259L138.196 60.3773L138.679 59.991L137.757 58.8396ZM137.274 59.2259L136.353 58.0746C135.994 58.362 135.659 58.6588 135.349 58.9657L136.388 60.0129L137.427 61.06C137.656 60.8327 137.912 60.605 138.196 60.3773L137.274 59.2259ZM136.388 60.0129L135.349 58.9657L134.946 59.3663L135.984 60.4135L137.023 61.4606L137.427 61.06L136.388 60.0129ZM135.984 60.4135L134.946 59.3663L134.542 59.7669L135.58 60.8141L136.619 61.8613L137.023 61.4606L135.984 60.4135ZM135.58 60.8141L134.542 59.7669C134.175 60.1304 133.866 60.5375 133.621 60.9876L134.916 61.6933L136.211 62.399C136.314 62.211 136.447 62.032 136.619 61.8613L135.58 60.8141ZM134.916 61.6933L133.621 60.9876L133.36 61.4662L134.655 62.1719L135.95 62.8775L136.211 62.399L134.916 61.6933ZM134.655 62.1719L133.36 61.4662L133.099 61.9448L134.394 62.6505L135.69 63.3561L135.95 62.8775L134.655 62.1719ZM134.394 62.6505L133.099 61.9448C132.798 62.4969 132.658 63.1036 132.629 63.72L134.102 63.7906L135.575 63.8613C135.588 63.5955 135.643 63.4421 135.69 63.3561L134.394 62.6505ZM134.102 63.7906L132.629 63.72L132.597 64.3816L134.07 64.4522L135.544 64.5228L135.575 63.8613L134.102 63.7906ZM134.07 64.4522L132.597 64.3816L132.565 65.0432L134.039 65.1138L135.512 65.1844L135.544 64.5228L134.07 64.4522ZM134.039 65.1138L132.565 65.0432C132.566 65.0191 132.583 64.8777 132.707 64.725C132.828 64.5754 132.954 64.5376 132.956 64.5371L133.352 65.9579L133.748 67.3788C134.186 67.2566 134.645 67.0172 134.995 66.5863C135.348 66.1522 135.49 65.6496 135.512 65.1844L134.039 65.1138ZM133.352 65.9579L132.956 64.5371L132.301 64.7197L132.697 66.1405L133.093 67.5613L133.748 67.3788L133.352 65.9579ZM132.697 66.1405L132.301 64.7197L131.646 64.9022L132.042 66.323L132.438 67.7439L133.093 67.5613L132.697 66.1405ZM132.042 66.323L131.646 64.9022C131.211 65.0236 130.773 65.2537 130.424 65.6466C130.074 66.0409 129.897 66.506 129.833 66.959L131.293 67.1678L132.753 67.3766C132.751 67.3882 132.731 67.4916 132.631 67.6044C132.532 67.7158 132.437 67.7442 132.438 67.7439L132.042 66.323ZM131.293 67.1678L129.833 66.959L129.738 67.6213L131.198 67.83L132.658 68.0388L132.753 67.3766L131.293 67.1678ZM131.198 67.83L129.738 67.6213L129.643 68.2835L131.104 68.4922L132.564 68.701L132.658 68.0388L131.198 67.83ZM131.104 68.4922L129.643 68.2835C129.647 68.2601 129.678 68.1094 129.83 67.9604C129.978 67.8145 130.119 67.7919 130.12 67.7917L130.329 69.2518L130.538 70.7119C130.993 70.6468 131.489 70.4652 131.896 70.0661C132.306 69.6639 132.497 69.1658 132.564 68.701L131.104 68.4922ZM130.329 69.2518L130.12 67.7917L129.441 67.889L129.65 69.3491L129.859 70.8092L130.538 70.7119L130.329 69.2518ZM129.65 69.3491L129.441 67.889L128.761 67.9863L128.97 69.4464L129.18 70.9065L129.859 70.8092L129.65 69.3491ZM128.97 69.4464L128.761 67.9863C128.067 68.0858 127.379 68.3623 126.846 68.9232L127.916 69.9389L128.985 70.9546C128.975 70.9657 128.971 70.964 128.991 70.9547C129.014 70.9438 129.072 70.922 129.18 70.9065L128.97 69.4464ZM127.916 69.9389L126.846 68.9232L126.471 69.3184L127.54 70.3341L128.61 71.3498L128.985 70.9546L127.916 69.9389ZM127.54 70.3341L126.471 69.3184L126.096 69.7136L127.165 70.7293L128.235 71.745L128.61 71.3498L127.54 70.3341ZM127.165 70.7293L126.096 69.7136C125.64 70.1937 125.354 70.782 125.184 71.3985L126.606 71.7907L128.028 72.183C128.103 71.9112 128.19 71.7919 128.235 71.745L127.165 70.7293ZM126.606 71.7907L125.184 71.3985L125 72.0647L126.422 72.457L127.844 72.8492L128.028 72.183L126.606 71.7907ZM126.422 72.457L125 72.0647L124.817 72.731L126.238 73.1232L127.66 73.5154L127.844 72.8492L126.422 72.457ZM126.238 73.1232L124.817 72.731C124.8 72.7899 124.796 72.7664 124.842 72.7129C124.864 72.6864 124.893 72.6596 124.928 72.6363C124.962 72.6131 124.993 72.5991 125.015 72.5913L125.504 73.983L125.992 75.3746C126.904 75.0545 127.436 74.3277 127.66 73.5154L126.238 73.1232ZM125.504 73.983L125.015 72.5913L124.464 72.7849L124.953 74.1766L125.441 75.5682L125.992 75.3746L125.504 73.983ZM124.953 74.1766L124.464 72.7849L123.913 72.9785L124.401 74.3701L124.89 75.7618L125.441 75.5682L124.953 74.1766ZM124.401 74.3701L123.913 72.9785C123.541 73.1091 123.175 73.2397 122.815 73.3703L123.317 74.757L123.82 76.1437C124.171 76.0165 124.527 75.8893 124.89 75.7618L124.401 74.3701ZM123.317 74.757L122.815 73.3703L122.281 73.5635L122.784 74.9502L123.287 76.3369L123.82 76.1437L123.317 74.757ZM122.784 74.9502L122.281 73.5635L121.748 73.7568L122.251 75.1435L122.754 76.5302L123.287 76.3369L122.784 74.9502ZM122.251 75.1435L121.748 73.7568C121.271 73.9298 120.824 74.1623 120.411 74.4544L121.263 75.6587L122.114 76.863C122.308 76.7258 122.52 76.6149 122.754 76.5302L122.251 75.1435ZM121.263 75.6587L120.411 74.4544L119.956 74.7763L120.807 75.9807L121.659 77.185L122.114 76.863L121.263 75.6587ZM120.807 75.9807L119.956 74.7763L119.5 75.0983L120.352 76.3026L121.203 77.507L121.659 77.185L120.807 75.9807ZM120.352 76.3026L119.5 75.0983C119.494 75.1027 119.468 75.1288 119.344 75.1232L119.278 76.5967L119.211 78.0702C119.913 78.1018 120.603 77.9318 121.203 77.507L120.352 76.3026ZM119.278 76.5967L119.344 75.1232L118.725 75.0954L118.659 76.5689L118.593 78.0424L119.211 78.0702L119.278 76.5967ZM118.659 76.5689L118.725 75.0954L118.107 75.0675L118.04 76.541L117.974 78.0145L118.593 78.0424L118.659 76.5689ZM118.04 76.541L118.107 75.0675C117.388 75.0352 116.686 75.2204 116.084 75.6741L116.973 76.8518L117.861 78.0294C117.869 78.023 117.872 78.0222 117.876 78.021C117.882 78.0192 117.911 78.0117 117.974 78.0145L118.04 76.541ZM116.973 76.8518L116.084 75.6741L115.635 76.0127L116.524 77.1904L117.412 78.3681L117.861 78.0294L116.973 76.8518ZM116.524 77.1904L115.635 76.0127L115.186 76.3514L116.075 77.529L116.963 78.7067L117.412 78.3681L116.524 77.1904ZM116.075 77.529L115.186 76.3514C115.042 76.4604 114.896 76.5288 114.739 76.5675L115.093 77.9993L115.448 79.4311C116.001 79.2943 116.509 79.0492 116.963 78.7067L116.075 77.529ZM115.093 77.9993L114.739 76.5675L114.207 76.6991L114.561 78.1309L114.915 79.5628L115.448 79.4311L115.093 77.9993ZM114.561 78.1309L114.207 76.6991L113.675 76.8307L114.029 78.2626L114.383 79.6944L114.915 79.5628L114.561 78.1309ZM114.029 78.2626L113.675 76.8307C113.338 76.914 113.001 76.9906 112.664 77.0605L112.963 78.5048L113.263 79.9491C113.637 79.8715 114.01 79.7866 114.383 79.6944L114.029 78.2626ZM112.963 78.5048L112.664 77.0605L112.13 77.1711L112.43 78.6154L112.729 80.0597L113.263 79.9491L112.963 78.5048ZM112.43 78.6154L112.13 77.1711L111.597 77.2817L111.896 78.726L112.195 80.1703L112.729 80.0597L112.43 78.6154ZM111.896 78.726L111.597 77.2817C111.182 77.3677 110.774 77.4786 110.372 77.6144L110.844 79.0119L111.316 80.4093C111.605 80.3115 111.898 80.2319 112.195 80.1703L111.896 78.726ZM110.844 79.0119L110.372 77.6144L109.853 77.7897L110.325 79.1871L110.797 80.5845L111.316 80.4093L110.844 79.0119ZM110.325 79.1871L109.853 77.7897L109.334 77.9649L109.806 79.3623L110.278 80.7597L110.797 80.5845L110.325 79.1871ZM109.806 79.3623L109.334 77.9649C108.891 78.1146 108.46 78.3115 108.042 78.551L108.776 79.8308L109.509 81.1105C109.773 80.959 110.03 80.8437 110.278 80.7597L109.806 79.3623ZM108.776 79.8308L108.042 78.551L107.531 78.8443L108.264 80.124L108.997 81.4038L109.509 81.1105L108.776 79.8308ZM108.264 80.124L107.531 78.8443L107.019 79.1375L107.752 80.4173L108.486 81.697L108.997 81.4038L108.264 80.124ZM107.752 80.4173L107.019 79.1375C106.763 79.2844 106.502 79.4001 106.237 79.4869L106.695 80.8889L107.153 82.2909C107.615 82.1399 108.06 81.9412 108.486 81.697L107.752 80.4173ZM106.695 80.8889L106.237 79.4869L105.691 79.6652L106.149 81.0673L106.607 82.4693L107.153 82.2909L106.695 80.8889ZM106.149 81.0673L105.691 79.6652L105.145 79.8436L105.603 81.2456L106.062 82.6476L106.607 82.4693L106.149 81.0673ZM105.603 81.2456L105.145 79.8436C105.171 79.8352 105.205 79.8278 105.245 79.8255C105.285 79.8232 105.321 79.8267 105.349 79.8326C105.406 79.8443 105.405 79.8589 105.344 79.8151L104.486 81.0147L103.627 82.2143C104.294 82.6914 105.15 82.9456 106.062 82.6476L105.603 81.2456ZM104.486 81.0147L105.344 79.8151L104.772 79.4059L103.914 80.6055L103.055 81.8051L103.627 82.2143L104.486 81.0147ZM103.914 80.6055L104.772 79.4059L104.2 78.9966L103.342 80.1962L102.483 81.3958L103.055 81.8051L103.914 80.6055ZM103.342 80.1962L104.2 78.9966C103.594 78.5631 102.836 78.2821 101.99 78.4188L102.226 79.8749L102.462 81.331C102.442 81.3342 102.421 81.3351 102.402 81.3338C102.384 81.3326 102.372 81.3296 102.368 81.3287C102.363 81.3271 102.401 81.3371 102.483 81.3958L103.342 80.1962ZM102.226 79.8749L101.99 78.4188L101.447 78.5068L101.682 79.9629L101.918 81.4189L102.462 81.331L102.226 79.8749ZM101.682 79.9629L101.447 78.5068L100.903 78.5947L101.139 80.0508L101.374 81.5069L101.918 81.4189L101.682 79.9629ZM101.139 80.0508L100.903 78.5947C100.324 78.6884 99.7763 78.9093 99.2655 79.2105L100.015 80.481L100.764 81.7515C101.027 81.5964 101.229 81.5304 101.374 81.5069L101.139 80.0508ZM100.015 80.481L99.2655 79.2105L98.6852 79.5528L99.4346 80.8233L100.184 82.0937L100.764 81.7515L100.015 80.481ZM99.4346 80.8233L98.6852 79.5528L98.1049 79.8951L98.8543 81.1656L99.6037 82.436L100.184 82.0937L99.4346 80.8233ZM98.8543 81.1656L98.1049 79.8951C98.0645 79.919 98.0872 79.8962 98.1634 79.8899C98.2005 79.8868 98.2404 79.8886 98.2794 79.8959C98.3179 79.9031 98.3463 79.9138 98.3628 79.9215L97.7389 81.258L97.115 82.5946C97.9799 82.9983 98.8664 82.8709 99.6037 82.436L98.8543 81.1656ZM97.7389 81.258L98.3628 79.9215L97.8277 79.6717L97.2038 81.0083L96.5799 82.3448L97.115 82.5946L97.7389 81.258ZM97.2038 81.0083L97.8277 79.6717L97.2926 79.4219L96.6687 80.7585L96.0448 82.095L96.5799 82.3448L97.2038 81.0083ZM96.6687 80.7585L97.2926 79.4219C96.9093 79.243 96.5276 79.0788 96.1476 78.9296L95.6085 80.3026L95.0695 81.6755C95.3896 81.8012 95.7147 81.9409 96.0448 82.095L96.6687 80.7585ZM95.6085 80.3026L96.1476 78.9296L95.6225 78.7234L95.0835 80.0964L94.5445 81.4694L95.0695 81.6755L95.6085 80.3026ZM95.0835 80.0964L95.6225 78.7234L95.0974 78.5173L94.5584 79.8903L94.0194 81.2633L94.5445 81.4694L95.0835 80.0964ZM94.5584 79.8903L95.0974 78.5173C94.7038 78.3628 94.3068 78.2285 93.9065 78.1149L93.5037 79.5338L93.1009 80.9528C93.4068 81.0396 93.7129 81.1429 94.0194 81.2633L94.5584 79.8903ZM93.5037 79.5338L93.9065 78.1149L93.3768 77.9645L92.9741 79.3835L92.5713 80.8024L93.1009 80.9528L93.5037 79.5338ZM92.9741 79.3835L93.3768 77.9645L92.8472 77.8142L92.4444 79.2331L92.0417 80.6521L92.5713 80.8024L92.9741 79.3835ZM92.4444 79.2331L92.8472 77.8142C92.3768 77.6807 91.8937 77.6061 91.4011 77.5883L91.348 79.0624L91.2948 80.5364C91.558 80.5459 91.8059 80.5852 92.0417 80.6521L92.4444 79.2331ZM91.348 79.0624L91.4011 77.5883L90.8343 77.5679L90.7812 79.0419L90.728 80.516L91.2948 80.5364L91.348 79.0624ZM90.7812 79.0419L90.8343 77.5679L90.2675 77.5475L90.2144 79.0215L90.1612 80.4955L90.728 80.516L90.7812 79.0419ZM90.2144 79.0215L90.2675 77.5475C89.9756 77.5369 89.6941 77.5014 89.4216 77.4419L89.1067 78.8828L88.7917 80.3238C89.2405 80.4219 89.6974 80.4788 90.1612 80.4955L90.2144 79.0215ZM89.1067 78.8828L89.4216 77.4419L88.8808 77.3236L88.5658 78.7646L88.2508 80.2056L88.7917 80.3238L89.1067 78.8828ZM88.5658 78.7646L88.8808 77.3236L88.3399 77.2054L88.0249 78.6464L87.71 80.0874L88.2508 80.2056L88.5658 78.7646ZM88.0249 78.6464L88.3399 77.2054C87.8227 77.0924 87.2949 77.0643 86.7632 77.113L86.8976 78.5818L87.032 80.0507C87.2822 80.0278 87.5059 80.0428 87.71 80.0874L88.0249 78.6464ZM86.8976 78.5818L86.7632 77.113L86.1768 77.1666L86.3111 78.6355L86.4455 80.1043L87.032 80.0507L86.8976 78.5818ZM86.3111 78.6355L86.1768 77.1666L85.5903 77.2203L85.7247 78.6891L85.8591 80.158L86.4455 80.1043L86.3111 78.6355ZM85.7247 78.6891L85.5903 77.2203C85.5227 77.2264 85.4934 77.217 85.4482 77.1879L84.6495 78.4279L83.8508 79.668C84.4572 80.0586 85.1449 80.2233 85.8591 80.158L85.7247 78.6891ZM84.6495 78.4279L85.4482 77.1879L84.9594 76.8731L84.1607 78.1131L83.362 79.3531L83.8508 79.668L84.6495 78.4279ZM84.1607 78.1131L84.9594 76.8731L84.4706 76.5582L83.6719 77.7983L82.8732 79.0383L83.362 79.3531L84.1607 78.1131ZM83.6719 77.7983L84.4706 76.5582C83.9702 76.2359 83.418 76.0267 82.8251 75.9478L82.6304 77.4099L82.4357 78.872C82.5797 78.8911 82.7219 78.9409 82.8732 79.0383L83.6719 77.7983ZM82.6304 77.4099L82.8251 75.9478L82.2724 75.8742L82.0777 77.3363L81.883 78.7984L82.4357 78.872L82.6304 77.4099ZM82.0777 77.3363L82.2724 75.8742L81.7197 75.8006L81.525 77.2627L81.3303 78.7248L81.883 78.7984L82.0777 77.3363ZM81.525 77.2627L81.7197 75.8006C81.715 75.7999 81.7094 75.7991 81.6958 75.7918C81.6798 75.7833 81.6411 75.7591 81.5831 75.6992L80.5231 76.7249L79.4631 77.7505C79.9553 78.2592 80.5817 78.6251 81.3303 78.7248L81.525 77.2627ZM80.5231 76.7249L81.5831 75.6992L81.1339 75.2349L80.0739 76.2606L79.0139 77.2863L79.4631 77.7505L80.5231 76.7249ZM80.0739 76.2606L81.1339 75.2349L80.6847 74.7707L79.6247 75.7964L78.5647 76.8221L79.0139 77.2863L80.0739 76.2606ZM79.6247 75.7964L80.6847 74.7707C80.0479 74.1126 79.1836 73.8214 78.2567 74.0218L78.5685 75.4635L78.8803 76.9052C78.8632 76.9089 78.7897 76.9184 78.6926 76.8879C78.5984 76.8582 78.557 76.8142 78.5647 76.8221L79.6247 75.7964ZM78.5685 75.4635L78.2567 74.0218L77.6496 74.1531L77.9615 75.5948L78.2733 77.0365L78.8803 76.9052L78.5685 75.4635ZM77.9615 75.5948L77.6496 74.1531L77.0426 74.2844L77.3544 75.7261L77.6663 77.1677L78.2733 77.0365L77.9615 75.5948ZM77.3544 75.7261L77.0426 74.2844C77.0234 74.2886 77.0151 74.2887 77.0162 74.2886C77.0177 74.2886 77.026 74.2886 77.0389 74.2909C77.0519 74.2933 77.0645 74.2971 77.0752 74.3015C77.0857 74.3058 77.0898 74.3089 77.0874 74.3072L76.2621 75.5297L75.4367 76.7522C76.1155 77.2104 76.8951 77.3345 77.6663 77.1677L77.3544 75.7261ZM76.2621 75.5297L77.0874 74.3072L76.602 73.9795L75.7767 75.202L74.9514 76.4245L75.4367 76.7522L76.2621 75.5297ZM75.7767 75.202L76.602 73.9795L76.1166 73.6518L75.2913 74.8743L74.466 76.0968L74.9514 76.4245L75.7767 75.202ZM75.2913 74.8743L76.1166 73.6518C75.6766 73.3548 75.2034 73.1259 74.6989 72.9749L74.2758 74.3879L73.8526 75.8009C74.055 75.8615 74.2588 75.9569 74.466 76.0968L75.2913 74.8743ZM74.2758 74.3879L74.6989 72.9749L74.1688 72.8161L73.7456 74.2291L73.3225 75.6421L73.8526 75.8009L74.2758 74.3879ZM73.7456 74.2291L74.1688 72.8161L73.6386 72.6573L73.2155 74.0703L72.7924 75.4833L73.3225 75.6421L73.7456 74.2291ZM73.2155 74.0703L73.6386 72.6573C73.4036 72.5869 73.171 72.4856 72.9398 72.3492L72.1905 73.6197L71.4412 74.8902C71.8697 75.143 72.3206 75.3421 72.7924 75.4833L73.2155 74.0703ZM72.1905 73.6197L72.9398 72.3492L72.4449 72.0574L71.6956 73.3279L70.9463 74.5984L71.4412 74.8902L72.1905 73.6197ZM71.6956 73.3279L72.4449 72.0574L71.95 71.7655L71.2007 73.036L70.4514 74.3065L70.9463 74.5984L71.6956 73.3279ZM71.2007 73.036L71.95 71.7655C71.2059 71.3267 70.3881 71.2974 69.6342 71.5371L70.081 72.9428L70.5278 74.3485C70.5826 74.331 70.5857 74.3396 70.5509 74.3367C70.5343 74.3353 70.5147 74.3317 70.4944 74.3252C70.4743 74.3187 70.4597 74.3114 70.4514 74.3065L71.2007 73.036ZM70.081 72.9428L69.6342 71.5371L69.0094 71.7357L69.4561 73.1414L69.9029 74.5471L70.5278 74.3485L70.081 72.9428ZM69.4561 73.1414L69.0094 71.7357L68.3845 71.9343L68.8313 73.34L69.2781 74.7457L69.9029 74.5471L69.4561 73.1414ZM68.8313 73.34L68.3845 71.9343C68.0972 72.0256 67.8577 72.0582 67.6586 72.0552L67.6365 73.53L67.6144 75.0048C68.1752 75.0133 68.7323 74.9191 69.2781 74.7457L68.8313 73.34ZM67.6365 73.53L67.6586 72.0552L67.0887 72.0466L67.0665 73.5214L67.0444 74.9963L67.6144 75.0048L67.6365 73.53ZM67.0665 73.5214L67.0887 72.0466L66.5187 72.0381L66.4966 73.5129L66.4745 74.9877L67.0444 74.9963L67.0665 73.5214ZM66.4966 73.5129L66.5187 72.0381C66.541 72.0384 66.5695 72.0416 66.6009 72.05C66.6323 72.0584 66.6584 72.0697 66.6777 72.0804C66.7161 72.1017 66.7055 72.1079 66.659 72.0486L65.4988 72.9594L64.3387 73.8703C64.8333 74.5003 65.5534 74.9739 66.4745 74.9877L66.4966 73.5129ZM65.4988 72.9594L66.659 72.0486L66.2312 71.5037L65.071 72.4145L63.9109 73.3253L64.3387 73.8703L65.4988 72.9594ZM65.071 72.4145L66.2312 71.5037L65.8034 70.9587L64.6432 71.8696L63.483 72.7804L63.9109 73.3253L65.071 72.4145ZM64.6432 71.8696L65.8034 70.9587C65.5234 70.6021 65.1315 70.2717 64.6075 70.107C64.0774 69.9404 63.5593 69.9896 63.1138 70.1404L63.5868 71.5375L64.0598 72.9346C64.0334 72.9435 63.9008 72.9771 63.7229 72.9212C63.5511 72.8672 63.4778 72.7738 63.483 72.7804L64.6432 71.8696ZM63.5868 71.5375L63.1138 70.1404L62.4851 70.3532L62.9582 71.7503L63.4312 73.1474L64.0598 72.9346L63.5868 71.5375ZM62.9582 71.7503L62.4851 70.3532L61.8565 70.5661L62.3295 71.9632L62.8026 73.3603L63.4312 73.1474L62.9582 71.7503ZM62.3295 71.9632L61.8565 70.5661C61.8042 70.5838 61.8098 70.5724 61.8577 70.5764C61.8809 70.5783 61.907 70.5834 61.9333 70.5922C61.9594 70.601 61.9786 70.6111 61.99 70.6182L61.2098 71.8699L60.4296 73.1217C61.1896 73.5954 62.034 73.6205 62.8026 73.3603L62.3295 71.9632ZM61.2098 71.8699L61.99 70.6182L61.4989 70.3121L60.7187 71.5638L59.9385 72.8156L60.4296 73.1217L61.2098 71.8699ZM60.7187 71.5638L61.4989 70.3121L61.0078 70.006L60.2276 71.2577L59.4474 72.5095L59.9385 72.8156L60.7187 71.5638ZM60.2276 71.2577L61.0078 70.006C60.3902 69.621 59.6948 69.4719 58.9802 69.553L59.1466 71.0186L59.3129 72.4842C59.3849 72.476 59.4102 72.4863 59.4474 72.5095L60.2276 71.2577ZM59.1466 71.0186L58.9802 69.553L58.3903 69.62L58.5566 71.0856L58.7229 72.5511L59.3129 72.4842L59.1466 71.0186ZM58.5566 71.0856L58.3903 69.62L57.8003 69.6869L57.9666 71.1525L58.133 72.6181L58.7229 72.5511L58.5566 71.0856ZM57.9666 71.1525L57.8003 69.6869C57.7835 69.6888 57.7743 69.6885 57.7714 69.6883C57.7687 69.6881 57.7694 69.688 57.772 69.6886C57.7746 69.6893 57.7755 69.6899 57.7737 69.689C57.7717 69.6881 57.7643 69.6844 57.7516 69.6753L56.8954 70.8764L56.0392 72.0774C56.658 72.5186 57.3797 72.7036 58.133 72.6181L57.9666 71.1525ZM56.8954 70.8764L57.7516 69.6753L57.2703 69.3322L56.4141 70.5333L55.5579 71.7343L56.0392 72.0774L56.8954 70.8764ZM56.4141 70.5333L57.2703 69.3322L56.789 68.9891L55.9328 70.1902L55.0766 71.3912L55.5579 71.7343L56.4141 70.5333ZM55.9328 70.1902L56.789 68.9891C56.4807 68.7693 56.1737 68.5432 55.8682 68.3108L54.9753 69.4848L54.0823 70.6589C54.4118 70.9094 54.7432 71.1535 55.0766 71.3912L55.9328 70.1902ZM54.9753 69.4848L55.8682 68.3108L55.392 67.9486L54.499 69.1226L53.6061 70.2966L54.0823 70.6589L54.9753 69.4848ZM54.499 69.1226L55.392 67.9486L54.9157 67.5864L54.0228 68.7604L53.1299 69.9344L53.6061 70.2966L54.499 69.1226ZM54.0228 68.7604L54.9157 67.5864C54.0459 66.9248 53.0445 67.0017 52.2402 67.3956L52.889 68.7203L53.5378 70.0449C53.6007 70.0141 53.5628 70.0474 53.4491 70.0434C53.3913 70.0413 53.3281 70.0298 53.2658 70.007C53.2042 69.9844 53.1587 69.9564 53.1299 69.9344L54.0228 68.7604ZM52.889 68.7203L52.2402 67.3956L51.5826 67.7177L52.2314 69.0424L52.8802 70.367L53.5378 70.0449L52.889 68.7203ZM52.2314 69.0424L51.5826 67.7177L50.9251 68.0398L51.5739 69.3644L52.2227 70.6891L52.8802 70.367L52.2314 69.0424ZM51.5739 69.3644L50.9251 68.0398C50.8805 68.0616 50.9607 68.011 51.1261 68.0289C51.2083 68.0378 51.2883 68.0618 51.3586 68.0968C51.427 68.1308 51.47 68.1671 51.4902 68.1868L50.4614 69.2437L49.4326 70.3007C49.7868 70.6455 50.2514 70.9013 50.8079 70.9617C51.344 71.0199 51.8289 70.882 52.2227 70.6891L51.5739 69.3644ZM50.4614 69.2437L51.4902 68.1868L51.0354 67.744L50.0065 68.801L48.9777 69.8579L49.4326 70.3007L50.4614 69.2437ZM50.0065 68.801L51.0354 67.744L50.5805 67.3012L49.5516 68.3582L48.5228 69.4151L48.9777 69.8579L50.0065 68.801ZM49.5516 68.3582L50.5805 67.3012C50.1229 66.8558 49.5763 66.5167 48.9411 66.3478L48.5622 67.7733L48.1833 69.1988C48.2609 69.2195 48.3739 69.2702 48.5228 69.4151L49.5516 68.3582ZM48.5622 67.7733L48.9411 66.3478L48.4065 66.2057L48.0276 67.6313L47.6488 69.0568L48.1833 69.1988L48.5622 67.7733ZM48.0276 67.6313L48.4065 66.2057L47.8719 66.0637L47.4931 67.4892L47.1142 68.9147L47.6488 69.0568L48.0276 67.6313ZM47.4931 67.4892L47.8719 66.0637C47.6143 65.9952 47.3614 65.8996 47.1121 65.7751L46.4532 67.0948L45.7942 68.4144C46.2188 68.6264 46.6591 68.7937 47.1142 68.9147L47.4931 67.4892ZM46.4532 67.0948L47.1121 65.7751L46.6067 65.5228L45.9478 66.8425L45.2889 68.1621L45.7942 68.4144L46.4532 67.0948ZM45.9478 66.8425L46.6067 65.5228L46.1014 65.2705L45.4425 66.5901L44.7835 67.9098L45.2889 68.1621L45.9478 66.8425ZM45.4425 66.5901L46.1014 65.2705C45.5398 64.9901 44.9347 64.8621 44.3104 64.883L44.3598 66.3571L44.4092 67.8313C44.5546 67.8264 44.6714 67.8538 44.7835 67.9098L45.4425 66.5901ZM44.3598 66.3571L44.3104 64.883L43.733 64.9023L43.7824 66.3765L43.8318 67.8507L44.4092 67.8313L44.3598 66.3571ZM43.7824 66.3765L43.733 64.9023L43.1557 64.9217L43.2051 66.3958L43.2545 67.87L43.8318 67.8507L43.7824 66.3765ZM43.2051 66.3958L43.1557 64.9217C43.1546 64.9217 43.1602 64.9215 43.1705 64.9232C43.1809 64.925 43.1915 64.928 43.2006 64.9316C43.2095 64.9351 43.2127 64.9375 43.2099 64.9357C43.2068 64.9337 43.1959 64.9262 43.1779 64.9093L42.1693 65.9856L41.1608 67.0619C41.7246 67.5903 42.4419 67.8972 43.2545 67.87L43.2051 66.3958ZM42.1693 65.9856L43.1779 64.9093L42.7195 64.4798L41.711 65.5561L40.7024 66.6324L41.1608 67.0619L42.1693 65.9856ZM41.711 65.5561L42.7195 64.4798L42.2611 64.0503L41.2526 65.1266L40.244 66.2029L40.7024 66.6324L41.711 65.5561ZM41.2526 65.1266L42.2611 64.0503C41.6188 63.4484 40.7876 63.1955 39.9085 63.367L40.1908 64.8147L40.4731 66.2624C40.4733 66.2624 40.4593 66.2651 40.4337 66.2642C40.4074 66.2634 40.3758 66.2589 40.3422 66.2491C40.2695 66.2277 40.2367 66.196 40.244 66.2029L41.2526 65.1266ZM40.1908 64.8147L39.9085 63.367L39.3051 63.4846L39.5874 64.9324L39.8697 66.3801L40.4731 66.2624L40.1908 64.8147ZM39.5874 64.9324L39.3051 63.4846L38.7017 63.6023L38.984 65.05L39.2663 66.4977L39.8697 66.3801L39.5874 64.9324ZM38.984 65.05L38.7017 63.6023C38.6842 63.6057 38.6772 63.6055 38.6791 63.6055C38.6813 63.6055 38.6895 63.6057 38.7017 63.6082C38.7139 63.6106 38.7252 63.6143 38.734 63.6182C38.7426 63.6219 38.7447 63.6239 38.7402 63.6208L37.8975 64.8314L37.0548 66.0419C37.7202 66.5052 38.4918 66.6487 39.2663 66.4977L38.984 65.05ZM37.8975 64.8314L38.7402 63.6208L38.2571 63.2845L37.4144 64.495L36.5717 65.7056L37.0548 66.0419L37.8975 64.8314ZM37.4144 64.495L38.2571 63.2845L37.774 62.9482L36.9313 64.1587L36.0886 65.3693L36.5717 65.7056L37.4144 64.495ZM36.9313 64.1587L37.774 62.9482C37.1266 62.4975 36.3758 62.3396 35.6109 62.4652L35.85 63.9207L36.089 65.3762C36.1065 65.3733 36.1147 65.3735 36.115 65.3735C36.1151 65.3735 36.1103 65.3733 36.1023 65.3716C36.0943 65.3698 36.0875 65.3674 36.0832 65.3655C36.079 65.3636 36.0808 65.3639 36.0886 65.3693L36.9313 64.1587ZM35.85 63.9207L35.6109 62.4652L35.0126 62.5635L35.2517 64.019L35.4908 65.4745L36.089 65.3762L35.85 63.9207ZM35.2517 64.019L35.0126 62.5635L34.4143 62.6618L34.6534 64.1172L34.8925 65.5727L35.4908 65.4745L35.2517 64.019ZM34.6534 64.1172L34.4143 62.6618C34.0607 62.7198 33.7145 62.7598 33.3756 62.7822L33.4727 64.254L33.5699 65.7258C34.0075 65.6969 34.4485 65.6457 34.8925 65.5727L34.6534 64.1172ZM33.4727 64.254L33.3756 62.7822L32.7932 62.8206L32.8903 64.2924L32.9875 65.7642L33.5699 65.7258L33.4727 64.254ZM32.8903 64.2924L32.7932 62.8206L32.2107 62.8591L32.3079 64.3309L32.4051 65.8027L32.9875 65.7642L32.8903 64.2924ZM32.3079 64.3309L32.2107 62.8591C32.0698 62.8684 31.9646 62.8445 31.8664 62.7965L31.2189 64.1218L30.5714 65.4471C31.1486 65.7291 31.7695 65.8447 32.4051 65.8027L32.3079 64.3309ZM31.2189 64.1218L31.8664 62.7965L31.3598 62.549L30.7123 63.8743L30.0647 65.1995L30.5714 65.4471L31.2189 64.1218ZM30.7123 63.8743L31.3598 62.549L30.8532 62.3015L30.2057 63.6267L29.5581 64.952L30.0647 65.1995L30.7123 63.8743ZM30.2057 63.6267L30.8532 62.3015C30.5185 62.1379 30.1842 61.9731 29.8502 61.8071L29.1935 63.1278L28.5367 64.4485C28.8768 64.6176 29.2173 64.7855 29.5581 64.952L30.2057 63.6267ZM29.1935 63.1278L29.8502 61.8071L29.3446 61.5556L28.6879 62.8764L28.0311 64.1971L28.5367 64.4485L29.1935 63.1278ZM28.6879 62.8764L29.3446 61.5556L28.839 61.3042L28.1823 62.6249L27.5255 63.9457L28.0311 64.1971L28.6879 62.8764ZM28.1823 62.6249L28.839 61.3042C28.3309 61.0515 27.7887 60.9028 27.2226 60.8615L27.1153 62.3326L27.008 63.8037C27.1905 63.817 27.3595 63.8631 27.5255 63.9457L28.1823 62.6249ZM27.1153 62.3326L27.2226 60.8615L26.6612 60.8205L26.554 62.2916L26.4467 63.7627L27.008 63.8037L27.1153 62.3326ZM26.554 62.2916L26.6612 60.8205L26.0999 60.7796L25.9926 62.2507L25.8853 63.7218L26.4467 63.7627L26.554 62.2916ZM25.9926 62.2507L26.0999 60.7796C25.701 60.7505 25.3 60.7313 24.8967 60.722L24.8625 62.1966L24.8283 63.6712C25.1833 63.6794 25.5356 63.6963 25.8853 63.7218L25.9926 62.2507ZM24.8625 62.1966L24.8967 60.722L24.328 60.7088L24.2938 62.1834L24.2596 63.658L24.8283 63.6712L24.8625 62.1966ZM24.2938 62.1834L24.328 60.7088L23.7592 60.6956L23.725 62.1702L23.6908 63.6448L24.2596 63.658L24.2938 62.1834ZM23.725 62.1702L23.7592 60.6956C23.6471 60.693 23.5492 60.6655 23.441 60.5985L22.6647 61.8527L21.8884 63.1069C22.4357 63.4456 23.0447 63.6298 23.6908 63.6448L23.725 62.1702ZM22.6647 61.8527L23.441 60.5985L22.9494 60.2943L22.1731 61.5485L21.3968 62.8026L21.8884 63.1069L22.6647 61.8527ZM22.1731 61.5485L22.9494 60.2943L22.4579 59.99L21.6816 61.2442L20.9053 62.4984L21.3968 62.8026L22.1731 61.5485ZM21.6816 61.2442L22.4579 59.99C22.1663 59.8095 21.8772 59.6132 21.5907 59.4005L20.7118 60.5851L19.8329 61.7697C20.1839 62.0301 20.5414 62.2731 20.9053 62.4984L21.6816 61.2442ZM20.7118 60.5851L21.5907 59.4005L21.1125 59.0458L20.2336 60.2303L19.3547 61.4149L19.8329 61.7697L20.7118 60.5851ZM20.2336 60.2303L21.1125 59.0458L20.6343 58.691L19.7554 59.8755L18.8765 61.0601L19.3547 61.4149L20.2336 60.2303ZM19.7554 59.8755L20.6343 58.691C19.9727 58.2002 19.1905 58.0356 18.3974 58.1873L18.6744 59.636L18.9515 61.0848C18.9655 61.0821 18.9685 61.0828 18.9622 61.0828C18.9555 61.0827 18.9431 61.0819 18.927 61.0783C18.9108 61.0748 18.8965 61.0696 18.8856 61.0646C18.8751 61.0596 18.8721 61.0568 18.8765 61.0601L19.7554 59.8755ZM18.6744 59.636L18.3974 58.1873L17.7947 58.3025L18.0717 59.7513L18.3487 61.2L18.9515 61.0848L18.6744 59.636ZM18.0717 59.7513L17.7947 58.3025L17.1919 58.4178L17.4689 59.8665L17.7459 61.3153L18.3487 61.2L18.0717 59.7513ZM17.4689 59.8665L17.1919 58.4178C16.9908 58.4562 16.8434 58.4438 16.727 58.4113L16.3298 59.8318L15.9325 61.2523C16.5313 61.4197 17.1433 61.4305 17.7459 61.3153L17.4689 59.8665ZM16.3298 59.8318L16.727 58.4113L16.1906 58.2613L15.7934 59.6818L15.3961 61.1023L15.9325 61.2523L16.3298 59.8318ZM15.7934 59.6818L16.1906 58.2613L15.6542 58.1113L15.257 59.5318L14.8597 60.9523L15.3961 61.1023L15.7934 59.6818ZM15.257 59.5318L15.6542 58.1113C15.5536 58.0831 15.4429 58.0269 15.3157 57.9033L14.2876 58.9609L13.2595 60.0185C13.7096 60.4561 14.2452 60.7804 14.8597 60.9523L15.257 59.5318ZM14.2876 58.9609L15.3157 57.9033L14.8828 57.4824L13.8546 58.54L12.8265 59.5977L13.2595 60.0185L14.2876 58.9609ZM13.8546 58.54L14.8828 57.4824L14.4498 57.0615L13.4217 58.1191L12.3935 59.1768L12.8265 59.5977L13.8546 58.54ZM13.4217 58.1191L14.4498 57.0615C13.8788 56.5065 13.1577 56.2239 12.374 56.2207L12.3678 57.6956L12.3616 59.1706C12.3819 59.1707 12.3927 59.1725 12.3957 59.173C12.3986 59.1736 12.3966 59.1734 12.3917 59.1714C12.3868 59.1695 12.3832 59.1674 12.3817 59.1664C12.3805 59.1656 12.3846 59.168 12.3935 59.1768L13.4217 58.1191ZM12.3678 57.6956L12.374 56.2207L11.7531 56.2181L11.7469 57.693L11.7407 59.168L12.3616 59.1706L12.3678 57.6956ZM11.7469 57.693L11.7531 56.2181L11.1322 56.2155L11.126 57.6905L11.1199 59.1654L11.7407 59.168L11.7469 57.693ZM11.126 57.6905L11.1322 56.2155C11.1504 56.2155 11.2438 56.2223 11.3563 56.291C11.468 56.3593 11.5137 56.4368 11.5188 56.4464L10.2133 57.133L8.90783 57.8195C9.10744 58.1991 9.40258 58.5545 9.81853 58.8085C10.2353 59.0631 10.6877 59.1636 11.1199 59.1654L11.126 57.6905ZM10.2133 57.133L11.5188 56.4464L11.227 55.8915L9.92149 56.5781L8.61601 57.2646L8.90783 57.8195L10.2133 57.133ZM9.92149 56.5781L11.227 55.8915L10.9351 55.3366L9.62967 56.0232L8.32419 56.7097L8.61601 57.2646L9.92149 56.5781ZM9.62967 56.0232L10.9351 55.3366C10.6137 54.7254 10.1358 54.2177 9.4906 53.8973L8.83466 55.2184L8.17871 56.5395C8.20439 56.5523 8.25651 56.581 8.32419 56.7097L9.62967 56.0232ZM8.83466 55.2184L9.4906 53.8973L8.98741 53.6475L8.33146 54.9686L7.67552 56.2897L8.17871 56.5395L8.83466 55.2184ZM8.33146 54.9686L8.98741 53.6475L8.48422 53.3976L7.82827 54.7187L7.17232 56.0399L7.67552 56.2897L8.33146 54.9686ZM7.82827 54.7187L8.48422 53.3976C8.29696 53.3046 8.13794 53.1879 7.99972 53.0451L6.93995 54.0711L5.88017 55.097C6.25547 55.4847 6.68866 55.7997 7.17232 56.0399L7.82827 54.7187ZM6.93995 54.0711L7.99972 53.0451L7.61459 52.6473L6.55481 53.6732L5.49503 54.6991L5.88017 55.097L6.93995 54.0711ZM6.55481 53.6732L7.61459 52.6473L7.22945 52.2494L6.16967 53.2754L5.1099 54.3013L5.49503 54.6991L6.55481 53.6732ZM6.16967 53.2754L7.22945 52.2494C7.12554 52.1421 7.04707 52.0171 6.99175 51.8579L5.59848 52.3421L4.2052 52.8262C4.39796 53.3809 4.70029 53.8781 5.1099 54.3013L6.16967 53.2754ZM5.59848 52.3421L6.99175 51.8579L6.80568 51.3225L5.41241 51.8067L4.01914 52.2908L4.2052 52.8262L5.59848 52.3421ZM5.41241 51.8067L6.80568 51.3225L6.61962 50.7871L5.22635 51.2712L3.83307 51.7554L4.01914 52.2908L5.41241 51.8067ZM5.22635 51.2712L6.61962 50.7871C6.36024 50.0407 5.83923 49.4935 5.20199 49.129L4.46953 50.4093L3.73706 51.6895C3.80628 51.7291 3.83154 51.7564 3.83572 51.7612C3.83804 51.7638 3.83737 51.7635 3.83562 51.7605C3.83384 51.7575 3.83302 51.7552 3.83307 51.7554L5.22635 51.2712ZM4.46953 50.4093L5.20199 49.129L4.63124 48.8024L3.89877 50.0827L3.16631 51.363L3.73706 51.6895L4.46953 50.4093ZM3.89877 50.0827L4.63124 48.8024L4.06048 48.4759L3.32802 49.7562L2.59556 51.0365L3.16631 51.363L3.89877 50.0827ZM3.32802 49.7562L4.06048 48.4759C3.92386 48.3977 3.90591 48.3458 3.90027 48.3321L2.53657 48.8942L1.17287 49.4563C1.46149 50.1565 1.97117 50.6793 2.59556 51.0365L3.32802 49.7562ZM2.53657 48.8942L3.90027 48.3321L3.67958 47.7967L2.31588 48.3588L0.952176 48.9209L1.17287 49.4563L2.53657 48.8942ZM2.31588 48.3588L3.67958 47.7967L3.45889 47.2613L2.09518 47.8233L0.731481 48.3854L0.952176 48.9209L2.31588 48.3588ZM2.09518 47.8233L3.45889 47.2613C3.34502 46.985 3.25661 46.7014 3.19334 46.4096L1.75183 46.7221L0.310316 47.0346C0.410596 47.4972 0.551092 47.9478 0.731481 48.3854L2.09518 47.8233ZM1.75183 46.7221L3.19334 46.4096L3.07068 45.8438L1.62917 46.1563L0.187655 46.4689L0.310316 47.0346L1.75183 46.7221ZM1.62917 46.1563L3.07068 45.8438L2.94802 45.278L1.50651 45.5906L0.0649939 45.9031L0.187655 46.4689L1.62917 46.1563ZM1.50651 45.5906L2.94802 45.278C2.94929 45.2839 2.95028 45.2918 2.95031 45.3001C2.95034 45.3082 2.94942 45.3119 2.94991 45.3095C2.95088 45.3047 2.96027 45.2628 3.00918 45.1811L1.74343 44.4238L0.477687 43.6665C0.0883167 44.3172 -0.112125 45.0861 0.0649939 45.9031L1.50651 45.5906ZM1.74343 44.4238L3.00918 45.1811L3.36877 44.5801L2.10302 43.8228L0.837275 43.0655L0.477687 43.6665L1.74343 44.4238ZM2.10302 43.8228L3.36877 44.5801L3.72835 43.9791L2.46261 43.2218L1.19686 42.4644L0.837275 43.0655L2.10302 43.8228ZM2.46261 43.2218L3.72835 43.9791C4.1479 43.2778 4.32787 42.4159 3.9799 41.5395L2.609 42.0838L1.23811 42.6281C1.22953 42.6065 1.22096 42.5769 1.21648 42.5415C1.21199 42.5061 1.21278 42.4741 1.21606 42.4486C1.2226 42.3977 1.235 42.4007 1.19686 42.4644L2.46261 43.2218ZM2.609 42.0838L3.9799 41.5395L3.7667 41.0025L2.39581 41.5468L1.02491 42.0912L1.23811 42.6281L2.609 42.0838ZM2.39581 41.5468L3.7667 41.0025L3.55351 40.4656L2.18262 41.0099L0.811719 41.5542L1.02491 42.0912L2.39581 41.5468ZM2.18262 41.0099L3.55351 40.4656C3.47089 40.2575 3.42827 40.0542 3.41976 39.8495L1.94603 39.9108L0.472308 39.9721C0.494976 40.5169 0.610078 41.0463 0.811719 41.5542L2.18262 41.0099ZM1.94603 39.9108L3.41976 39.8495L3.39637 39.2873L1.92264 39.3486L0.44892 39.4099L0.472308 39.9721L1.94603 39.9108ZM1.92264 39.3486L3.39637 39.2873L3.37298 38.7251L1.89926 38.7864L0.425531 38.8477L0.44892 39.4099L1.92264 39.3486ZM1.89926 38.7864L3.37298 38.7251C3.36491 38.531 3.39131 38.348 3.45266 38.167L2.05569 37.6936L0.658725 37.2202C0.480306 37.7467 0.402423 38.2923 0.425531 38.8477L1.89926 38.7864ZM2.05569 37.6936L3.45266 38.167L3.63249 37.6363L2.23552 37.1629L0.83855 36.6896L0.658725 37.2202L2.05569 37.6936ZM2.23552 37.1629L3.63249 37.6363L3.81231 37.1057L2.41534 36.6323L1.01838 36.1589L0.83855 36.6896L2.23552 37.1629ZM2.41534 36.6323L3.81231 37.1057C3.91724 36.796 4.03571 36.4946 4.16763 36.2012L2.82235 35.5964L1.47708 34.9915C1.30608 35.3718 1.15321 35.761 1.01838 36.1589L2.41534 36.6323ZM2.82235 35.5964L4.16763 36.2012L4.39481 35.696L3.04953 35.0911L1.70426 34.4862L1.47708 34.9915L2.82235 35.5964ZM3.04953 35.0911L4.39481 35.696L4.62199 35.1907L3.27672 34.5858L1.93144 33.9809L1.70426 34.4862L3.04953 35.0911ZM3.27672 34.5858L4.62199 35.1907C4.76035 34.883 4.90797 34.5813 5.06486 34.2857L3.76199 33.5943L2.45912 32.9028C2.27189 33.2555 2.096 33.615 1.93144 33.9809L3.27672 34.5858ZM3.76199 33.5943L5.06486 34.2857L5.32295 33.7995L4.02008 33.108L2.71721 32.4165L2.45912 32.9028L3.76199 33.5943ZM4.02008 33.108L5.32295 33.7995L5.58104 33.3132L4.27817 32.6217L2.9753 31.9302L2.71721 32.4165L4.02008 33.108ZM4.27817 32.6217L5.58104 33.3132C5.73384 33.0253 5.89856 32.7439 6.07525 32.4691L4.8345 31.6715L3.59375 30.8739C3.37279 31.2176 3.16661 31.5697 2.9753 31.9302L4.27817 32.6217ZM4.8345 31.6715L6.07525 32.4691L6.37349 32.0051L5.13274 31.2075L3.89199 30.4099L3.59375 30.8739L4.8345 31.6715ZM5.13274 31.2075L6.37349 32.0051L6.67173 31.5412L5.43098 30.7436L4.19023 29.946L3.89199 30.4099L5.13274 31.2075ZM5.43098 30.7436L6.67173 31.5412C6.91366 31.1648 7.12813 30.7642 7.3166 30.3414L5.9694 29.7408L4.62219 29.1403C4.49043 29.4359 4.34594 29.7037 4.19023 29.946L5.43098 30.7436ZM5.9694 29.7408L7.3166 30.3414L7.55678 29.8026L6.20958 29.2021L4.86237 28.6015L4.62219 29.1403L5.9694 29.7408ZM6.20958 29.2021L7.55678 29.8026L7.79696 29.2638L6.44975 28.6633L5.10255 28.0627L4.86237 28.6015L6.20958 29.2021ZM6.44975 28.6633L7.79696 29.2638C7.78447 29.2919 7.7612 29.3338 7.72208 29.3798C7.68239 29.4265 7.63568 29.4665 7.58679 29.4971C7.48848 29.5588 7.43079 29.5534 7.48022 29.5501L7.38213 28.0784L7.28403 26.6066C6.393 26.666 5.52904 27.106 5.10255 28.0627L6.44975 28.6633ZM7.38213 28.0784L7.48022 29.5501L8.17241 29.504L8.07432 28.0322L7.97623 26.5605L7.28403 26.6066L7.38213 28.0784ZM8.07432 28.0322L8.17241 29.504L8.86461 29.4578L8.76651 27.9861L8.66842 26.5144L7.97623 26.5605L8.07432 28.0322ZM8.76651 27.9861L8.86461 29.4578C9.62274 29.4073 10.3961 29.1238 10.9506 28.4454L9.8085 27.512L8.66644 26.5785C8.68018 26.5617 8.69742 26.5448 8.71696 26.5299C8.73634 26.5151 8.75269 26.5063 8.76224 26.5019C8.78057 26.4936 8.75833 26.5084 8.66842 26.5144L8.76651 27.9861ZM9.8085 27.512L10.9506 28.4454L11.3004 28.0175L10.1583 27.084L9.01624 26.1506L8.66644 26.5785L9.8085 27.512ZM10.1583 27.084L11.3004 28.0175L11.6502 27.5895L10.5081 26.656L9.36604 25.7226L9.01624 26.1506L10.1583 27.084ZM10.5081 26.656L11.6502 27.5895C11.7153 27.5098 11.7775 27.4688 11.8565 27.4412L11.369 26.0491L10.8815 24.657C10.279 24.868 9.7673 25.2317 9.36604 25.7226L10.5081 26.656ZM11.369 26.0491L11.8565 27.4412L12.3676 27.2622L11.8801 25.8701L11.3925 24.478L10.8815 24.657L11.369 26.0491ZM11.8801 25.8701L12.3676 27.2622L12.8787 27.0832L12.3911 25.6911L11.9036 24.299L11.3925 24.478L11.8801 25.8701ZM12.3911 25.6911L12.8787 27.0832C13.2572 26.9507 13.6278 26.8036 13.9904 26.6419L13.3896 25.2948L12.7889 23.9476C12.5016 24.0758 12.2065 24.1929 11.9036 24.299L12.3911 25.6911ZM13.3896 25.2948L13.9904 26.6419L14.4778 26.4245L13.8771 25.0774L13.2763 23.7303L12.7889 23.9476L13.3896 25.2948ZM13.8771 25.0774L14.4778 26.4245L14.9653 26.2071L14.3645 24.86L13.7637 23.5129L13.2763 23.7303L13.8771 25.0774ZM14.3645 24.86L14.9653 26.2071C15.1735 26.1143 15.3857 26.0057 15.58 25.8764C15.7601 25.7565 16.0102 25.5633 16.206 25.2725L14.9825 24.4486L13.7591 23.6248C13.8183 23.5368 13.8742 23.4817 13.9027 23.4557C13.9324 23.4287 13.9498 23.4177 13.9455 23.4206C13.942 23.4229 13.9261 23.4331 13.894 23.4502C13.8623 23.467 13.8195 23.488 13.7637 23.5129L14.3645 24.86ZM14.9825 24.4486L16.206 25.2725L16.3367 25.0785L15.1132 24.2546L13.8897 23.4308L13.7591 23.6248L14.9825 24.4486ZM15.1132 24.2546L16.3367 25.0785L16.4673 24.8845L15.2438 24.0607L14.0203 23.2368L13.8897 23.4308L15.1132 24.2546ZM15.2438 24.0607L16.4673 24.8845C16.3806 25.0133 16.2893 25.0943 16.2317 25.1384C16.1738 25.1828 16.1313 25.2042 16.1202 25.2096C16.103 25.2179 16.1382 25.1992 16.2597 25.1698L15.9121 23.7363L15.5646 22.3028C15.3276 22.3603 15.0722 22.4391 14.8322 22.5556C14.6113 22.6628 14.2709 22.8647 14.0203 23.2368L15.2438 24.0607ZM15.9121 23.7363L16.2597 25.1698L16.7974 25.0394L16.4499 23.6059L16.1023 22.1725L15.5646 22.3028L15.9121 23.7363Z" fill="var(--stroke-0, #724527)"/>
</g>
</svg>
