<svg preserveAspectRatio="none" width="100%" height="100%" overflow="visible" style="display: block;" viewBox="0 0 50.7737 50.886" fill="none" xmlns="http://www.w3.org/2000/svg">
<g id="Group 13">
<g id="Ellipse 4">
<circle cx="25.3493" cy="25.208" r="23.6" fill="var(--fill-0, #935F3F)"/>
<path d="M48.4835 26.8297L49.9012 27.2368L48.4835 26.8297ZM48.4286 27.9389L49.8812 27.6826L48.4286 27.9389ZM48.5289 28.5075L47.0764 28.7638L48.5289 28.5075ZM48.6293 29.0762L50.0818 28.8199L48.6293 29.0762ZM48.799 31.4036L47.3251 31.4617L48.799 31.4036ZM48.5575 32.5002L47.248 31.8213L48.5575 32.5002ZM48.0283 33.5209L49.3378 34.1998L48.0283 33.5209ZM47.2773 34.4165L46.3615 33.2602L47.2773 34.4165ZM46.7908 34.8017L47.7066 35.958L46.7908 34.8017ZM46.3044 35.187L45.3886 34.0307L46.3044 35.187ZM45.6233 36.0842L44.2446 35.56L45.6233 36.0842ZM45.234 37.1082L46.6127 37.6323L45.234 37.1082ZM44.6333 37.9949L43.6329 36.9109L44.6333 37.9949ZM43.8212 38.7443L44.8216 39.8283L43.8212 38.7443ZM43.1503 39.6018L41.8572 38.8921L43.1503 39.6018ZM42.8854 40.0845L44.1785 40.7941L42.8854 40.0845ZM42.6205 40.5672L41.3274 39.8575L42.6205 40.5672ZM41.9262 41.3857L42.8351 42.5474L41.9262 41.3857ZM41.0676 42.0575L40.1587 40.8958L41.0676 42.0575ZM40.2363 42.7557L39.2488 41.6601L40.2363 42.7557ZM39.8344 43.118L38.8469 42.0223L39.8344 43.118ZM39.4324 43.4802L40.4199 44.5759L39.4324 43.4802ZM38.754 44.4332L40.0898 45.0585L38.754 44.4332ZM38.2009 45.6145L39.5368 46.2399L38.2009 45.6145ZM37.3211 46.2715L37.4822 47.7377L37.3211 46.2715ZM36.7177 46.3378L36.5566 44.8716L36.7177 46.3378ZM36.1144 46.4041L36.2755 47.8703L36.1144 46.4041ZM34.9791 46.6217L34.5755 45.203L34.9791 46.6217ZM34.4473 46.773L34.8509 48.1917L34.4473 46.773ZM33.9154 46.9244L33.5117 45.5057L33.9154 46.9244ZM32.8659 47.2501L32.3948 45.8524L32.8659 47.2501ZM32.3483 47.4246L31.8772 46.0269L32.3483 47.4246ZM31.8307 47.5991L32.3018 48.9968L31.8307 47.5991ZM30.8057 48.0526L31.5165 49.345L30.8057 48.0526ZM30.2983 48.3316L29.5875 47.0392L30.2983 48.3316ZM29.791 48.6107L30.5018 49.9031L29.791 48.6107ZM28.7276 48.9888L28.9864 50.4409L28.7276 48.9888ZM28.1715 49.0879L28.4303 50.5401L28.1715 49.0879ZM27.6154 49.1871L27.3566 47.7349L27.6154 49.1871ZM26.4956 49.1984L26.7226 47.7409L26.4956 49.1984ZM25.3681 49.0228L25.1411 50.4802L25.3681 49.0228ZM24.2289 49.0764L24.581 50.5088L24.2289 49.0764ZM23.6534 49.2179L23.3013 47.7856L23.6534 49.2179ZM23.078 49.3594L23.4301 50.7917L23.078 49.3594ZM21.9697 49.2548L21.3514 50.594L21.9697 49.2548ZM21.4369 49.0088L20.8186 50.348L21.4369 49.0088ZM20.904 48.7628L21.5223 47.4237L20.904 48.7628ZM19.8826 48.2113L19.1007 49.4621L19.8826 48.2113ZM19.3939 47.9059L20.1758 46.6551L19.3939 47.9059ZM18.9052 47.6004L18.1234 48.8511L18.9052 47.6004ZM17.8439 47.2596L17.7531 48.7318L17.8439 47.2596ZM17.2711 47.2243L17.3619 45.7521L17.2711 47.2243ZM16.6984 47.189L16.6077 48.6612L16.6984 47.189ZM15.615 46.9273L16.2128 45.5789L15.615 46.9273ZM15.1043 46.7009L14.5065 48.0493L15.1043 46.7009ZM13.6722 45.857L12.6551 46.9253L13.6722 45.857ZM12.8507 45.0749L13.8678 44.0067L12.8507 45.0749ZM11.9189 44.4586L11.3337 45.8126L11.9189 44.4586ZM10.8767 44.0082L10.2916 45.3622L10.8767 44.0082ZM10.052 43.2942L8.79909 44.0727L10.052 43.2942ZM9.44461 42.3167L10.6975 41.5383L9.44461 42.3167ZM8.62688 41.5518L7.92881 42.8512L8.62688 41.5518ZM8.11282 41.2756L8.81089 39.9763L8.11282 41.2756ZM7.59876 40.9995L6.90069 42.2988L7.59876 40.9995ZM6.90441 39.4799L5.44467 39.6916L6.90441 39.4799ZM6.33676 37.845L5.28815 38.8823L6.33676 37.845ZM5.94941 37.4534L6.99802 36.4161L5.94941 37.4534ZM5.56207 37.0619L4.51345 38.0992L5.56207 37.0619ZM4.65143 36.3107L3.81603 37.5263L4.65143 36.3107ZM3.60484 35.5915L4.44023 34.3759L3.60484 35.5915ZM2.85905 34.704L1.49984 35.2768L2.85905 34.704ZM2.63656 34.176L1.27735 34.7489L2.63656 34.176ZM2.41406 33.6481L3.77327 33.0753L2.41406 33.6481ZM2.33974 32.4959L3.77487 32.8365L2.33974 32.4959ZM2.48791 31.8716L1.05278 31.531L2.48791 31.8716ZM2.63609 31.2473L1.20095 30.9067L2.63609 31.2473ZM2.42426 30.1256L3.61918 29.2608L2.42426 30.1256ZM1.70425 29.1307L0.50933 29.9954L1.70425 29.1307ZM1.5495 28.0553L0.159577 27.5616L1.5495 28.0553ZM1.96001 26.8996L3.34993 27.3933L1.96001 26.8996ZM2.20238 25.7792L0.730817 25.6785L2.20238 25.7792ZM2.27661 24.694L0.805051 24.5934L2.27661 24.694ZM2.50854 23.0884L1.0577 22.8225L2.50854 23.0884ZM2.53994 21.4368L3.96118 21.0422L2.53994 21.4368ZM2.21311 20.2596L0.791871 20.6543L2.21311 20.2596ZM2.36178 19.1852L1.12071 18.3881L2.36178 19.1852ZM2.67387 18.6993L1.4328 17.9021L2.67387 18.6993ZM2.98596 18.2133L4.22702 19.0105L2.98596 18.2133ZM3.74826 14.9203L5.15411 15.3666L3.74826 14.9203ZM3.92087 14.3766L2.51501 13.9303L3.92087 14.3766ZM4.09348 13.8329L2.68762 13.3866L4.09348 13.8329ZM4.53063 12.7827L3.22324 12.0998L4.53063 12.7827ZM5.0597 11.7699L3.75231 11.087L5.0597 11.7699ZM5.93903 11.0358L6.45123 12.419L5.93903 11.0358ZM6.55382 10.8081L6.04162 9.42489L6.55382 10.8081ZM8.0417 9.84693L9.35536 10.5177L8.0417 9.84693ZM8.29999 9.34107L6.98633 8.67031L8.29999 9.34107ZM9.1688 7.88587L8.01377 6.96852L9.1688 7.88587ZM9.87326 6.99889L8.71823 6.08154L9.87326 6.99889ZM10.7372 6.30969L11.3757 7.63932L10.7372 6.30969ZM12.8266 5.43745L12.4774 4.00438L12.8266 5.43745ZM13.9355 5.16724L13.5863 3.73417L13.9355 5.16724ZM14.9433 4.72789L15.7652 5.95267L14.9433 4.72789ZM15.85 4.1194L15.0281 2.89462L15.85 4.1194ZM17.3983 3.67351L17.2091 2.2107V2.2107L17.3983 3.67351ZM18.9903 3.3141L18.3984 1.96306L18.9903 3.3141ZM19.9844 2.87859L20.5763 4.22963L19.9844 2.87859ZM20.989 2.35769L20.2327 1.09137L20.989 2.35769ZM22.0041 1.7514L22.7604 3.01772L22.0041 1.7514ZM24.1938 1.53626L24.1168 3.00925V3.00925L24.1938 1.53626ZM25.8636 1.59637L25.8227 3.0708L25.8636 1.59637ZM28.6106 1.89163L28.3755 3.34777L28.6106 1.89163ZM29.6788 2.15979L30.1595 0.765311L29.6788 2.15979ZM30.7231 2.51977L30.2424 3.91425L30.7231 2.51977ZM31.7283 2.96396L32.4361 1.66988L31.7283 2.96396ZM32.6944 3.49235L31.9866 4.78643L32.6944 3.49235ZM36.155 3.79635L36.6176 2.39576L36.155 3.79635ZM36.6992 3.97609L36.2366 5.37668L36.6992 3.97609ZM38.1873 4.75227L39.2518 3.73133L38.1873 4.75227ZM38.9865 5.58563L37.9219 6.60658L38.9865 5.58563ZM39.7434 6.43848L38.6024 7.37322L39.7434 6.43848ZM41.2954 8.04542L40.5167 9.29808L41.2954 8.04542ZM42.2556 8.64233L41.4769 9.895L42.2556 8.64233ZM43.0833 9.3764L44.2362 8.45645L43.0833 9.3764ZM43.4308 9.81202L42.2779 10.732L43.4308 9.81202ZM43.7784 10.2476L44.9314 9.32768L43.7784 10.2476ZM44.4552 11.1323L45.6448 10.2602L44.4552 11.1323ZM45.1136 12.0304L43.924 12.9025L45.1136 12.0304ZM45.7603 12.9423L44.5441 13.7768L45.7603 12.9423ZM46.3954 13.8681L47.6117 13.0336L46.3954 13.8681ZM46.9168 14.8536L45.5426 15.3895L46.9168 14.8536ZM47.3245 15.8989L48.6987 15.3629L47.3245 15.8989ZM47.5469 16.9974L49.0212 16.9498L47.5469 16.9974ZM47.5841 18.1493L46.1099 18.1969L47.5841 18.1493ZM47.7083 19.2571L46.2615 19.5443L47.7083 19.2571ZM47.8139 19.789L49.2607 19.5018L47.8139 19.789ZM47.9195 20.3209L49.3663 20.0337L47.9195 20.3209ZM48.016 21.9393L46.541 21.9269L48.016 21.9393ZM48.0114 22.4826L49.4864 22.4949L48.0114 22.4826ZM48.3504 23.5582L47.111 24.3579L48.3504 23.5582ZM48.6939 24.0905L49.9332 23.2908V23.2908L48.6939 24.0905ZM49.0374 24.6229L50.2767 23.8232L49.0374 24.6229ZM49.273 25.1684L49.452 26.6325L49.273 25.1684ZM49.1651 25.1816L48.986 23.7175L49.1651 25.1816ZM49.0572 25.1948L48.8781 23.7307L49.0572 25.1948ZM48.794 25.7486L47.3763 25.3414L48.794 25.7486ZM48.6388 26.2891L47.2211 25.882L47.0658 26.4225L48.4835 26.8297L49.9012 27.2368L50.0565 26.6963L48.6388 26.2891ZM48.4835 26.8297L47.0658 26.4225C46.8987 27.0044 46.8713 27.6012 46.976 28.1952L48.4286 27.9389L49.8812 27.6826C49.8522 27.5183 49.8613 27.3757 49.9012 27.2368L48.4835 26.8297ZM48.4286 27.9389L46.976 28.1952L47.0764 28.7638L48.5289 28.5075L49.9815 28.2513L49.8812 27.6826L48.4286 27.9389ZM48.5289 28.5075L47.0764 28.7638L47.1767 29.3325L48.6293 29.0762L50.0818 28.8199L49.9815 28.2513L48.5289 28.5075ZM48.6293 29.0762L47.1767 29.3325C47.2318 29.645 47.266 29.9638 47.2789 30.2892L48.7527 30.2311L50.2266 30.173C50.2086 29.7167 50.1604 29.2656 50.0818 28.8199L48.6293 29.0762ZM48.7527 30.2311L47.2789 30.2892L47.302 30.8755L48.7758 30.8173L50.2497 30.7592L50.2266 30.173L48.7527 30.2311ZM48.7758 30.8173L47.302 30.8755L47.3251 31.4617L48.799 31.4036L50.2728 31.3455L50.2497 30.7592L48.7758 30.8173ZM48.799 31.4036L47.3251 31.4617C47.3307 31.6023 47.3041 31.7132 47.248 31.8213L48.5575 32.5002L49.867 33.1791C50.1637 32.6068 50.2981 31.9866 50.2728 31.3455L48.799 31.4036ZM48.5575 32.5002L47.248 31.8213L46.9834 32.3316L48.2929 33.0105L49.6024 33.6894L49.867 33.1791L48.5575 32.5002ZM48.2929 33.0105L46.9834 32.3316L46.7188 32.842L48.0283 33.5209L49.3378 34.1998L49.6024 33.6894L48.2929 33.0105ZM48.0283 33.5209L46.7188 32.842C46.6459 32.9827 46.5355 33.1224 46.3615 33.2602L47.2773 34.4165L48.193 35.5728C48.6677 35.1969 49.0579 34.7395 49.3378 34.1998L48.0283 33.5209ZM47.2773 34.4165L46.3615 33.2602L45.8751 33.6454L46.7908 34.8017L47.7066 35.958L48.193 35.5728L47.2773 34.4165ZM46.7908 34.8017L45.8751 33.6454L45.3886 34.0307L46.3044 35.187L47.2201 36.3433L47.7066 35.958L46.7908 34.8017ZM46.3044 35.187L45.3886 34.0307C44.8841 34.4302 44.4809 34.9384 44.2446 35.56L45.6233 36.0842L47.002 36.6084C47.0252 36.5473 47.076 36.4574 47.2201 36.3433L46.3044 35.187ZM45.6233 36.0842L44.2446 35.56L44.0499 36.072L45.4286 36.5962L46.8074 37.1203L47.002 36.6084L45.6233 36.0842ZM45.4286 36.5962L44.0499 36.072L43.8553 36.584L45.234 37.1082L46.6127 37.6323L46.8074 37.1203L45.4286 36.5962ZM45.234 37.1082L43.8553 36.584C43.8073 36.71 43.7374 36.8145 43.6329 36.9109L44.6333 37.9949L45.6337 39.0788C46.0706 38.6756 46.4011 38.1889 46.6127 37.6323L45.234 37.1082ZM44.6333 37.9949L43.6329 36.9109L43.2269 37.2857L44.2273 38.3696L45.2276 39.4535L45.6337 39.0788L44.6333 37.9949ZM44.2273 38.3696L43.2269 37.2857L42.8209 37.6604L43.8212 38.7443L44.8216 39.8283L45.2276 39.4535L44.2273 38.3696ZM43.8212 38.7443L42.8209 37.6604C42.4334 38.018 42.1108 38.4301 41.8572 38.8921L43.1503 39.6018L44.4434 40.3114C44.543 40.1299 44.6676 39.9703 44.8216 39.8283L43.8212 38.7443ZM43.1503 39.6018L41.8572 38.8921L41.5923 39.3748L42.8854 40.0845L44.1785 40.7941L44.4434 40.3114L43.1503 39.6018ZM42.8854 40.0845L41.5923 39.3748L41.3274 39.8575L42.6205 40.5672L43.9136 41.2768L44.1785 40.7941L42.8854 40.0845ZM42.6205 40.5672L41.3274 39.8575C41.2459 40.006 41.1446 40.1245 41.0174 40.224L41.9262 41.3857L42.8351 42.5474C43.2803 42.1991 43.6418 41.7719 43.9136 41.2768L42.6205 40.5672ZM41.9262 41.3857L41.0174 40.224L40.588 40.5599L41.4969 41.7216L42.4058 42.8833L42.8351 42.5474L41.9262 41.3857ZM41.4969 41.7216L40.588 40.5599L40.1587 40.8958L41.0676 42.0575L41.9765 43.2192L42.4058 42.8833L41.4969 41.7216ZM41.0676 42.0575L40.1587 40.8958C39.8457 41.1407 39.5424 41.3954 39.2488 41.6601L40.2363 42.7557L41.2238 43.8514C41.4661 43.6329 41.717 43.4222 41.9765 43.2192L41.0676 42.0575ZM40.2363 42.7557L39.2488 41.6601L38.8469 42.0223L39.8344 43.118L40.8219 44.2136L41.2238 43.8514L40.2363 42.7557ZM39.8344 43.118L38.8469 42.0223L38.4449 42.3846L39.4324 43.4802L40.4199 44.5759L40.8219 44.2136L39.8344 43.118ZM39.4324 43.4802L38.4449 42.3846C38.0038 42.7821 37.6692 43.2714 37.4181 43.8078L38.754 44.4332L40.0898 45.0585C40.2074 44.8074 40.3251 44.6613 40.4199 44.5759L39.4324 43.4802ZM38.754 44.4332L37.4181 43.8078L37.1416 44.3985L38.4775 45.0239L39.8133 45.6492L40.0898 45.0585L38.754 44.4332ZM38.4775 45.0239L37.1416 44.3985L36.8651 44.9892L38.2009 45.6145L39.5368 46.2399L39.8133 45.6492L38.4775 45.0239ZM38.2009 45.6145L36.8651 44.9892C36.8566 45.0073 36.8787 44.9531 36.9602 44.8922C37.0461 44.8281 37.1279 44.8089 37.16 44.8053L37.3211 46.2715L37.4822 47.7377C38.4402 47.6324 39.154 47.0577 39.5368 46.2399L38.2009 45.6145ZM37.3211 46.2715L37.16 44.8053L36.5566 44.8716L36.7177 46.3378L36.8788 47.804L37.4822 47.7377L37.3211 46.2715ZM36.7177 46.3378L36.5566 44.8716L35.9533 44.9379L36.1144 46.4041L36.2755 47.8703L36.8788 47.804L36.7177 46.3378ZM36.1144 46.4041L35.9533 44.9379C35.4769 44.9903 35.0167 45.0775 34.5755 45.203L34.9791 46.6217L35.3828 48.0404C35.6507 47.9642 35.9474 47.9063 36.2755 47.8703L36.1144 46.4041ZM34.9791 46.6217L34.5755 45.203L34.0436 45.3543L34.4473 46.773L34.8509 48.1917L35.3828 48.0404L34.9791 46.6217ZM34.4473 46.773L34.0436 45.3543L33.5117 45.5057L33.9154 46.9244L34.319 48.3431L34.8509 48.1917L34.4473 46.773ZM33.9154 46.9244L33.5117 45.5057C33.1348 45.6129 32.7624 45.7285 32.3948 45.8524L32.8659 47.2501L33.337 48.6479C33.6595 48.5392 33.9868 48.4376 34.319 48.3431L33.9154 46.9244ZM32.8659 47.2501L32.3948 45.8524L31.8772 46.0269L32.3483 47.4246L32.8194 48.8223L33.337 48.6479L32.8659 47.2501ZM32.3483 47.4246L31.8772 46.0269L31.3596 46.2013L31.8307 47.5991L32.3018 48.9968L32.8194 48.8223L32.3483 47.4246ZM31.8307 47.5991L31.3596 46.2013C30.9268 46.3472 30.5052 46.5345 30.0949 46.7602L30.8057 48.0526L31.5165 49.345C31.7827 49.1986 32.0444 49.0836 32.3018 48.9968L31.8307 47.5991ZM30.8057 48.0526L30.0949 46.7602L29.5875 47.0392L30.2983 48.3316L31.0092 49.624L31.5165 49.345L30.8057 48.0526ZM30.2983 48.3316L29.5875 47.0392L29.0802 47.3182L29.791 48.6107L30.5018 49.9031L31.0092 49.624L30.2983 48.3316ZM29.791 48.6107L29.0802 47.3182C28.8793 47.4287 28.6771 47.4996 28.4687 47.5367L28.7276 48.9888L28.9864 50.4409C29.5195 50.3459 30.0262 50.1647 30.5018 49.9031L29.791 48.6107ZM28.7276 48.9888L28.4687 47.5367L27.9127 47.6358L28.1715 49.0879L28.4303 50.5401L28.9864 50.4409L28.7276 48.9888ZM28.1715 49.0879L27.9127 47.6358L27.3566 47.7349L27.6154 49.1871L27.8742 50.6392L28.4303 50.5401L28.1715 49.0879ZM27.6154 49.1871L27.3566 47.7349C27.1481 47.7721 26.939 47.7746 26.7226 47.7409L26.4956 49.1984L26.2686 50.6558C26.8039 50.7392 27.3414 50.7342 27.8742 50.6392L27.6154 49.1871ZM26.4956 49.1984L26.7226 47.7409L26.1588 47.6531L25.9318 49.1106L25.7049 50.568L26.2686 50.6558L26.4956 49.1984ZM25.9318 49.1106L26.1588 47.6531L25.5951 47.5653L25.3681 49.0228L25.1411 50.4802L25.7049 50.568L25.9318 49.1106ZM25.3681 49.0228L25.5951 47.5653C25.019 47.4756 24.4424 47.505 23.8768 47.6441L24.2289 49.0764L24.581 50.5088C24.7826 50.4592 24.9655 50.4529 25.1411 50.4802L25.3681 49.0228ZM24.2289 49.0764L23.8768 47.6441L23.3013 47.7856L23.6534 49.2179L24.0056 50.6503L24.581 50.5088L24.2289 49.0764ZM23.6534 49.2179L23.3013 47.7856L22.7258 47.927L23.078 49.3594L23.4301 50.7917L24.0056 50.6503L23.6534 49.2179ZM23.078 49.3594L22.7258 47.927C22.6635 47.9424 22.6365 47.9381 22.588 47.9157L21.9697 49.2548L21.3514 50.594C22.0134 50.8996 22.7252 50.965 23.4301 50.7917L23.078 49.3594ZM21.9697 49.2548L22.588 47.9157L22.0552 47.6697L21.4369 49.0088L20.8186 50.348L21.3514 50.594L21.9697 49.2548ZM21.4369 49.0088L22.0552 47.6697L21.5223 47.4237L20.904 48.7628L20.2857 50.102L20.8186 50.348L21.4369 49.0088ZM20.904 48.7628L21.5223 47.4237C21.2224 47.2852 20.9366 47.1308 20.6644 46.9606L19.8826 48.2113L19.1007 49.4621C19.48 49.6992 19.8752 49.9124 20.2857 50.102L20.904 48.7628ZM19.8826 48.2113L20.6644 46.9606L20.1758 46.6551L19.3939 47.9059L18.612 49.1566L19.1007 49.4621L19.8826 48.2113ZM19.3939 47.9059L20.1758 46.6551L19.6871 46.3497L18.9052 47.6004L18.1234 48.8511L18.612 49.1566L19.3939 47.9059ZM18.9052 47.6004L19.6871 46.3497C19.1539 46.0164 18.5627 45.8261 17.9346 45.7874L17.8439 47.2596L17.7531 48.7318C17.8886 48.7402 18.005 48.7771 18.1234 48.8511L18.9052 47.6004ZM17.8439 47.2596L17.9346 45.7874L17.3619 45.7521L17.2711 47.2243L17.1804 48.6965L17.7531 48.7318L17.8439 47.2596ZM17.2711 47.2243L17.3619 45.7521L16.7892 45.7168L16.6984 47.189L16.6077 48.6612L17.1804 48.6965L17.2711 47.2243ZM16.6984 47.189L16.7892 45.7168C16.5775 45.7038 16.3886 45.6568 16.2128 45.5789L15.615 46.9273L15.0172 48.2758C15.5224 48.4997 16.0557 48.6272 16.6077 48.6612L16.6984 47.189ZM15.615 46.9273L16.2128 45.5789L15.7021 45.3525L15.1043 46.7009L14.5065 48.0493L15.0172 48.2758L15.615 46.9273ZM15.1043 46.7009L15.7021 45.3525L15.1914 45.1261L14.5936 46.4745L13.9958 47.8229L14.5065 48.0493L15.1043 46.7009ZM14.5936 46.4745L15.1914 45.1261C15.0081 45.0448 14.8423 44.9345 14.6893 44.7888L13.6722 45.857L12.6551 46.9253C13.0496 47.3009 13.4981 47.6023 13.9958 47.8229L14.5936 46.4745ZM13.6722 45.857L14.6893 44.7888L14.2785 44.3977L13.2614 45.466L12.2443 46.5342L12.6551 46.9253L13.6722 45.857ZM13.2614 45.466L14.2785 44.3977L13.8678 44.0067L12.8507 45.0749L11.8336 46.1431L12.2443 46.5342L13.2614 45.466ZM12.8507 45.0749L13.8678 44.0067C13.4679 43.6259 13.011 43.3237 12.5041 43.1047L11.9189 44.4586L11.3337 45.8126C11.5216 45.8938 11.6859 46.0025 11.8336 46.1431L12.8507 45.0749ZM11.9189 44.4586L12.5041 43.1047L11.983 42.8794L11.3978 44.2334L10.8126 45.5874L11.3337 45.8126L11.9189 44.4586ZM11.3978 44.2334L11.983 42.8794L11.4619 42.6542L10.8767 44.0082L10.2916 45.3622L10.8126 45.5874L11.3978 44.2334ZM10.8767 44.0082L11.4619 42.6542C11.3945 42.6251 11.3509 42.5899 11.3048 42.5158L10.052 43.2942L8.79909 44.0727C9.15792 44.6502 9.66413 45.091 10.2916 45.3622L10.8767 44.0082ZM10.052 43.2942L11.3048 42.5158L11.0011 42.0271L9.74828 42.8055L8.49542 43.5839L8.79909 44.0727L10.052 43.2942ZM9.74828 42.8055L11.0011 42.0271L10.6975 41.5383L9.44461 42.3167L8.19175 43.0952L8.49542 43.5839L9.74828 42.8055ZM9.44461 42.3167L10.6975 41.5383C10.3568 40.9901 9.8916 40.5569 9.32495 40.2525L8.62688 41.5518L7.92881 42.8512C8.04758 42.915 8.12749 42.9918 8.19175 43.0952L9.44461 42.3167ZM8.62688 41.5518L9.32495 40.2525L8.81089 39.9763L8.11282 41.2756L7.41475 42.575L7.92881 42.8512L8.62688 41.5518ZM8.11282 41.2756L8.81089 39.9763L8.29683 39.7001L7.59876 40.9995L6.90069 42.2988L7.41475 42.575L8.11282 41.2756ZM7.59876 40.9995L8.29683 39.7001C8.3198 39.7125 8.37082 39.7487 8.4144 39.8134C8.45569 39.8748 8.45767 39.9132 8.45429 39.8899L6.99456 40.1016L5.53482 40.3133C5.65606 41.1493 6.11068 41.8744 6.90069 42.2988L7.59876 40.9995ZM6.99456 40.1016L8.45429 39.8899L8.36414 39.2683L6.90441 39.4799L5.44467 39.6916L5.53482 40.3133L6.99456 40.1016ZM6.90441 39.4799L8.36414 39.2683L8.27399 38.6466L6.81425 38.8582L5.35452 39.0699L5.44467 39.6916L6.90441 39.4799ZM6.81425 38.8582L8.27399 38.6466C8.17526 37.9657 7.89581 37.3237 7.38537 36.8077L6.33676 37.845L5.28815 38.8823C5.29417 38.8884 5.33305 38.9218 5.35452 39.0699L6.81425 38.8582ZM6.33676 37.845L7.38537 36.8077L6.99802 36.4161L5.94941 37.4534L4.9008 38.4908L5.28815 38.8823L6.33676 37.845ZM5.94941 37.4534L6.99802 36.4161L6.61068 36.0246L5.56207 37.0619L4.51345 38.0992L4.9008 38.4908L5.94941 37.4534ZM5.56207 37.0619L6.61068 36.0246C6.27814 35.6884 5.90088 35.3796 5.48682 35.0951L4.65143 36.3107L3.81603 37.5263C4.09969 37.7213 4.32953 37.9133 4.51345 38.0992L5.56207 37.0619ZM4.65143 36.3107L5.48682 35.0951L4.96353 34.7355L4.12813 35.9511L3.29274 37.1667L3.81603 37.5263L4.65143 36.3107ZM4.12813 35.9511L4.96353 34.7355L4.44023 34.3759L3.60484 35.5915L2.76945 36.8071L3.29274 37.1667L4.12813 35.9511ZM3.60484 35.5915L4.44023 34.3759C4.29778 34.278 4.24537 34.1954 4.21826 34.1311L2.85905 34.704L1.49984 35.2768C1.7694 35.9164 2.21418 36.4255 2.76945 36.8071L3.60484 35.5915ZM2.85905 34.704L4.21826 34.1311L3.99577 33.6032L2.63656 34.176L1.27735 34.7489L1.49984 35.2768L2.85905 34.704ZM2.63656 34.176L3.99577 33.6032L3.77327 33.0753L2.41406 33.6481L1.05485 34.221L1.27735 34.7489L2.63656 34.176ZM2.41406 33.6481L3.77327 33.0753C3.76107 33.0463 3.73934 32.9862 3.77487 32.8365L2.33974 32.4959L0.904606 32.1553C0.742567 32.838 0.77039 33.5461 1.05485 34.221L2.41406 33.6481ZM2.33974 32.4959L3.77487 32.8365L3.92304 32.2122L2.48791 31.8716L1.05278 31.531L0.904606 32.1553L2.33974 32.4959ZM2.48791 31.8716L3.92304 32.2122L4.07122 31.5879L2.63609 31.2473L1.20095 30.9067L1.05278 31.531L2.48791 31.8716ZM2.63609 31.2473L4.07122 31.5879C4.26403 30.7756 4.12344 29.9576 3.61918 29.2608L2.42426 30.1256L1.22934 30.9903C1.23201 30.994 1.22819 30.9894 1.22252 30.9765C1.21671 30.9633 1.21128 30.9467 1.20783 30.9284C1.20441 30.9103 1.20412 30.8969 1.20435 30.8905C1.20456 30.8847 1.20504 30.8895 1.20095 30.9067L2.63609 31.2473ZM2.42426 30.1256L3.61918 29.2608L3.25917 28.7634L2.06425 29.6281L0.869333 30.4929L1.22934 30.9903L2.42426 30.1256ZM2.06425 29.6281L3.25917 28.7634L2.89917 28.2659L1.70425 29.1307L0.50933 29.9954L0.869333 30.4929L2.06425 29.6281ZM1.70425 29.1307L2.89917 28.2659C2.89858 28.2651 2.90749 28.2773 2.91827 28.3028C2.92934 28.329 2.93979 28.3632 2.94552 28.403C2.95125 28.4428 2.95088 28.4787 2.94761 28.5072C2.94442 28.535 2.93923 28.5496 2.93943 28.549L1.5495 28.0553L0.159577 27.5616C-0.139959 28.4049 -0.0147347 29.2712 0.50933 29.9954L1.70425 29.1307ZM1.5495 28.0553L2.93943 28.549L3.14468 27.9712L1.75475 27.4775L0.36483 26.9838L0.159577 27.5616L1.5495 28.0553ZM1.75475 27.4775L3.14468 27.9712L3.34993 27.3933L1.96001 26.8996L0.570083 26.4059L0.36483 26.9838L1.75475 27.4775ZM1.96001 26.8996L3.34993 27.3933C3.52613 26.8973 3.63894 26.3915 3.67394 25.8799L2.20238 25.7792L0.730817 25.6785C0.71633 25.8903 0.66756 26.1315 0.570083 26.4059L1.96001 26.8996ZM2.20238 25.7792L3.67394 25.8799L3.71106 25.3373L2.23949 25.2366L0.767934 25.1359L0.730817 25.6785L2.20238 25.7792ZM2.23949 25.2366L3.71106 25.3373L3.74817 24.7947L2.27661 24.694L0.805051 24.5934L0.767934 25.1359L2.23949 25.2366ZM2.27661 24.694L3.74817 24.7947C3.76915 24.488 3.80711 24.1852 3.86197 23.8858L2.41114 23.6199L0.960297 23.3541C0.885282 23.7634 0.833562 24.1766 0.805051 24.5934L2.27661 24.694ZM2.41114 23.6199L3.86197 23.8858L3.95938 23.3543L2.50854 23.0884L1.0577 22.8225L0.960297 23.3541L2.41114 23.6199ZM2.50854 23.0884L3.95938 23.3543L4.05679 22.8228L2.60595 22.5569L1.15511 22.291L1.0577 22.8225L2.50854 23.0884ZM2.60595 22.5569L4.05679 22.8228C4.16693 22.2218 4.12201 21.6214 3.96118 21.0422L2.53994 21.4368L1.11871 21.8314C1.17576 22.0369 1.17485 22.1833 1.15511 22.291L2.60595 22.5569ZM2.53994 21.4368L3.96118 21.0422L3.79776 20.4536L2.37652 20.8482L0.955288 21.2428L1.11871 21.8314L2.53994 21.4368ZM2.37652 20.8482L3.79776 20.4536L3.63434 19.865L2.21311 20.2596L0.791871 20.6543L0.955288 21.2428L2.37652 20.8482ZM2.21311 20.2596L3.63434 19.865C3.62696 19.8385 3.63576 19.8547 3.62965 19.8989C3.62682 19.9193 3.62168 19.9388 3.61532 19.9557C3.60906 19.9723 3.60352 19.9812 3.60284 19.9823L2.36178 19.1852L1.12071 18.3881C0.67122 19.0879 0.57788 19.8835 0.791871 20.6543L2.21311 20.2596ZM2.36178 19.1852L3.60284 19.9823L3.91493 19.4964L2.67387 18.6993L1.4328 17.9021L1.12071 18.3881L2.36178 19.1852ZM2.67387 18.6993L3.91493 19.4964L4.22702 19.0105L2.98596 18.2133L1.74489 17.4162L1.4328 17.9021L2.67387 18.6993ZM2.98596 18.2133L4.22702 19.0105C4.55324 18.5025 4.75787 17.9413 4.83148 17.3411L3.36745 17.1616L1.90342 16.982C1.88449 17.1363 1.83479 17.2763 1.74489 17.4162L2.98596 18.2133ZM3.36745 17.1616L4.83148 17.3411L4.90088 16.7753L3.43685 16.5957L1.97282 16.4162L1.90342 16.982L3.36745 17.1616ZM3.43685 16.5957L4.90088 16.7753L4.97028 16.2094L3.50625 16.0299L2.04222 15.8503L1.97282 16.4162L3.43685 16.5957ZM3.50625 16.0299L4.97028 16.2094C5.00543 15.9228 5.06662 15.6422 5.15411 15.3666L3.74826 14.9203L2.3424 14.474C2.19975 14.9234 2.09959 15.3825 2.04222 15.8503L3.50625 16.0299ZM3.74826 14.9203L5.15411 15.3666L5.32672 14.8229L3.92087 14.3766L2.51501 13.9303L2.3424 14.474L3.74826 14.9203ZM3.92087 14.3766L5.32672 14.8229L5.49934 14.2792L4.09348 13.8329L2.68762 13.3866L2.51501 13.9303L3.92087 14.3766ZM4.09348 13.8329L5.49934 14.2792C5.58847 13.9984 5.70122 13.7275 5.83802 13.4656L4.53063 12.7827L3.22324 12.0998C3.00732 12.5132 2.82864 12.9424 2.68762 13.3866L4.09348 13.8329ZM4.53063 12.7827L5.83802 13.4656L6.10255 12.9592L4.79516 12.2763L3.48777 11.5934L3.22324 12.0998L4.53063 12.7827ZM4.79516 12.2763L6.10255 12.9592L6.36709 12.4528L5.0597 11.7699L3.75231 11.087L3.48777 11.5934L4.79516 12.2763ZM5.0597 11.7699L6.36709 12.4528C6.3671 12.4527 6.36548 12.4557 6.36216 12.4598C6.35885 12.4639 6.35653 12.4659 6.35708 12.4654C6.35744 12.4651 6.38144 12.4448 6.45123 12.419L5.93903 11.0358L5.42682 9.65255C4.72829 9.91122 4.12272 10.3778 3.75231 11.087L5.0597 11.7699ZM5.93903 11.0358L6.45123 12.419L7.06602 12.1913L6.55382 10.8081L6.04162 9.42489L5.42682 9.65255L5.93903 11.0358ZM6.55382 10.8081L7.06602 12.1913L7.68082 11.9637L7.16861 10.5804L6.65641 9.19723L6.04162 9.42489L6.55382 10.8081ZM7.16861 10.5804L7.68082 11.9637C8.38049 11.7046 8.98901 11.2352 9.35536 10.5177L8.0417 9.84693L6.72804 9.17617C6.729 9.17429 6.73176 9.16949 6.73639 9.16367C6.74102 9.15786 6.74472 9.15454 6.74548 9.1539C6.74769 9.15205 6.72576 9.17155 6.65641 9.19723L7.16861 10.5804ZM8.0417 9.84693L9.35536 10.5177L9.61365 10.0118L8.29999 9.34107L6.98633 8.67031L6.72804 9.17617L8.0417 9.84693ZM8.29999 9.34107L9.61365 10.0118L9.87194 9.50597L8.55828 8.83522L7.24462 8.16446L6.98633 8.67031L8.29999 9.34107ZM8.55828 8.83522L9.87194 9.50597C9.99971 9.25574 10.1501 9.02193 10.3238 8.80322L9.1688 7.88587L8.01377 6.96852C7.71784 7.34113 7.46124 7.74021 7.24462 8.16446L8.55828 8.83522ZM9.1688 7.88587L10.3238 8.80322L10.6761 8.35973L9.52103 7.44238L8.366 6.52503L8.01377 6.96852L9.1688 7.88587ZM9.52103 7.44238L10.6761 8.35973L11.0283 7.91624L9.87326 6.99889L8.71823 6.08154L8.366 6.52503L9.52103 7.44238ZM9.87326 6.99889L11.0283 7.91624C11.124 7.79571 11.2352 7.70676 11.3757 7.63932L10.7372 6.30969L10.0986 4.98005C9.55685 5.24023 9.09214 5.61075 8.71823 6.08154L9.87326 6.99889ZM10.7372 6.30969L11.3757 7.63932L11.8873 7.39361L11.2488 6.06398L10.6103 4.73434L10.0986 4.98005L10.7372 6.30969ZM11.2488 6.06398L11.8873 7.39361L12.399 7.1479L11.7605 5.81826L11.122 4.48863L10.6103 4.73434L11.2488 6.06398ZM11.7605 5.81826L12.399 7.1479C12.647 7.02879 12.9054 6.9364 13.1758 6.87052L12.8266 5.43745L12.4774 4.00438C12.0085 4.11863 11.5562 4.28013 11.122 4.48863L11.7605 5.81826ZM12.8266 5.43745L13.1758 6.87052L13.7302 6.73541L13.381 5.30234L13.0318 3.86928L12.4774 4.00438L12.8266 5.43745ZM13.381 5.30234L13.7302 6.73541L14.2847 6.60031L13.9355 5.16724L13.5863 3.73417L13.0318 3.86928L13.381 5.30234ZM13.9355 5.16724L14.2847 6.60031C14.8152 6.47103 15.3124 6.25652 15.7652 5.95267L14.9433 4.72789L14.1214 3.50311C13.9697 3.60492 13.795 3.68331 13.5863 3.73417L13.9355 5.16724ZM14.9433 4.72789L15.7652 5.95267L16.2186 5.64843L15.3967 4.42365L14.5747 3.19886L14.1214 3.50311L14.9433 4.72789ZM15.3967 4.42365L16.2186 5.64843L16.6719 5.34418L15.85 4.1194L15.0281 2.89462L14.5747 3.19886L15.3967 4.42365ZM15.85 4.1194L16.6719 5.34418C16.7824 5.27005 16.899 5.22539 17.0401 5.20714L16.8509 3.74433L16.6616 2.28152C16.0728 2.3577 15.5222 2.56309 15.0281 2.89462L15.85 4.1194ZM16.8509 3.74433L17.0401 5.20714L17.5876 5.13631L17.3983 3.67351L17.2091 2.2107L16.6616 2.28152L16.8509 3.74433ZM17.3983 3.67351L17.5876 5.13631L18.135 5.06549L17.9458 3.60268L17.7565 2.13987L17.2091 2.2107L17.3983 3.67351ZM17.9458 3.60268L18.135 5.06549C18.6364 5.00062 19.1204 4.86745 19.5822 4.66514L18.9903 3.3141L18.3984 1.96306C18.1975 2.05108 17.9851 2.1103 17.7565 2.13987L17.9458 3.60268ZM18.9903 3.3141L19.5822 4.66514L20.0792 4.44738L19.4874 3.09634L18.8955 1.7453L18.3984 1.96306L18.9903 3.3141ZM19.4874 3.09634L20.0792 4.44738L20.5763 4.22963L19.9844 2.87859L19.3925 1.52755L18.8955 1.7453L19.4874 3.09634ZM19.9844 2.87859L20.5763 4.22963C20.969 4.05761 21.3587 3.85498 21.7454 3.62401L20.989 2.35769L20.2327 1.09137C19.9427 1.26459 19.6626 1.40923 19.3925 1.52755L19.9844 2.87859ZM20.989 2.35769L21.7454 3.62401L22.2529 3.32087L21.4966 2.05455L20.7402 0.788228L20.2327 1.09137L20.989 2.35769ZM21.4966 2.05455L22.2529 3.32087L22.7604 3.01772L22.0041 1.7514L21.2477 0.485085L20.7402 0.788228L21.4966 2.05455ZM22.0041 1.7514L22.7604 3.01772C22.8616 2.95728 22.9295 2.94714 22.9953 2.95058L23.0724 1.4776L23.1494 0.00460947C22.4676 -0.03106 21.8233 0.141343 21.2477 0.485085L22.0041 1.7514ZM23.0724 1.4776L22.9953 2.95058L23.556 2.97991L23.6331 1.50693L23.7101 0.0339429L23.1494 0.00460947L23.0724 1.4776ZM23.6331 1.50693L23.556 2.97991L24.1168 3.00925L24.1938 1.53626L24.2709 0.0632763L23.7101 0.0339429L23.6331 1.50693ZM24.1938 1.53626L24.1168 3.00925C24.5025 3.02943 24.8863 3.04482 25.2682 3.05541L25.3091 1.58098L25.35 0.106549C24.9925 0.0966303 24.6328 0.0822096 24.2709 0.0632763L24.1938 1.53626ZM25.3091 1.58098L25.2682 3.05541L25.8227 3.0708L25.8636 1.59637L25.9045 0.121936L25.35 0.106549L25.3091 1.58098ZM25.8636 1.59637L25.8227 3.0708L26.3772 3.08619L26.4182 1.61175L26.4591 0.137322L25.9045 0.121936L25.8636 1.59637ZM26.4182 1.61175L26.3772 3.08619C26.6821 3.09464 26.984 3.12308 27.2835 3.17144L27.5187 1.71531L27.7538 0.259168C27.3254 0.189982 26.8936 0.14938 26.4591 0.137322L26.4182 1.61175ZM27.5187 1.71531L27.2835 3.17144L27.8295 3.25961L28.0647 1.80347L28.2998 0.347332L27.7538 0.259168L27.5187 1.71531ZM28.0647 1.80347L27.8295 3.25961L28.3755 3.34777L28.6106 1.89163L28.8458 0.435496L28.2998 0.347332L28.0647 1.80347ZM28.6106 1.89163L28.3755 3.34777C28.6561 3.39309 28.93 3.46186 29.1981 3.55427L29.6788 2.15979L30.1595 0.765311C29.7313 0.617727 29.2931 0.507732 28.8458 0.435496L28.6106 1.89163ZM29.6788 2.15979L29.1981 3.55427L29.7203 3.73426L30.2009 2.33978L30.6816 0.945302L30.1595 0.765311L29.6788 2.15979ZM30.2009 2.33978L29.7203 3.73426L30.2424 3.91425L30.7231 2.51977L31.2038 1.12529L30.6816 0.945302L30.2009 2.33978ZM30.7231 2.51977L30.2424 3.91425C30.5124 4.00731 30.7715 4.12183 31.0205 4.25804L31.7283 2.96396L32.4361 1.66988C32.0411 1.45383 31.63 1.27223 31.2038 1.12529L30.7231 2.51977ZM31.7283 2.96396L31.0205 4.25804L31.5035 4.52223L32.2113 3.22816L32.9191 1.93408L32.4361 1.66988L31.7283 2.96396ZM32.2113 3.22816L31.5035 4.52223L31.9866 4.78643L32.6944 3.49235L33.4022 2.19828L32.9191 1.93408L32.2113 3.22816ZM32.6944 3.49235L31.9866 4.78643C32.5762 5.10895 33.2196 5.23156 33.8704 5.19413L33.7857 3.72156L33.701 2.249C33.5407 2.25821 33.4565 2.22802 33.4022 2.19828L32.6944 3.49235ZM33.7857 3.72156L33.8704 5.19413L34.4788 5.15914L34.3941 3.68657L34.3094 2.21401L33.701 2.249L33.7857 3.72156ZM34.3941 3.68657L34.4788 5.15914L35.0871 5.12415L35.0024 3.65159L34.9177 2.17902L34.3094 2.21401L34.3941 3.68657ZM35.0024 3.65159L35.0871 5.12415C35.3192 5.11081 35.5168 5.13892 35.6924 5.19693L36.155 3.79635L36.6176 2.39576C36.0676 2.2141 35.4968 2.14572 34.9177 2.17902L35.0024 3.65159ZM36.155 3.79635L35.6924 5.19693L36.2366 5.37668L36.6992 3.97609L37.1618 2.57551L36.6176 2.39576L36.155 3.79635ZM36.6992 3.97609L36.2366 5.37668L36.7809 5.55643L37.2434 4.15584L37.706 2.75526L37.1618 2.57551L36.6992 3.97609ZM37.2434 4.15584L36.7809 5.55643C36.9133 5.60017 37.0217 5.66789 37.1227 5.77322L38.1873 4.75227L39.2518 3.73133C38.82 3.28108 38.2992 2.95118 37.706 2.75526L37.2434 4.15584ZM38.1873 4.75227L37.1227 5.77322L37.5223 6.1899L38.5869 5.16895L39.6514 4.14801L39.2518 3.73133L38.1873 4.75227ZM38.5869 5.16895L37.5223 6.1899L37.9219 6.60658L38.9865 5.58563L40.0511 4.56469L39.6514 4.14801L38.5869 5.16895ZM38.9865 5.58563L37.9219 6.60658C38.1624 6.8573 38.3891 7.11286 38.6024 7.37322L39.7434 6.43848L40.8844 5.50373C40.6213 5.18254 40.3434 4.86955 40.0511 4.56469L38.9865 5.58563ZM39.7434 6.43848L38.6024 7.37322L38.9597 7.80938L40.1007 6.87464L41.2417 5.9399L40.8844 5.50373L39.7434 6.43848ZM40.1007 6.87464L38.9597 7.80938L39.317 8.24554L40.458 7.3108L41.599 6.37606L41.2417 5.9399L40.1007 6.87464ZM40.458 7.3108L39.317 8.24554C39.658 8.66176 40.0596 9.01394 40.5167 9.29808L41.2954 8.04542L42.0742 6.79276C41.8911 6.67896 41.7345 6.54139 41.599 6.37606L40.458 7.3108ZM41.2954 8.04542L40.5167 9.29808L40.9968 9.59654L41.7755 8.34388L42.5543 7.09121L42.0742 6.79276L41.2954 8.04542ZM41.7755 8.34388L40.9968 9.59654L41.4769 9.895L42.2556 8.64233L43.0344 7.38967L42.5543 7.09121L41.7755 8.34388ZM42.2556 8.64233L41.4769 9.895C41.6562 10.0065 41.805 10.1393 41.9303 10.2964L43.0833 9.3764L44.2362 8.45645C43.8981 8.03271 43.4951 7.67611 43.0344 7.38967L42.2556 8.64233ZM43.0833 9.3764L41.9303 10.2964L42.2779 10.732L43.4308 9.81202L44.5838 8.89206L44.2362 8.45645L43.0833 9.3764ZM43.4308 9.81202L42.2779 10.732L42.6255 11.1676L43.7784 10.2476L44.9314 9.32768L44.5838 8.89206L43.4308 9.81202ZM43.7784 10.2476L42.6255 11.1676C42.8447 11.4423 43.058 11.7212 43.2656 12.0044L44.4552 11.1323L45.6448 10.2602C45.4134 9.94464 45.1756 9.63378 44.9314 9.32768L43.7784 10.2476ZM44.4552 11.1323L43.2656 12.0044L43.5948 12.4534L44.7844 11.5814L45.974 10.7093L45.6448 10.2602L44.4552 11.1323ZM44.7844 11.5814L43.5948 12.4534L43.924 12.9025L45.1136 12.0304L46.3032 11.1584L45.974 10.7093L44.7844 11.5814ZM45.1136 12.0304L43.924 12.9025C44.1343 13.1894 44.341 13.4808 44.5441 13.7768L45.7603 12.9423L46.9766 12.1079C46.7563 11.7868 46.5318 11.4702 46.3032 11.1584L45.1136 12.0304ZM45.7603 12.9423L44.5441 13.7768L44.8616 14.2396L46.0779 13.4052L47.2942 12.5708L46.9766 12.1079L45.7603 12.9423ZM46.0779 13.4052L44.8616 14.2396L45.1792 14.7025L46.3954 13.8681L47.6117 13.0336L47.2942 12.5708L46.0779 13.4052ZM46.3954 13.8681L45.1792 14.7025C45.327 14.918 45.4478 15.1464 45.5426 15.3895L46.9168 14.8536L48.291 14.3176C48.1141 13.8639 47.8873 13.4353 47.6117 13.0336L46.3954 13.8681ZM46.9168 14.8536L45.5426 15.3895L45.7465 15.9122L47.1207 15.3762L48.4948 14.8403L48.291 14.3176L46.9168 14.8536ZM47.1207 15.3762L45.7465 15.9122L45.9503 16.4348L47.3245 15.8989L48.6987 15.3629L48.4948 14.8403L47.1207 15.3762ZM47.3245 15.8989L45.9503 16.4348C46.0237 16.6231 46.0655 16.8237 46.0727 17.045L47.5469 16.9974L49.0212 16.9498C49.0035 16.4032 48.897 15.8715 48.6987 15.3629L47.3245 15.8989ZM47.5469 16.9974L46.0727 17.045L46.0913 17.6209L47.5655 17.5733L49.0398 17.5257L49.0212 16.9498L47.5469 16.9974ZM47.5655 17.5733L46.0913 17.6209L46.1099 18.1969L47.5841 18.1493L49.0584 18.1017L49.0398 17.5257L47.5655 17.5733ZM47.5841 18.1493L46.1099 18.1969C46.1247 18.6563 46.1745 19.106 46.2615 19.5443L47.7083 19.2571L49.1551 18.9699C49.1013 18.699 49.0683 18.4101 49.0584 18.1017L47.5841 18.1493ZM47.7083 19.2571L46.2615 19.5443L46.3671 20.0762L47.8139 19.789L49.2607 19.5018L49.1551 18.9699L47.7083 19.2571ZM47.8139 19.789L46.3671 20.0762L46.4727 20.6081L47.9195 20.3209L49.3663 20.0337L49.2607 19.5018L47.8139 19.789ZM47.9195 20.3209L46.4727 20.6081C46.5235 20.8639 46.5478 21.1219 46.5456 21.3837L48.0205 21.396L49.4955 21.4084C49.4994 20.9459 49.4563 20.4871 49.3663 20.0337L47.9195 20.3209ZM48.0205 21.396L46.5456 21.3837L46.541 21.9269L48.016 21.9393L49.4909 21.9517L49.4955 21.4084L48.0205 21.396ZM48.016 21.9393L46.541 21.9269L46.5365 22.4702L48.0114 22.4826L49.4864 22.4949L49.4909 21.9517L48.016 21.9393ZM48.0114 22.4826L46.5365 22.4702C46.5306 23.1655 46.7524 23.8022 47.111 24.3579L48.3504 23.5582L49.5898 22.7585C49.4903 22.6044 49.4861 22.5239 49.4864 22.4949L48.0114 22.4826ZM48.3504 23.5582L47.111 24.3579L47.4545 24.8902L48.6939 24.0905L49.9332 23.2908L49.5898 22.7585L48.3504 23.5582ZM48.6939 24.0905L47.4545 24.8902L47.798 25.4226L49.0374 24.6229L50.2767 23.8232L49.9332 23.2908L48.6939 24.0905ZM49.0374 24.6229L47.798 25.4226C47.9062 25.5903 47.9261 25.6384 47.9139 25.6102C47.9081 25.5969 47.8923 25.5592 47.8758 25.5032C47.8618 25.4557 47.8301 25.3389 47.8246 25.1804C47.8197 25.0384 47.8295 24.697 48.0613 24.3452C48.335 23.93 48.7508 23.7463 49.0939 23.7043L49.273 25.1684L49.452 26.6325C49.8131 26.5883 50.2421 26.397 50.5244 25.9688C50.7649 25.604 50.7786 25.2442 50.7728 25.0783C50.7618 24.7619 50.6532 24.5127 50.6221 24.4406C50.5314 24.2306 50.3975 24.0103 50.2767 23.8232L49.0374 24.6229ZM49.273 25.1684L49.0939 23.7043L48.986 23.7175L49.1651 25.1816L49.3441 26.6457L49.452 26.6325L49.273 25.1684ZM49.1651 25.1816L48.986 23.7175L48.8781 23.7307L49.0572 25.1948L49.2362 26.6589L49.3441 26.6457L49.1651 25.1816ZM49.0572 25.1948L48.8781 23.7307C48.292 23.8024 47.9612 24.1761 47.8628 24.2953C47.7326 24.453 47.651 24.6105 47.6052 24.7068C47.5093 24.9087 47.4352 25.1363 47.3763 25.3414L48.794 25.7486L50.2117 26.1557C50.2563 26.0004 50.2779 25.9556 50.2697 25.9729C50.2678 25.9769 50.228 26.0641 50.1377 26.1734C50.0903 26.2308 50.0037 26.3255 49.8713 26.4175C49.7366 26.5111 49.522 26.6239 49.2362 26.6589L49.0572 25.1948ZM48.794 25.7486L47.3763 25.3414L47.2211 25.882L48.6388 26.2891L50.0565 26.6963L50.2117 26.1557L48.794 25.7486Z" fill="var(--stroke-0, #935F3F)"/>
</g>
<circle id="Ellipse 6" cx="25.3516" cy="25.208" r="17.7" fill="var(--fill-0, #724527)"/>
</g>
</svg>
