<svg preserveAspectRatio="none" width="100%" height="100%" overflow="visible" style="display: block;" viewBox="0 0 641.879 146.47" fill="none" xmlns="http://www.w3.org/2000/svg">
<g id="Group 3">
<path id="Union" d="M324.067 0.128625C324.685 -0.128269 325.302 0.0415803 325.767 0.27218L326.813 0.791711C326.985 0.877057 327.127 0.946506 327.238 1.00167L327.271 0.988L327.721 1.1921C327.739 1.18886 327.758 1.1869 327.779 1.18234L328.237 1.08175L328.694 0.982141C329.162 0.879976 329.664 0.892957 330.136 1.11886L330.474 1.28097L330.812 1.44308C331.086 1.57405 331.349 1.72661 331.601 1.90011L331.914 2.11691L332.228 2.33273C332.319 2.39548 332.418 2.43726 332.534 2.4587L332.914 2.52902L333.294 2.59835C333.38 2.61408 333.516 2.61699 333.719 2.5671L334.646 2.33859C335.07 2.23455 335.584 2.29858 335.975 2.70089C336.29 3.02549 336.394 3.44572 336.437 3.74874L336.534 4.44015L336.631 5.13253C336.637 5.17886 336.647 5.22016 336.654 5.25753L337.367 5.58273L337.528 5.48995L338.089 5.16281C338.516 4.91379 339.202 4.64485 339.871 4.97726L340.005 5.05148L340.325 5.25167L340.646 5.45187C340.719 5.49722 340.805 5.52889 340.92 5.53878L341.713 5.60714C342.119 5.64208 342.506 5.7607 342.858 5.97042L343.183 6.16378L343.507 6.35616C343.912 6.59686 344.209 6.94941 344.424 7.34445L344.871 8.17062C345 8.40854 345.136 8.62074 345.275 8.80929L345.53 9.15402L345.691 9.37081L345.863 9.44894L346.073 9.45382L346.482 9.46163C346.744 9.46655 347.008 9.46695 347.273 9.46359L347.688 9.4587L348.103 9.45284L348.224 9.45577C348.506 9.47181 348.787 9.55718 349.04 9.72823C349.321 9.91793 349.511 10.1754 349.64 10.4323L349.855 10.863L350.071 11.2946C350.089 11.3299 350.107 11.3605 350.123 11.3874L351.434 11.9841H351.444L351.866 11.9626C351.985 11.9566 352.173 11.9165 352.443 11.7927L353.484 11.3161C353.776 11.1826 354.221 11.0577 354.693 11.238C355.184 11.4255 355.429 11.8339 355.544 12.155L355.726 12.6618L355.907 13.1677C355.943 13.2667 355.974 13.317 355.988 13.3366L356.293 13.5066L356.604 13.6804C356.616 13.6812 356.648 13.6833 356.707 13.6706L357.621 13.4734C358.066 13.3774 358.535 13.3773 358.987 13.5437L359.692 13.8034C360.287 14.0224 360.632 14.5095 360.821 14.9919L361.013 15.4782L361.021 15.4987L361.096 15.4675L361.604 15.2546C362.108 15.0441 362.787 14.9432 363.39 15.3718L364.013 15.8151C364.034 15.8303 364.066 15.849 364.148 15.8484L364.562 15.8444L364.976 15.8415C365.486 15.8373 365.966 16.0049 366.357 16.3552L366.65 16.6179L366.943 16.8796C367.27 17.1727 367.51 17.544 367.687 17.947L367.889 18.4089L368.03 18.7331L368.201 18.7341L368.613 18.7351C368.953 18.7357 369.289 18.8364 369.577 19.0564C369.853 19.2666 370.028 19.5426 370.142 19.8073L370.51 20.6648L371.322 21.0349L371.746 20.7536L372.338 20.3591C372.594 20.1884 372.93 20.0129 373.315 19.9792C373.713 19.9445 374.1 20.0688 374.396 20.3464L374.518 20.4753L374.784 20.7946L375.052 21.114C375.216 21.3101 375.383 21.4974 375.553 21.6755L376.111 22.2595C376.266 22.4217 376.425 22.5673 376.589 22.696L376.893 22.9343L377.195 23.1726C377.222 23.1935 377.252 23.2101 377.321 23.2126L377.727 23.2273L378.132 23.2409C378.312 23.2473 378.519 23.2311 378.755 23.1823L379.209 23.0876L379.664 22.9939C380.128 22.898 380.623 22.9156 381.088 23.1355L381.427 23.2956L381.766 23.4568C382.495 23.8018 382.694 24.5842 382.76 25.1023L382.85 25.8093L382.887 26.1032L383.189 26.0271L383.419 25.9831C383.657 25.9522 383.917 25.9652 384.18 26.0583C384.493 26.1694 384.733 26.3676 384.908 26.5974L384.979 26.697L385.221 27.0651L385.495 26.9284L386.029 26.6609C386.468 26.4414 387.062 26.2663 387.658 26.4929L387.777 26.5437L388.116 26.7038L388.455 26.865C388.823 27.0389 389.136 27.2905 389.397 27.5984L389.665 27.9148L389.934 28.2312C390.111 28.4403 390.289 28.6488 390.467 28.8562L391.006 29.4831C391.11 29.6045 391.212 29.6818 391.31 29.7321L391.643 29.905L391.977 30.0778C392.17 30.1777 392.367 30.268 392.569 30.3484L393.267 30.6257C393.565 30.7444 393.848 30.8941 394.116 31.073L394.433 31.2839L394.575 31.3796C394.58 31.3771 394.586 31.3755 394.592 31.3728L395.128 31.1003L395.664 30.8269C395.939 30.6866 396.351 30.5433 396.808 30.654C397.253 30.7619 397.539 31.057 397.707 31.3562L397.771 31.4841L397.977 31.9372L398.183 32.3903C398.299 32.6472 398.423 32.8685 398.552 33.0573L398.799 33.4196L398.898 33.5661L399.151 33.5026L399.617 33.3845C399.915 33.3091 400.217 33.2272 400.522 33.1374L400.998 32.9968L401.474 32.8571L401.593 32.8259C401.88 32.7611 402.221 32.7559 402.562 32.903C402.905 33.0514 403.136 33.3059 403.284 33.5651L403.343 33.6765L403.556 34.113L403.769 34.5505C403.845 34.7068 403.903 34.7436 403.908 34.7468L404.235 34.9353L404.554 35.1179C404.562 35.119 404.595 35.1226 404.657 35.111L405.106 35.028L405.557 34.945C405.98 34.8666 406.416 34.8685 406.838 34.9948L407.2 35.1032L407.563 35.2116C408.015 35.3468 408.299 35.6717 408.459 35.99C408.61 36.2898 408.676 36.626 408.705 36.9382L408.774 37.6901L408.812 38.0954L409.7 38.4997L409.903 38.3816L410.466 38.0505C410.893 37.7997 411.599 37.5206 412.275 37.8855L412.41 37.9675L412.726 38.1804L413.04 38.3933C413.061 38.4076 413.097 38.4277 413.188 38.4255L413.604 38.4157L414.021 38.405L414.178 38.4099C414.542 38.4389 414.878 38.6001 415.133 38.8825C415.389 39.1669 415.508 39.5132 415.57 39.8054L415.701 40.4235L415.81 40.9372L415.867 40.9431L416.263 40.9802C416.396 40.9925 416.57 40.9816 416.792 40.9275L417.72 40.7009L417.944 40.6599C418.176 40.6307 418.428 40.6419 418.683 40.7263C418.987 40.8272 419.228 41.0105 419.41 41.2302L419.484 41.3259L419.736 41.6765L419.821 41.7946L420.094 41.7107L420.572 41.5622C421.021 41.4234 421.514 41.3756 422 41.5232L422.362 41.6325L422.724 41.7429C423.206 41.8895 423.584 42.1944 423.86 42.5818L424.364 43.2868C424.541 43.5346 424.714 43.7897 424.883 44.0515L425.125 44.4255L425.366 44.7995C425.509 45.021 425.657 45.2257 425.81 45.4138L426.073 45.74L426.337 46.0651C426.34 46.0689 426.343 46.072 426.346 46.0749L426.383 46.0915L426.741 46.1452L427.127 46.2028C427.568 46.2682 427.97 46.4488 428.311 46.737L428.607 46.989L428.905 47.24L429.211 47.3786L429.525 47.4509L429.859 47.5261L429.822 47.2995C429.742 46.8196 429.713 46.3363 429.736 45.8523L429.791 44.7273C429.804 44.4584 429.789 44.1883 429.745 43.9157L429.653 43.3532L429.562 42.7907C429.44 42.0375 429.606 41.3217 429.959 40.6921L430.274 40.1296L430.547 39.6433L430.357 39.1941L430.121 38.6316C429.857 38.0018 429.772 37.3258 429.904 36.6403L430.013 36.0778L430.122 35.5153C430.176 35.2342 430.202 34.9562 430.201 34.6804L430.2 34.1179L430.198 33.5554C430.198 33.3067 430.166 33.0526 430.101 32.7927L429.815 31.6677C429.701 31.2133 429.624 30.755 429.588 30.2937L429.544 29.7312L429.499 29.1687C429.448 28.518 429.575 27.8906 429.839 27.3073L430.093 26.7448L430.348 26.1823C430.358 26.1598 430.363 26.1436 430.365 26.1345C430.367 26.1268 430.368 26.1222 430.368 26.1208V26.1189C430.368 26.1173 430.367 26.1109 430.364 26.1003L430.032 24.9753C429.871 24.4311 429.808 23.8718 429.854 23.3064L429.899 22.7439L429.944 22.1814C429.975 21.7948 430.011 21.4077 430.051 21.0212L430.108 20.4587L430.167 19.8962C430.204 19.54 430.234 19.1829 430.258 18.8269L430.332 17.7019C430.362 17.2459 430.428 16.792 430.531 16.3415L430.66 15.779L430.769 15.3083C430.765 15.3035 430.762 15.2983 430.758 15.2927L430.358 14.7302L429.96 14.1677C429.793 13.9317 429.597 13.6151 429.491 13.2536C429.387 12.8985 429.283 12.1411 429.878 11.5163L430.235 11.1413C430.674 10.6803 431.224 10.5846 431.575 10.5798C431.924 10.5751 432.253 10.6528 432.514 10.7351L433.076 10.9128L433.511 11.0495L434.036 10.695L434.599 10.3161C435.285 9.85341 436.117 9.6768 436.958 9.95675L437.127 10.0183L438.252 10.4753C438.41 10.5393 438.531 10.5503 438.637 10.5378L439.762 10.405C440.131 10.3614 440.501 10.3158 440.871 10.2683L441.996 10.1237C442.488 10.0606 442.981 10.0548 443.474 10.1081L444.036 10.1696L444.599 10.2302C444.827 10.2549 445.055 10.2462 445.288 10.2028L446.413 9.99386C446.951 9.89365 447.494 9.88325 448.035 9.96456L448.598 10.0495L449.16 10.1335C449.447 10.1766 449.732 10.1941 450.016 10.1853L451.141 10.1501C451.785 10.13 452.401 10.28 452.97 10.5573L454.095 11.1062C454.252 11.1826 454.355 11.1909 454.43 11.1843L454.992 11.1345L455.555 11.0837C455.97 11.0467 456.386 11.0271 456.802 11.0241L457.927 11.0163C458.099 11.0151 458.289 10.9804 458.503 10.8943L459.628 10.4411C460.34 10.1548 461.096 10.1371 461.823 10.4001L462.948 10.8064C463.254 10.9169 463.554 11.0006 463.85 11.0583L464.412 11.1677L464.975 11.278C465.068 11.2963 465.166 11.2926 465.296 11.2448L465.858 11.0388L466.421 10.8318C466.871 10.6665 467.327 10.5403 467.789 10.4548L468.914 10.2458C469.357 10.1637 469.803 10.1132 470.25 10.0944L471.375 10.0476C472.062 10.0188 472.707 10.1995 473.288 10.5202L474.413 11.1413C474.603 11.2462 474.739 11.2718 474.834 11.2732L475.959 11.2888C476.216 11.2924 476.477 11.2656 476.742 11.2077L477.305 11.0857L477.867 10.9626C478.311 10.8657 478.758 10.8012 479.206 10.7693L480.331 10.6892C480.538 10.6744 480.759 10.6243 481 10.5271L482.125 10.072L482.271 10.0173C483.003 9.76396 483.762 9.81712 484.458 10.1491L485.021 10.4177L485.49 10.6423L485.964 10.4089L486.526 10.1325L486.688 10.0603C487.442 9.74591 488.231 9.80062 488.933 10.1677L489.082 10.2517L490.207 10.9235C490.228 10.9359 490.243 10.9442 490.254 10.9489L490.785 10.8249L491.348 10.6941C491.942 10.5558 492.547 10.5539 493.143 10.6882L493.705 10.8142L494.268 10.9411C494.372 10.9646 494.472 10.9623 494.598 10.9216L495.16 10.739L495.723 10.5554C496.404 10.3336 497.108 10.337 497.787 10.5632L498.912 10.9382C498.925 10.9423 498.932 10.9437 498.934 10.9441C498.934 10.944 498.937 10.9433 498.942 10.9421C498.949 10.9406 498.961 10.9374 498.98 10.9294L499.543 10.6931L500.105 10.4558C500.619 10.2397 501.155 10.1054 501.706 10.0661L502.831 9.98605C503.329 9.95061 503.857 9.99968 504.36 10.2087L504.574 10.3083L504.959 10.5075L505.343 10.7068C506.027 11.061 506.425 11.6683 506.655 12.2458L506.879 12.8083L507.104 13.3708C507.439 14.2143 507.329 15.074 506.894 15.8122L506.562 16.3747L506.23 16.9372C506.224 16.9475 506.219 16.9564 506.216 16.9636L506.353 17.4821L506.5 18.0446C506.641 18.5819 506.691 19.1308 506.642 19.6833L506.591 20.2458L506.541 20.8083C506.528 20.9595 506.545 21.1213 506.609 21.3064L507.002 22.4314C507.246 23.1296 507.243 23.8562 506.996 24.5525L506.796 25.115L506.597 25.6775C506.502 25.9448 506.445 26.2017 506.42 26.4499L506.307 27.5749C506.3 27.6462 506.307 27.7454 506.381 27.8982L506.924 29.0232C507.296 29.7933 507.313 30.634 506.957 31.4196L506.447 32.5446C506.446 32.5464 506.445 32.548 506.444 32.5495L506.645 33.1003L506.849 33.6628C507.099 34.3505 507.113 35.072 506.883 35.7702L506.697 36.3327L506.55 36.779L506.886 37.3034L507.247 37.8659C507.711 38.5892 507.866 39.4589 507.535 40.3318L507.109 41.4568C507.08 41.5348 507.082 41.5757 507.098 41.6286L507.428 42.7536C507.631 43.4465 507.599 44.153 507.35 44.823L507.14 45.3855L506.933 45.9401C506.934 45.9424 506.935 45.9451 506.937 45.948L507.183 46.5105L507.43 47.073C507.686 47.6565 507.805 48.2814 507.75 48.9275L507.654 50.0525C507.602 50.6632 507.41 51.2396 507.116 51.7732L506.807 52.3357L506.576 52.7536L506.792 53.1657L507.087 53.7282C507.541 54.5948 507.48 55.534 506.984 56.3376L506.291 57.4626C506.254 57.5235 506.242 57.5585 506.239 57.5691L506.328 58.1257L506.418 58.6882C506.48 59.0773 506.537 59.4669 506.588 59.8562L506.734 60.9812C506.81 61.5608 506.766 62.1384 506.61 62.7009L506.454 63.2634L506.299 63.8259C506.296 63.8369 506.294 63.8437 506.294 63.8464C506.294 63.8488 506.294 63.8509 506.294 63.8532C506.294 63.8561 506.297 63.879 506.318 63.9265L506.576 64.489L506.833 65.0515C507.154 65.752 507.214 66.5158 506.969 67.2663L506.784 67.8288L506.601 68.3913C506.571 68.482 506.571 68.5489 506.595 68.6306L506.759 69.1931L506.924 69.7556C507.081 70.2941 507.144 70.8471 507.104 71.406L507.024 72.531C506.989 73.038 506.887 73.5378 506.724 74.0261L506.535 74.5886L506.344 75.1628C506.345 75.1686 506.35 75.18 506.357 75.197L506.604 75.7595L506.853 76.322C507.072 76.8222 507.219 77.342 507.281 77.8776L507.412 79.0026C507.473 79.5301 507.453 80.0584 507.354 80.5808L507.247 81.1433L507.14 81.7058C507.139 81.7084 507.138 81.711 507.138 81.7136L507.274 81.9265L507.557 81.9323L507.966 81.9401C508.374 81.9483 508.748 82.1167 509.024 82.4187C509.274 82.6909 509.4 83.0213 509.469 83.3083L509.611 83.9011L509.629 83.9753L510.709 84.4675C510.768 84.4676 510.827 84.4692 510.887 84.4675L511.304 84.4558L511.722 84.4431C511.958 84.4361 512.206 84.414 512.464 84.3757L512.905 84.3103L513.348 84.2448C513.848 84.1709 514.35 84.2759 514.762 84.6042L514.933 84.7585L515.213 85.0466L515.494 85.3347C515.673 85.5183 515.854 85.6982 516.037 85.8728L516.324 86.1462L516.506 86.3191L516.901 86.2263L517.363 86.1169C517.873 85.9962 518.434 86.0452 518.909 86.4011L519.003 86.4773L519.3 86.7312L519.596 86.986C519.873 87.2245 520.113 87.5067 520.319 87.822L520.562 88.1941L520.69 88.3894L520.938 88.3484L521.385 88.2741C521.832 88.1993 522.295 88.2258 522.734 88.4138L523.424 88.7087C523.979 88.9461 524.307 89.4144 524.496 89.8855L524.686 90.3581L524.771 90.32L525.291 90.0847C525.595 89.9469 526.086 89.8176 526.586 90.073C527.069 90.3201 527.261 90.7776 527.341 91.0866L527.475 91.6042L527.978 91.3454C528.431 91.111 529.125 90.9111 529.76 91.3044L529.887 91.3913L530.192 91.6237L530.499 91.8562C530.634 91.9589 530.776 92.0384 530.924 92.0984L531.271 92.24L531.62 92.3806C531.725 92.4229 531.851 92.4506 532.011 92.4519L532.421 92.4548L532.832 92.4577C533.343 92.4619 533.751 92.7314 533.993 93.113C534.198 93.4352 534.271 93.8089 534.3 94.1228L534.369 94.8757L534.402 95.2497L534.476 95.2829L534.681 95.2468C535.142 95.164 535.627 95.195 536.08 95.4148L536.418 95.5788L536.755 95.7419C537.097 95.9078 537.399 96.136 537.661 96.4128L537.939 96.7068L538.188 96.9704L538.577 96.9616L538.994 96.9509C539.302 96.9431 539.605 96.9492 539.903 96.9694L540.304 96.9958L540.703 97.0232C541.326 97.0655 541.81 97.4044 542.118 97.8874L542.359 98.2644L542.6 98.6423C542.635 98.6979 542.663 98.7276 542.68 98.7419C542.695 98.7549 542.704 98.7594 542.709 98.7614L543.06 98.8972L543.409 99.0339C543.588 99.1034 543.775 99.1583 543.972 99.198L544.349 99.2732L544.727 99.3493C544.803 99.3646 544.93 99.3703 545.13 99.321L545.595 99.2058L546.059 99.0905C546.49 98.9838 546.944 98.9598 547.389 99.0788L548.123 99.2761C548.387 99.3467 548.648 99.4248 548.905 99.5105L549.264 99.6296L549.621 99.7487C549.855 99.8264 550.089 99.9022 550.324 99.9763L551.045 100.203C551.824 100.448 552.106 101.178 552.212 101.696L552.34 102.321L552.467 102.946C552.48 103.013 552.495 103.063 552.508 103.098C552.508 103.1 552.509 103.102 552.51 103.104L552.738 103.22L553.072 103.391C553.308 103.512 553.542 103.636 553.773 103.767L554.428 104.138C554.712 104.299 554.978 104.493 555.225 104.715L555.249 104.737L556.23 105.183L556.637 105.153L556.849 105.147C557.269 105.159 557.664 105.304 557.991 105.585L558.149 105.736L558.425 106.035L558.628 106.254L558.993 106.208L559.43 106.153C559.858 106.099 560.293 106.134 560.707 106.296L561.057 106.433L561.406 106.57C561.45 106.587 561.534 106.606 561.688 106.584L562.13 106.52L562.571 106.456L562.691 106.442C562.977 106.42 563.283 106.465 563.574 106.621C563.901 106.796 564.12 107.065 564.262 107.335L564.482 107.755L564.704 108.175C564.788 108.334 564.857 108.386 564.883 108.402L565.205 108.598L565.528 108.795C565.592 108.833 565.671 108.861 565.785 108.867L566.188 108.888L566.59 108.909C566.956 108.928 567.313 109 567.652 109.132L568.002 109.267L568.353 109.403C568.825 109.586 569.178 109.922 569.429 110.322L569.612 110.617L569.918 110.427L570.494 110.066C570.751 109.905 571.186 109.691 571.69 109.788C572.218 109.889 572.515 110.256 572.667 110.585L572.724 110.721L572.905 111.228L573.078 111.712L573.283 111.755L573.659 111.833C574.183 111.941 574.599 112.241 574.896 112.648L575.148 112.996L575.263 113.153L575.54 113.088L576.003 112.976C576.536 112.849 577.12 112.918 577.591 113.321L577.684 113.407L577.969 113.687L578.253 113.967C578.261 113.975 578.266 113.979 578.269 113.981C578.27 113.982 578.271 113.982 578.271 113.982L578.272 113.983H578.273C578.274 113.983 578.275 113.984 578.276 113.984C578.28 113.985 578.287 113.986 578.3 113.987L578.7 114.012L579.101 114.039C579.393 114.057 579.682 114.087 579.967 114.128L580.354 114.184L580.739 114.24C581.287 114.319 581.729 114.612 582.041 115.032L582.297 115.376L582.474 115.614L582.775 115.587L583.205 115.549L583.323 115.542C583.601 115.535 583.89 115.592 584.161 115.744C584.466 115.914 584.678 116.163 584.823 116.422L585.051 116.828L585.204 117.1L585.43 117.091L585.851 117.072C586.377 117.048 586.854 117.233 587.215 117.595L587.362 117.761L587.623 118.092L587.885 118.423C587.996 118.563 588.107 118.659 588.213 118.725L588.534 118.926L588.854 119.126C589.163 119.318 589.436 119.56 589.676 119.841L589.944 120.156L590.065 120.298L590.395 120.206L590.867 120.072C591.326 119.942 591.832 119.914 592.321 120.102L593.022 120.372C593.112 120.406 593.229 120.428 593.388 120.421L593.809 120.4L594.23 120.38C594.692 120.357 595.148 120.458 595.555 120.716L595.874 120.919L596.194 121.121C596.446 121.28 596.687 121.457 596.919 121.651L597.218 121.901L597.516 122.15C597.758 122.353 597.985 122.578 598.198 122.823L598.469 123.134L598.738 123.446C598.892 123.623 599.051 123.785 599.214 123.93L599.506 124.192L599.633 124.305L600.062 124.137L600.564 123.941C601.068 123.744 601.727 123.684 602.284 124.11L602.394 124.202L602.686 124.467L602.977 124.731C603.16 124.898 603.346 125.059 603.534 125.216L603.833 125.464L604.132 125.713C604.364 125.905 604.585 126.115 604.797 126.34L605.075 126.634L605.199 126.766L605.563 126.652L606.045 126.501C606.469 126.367 606.915 126.304 607.359 126.37L607.745 126.426L608.132 126.484C609.079 126.624 609.379 127.493 609.47 128.016L609.556 128.514L610.023 128.22C610.279 128.06 610.734 127.832 611.26 127.956C611.799 128.083 612.075 128.484 612.207 128.811L612.255 128.946L612.589 130.022C612.669 130.279 612.748 130.367 612.767 130.384L613.058 130.65L613.327 130.896L614.175 130.843L614.3 130.84C614.592 130.842 614.89 130.921 615.16 131.099C615.383 131.247 615.548 131.438 615.669 131.636L615.776 131.836L615.964 132.236L616.117 132.159L616.653 131.884C616.94 131.738 617.445 131.564 617.974 131.814C618.496 132.061 618.686 132.554 618.76 132.864L618.867 133.319L619.396 133.003C619.656 132.847 620.007 132.689 620.408 132.692C620.819 132.696 621.177 132.868 621.435 133.149L621.538 133.277L621.793 133.624L622.045 133.968L622.396 134.012L622.786 134.06C623.333 134.128 623.783 134.409 624.104 134.825L624.364 135.16L624.623 135.496C624.833 135.768 625.023 136.065 625.195 136.385L625.325 136.627L625.609 136.757L625.615 136.755L626.124 136.541C626.522 136.374 626.979 136.267 627.447 136.34L627.647 136.383L628.382 136.58C628.638 136.649 628.892 136.722 629.144 136.8L629.505 136.91L629.867 137.021C630.036 137.073 630.217 137.109 630.414 137.125L630.812 137.157L631.208 137.19C631.521 137.216 631.827 137.263 632.126 137.334L632.498 137.423L632.87 137.51C633.512 137.663 633.909 138.13 634.128 138.624L634.332 139.083L634.535 139.541C634.639 139.774 634.748 139.943 634.851 140.061L635.12 140.373V140.374L635.523 140.142L636.081 139.821C636.548 139.552 637.371 139.258 638.077 139.846L638.675 140.344C639.023 140.635 639.272 141.014 639.451 141.424L639.653 141.885L639.854 142.347C639.89 142.43 639.921 142.47 639.934 142.485L639.919 142.479L640.256 142.645L640.592 142.811C640.878 142.953 641.219 143.168 641.444 143.512L641.687 143.884C641.79 144.042 641.883 144.266 641.879 144.538C641.874 144.813 641.771 145.039 641.652 145.201C641.446 145.482 641.155 145.624 640.989 145.695L640.614 145.856L640.239 146.016C639.706 146.245 639.144 146.215 638.64 145.957L637.89 145.572C637.818 145.535 637.795 145.543 637.789 145.545L637.414 145.62L637.039 145.694C636.159 145.868 635.566 145.237 635.27 144.802L634.895 144.253L634.766 144.064L634.486 144.298C634.237 144.506 633.894 144.686 633.473 144.687C633.051 144.688 632.706 144.509 632.456 144.301L632.081 143.99L632.079 143.988H631.927L631.893 144.019L631.518 144.359C631.238 144.613 630.952 144.841 630.66 145.041L630.285 145.299L629.91 145.555C629.466 145.86 628.919 146.008 628.339 145.854L627.964 145.755L627.613 145.661C627.608 145.663 627.602 145.667 627.594 145.672L626.844 146.103C626.478 146.313 626.036 146.37 625.605 146.202C625.231 146.055 624.968 145.778 624.79 145.536L624.04 144.518C623.843 144.25 623.722 144.185 623.705 144.177L623.33 144.019L623.257 143.988H622.724L622.631 144.03L622.256 144.199C621.996 144.316 621.736 144.428 621.477 144.535L620.727 144.843C620.506 144.934 620.284 145.039 620.06 145.156L619.685 145.353L619.31 145.55C618.901 145.763 618.435 145.769 618.02 145.559C617.667 145.381 617.424 145.086 617.258 144.831L616.883 144.256L616.878 144.248L616.618 144.565C616.423 144.803 616.115 145.086 615.674 145.177C615.184 145.279 614.762 145.101 614.469 144.866L614.094 144.565L613.719 144.263C613.69 144.241 613.669 144.229 613.656 144.221L613.327 144.258L612.952 144.299C612.594 144.337 612.237 144.317 611.885 144.241L611.51 144.161L611.32 144.12L610.958 144.516L610.583 144.926C610.387 145.141 610.124 145.356 609.782 145.468C609.415 145.589 609.036 145.564 608.695 145.415L608.32 145.252L608.133 145.17L607.857 145.398L607.482 145.709C607.069 146.051 606.52 146.279 605.896 146.152L605.146 146C605.041 145.978 604.94 145.98 604.831 146.007L604.081 146.188C603.476 146.335 602.924 146.148 602.492 145.821L602.117 145.538L601.742 145.254C601.461 145.041 601.182 144.804 600.908 144.546L600.533 144.191L600.317 143.988H599.441L599.096 144.615L598.721 145.294C598.567 145.571 598.337 145.907 597.986 146.119C597.794 146.235 597.554 146.32 597.28 146.319C597.007 146.318 596.769 146.233 596.577 146.117L596.202 145.889L595.84 145.67L595.522 145.77L595.147 145.889C594.815 145.995 594.475 146.055 594.13 146.067L593.755 146.081L593.38 146.093C592.689 146.117 592.172 145.712 591.833 145.313L591.458 144.871L591.083 144.429C591.081 144.427 591.078 144.424 591.075 144.422L590.887 144.454L590.532 144.512C590.529 144.514 590.523 144.518 590.517 144.522C590.484 144.543 590.427 144.59 590.347 144.68L589.597 145.534C589.374 145.787 588.97 146.111 588.399 146.071C587.858 146.033 587.502 145.686 587.308 145.437L586.933 144.957L586.558 144.477C586.361 144.226 586.222 144.129 586.156 144.097L585.933 143.988H585.529L585.418 144.096L585.043 144.461C584.649 144.844 584.074 145.155 583.384 145.007L582.634 144.844C582.532 144.823 582.435 144.823 582.331 144.848L581.581 145.03C581 145.171 580.46 145.012 580.022 144.707L579.647 144.444L579.272 144.182C579.142 144.091 579.024 144.029 578.919 143.988H577.95L577.864 144.06L577.489 144.376C577.099 144.704 576.594 144.941 576.005 144.887L575.63 144.854L575.255 144.82C575.226 144.817 575.171 144.818 575.07 144.872L574.695 145.074L574.32 145.277C574.057 145.419 573.793 145.553 573.528 145.68L573.153 145.861L572.778 146.041C572.496 146.176 572.176 146.242 571.839 146.197C571.509 146.153 571.227 146.013 570.997 145.842L570.622 145.562L570.318 145.336L570.088 145.427L569.713 145.575C569.313 145.733 568.888 145.792 568.456 145.731L567.706 145.626C567.218 145.557 566.797 145.323 566.445 145.022L566.07 144.701L565.748 144.426L565.532 144.497L565.157 144.62C564.928 144.695 564.698 144.779 564.468 144.872L563.718 145.173C563.391 145.304 563.054 145.393 562.71 145.432L561.96 145.518C561.805 145.536 561.642 145.578 561.469 145.647L561.094 145.799L560.719 145.949C560.249 146.138 559.749 146.154 559.267 145.986L558.517 145.724C558.097 145.578 557.727 145.323 557.404 145.014L557.029 144.656L556.654 144.299C556.636 144.281 556.62 144.269 556.608 144.259L556.324 144.291L555.949 144.33C555.643 144.362 555.337 144.368 555.03 144.348L554.28 144.3C554.093 144.287 553.907 144.293 553.719 144.316L553.344 144.363L552.996 144.406L552.994 144.408C552.968 144.424 552.914 144.464 552.837 144.55L552.087 145.38C551.852 145.639 551.422 145.963 550.831 145.881C550.3 145.806 549.964 145.439 549.784 145.189L549.409 144.669L549.273 144.48L548.97 144.724C548.726 144.919 548.405 145.083 548.018 145.101C547.624 145.12 547.284 144.983 547.019 144.796L546.644 144.531L546.271 144.267L545.969 144.345L545.594 144.442C545.341 144.507 545.087 144.57 544.834 144.633L544.459 144.725L544.084 144.817C543.619 144.932 543.153 144.889 542.718 144.712L542.343 144.559L542.179 144.492L541.896 144.753L541.521 145.096C541.194 145.397 540.82 145.642 540.396 145.776L539.646 146.012C538.907 146.245 538.284 145.905 537.881 145.494L537.506 145.11L537.458 145.061L537.423 145.096L537.048 145.467C536.691 145.818 536.215 146.118 535.627 146.136L534.877 146.16C534.434 146.174 534.075 145.983 533.821 145.767C533.576 145.558 533.384 145.289 533.229 145.019L533.018 144.653L532.733 145.205C532.587 145.488 532.349 145.869 531.955 146.088C531.73 146.212 531.452 146.284 531.147 146.243C530.854 146.203 530.623 146.069 530.457 145.932L530.082 145.622L529.861 145.439L529.712 145.524L529.337 145.736C528.957 145.951 528.503 145.994 528.073 145.808C527.705 145.649 527.449 145.362 527.275 145.114L526.9 144.578L526.589 144.134L526.561 144.144L526.186 144.28C525.764 144.432 525.321 144.467 524.879 144.369L524.129 144.203C523.913 144.155 523.697 144.119 523.483 144.095L522.733 144.011C522.631 144 522.53 143.992 522.428 143.988H522.02L521.747 143.996L521.514 144.002C521.488 144.03 521.455 144.07 521.416 144.126L521.041 144.666L520.666 145.205C520.49 145.457 520.039 145.979 519.311 145.861C518.694 145.761 518.366 145.254 518.226 145.007L517.902 144.436L517.678 144.775C517.384 145.217 516.981 145.666 516.424 145.86L516.049 145.99L515.674 146.121C515.294 146.253 514.899 146.305 514.497 146.265L513.747 146.191C513.023 146.12 512.547 145.574 512.259 145.134L511.51 143.988H509.146L508.462 144.524C508.233 144.704 508.001 144.9 507.769 145.112L507.394 145.454L507.019 145.795C506.783 146.009 506.45 146.211 506.027 146.235C505.595 146.26 505.235 146.09 504.973 145.881L504.598 145.583L504.223 145.284C504.163 145.237 504.126 145.22 504.113 145.215L503.751 145.226L503.376 145.237C503.002 145.249 502.634 145.192 502.278 145.073L501.528 144.823C501.269 144.736 501.01 144.645 500.751 144.551L500.376 144.413L500.079 144.304L499.742 144.511L499.367 144.741C498.832 145.069 498.208 145.109 497.632 144.808L497.257 144.613L497.214 144.591L496.982 144.864L496.607 145.305C496.287 145.683 495.873 146.028 495.349 146.165L494.974 146.262L494.599 146.361C494.18 146.471 493.752 146.468 493.334 146.355L492.959 146.255L492.584 146.153C492.281 146.071 491.981 145.963 491.687 145.831L491.312 145.663L491.016 145.53L490.702 145.703L490.327 145.91C489.947 146.119 489.527 146.241 489.08 146.234L488.705 146.228L488.33 146.223C487.708 146.214 487.219 145.878 486.868 145.507L486.493 145.11L486.118 144.713C486.042 144.632 485.989 144.594 485.963 144.579C485.96 144.577 485.957 144.576 485.955 144.575L485.603 144.533L485.228 144.489C484.974 144.459 484.721 144.428 484.468 144.395L484.093 144.347L483.891 144.321C483.883 144.33 483.873 144.338 483.864 144.349L483.114 145.252C482.797 145.633 482.391 145.983 481.876 146.134L481.501 146.243L481.126 146.353C480.696 146.479 480.254 146.48 479.822 146.358L479.072 146.145C478.755 146.055 478.445 145.932 478.142 145.777L477.767 145.587L477.392 145.395C477.27 145.333 477.181 145.319 477.114 145.32L476.739 145.328L476.364 145.335C476.196 145.338 476.024 145.362 475.849 145.408L475.099 145.605C474.607 145.734 474.117 145.675 473.671 145.467L472.921 145.115C472.778 145.048 472.656 145.021 472.55 145.016L472.175 144.999L471.8 144.982C471.714 144.978 471.614 144.992 471.491 145.046L470.741 145.37C470.234 145.589 469.693 145.584 469.189 145.361L468.815 145.195L468.44 145.029C468.301 144.967 468.182 144.944 468.077 144.942L467.327 144.928C467.27 144.927 467.187 144.941 467.067 145.005L466.692 145.205L466.317 145.406C465.983 145.585 465.63 145.712 465.261 145.774L464.511 145.899C464.066 145.974 463.629 145.916 463.219 145.75L462.469 145.445C462.348 145.396 462.249 145.383 462.162 145.388L461.412 145.439C461.047 145.464 460.686 145.425 460.332 145.329L459.957 145.226L459.582 145.125C459.167 145.012 458.794 144.796 458.461 144.523L457.809 143.988H456.63L456.486 144.159L456.111 144.606C455.79 144.989 455.363 145.347 454.814 145.47L454.064 145.638C453.678 145.725 453.285 145.731 452.896 145.652L452.146 145.5C451.936 145.457 451.726 145.427 451.518 145.411L451.143 145.383L450.768 145.353C450.654 145.344 450.534 145.358 450.402 145.4L450.027 145.52L449.652 145.641C449.157 145.801 448.653 145.764 448.188 145.557L447.813 145.39L447.438 145.224C447.424 145.218 447.415 145.215 447.41 145.214L447.404 145.213C447.403 145.213 447.4 145.214 447.394 145.216L447.019 145.332L446.644 145.449C446.162 145.599 445.671 145.57 445.213 145.381L444.463 145.07C444.143 144.937 443.832 144.766 443.532 144.561L443.157 144.306L443.152 144.303L442.984 144.504L442.609 144.948C442.285 145.333 441.844 145.698 441.27 145.8L440.52 145.932C440.093 146.008 439.669 145.968 439.265 145.826L438.89 145.695L438.515 145.563C438.102 145.419 437.736 145.171 437.413 144.87L437.038 144.52L437.037 144.519L436.968 144.597L436.593 145.019C436.259 145.395 435.802 145.745 435.214 145.815L434.839 145.859L434.464 145.904C434.289 145.925 434.109 145.967 433.924 146.031L433.549 146.161L433.174 146.292C432.819 146.415 432.45 146.477 432.075 146.469L431.7 146.462L431.325 146.455C430.874 146.446 430.524 146.227 430.286 146.004C430.052 145.784 429.867 145.506 429.715 145.224L429.34 144.528L429.049 143.988H429L428.771 144.095C428.744 144.108 428.615 144.189 428.413 144.476L427.663 145.543C427.486 145.794 427.072 146.267 426.396 146.217C425.768 146.171 425.41 145.696 425.252 145.449L424.877 144.86L424.51 144.284L424.453 144.298L424.078 144.387C423.771 144.461 423.462 144.507 423.15 144.524L422.775 144.546L422.4 144.566C422.393 144.567 422.33 144.571 422.199 144.67L421.824 144.954L421.449 145.237C421.153 145.462 420.845 145.653 420.527 145.805L419.777 146.165C419.424 146.334 419.023 146.367 418.635 146.228C418.282 146.102 418.019 145.864 417.829 145.638L417.079 144.744C416.88 144.506 416.715 144.372 416.594 144.301L416.219 144.085L416.19 144.068L415.982 144.315L415.607 144.758C415.29 145.131 414.893 145.467 414.4 145.625L413.65 145.865C413.207 146.007 412.776 145.915 412.437 145.701C412.134 145.51 411.913 145.232 411.75 144.974L411.407 144.433L411.15 144.784C410.849 145.193 410.48 145.567 410.019 145.783L409.644 145.958L409.269 146.134C408.858 146.325 408.408 146.31 408.014 146.108C407.673 145.933 407.433 145.651 407.265 145.399L406.89 144.84L406.515 144.279C406.422 144.14 406.349 144.062 406.304 144.021C406.293 144.011 406.284 144.006 406.278 144.002L406.232 143.988H405.032L404.731 144.114C404.172 144.348 403.595 144.287 403.095 143.999L403.076 143.988H401.243C401.24 143.991 401.236 143.993 401.232 143.996L400.482 144.615C400.178 144.866 399.856 145.076 399.517 145.234L399.142 145.409L398.767 145.583C398.467 145.722 398.162 145.833 397.852 145.916L397.102 146.115C396.623 146.242 396.143 146.196 395.699 146.005L394.949 145.682C394.566 145.517 394.219 145.268 393.905 144.968L393.53 144.61L393.155 144.253C392.983 144.089 392.865 144.033 392.805 144.014L392.718 143.988H391.923L391.81 144.071L391.435 144.344C391.169 144.538 390.821 144.683 390.416 144.661C390.018 144.639 389.694 144.463 389.453 144.261L389.127 143.988H388.176C387.707 144.173 387.209 144.179 386.731 143.993L386.719 143.988H385.857L385.842 144.001L385.467 144.298C385.233 144.483 384.934 144.639 384.577 144.677C384.211 144.717 383.876 144.623 383.596 144.462L383.221 144.245L383.104 144.176L382.894 144.369L382.519 144.711C382.284 144.925 381.952 145.127 381.529 145.152C381.097 145.178 380.737 145.008 380.474 144.8L379.724 144.204C379.712 144.195 379.702 144.189 379.694 144.183L379.387 144.236L379.012 144.3C378.653 144.36 378.292 144.361 377.933 144.301L377.558 144.24L377.275 144.193C377.269 144.198 377.262 144.204 377.254 144.211L376.879 144.539L376.504 144.868C376.208 145.128 375.898 145.35 375.573 145.527L374.823 145.935C374.395 146.168 373.906 146.163 373.483 145.927C373.135 145.733 372.899 145.421 372.739 145.155L372.364 144.533L372.144 144.168L371.884 144.335C371.621 144.503 371.299 144.617 370.937 144.605C370.576 144.593 370.266 144.459 370.018 144.283L369.643 144.018L369.6 143.988H368.793L368.692 144.025C368.33 144.159 367.952 144.227 367.565 144.216L367.19 144.204L367.008 144.198C366.986 144.225 366.96 144.259 366.932 144.302L366.182 145.447C366.014 145.702 365.764 146.004 365.397 146.177C364.96 146.384 364.488 146.347 364.094 146.119L363.719 145.902L363.365 145.696L363.049 145.807L362.674 145.938C362.204 146.102 361.751 145.992 361.407 145.758C361.105 145.552 360.889 145.257 360.731 144.987L360.36 144.353L360.142 144.642C359.824 145.061 359.298 145.544 358.554 145.513L358.179 145.498L357.804 145.483C357.673 145.478 357.537 145.495 357.391 145.54L357.016 145.655L356.641 145.771C355.706 146.06 355.062 145.374 354.766 144.934L354.532 144.589L354.21 145.145C354.053 145.416 353.818 145.74 353.465 145.941C353.028 146.19 352.522 146.184 352.092 145.933L351.342 145.496C351.213 145.42 351.122 145.403 351.062 145.401L350.312 145.376C350.311 145.376 350.263 145.371 350.151 145.446L349.401 145.948C349.101 146.149 348.714 146.27 348.285 146.189C347.885 146.114 347.583 145.887 347.372 145.667L346.997 145.274L346.807 145.075L346.747 145.113L346.372 145.345C346.086 145.523 345.795 145.678 345.499 145.808L345.124 145.973L344.749 146.139C344.369 146.307 343.953 146.308 343.571 146.142C343.23 145.994 342.979 145.74 342.8 145.505L342.425 145.012L342.321 144.877L342.001 145.155C341.765 145.36 341.444 145.545 341.044 145.575C340.634 145.605 340.28 145.462 340.01 145.267L339.26 144.726C339.199 144.682 339.157 144.663 339.133 144.654C339.111 144.646 339.101 144.646 339.1 144.646L338.725 144.648L338.376 144.649C338.358 144.658 338.321 144.681 338.265 144.732L337.89 145.071L337.515 145.409C337.143 145.744 336.66 146.008 336.081 146L335.706 145.994L335.331 145.989C334.865 145.982 334.437 145.829 334.06 145.591L333.685 145.353L333.549 145.267L333.359 145.426L332.984 145.738C332.573 146.08 332.028 146.31 331.406 146.19L330.656 146.046C330.051 145.929 329.609 145.51 329.298 145.099L328.923 144.604L328.896 144.57L328.583 144.914C328.347 145.172 327.92 145.488 327.338 145.41C326.81 145.339 326.473 144.98 326.29 144.731L325.743 143.988H324.664L324.141 144.675C323.95 144.924 323.587 145.292 323.026 145.324C322.441 145.357 322.039 145.006 321.827 144.752L321.452 144.301L321.427 144.271L321.076 144.649C320.787 144.959 320.483 145.229 320.164 145.45L319.414 145.969C318.965 146.28 318.411 146.428 317.823 146.262L317.448 146.157L317.073 146.051C316.639 145.928 316.258 145.687 315.927 145.388L315.552 145.051L315.177 144.714C315.16 144.699 315.146 144.689 315.135 144.681L314.843 144.718L314.468 144.764C314.08 144.812 313.694 144.779 313.319 144.672L312.944 144.563L312.569 144.456C312.425 144.414 312.289 144.401 312.157 144.409L311.782 144.431L311.407 144.455C311.178 144.469 310.949 144.491 310.72 144.519L309.97 144.613C309.767 144.638 309.561 144.679 309.354 144.734L308.604 144.935C308.354 145.003 308.102 145.07 307.852 145.136L307.102 145.336C306.725 145.436 306.339 145.46 305.953 145.405L305.203 145.298C304.89 145.253 304.58 145.177 304.274 145.074L303.899 144.947L303.579 144.839L303.222 145.046L302.847 145.262C302.526 145.448 302.189 145.59 301.839 145.678L301.464 145.773L301.089 145.867C300.396 146.041 299.808 145.743 299.404 145.357L299.029 144.999L298.654 144.641C298.468 144.464 298.315 144.368 298.2 144.318L297.853 144.169L297.562 144.623L297.187 145.207C297.028 145.454 296.658 145.936 296.015 145.965C295.342 145.995 294.938 145.511 294.769 145.262L294.019 144.163C293.977 144.102 293.942 144.058 293.914 144.027L293.912 144.025L293.676 144.015L293.301 143.999C293.12 143.991 292.938 144.001 292.755 144.031L292.005 144.152C291.623 144.214 291.241 144.2 290.865 144.111L290.49 144.022L290.387 143.997L290.028 144.49L289.653 145.005C289.478 145.245 289.236 145.504 288.905 145.664C288.535 145.843 288.116 145.865 287.721 145.706L287.346 145.553L286.971 145.402C286.586 145.247 286.236 145.008 285.92 144.718L285.669 144.488L285.561 144.657L285.186 145.24C285.026 145.488 284.663 145.959 284.034 146C283.364 146.043 282.953 145.573 282.776 145.322L282.401 144.788L282.304 144.649L282.02 144.91C281.764 145.144 281.375 145.364 280.886 145.323C280.417 145.283 280.078 145.021 279.861 144.787L279.486 144.382L279.477 144.371L279.46 144.389L279.085 144.802C278.763 145.156 278.371 145.465 277.897 145.615L277.522 145.733L277.147 145.852C276.351 146.105 275.714 145.672 275.34 145.242L274.965 144.81L274.851 144.679L274.478 144.984C274.238 145.18 273.92 145.347 273.535 145.372C273.143 145.397 272.799 145.267 272.529 145.082L272.154 144.825L271.985 144.709L271.807 144.839L271.432 145.111C270.927 145.477 270.288 145.593 269.664 145.296L268.914 144.938C268.628 144.802 268.345 144.645 268.065 144.47L267.69 144.237L267.315 144.003C267.307 143.997 267.297 143.993 267.289 143.988H264.473L263.86 144.356C263.703 144.451 263.522 144.595 263.319 144.807L262.569 145.594C262.356 145.818 262.043 146.054 261.623 146.119C261.176 146.188 260.787 146.037 260.5 145.824L260.125 145.547L259.75 145.268C259.723 145.248 259.703 145.239 259.691 145.233L259.354 145.279L258.979 145.33C258.832 145.35 258.673 145.394 258.503 145.47L258.128 145.637L257.753 145.805C257.359 145.982 256.929 145.974 256.543 145.792C256.203 145.631 255.958 145.364 255.783 145.121L255.033 144.076C255.007 144.039 254.982 144.011 254.962 143.988H252.817L252.468 144.383L252.093 144.804C251.88 145.045 251.53 145.331 251.035 145.363C250.521 145.396 250.131 145.14 249.889 144.898L249.514 144.524L249.383 144.393L249.327 144.436L248.952 144.722C248.694 144.92 248.352 145.076 247.946 145.066C247.543 145.056 247.212 144.887 246.965 144.686L246.59 144.382L246.267 144.119L246.039 144.196L245.664 144.323C245.608 144.342 245.487 144.403 245.311 144.584L244.936 144.967L244.561 145.352C244.206 145.716 243.718 146.035 243.105 146.042L242.73 146.045L242.355 146.049C241.988 146.052 241.627 145.992 241.277 145.875L240.902 145.75L240.527 145.624C240.09 145.477 239.712 145.207 239.389 144.884L239.014 144.509L238.761 144.258L238.646 144.312L238.271 144.489C238.017 144.609 237.763 144.726 237.509 144.842L237.134 145.012L236.759 145.182C236.463 145.317 236.13 145.369 235.787 145.305C235.455 145.244 235.179 145.085 234.958 144.903L234.583 144.593L234.367 144.415L234.22 144.501L233.845 144.717C233.546 144.888 233.185 144.979 232.798 144.911C232.428 144.846 232.134 144.655 231.915 144.452L231.54 144.105L231.414 143.988H230.181L230.02 144.203L229.645 144.701C229.456 144.952 229.083 145.336 228.502 145.354C227.906 145.373 227.511 144.997 227.311 144.744L226.936 144.269L226.712 143.988H226.454L226.22 144.083C225.782 144.26 225.315 144.3 224.849 144.181L224.099 143.99C224.096 143.989 224.093 143.989 224.09 143.988H222.595L222.441 144.147L222.066 144.538C221.708 144.911 221.2 145.245 220.558 145.22L220.183 145.206L219.808 145.192C219.584 145.184 219.36 145.184 219.136 145.193L218.761 145.208L218.386 145.223C218.145 145.233 217.904 145.246 217.663 145.262L216.913 145.313C216.347 145.352 215.857 145.131 215.468 144.818L215.182 144.588L215.044 144.789L214.669 145.333C214.496 145.583 214.162 145.973 213.619 146.054C213.007 146.147 212.569 145.796 212.341 145.534L211.966 145.102L211.591 144.672C211.4 144.452 211.258 144.356 211.176 144.318L210.801 144.145L210.481 143.998L210.16 144.156L209.785 144.341C209.304 144.576 208.771 144.618 208.253 144.429L207.878 144.293L207.604 144.192L207.276 144.413L206.901 144.664C206.619 144.852 206.259 144.977 205.854 144.929C205.464 144.884 205.154 144.693 204.926 144.487L204.372 143.988H203.33L202.692 145.006C202.534 145.259 202.218 145.678 201.676 145.792C201.028 145.928 200.564 145.55 200.334 145.28L199.584 144.399C199.524 144.328 199.479 144.291 199.454 144.272L199.14 144.247L198.84 144.222C198.826 144.233 198.803 144.247 198.777 144.271L198.402 144.621L198.027 144.971C197.765 145.216 197.352 145.453 196.831 145.38C196.351 145.312 196.022 145.013 195.823 144.771L195.579 144.474L195.567 144.495L195.192 145.092C195.03 145.35 194.757 145.701 194.324 145.865C193.783 146.07 193.285 145.887 192.954 145.611L192.579 145.298L192.449 145.189L192.337 145.278L191.962 145.572C191.73 145.753 191.438 145.905 191.091 145.947C190.735 145.99 190.403 145.908 190.12 145.756L189.745 145.552L189.565 145.455L189.33 145.637L188.955 145.926C188.79 146.053 188.57 146.17 188.3 146.209C188.021 146.249 187.759 146.195 187.536 146.088C187.135 145.894 186.884 145.54 186.729 145.271L185.988 143.988H185.178L184.982 144.218L184.607 144.66C184.29 145.034 183.892 145.37 183.397 145.527L182.647 145.765C182.194 145.909 181.759 145.805 181.422 145.585C181.122 145.388 180.904 145.106 180.743 144.844L180.217 143.988H179.33L178.702 145.031C178.542 145.297 178.312 145.603 177.978 145.8C177.579 146.034 177.101 146.07 176.659 145.856L175.909 145.493C175.57 145.329 175.249 145.111 174.946 144.852L174.657 144.606L174.539 144.776L174.164 145.311C173.989 145.562 173.64 145.96 173.073 146.018C172.456 146.082 172.034 145.707 171.822 145.449L171.451 144.996L171.104 145.401C170.877 145.664 170.435 146.022 169.815 145.926C169.27 145.84 168.938 145.444 168.768 145.193L168.393 144.64L168.077 144.176L168.057 144.183L167.682 144.317C167.588 144.351 167.45 144.427 167.272 144.591L166.522 145.282C166.226 145.555 165.745 145.791 165.178 145.618C164.713 145.476 164.424 145.118 164.258 144.863L163.883 144.289L163.76 144.1L163.502 144.327C163.271 144.528 162.96 144.711 162.573 144.751C162.175 144.792 161.821 144.67 161.542 144.484L161.167 144.234L161.086 144.179L160.914 144.346L160.539 144.708C160.123 145.109 159.504 145.41 158.79 145.181L158.04 144.941C157.781 144.858 157.522 144.771 157.264 144.68L156.889 144.55L156.514 144.418C156.263 144.33 156.013 144.241 155.763 144.153L155.293 143.988H152.853L152.808 144.011C152.524 144.159 152.238 144.288 151.949 144.397L151.199 144.68C150.822 144.823 150.427 144.887 150.022 144.857L149.272 144.802C148.771 144.766 148.334 144.549 147.97 144.257L147.701 144.041L147.556 144.263L147.181 144.834C147.017 145.083 146.658 145.533 146.046 145.58C145.389 145.63 144.974 145.185 144.788 144.93L144.099 143.988H140.111L140.025 144.105L139.65 144.615C139.465 144.867 139.077 145.281 138.463 145.276C137.852 145.272 137.469 144.857 137.286 144.605L136.911 144.09L136.837 143.988H136.817L136.531 144.259C136.182 144.589 135.744 144.859 135.219 144.925L134.469 145.018C134.466 145.019 134.393 145.027 134.247 145.153L133.497 145.798C133.248 146.012 132.897 146.202 132.462 146.199C132.028 146.195 131.682 146 131.437 145.786L131.062 145.457L130.687 145.129C130.475 144.944 130.273 144.797 130.081 144.681L129.765 144.492L129.547 144.814L129.172 145.366C129.001 145.618 128.735 145.925 128.339 146.083C127.865 146.271 127.395 146.173 127.035 145.929L126.285 145.422C126.157 145.335 126.082 145.324 126.053 145.323L125.678 145.307L125.303 145.291C124.664 145.264 124.179 144.891 123.842 144.505L123.391 143.988H122.589C122.264 144.104 121.926 144.167 121.578 144.161L120.828 144.147C120.489 144.141 120.154 144.087 119.826 143.988H118.965L118.862 144.074L118.487 144.388C118.089 144.722 117.569 144.958 116.965 144.879L116.59 144.829L116.215 144.78C115.883 144.736 115.557 144.652 115.238 144.53L114.863 144.386L114.778 144.353L114.486 144.703L114.111 145.15C113.794 145.528 113.394 145.871 112.892 146.027L112.142 146.259C111.669 146.406 111.226 146.282 110.896 146.05C110.601 145.843 110.389 145.552 110.231 145.282L109.856 144.639L109.615 144.226L109.358 144.381C109.036 144.573 108.696 144.721 108.341 144.811L107.966 144.906L107.591 145.002C106.978 145.157 106.419 144.965 105.986 144.633L105.611 144.344L105.427 144.203L105.272 144.305L104.897 144.553C104.636 144.726 104.313 144.848 103.945 144.839C103.58 144.83 103.266 144.693 103.016 144.515L102.273 143.988H101.086L100.999 144.096L100.624 144.562C100.296 144.969 99.7879 145.402 99.0898 145.398L98.7148 145.396L98.3398 145.393C97.7145 145.39 97.2221 145.056 96.8701 144.685L96.4951 144.29L96.4229 144.214L96.3975 144.237L96.0225 144.582C95.7704 144.814 95.3892 145.035 94.9053 145.004C94.4373 144.973 94.0926 144.719 93.8711 144.486L93.3965 143.988H92.3096L91.6475 144.878C91.4632 145.125 91.1387 145.464 90.6396 145.551C90.0797 145.647 89.646 145.374 89.3887 145.117L89.0137 144.743L88.8936 144.623L88.8418 144.664L88.4668 144.962C88.1972 145.175 87.8233 145.346 87.3779 145.305C86.9495 145.266 86.622 145.044 86.3965 144.824L86.0264 144.463L85.9727 144.524L85.5977 144.953C85.2789 145.317 84.8867 145.637 84.4082 145.795L84.0332 145.919L83.6582 146.042C83.3431 146.146 83.0222 146.215 82.6973 146.249L81.9473 146.327C81.0497 146.419 80.5017 145.7 80.2383 145.261L79.8633 144.637L79.5811 144.169L79.2773 144.315C78.7492 144.568 78.1768 144.564 77.6533 144.306L77.2783 144.122L77.2695 144.118L77.0186 144.452L76.6436 144.949C76.4503 145.205 76.0304 145.632 75.3809 145.574C74.7822 145.52 74.4276 145.082 74.2617 144.833L73.8877 144.268L73.793 144.127L73.5312 144.375C73.1046 144.777 72.4761 145.062 71.7656 144.814L71.3906 144.682L71.1357 144.593L70.8096 144.832L70.4346 145.105C70.137 145.322 69.8289 145.507 69.5107 145.652L69.1357 145.823L68.7607 145.995C68.3989 146.16 67.9953 146.18 67.6123 146.033C67.2652 145.9 67.0067 145.659 66.8203 145.43L66.4453 144.971L66.3867 144.899L66.0439 145.235C65.7894 145.484 65.3748 145.74 64.8398 145.67C64.347 145.605 64.0129 145.293 63.8164 145.05L63.4414 144.585L63.3418 144.462L63.001 144.759C62.7065 145.015 62.3996 145.235 62.0801 145.413L61.7051 145.621L61.3301 145.83C60.8864 146.076 60.381 146.059 59.957 145.805C59.6129 145.6 59.3826 145.277 59.2266 145.004L58.9365 144.497L58.6963 144.888C58.536 145.148 58.2603 145.512 57.8125 145.676C57.247 145.882 56.7444 145.664 56.4287 145.383L55.6787 144.713C55.5148 144.566 55.4053 144.522 55.3525 144.509L54.6025 144.321C54.2947 144.244 53.9941 144.131 53.7012 143.988H52.9316L52.5674 144.369C52.1754 144.778 51.5629 145.134 50.8223 144.925L50.4473 144.818L50.0723 144.713C49.9242 144.671 49.7844 144.656 49.6484 144.663L48.8984 144.702C48.4993 144.723 48.1097 144.656 47.7383 144.514L46.9883 144.227C46.9316 144.206 46.9002 144.207 46.8633 144.217L46.1133 144.426C46.0815 144.435 45.9763 144.478 45.8057 144.65L45.4307 145.029L45.0557 145.409C44.8185 145.649 44.4386 145.906 43.9326 145.887C43.4373 145.869 43.0794 145.593 42.8594 145.354L42.4844 144.947L42.2197 144.659L42.125 144.701L41.75 144.867C41.4456 145.002 41.1353 145.107 40.8193 145.179L40.0693 145.351C39.4327 145.497 38.8704 145.266 38.4521 144.915L38.0771 144.6L37.8018 144.369L37.6211 144.449L37.2461 144.613C36.8519 144.785 36.4284 144.862 35.9922 144.817L35.2422 144.739C34.7699 144.69 34.351 144.49 33.9912 144.217L33.6885 143.988H33.335L32.9893 144.279C32.6564 144.559 32.2796 144.781 31.8584 144.896L31.1084 145.101C30.7842 145.19 30.4547 145.239 30.1221 145.248L29.7471 145.259L29.3721 145.268C29.3272 145.27 29.247 145.283 29.1211 145.361L28.7461 145.593L28.3711 145.825C28.0827 146.003 27.7259 146.108 27.334 146.054C26.9571 146.003 26.6552 145.818 26.4297 145.617L26.0547 145.283L25.6797 144.948C25.5182 144.804 25.4142 144.765 25.3701 144.755L24.9951 144.668L24.6729 144.593C24.6692 144.596 24.6655 144.599 24.6611 144.602L24.2861 144.86L23.9111 145.117C23.5871 145.339 23.1593 145.461 22.6992 145.332C22.2912 145.217 22.0039 144.944 21.8145 144.707L21.4395 144.238L21.2402 143.988H20.7344L20.6719 144.009C20.5061 144.067 20.3276 144.153 20.1367 144.276L19.7617 144.518L19.3867 144.759C19.0969 144.946 18.732 145.061 18.3271 145.003C17.9402 144.947 17.6355 144.749 17.4131 144.542L17.0381 144.191L16.8203 143.988H16.249L16.1035 144.027C16.0793 144.034 15.9776 144.07 15.8076 144.243L15.4326 144.624L15.0576 145.006C14.7475 145.321 14.4031 145.587 14.0195 145.766L13.2695 146.118C12.857 146.311 12.4053 146.296 12.0107 146.092C11.6703 145.915 11.4307 145.631 11.2627 145.379L10.5127 144.252C10.4784 144.2 10.447 144.162 10.4229 144.134H10.2188L9.91699 144.133C9.89744 144.148 9.8671 144.174 9.82715 144.217L9.45215 144.619L9.07715 145.022C8.87543 145.239 8.59712 145.458 8.23242 145.557C7.83889 145.664 7.45371 145.601 7.12695 145.427L6.75195 145.228L6.55371 145.124L6.30957 145.302L5.93457 145.577C5.62382 145.804 5.19987 145.947 4.72949 145.831C4.30881 145.727 4.01311 145.452 3.82031 145.216L3.44531 144.757L3.29395 144.571L2.93555 144.835C2.67062 145.028 2.42472 145.193 2.20801 145.311L1.96484 145.444L1.72266 145.577C1.64022 145.622 1.52448 145.677 1.38574 145.713C1.25385 145.747 1.02032 145.784 0.753906 145.698C0.0566915 145.473 0 144.797 0 144.621V144.199C9.70498e-05 143.505 0.520957 143.109 0.798828 142.938L1.12109 142.74L1.44336 142.541C1.70169 142.382 1.97067 142.244 2.24902 142.128L2.59473 141.982L2.94043 141.838C3.03492 141.798 3.13276 141.733 3.2334 141.629L3.51465 141.336L3.7959 141.044C4.01525 140.815 4.24642 140.605 4.49023 140.416L4.7959 140.179L5.10156 139.942C5.38914 139.719 5.70556 139.545 6.04883 139.426L6.75977 139.18C7.13534 139.051 7.5278 139.007 7.92383 139.031L8.76562 139.082C9.11015 139.103 9.46051 139.158 9.81543 139.243L10.2725 139.352L10.4004 139.383L10.4785 139.219L10.6924 138.771L10.75 138.66C10.8973 138.397 11.1295 138.135 11.4824 137.985C11.8337 137.836 12.1823 137.849 12.4717 137.922L12.5918 137.957L13.0684 138.11L13.5459 138.264C13.6301 138.291 13.6798 138.296 13.7002 138.297H13.7021L14.0381 138.162L14.3867 138.021C14.6093 137.932 14.8311 137.839 15.0508 137.743L15.3936 137.592L15.7373 137.442C15.8756 137.382 16.0098 137.299 16.1396 137.19L16.4385 136.939L16.7383 136.689C16.9593 136.504 17.1864 136.329 17.4189 136.166L17.7314 135.946L18.0449 135.726C18.2663 135.571 18.4909 135.422 18.7178 135.278L19.3584 134.872C19.3633 134.869 19.4295 134.825 19.5137 134.64L19.7227 134.183L19.9316 133.725L19.9951 133.6C20.1596 133.306 20.4394 133.011 20.8789 132.897C21.3378 132.779 21.7518 132.918 22.0293 133.059L22.5557 133.327L23.083 133.594C23.1158 133.611 23.1441 133.621 23.166 133.63L23.3809 133.523L23.6738 133.376C23.6877 133.355 23.7147 133.311 23.7441 133.229L23.9297 132.717L24.1143 132.206L24.168 132.074C24.3122 131.758 24.5922 131.396 25.0957 131.273C25.6024 131.15 26.0444 131.349 26.3076 131.507L26.8623 131.839L27.1084 131.985L27.3027 131.657C27.4774 131.361 27.6637 131.082 27.8613 130.821L28.1201 130.478L28.3799 130.136L28.5322 129.96C28.6973 129.792 28.9007 129.652 29.1445 129.564C29.4655 129.449 29.7876 129.447 30.0762 129.504L30.5244 129.592L30.7959 129.644L30.9326 129.458L31.1885 129.108L31.2725 129.003C31.479 128.763 31.7602 128.576 32.1113 128.505C32.4879 128.428 32.8383 128.505 33.1162 128.615L33.6113 128.812L34.1074 129.009C34.3179 129.092 34.3806 129.065 34.3535 129.072L34.7217 128.977L35.0234 128.899C35.0288 128.891 35.0368 128.881 35.0439 128.867L35.2676 128.441L35.4902 128.016C35.6234 127.763 35.8176 127.512 36.0986 127.328C36.3882 127.138 36.7123 127.058 37.0332 127.065L37.8594 127.083C37.942 127.084 37.9736 127.066 37.9951 127.051L38.3096 126.834L38.623 126.616C39.0073 126.349 39.445 126.22 39.9023 126.215L40.7168 126.205C40.8365 126.203 40.9174 126.177 40.9805 126.142L41.6387 125.777C41.6781 125.755 41.7508 125.7 41.8389 125.556L42.0781 125.167L42.3164 124.777C42.5375 124.416 42.8205 124.097 43.1797 123.863L43.498 123.656L43.8164 123.448C44.0116 123.321 44.2046 123.187 44.3945 123.046L44.7031 122.816L45.0127 122.587C45.3924 122.305 45.8313 122.163 46.2949 122.15L46.7002 122.139L47.1045 122.129C47.1132 122.128 47.1189 122.127 47.1221 122.127C47.1239 122.125 47.1271 122.123 47.1309 122.12L47.707 121.565C48.0446 121.241 48.4594 121.033 48.9277 120.964L49.3115 120.907L49.6963 120.85C49.9242 120.817 50.1473 120.774 50.3652 120.722L50.7363 120.634L51.1074 120.546C51.6031 120.428 52.0966 120.506 52.541 120.669L52.8281 120.773L52.8545 120.572L52.9473 119.85C52.9816 119.584 53.1205 118.842 53.8623 118.606C54.2106 118.495 54.5265 118.564 54.7373 118.645C54.9477 118.726 55.1302 118.848 55.2773 118.964L55.9023 119.457L56.0967 119.61L56.1855 119.386C56.3258 119.031 56.4778 118.692 56.6416 118.374L56.8623 117.944L57.084 117.513L57.1523 117.393C57.3262 117.113 57.6035 116.849 58.0127 116.741C58.4464 116.627 58.8436 116.74 59.126 116.87L59.6396 117.107L59.8672 117.212L59.8818 117.189L60.123 116.804C60.3863 116.385 60.7712 116.04 61.292 115.886L61.6553 115.779L62.0176 115.673C62.5331 115.521 63.0489 115.603 63.502 115.772L64.4805 116.137C64.4935 116.142 64.5068 116.144 64.5186 116.148L65.2637 115.821L65.374 115.36L65.5186 114.755C65.5904 114.452 65.76 114 66.208 113.729C66.6992 113.433 67.2067 113.537 67.5303 113.675L68.0342 113.889L68.5371 114.103C68.5691 114.117 68.5955 114.126 68.6152 114.132L68.8623 114.006L69.085 113.891C69.0862 113.888 69.0885 113.884 69.0898 113.881C69.103 113.842 69.1178 113.787 69.1318 113.716L69.2578 113.07L69.3848 112.425C69.4429 112.127 69.5611 111.758 69.8379 111.462C70.122 111.158 70.4938 111.014 70.874 111.016L71.0371 111.026L71.4678 111.076L71.8994 111.125C72.1283 111.151 72.3388 111.155 72.5322 111.139L72.9277 111.108L73.3232 111.076C73.6929 111.046 74.0693 111.076 74.4463 111.152L74.8955 111.242L75.3438 111.333C75.4015 111.344 75.4445 111.347 75.4756 111.346L78.124 110.185L78.1816 110.114L78.4463 109.785C78.5919 109.604 78.7329 109.4 78.8691 109.173L79.1064 108.778L79.3428 108.384C79.6227 107.917 80.0659 107.548 80.6729 107.457L81.0566 107.399L81.4414 107.342C81.6798 107.306 81.9151 107.263 82.1475 107.216L82.5234 107.138L82.8984 107.061C83.293 106.98 83.6964 106.987 84.0957 107.058L84.54 107.137L84.9209 107.206L85.127 107.006L85.4141 106.725C85.5413 106.601 85.6683 106.443 85.792 106.245L86.0332 105.86L86.2734 105.475C86.4998 105.113 86.7917 104.797 87.1631 104.57L87.8096 104.176C88.1683 103.956 88.5639 103.835 88.9795 103.805L89.377 103.777L89.6074 103.76L89.791 103.4L90.0117 102.968C90.2287 102.543 90.5535 102.154 91.0273 101.926L91.3652 101.764L91.7041 101.601L91.8477 101.541C92.5662 101.282 93.2519 101.665 93.6475 101.945L94.1514 102.301L94.2314 101.87C94.287 101.57 94.4115 101.162 94.7412 100.856C95.0885 100.534 95.5121 100.457 95.8857 100.511L96.042 100.543L96.5029 100.659L96.9014 100.759L97.0908 100.589L97.3838 100.322C97.5443 100.176 97.701 100.013 97.8535 99.8318L98.123 99.5114L98.3916 99.1921C98.6942 98.8327 99.0874 98.5695 99.5615 98.4548L100.302 98.2751L100.52 98.237C101.024 98.1797 101.504 98.341 101.899 98.5466L102.43 98.823L102.779 99.0046L102.802 98.9782L103.071 98.6579C103.34 98.3384 103.669 98.0807 104.06 97.9148L104.405 97.7683L104.75 97.6218C105.099 97.4734 105.469 97.3957 105.849 97.3806L106.252 97.365L106.654 97.3484C106.736 97.3451 106.781 97.3251 106.82 97.2966L107.132 97.072L107.442 96.8474C107.612 96.7244 107.779 96.586 107.94 96.4323L108.519 95.8835L108.623 95.7917C109.155 95.3628 109.799 95.3803 110.319 95.5671L110.806 95.7419L110.836 95.7526L110.867 95.6667L111.052 95.154C111.246 94.6123 111.677 94.0257 112.465 93.9431L112.855 93.9021L113.036 93.8825L113.203 93.4655L113.397 92.9753L113.447 92.8601C113.575 92.5894 113.79 92.2986 114.146 92.1208C114.51 91.9387 114.879 91.9464 115.182 92.0212L115.307 92.0573L115.784 92.2116L116.261 92.3659C116.482 92.4376 116.631 92.4474 116.724 92.4382L117.509 92.3601C117.591 92.3518 117.649 92.3271 117.703 92.2859L118.318 91.821L118.496 91.7019C118.917 91.4524 119.39 91.3983 119.844 91.4773L120.534 91.5974L121.313 91.2556L121.37 91.2165C121.657 91.0161 121.967 90.8595 122.299 90.7497L122.657 90.6316L122.937 90.5388C122.945 90.5245 122.958 90.5052 122.97 90.4773L123.173 90.0056L123.375 89.5339C123.488 89.2715 123.661 88.9991 123.929 88.7878C124.21 88.5662 124.541 88.4557 124.883 88.4489L125.289 88.4401L125.694 88.4323C125.761 88.431 125.787 88.4163 125.812 88.3972L126.116 88.1599L126.422 87.9226L126.582 87.8093C126.964 87.5673 127.397 87.4751 127.838 87.5075L128.261 87.5378L128.684 87.5691C128.914 87.586 129.131 87.5841 129.334 87.5651L129.728 87.529L129.842 87.5173L130.062 87.4216L130.229 87.1491L130.467 86.7575C130.766 86.2666 131.248 85.9051 131.89 85.862L132.288 85.8357L132.686 85.8083C132.948 85.7907 133.211 85.7721 133.473 85.7526L133.869 85.7234L133.951 85.7165L134.203 85.6062L134.353 85.3591L134.59 84.9655L134.713 84.7829C134.848 84.6048 135.021 84.4416 135.239 84.3191C135.498 84.1738 135.774 84.1115 136.046 84.1101L136.162 84.113L136.582 84.1374L137.003 84.1618C137.126 84.169 137.195 84.1468 137.24 84.1237L137.908 83.78C138.056 83.7036 138.2 83.6058 138.34 83.4841L138.637 83.2263L138.933 82.9685C139.148 82.7813 139.368 82.6031 139.593 82.4343L139.901 82.2019L140.209 81.9704C140.596 81.6796 141.046 81.5392 141.519 81.5359L141.927 81.5329L142.055 81.5319L142.19 81.1687L142.379 80.6648C142.486 80.3777 142.677 80.0477 143.021 79.822C143.341 79.6117 143.691 79.5585 144.009 79.5944L144.143 79.615L144.59 79.7019L145.037 79.7898C145.106 79.8031 145.148 79.8016 145.169 79.7995C145.188 79.7977 145.194 79.7949 145.194 79.7946L145.531 79.6306L145.846 79.4763C145.859 79.4592 145.888 79.4177 145.922 79.3366L146.322 78.3816C146.401 78.1934 146.536 77.97 146.768 77.7946C147.014 77.6077 147.302 77.5291 147.58 77.5368C148.06 77.5502 148.452 77.8153 148.696 78.0095L149.325 78.5095L149.705 78.8122L150.142 78.6208C150.191 78.5437 150.249 78.4289 150.306 78.2595L150.483 77.7292L150.66 77.1989L150.702 77.0818C150.814 76.8029 151.015 76.4835 151.379 76.2829C151.761 76.0722 152.153 76.0843 152.466 76.1667L152.595 76.2068L153.077 76.3728L153.56 76.5398C153.718 76.5947 153.789 76.5884 153.802 76.5866L154.165 76.4812L154.528 76.3767C154.565 76.3661 154.615 76.3433 154.682 76.2653L154.952 75.9489L155.224 75.6335L155.306 75.5446C155.504 75.3436 155.753 75.1883 156.049 75.111C156.378 75.0253 156.697 75.0522 156.976 75.1267L157.439 75.2507L157.448 75.2526L157.504 75.0818L157.678 74.5437C157.844 74.0283 158.204 73.4308 158.93 73.2497L159.668 73.0661C159.878 73.0139 160.082 72.95 160.28 72.8757L160.983 72.612C161.151 72.5492 161.312 72.4687 161.467 72.3698L161.786 72.1657L162.106 71.9607C162.252 71.8675 162.394 71.7519 162.533 71.6101L163.1 71.0319C163.322 70.8045 163.559 70.5975 163.808 70.4118L164.115 70.1814L164.424 69.9509C164.858 69.6272 165.366 69.5206 165.87 69.5759L166.729 69.6696C167.164 69.7173 167.596 69.8649 168.015 70.071L168.537 70.3278L168.784 70.4499L169.229 70.2556L169.302 70.1843C169.462 70.0279 169.619 69.8548 169.771 69.6648L170.301 69.0046C170.502 68.7535 170.776 68.5505 171.119 68.4519C171.369 68.3799 171.615 68.3755 171.842 68.4089L172.061 68.4538L172.523 68.5739L172.862 68.6628L175.765 67.3903L175.842 67.3181L176.132 67.0446C176.495 66.7026 176.944 66.5076 177.441 66.4753L177.812 66.4509L177.894 65.823L177.986 65.1003C178.051 64.5925 178.263 63.7193 179.113 63.4372L179.471 63.3181L179.829 63.1999L180.027 63.1462C180.49 63.0473 180.947 63.1308 181.349 63.2839L181.841 63.4724L182.332 63.6599C182.41 63.6898 182.46 63.6973 182.482 63.6999L182.799 63.5759L183.148 63.4392C183.136 63.4443 183.133 63.4488 183.141 63.4411C183.151 63.4311 183.178 63.4013 183.213 63.3366L183.439 62.9206L183.666 62.5036L183.729 62.3952C183.889 62.1444 184.127 61.9077 184.466 61.7741C184.848 61.6236 185.226 61.6573 185.53 61.7487L186.002 61.8903L186.166 61.9392L186.231 61.82L186.457 61.4021C186.631 61.0811 186.823 60.7827 187.034 60.5105L187.296 60.1735L187.558 59.8357C187.834 59.4797 188.192 59.1983 188.635 59.0437L188.989 58.9196L189.345 58.7956C189.679 58.6788 190.028 58.6147 190.386 58.5984L191.188 58.5612C191.774 58.5346 192.32 58.7969 192.768 59.0944L193.346 59.4792L193.532 59.6032L194.441 59.2048C194.523 59.1259 194.604 59.0474 194.686 58.9685L195.26 58.4099L195.348 58.3288C195.796 57.9454 196.353 57.8497 196.886 57.9548L197.168 58.0095L197.445 57.8884L197.465 57.8357L197.649 57.323L197.746 57.0954C197.863 56.8632 198.042 56.6245 198.319 56.4538C198.663 56.2423 199.029 56.2123 199.347 56.2663L199.479 56.2937L199.939 56.4099L200.253 56.489L200.39 56.3278L200.659 56.0085C200.933 55.6835 201.27 55.4239 201.674 55.2644L202.022 55.1267L202.372 54.989C202.768 54.8324 203.185 54.7847 203.602 54.821L203.955 54.8513L204.028 54.4089L204.141 53.7292C204.225 53.2153 204.463 52.4375 205.236 52.1452L205.939 51.8796C206.343 51.7272 206.766 51.6901 207.186 51.737L208.047 51.8327C208.25 51.8554 208.423 51.8493 208.571 51.823L209.331 51.6882C209.732 51.617 210.139 51.6365 210.541 51.7204L210.822 51.779L210.868 51.3913L210.955 50.655C210.987 50.3817 211.102 49.7187 211.731 49.4196C212.382 49.1102 212.973 49.4713 213.2 49.6306L213.791 50.0456L214.106 50.2663L214.27 50.0056C214.562 49.5351 215.021 49.1787 215.635 49.1081L216.414 49.0183C216.562 49.0012 216.69 48.9623 216.804 48.905L217.14 48.736L217.423 48.5925C217.437 48.569 217.463 48.5233 217.489 48.4441L217.666 47.9148L217.844 47.3855C217.95 47.07 218.181 46.6444 218.676 46.4421C219.162 46.2431 219.622 46.3771 219.915 46.5163L220.433 46.7614L220.55 46.8171L220.756 46.3689L220.81 46.2605C220.945 46.0064 221.155 45.7482 221.477 45.5818C221.805 45.4115 222.145 45.3907 222.443 45.4411L222.568 45.4675L223.026 45.5778L223.058 45.5847L223.122 45.4011L223.303 44.8786C223.403 44.5872 223.59 44.2389 223.946 44.0036C224.282 43.7825 224.647 43.7394 224.97 43.7859L225.105 43.8103L225.56 43.9148L226.015 44.0183C226.351 44.095 226.694 44.1913 227.041 44.3064L227.521 44.4646L227.683 44.5183L227.736 44.4196L227.962 44.0007C228.128 43.6937 228.304 43.4026 228.491 43.1286L228.74 42.7634L228.99 42.3982L229.092 42.2653C229.347 41.9688 229.715 41.7785 230.151 41.781C230.567 41.7834 230.925 41.9619 231.181 42.1276L231.521 42.3484L231.588 41.7009C231.607 41.5161 231.648 41.2963 231.745 41.0837C231.845 40.8647 232.035 40.5935 232.373 40.4372C232.715 40.2795 233.048 40.3124 233.286 40.3845C233.514 40.4537 233.707 40.5725 233.856 40.6823L234.284 40.9968L234.344 40.4948C234.38 40.1885 234.473 39.7539 234.784 39.4167C234.958 39.2284 235.188 39.0839 235.463 39.0222C235.661 38.9777 235.848 38.9841 236.012 39.0134L236.167 39.0495L236.635 39.1833L237.103 39.3161C237.395 39.3996 237.681 39.4721 237.961 39.5329L238.414 39.6316L238.866 39.7302C238.868 39.7307 238.871 39.7307 238.873 39.7312L240.302 39.1042L240.489 38.8103C240.601 38.6341 240.711 38.4059 240.812 38.1159L241.173 37.073L241.224 36.9431C241.36 36.6307 241.626 36.2635 242.12 36.1247C242.63 35.9817 243.08 36.1743 243.348 36.3288L243.896 36.6462L243.905 36.6511L244.043 36.2058C244.193 35.7187 244.475 35.1898 245.021 34.8933L245.353 34.7136L245.683 34.5339C245.916 34.4073 246.152 34.2857 246.39 34.1696L246.728 34.0056L247.064 33.8405C247.293 33.7288 247.523 33.6189 247.754 33.5105L248.093 33.3513L248.433 33.1911L248.567 33.1355C249.242 32.8919 249.894 33.1943 250.307 33.4587L250.876 33.8239L251.377 34.1452L251.401 34.1247L251.696 33.863C251.848 33.7287 251.995 33.5725 252.139 33.3933L252.404 33.0632L252.669 32.7331C252.804 32.5649 252.936 32.3664 253.062 32.1345L253.287 31.7175L253.514 31.2995C253.695 30.9646 254.019 30.6427 254.508 30.5495C254.945 30.4662 255.335 30.6042 255.607 30.7448L256.666 31.2917C256.72 31.3195 256.763 31.3363 256.794 31.3474C256.799 31.3492 256.804 31.3499 256.809 31.3513L257.072 31.2487L257.422 31.112C257.667 31.0163 257.914 30.9248 258.163 30.8386L258.874 30.5925C258.955 30.5644 259.039 30.5156 259.128 30.4255L259.412 30.1374L259.695 29.8503L259.85 29.7097C260.221 29.4045 260.674 29.2629 261.156 29.2859L261.575 29.3054L261.993 29.3259C262.201 29.3359 262.405 29.3355 262.604 29.3298L263.206 29.0661L263.262 28.8093L263.396 28.1823C263.461 27.8816 263.62 27.4119 264.073 27.1296C264.579 26.8153 265.103 26.9349 265.424 27.0778L266.441 27.531C266.445 27.5328 266.45 27.5333 266.454 27.5349L266.634 27.4187L266.935 27.2214C266.937 27.2183 266.942 27.2142 266.946 27.2077C266.967 27.1757 267.001 27.1102 267.038 26.9958L267.212 26.4577L267.385 25.9187L267.434 25.7868C267.565 25.4666 267.836 25.0737 268.359 24.9392C268.886 24.8042 269.342 25.0256 269.601 25.1862L270.164 25.5359L270.434 25.7038L270.625 25.3943C270.805 25.1001 270.999 24.8242 271.206 24.5691L271.473 24.2419L271.738 23.9148C271.905 23.7096 272.069 23.4968 272.23 23.2771L272.487 22.9275L272.744 22.5788C273.084 22.1162 273.585 21.8271 274.188 21.8132L274.594 21.8034L274.999 21.7946C275.383 21.7858 275.772 21.8422 276.159 21.9489L276.625 22.0778L276.672 22.0905L276.729 21.9392L276.917 21.4333L276.975 21.2966C277.13 20.9692 277.435 20.6028 277.968 20.5105C278.476 20.4226 278.907 20.6467 279.161 20.8122L280.308 21.5603C280.311 21.5625 280.315 21.5644 280.318 21.5661L280.346 21.5534L280.404 21.5153L280.721 21.3015C280.865 21.2038 281.006 21.0823 281.144 20.9343L281.423 20.6355L281.701 20.3366C281.985 20.032 282.326 19.7952 282.723 19.6511L283.076 19.5232L283.43 19.3943C283.855 19.24 284.297 19.2213 284.729 19.2927L285.171 19.3659L285.293 19.3855L286.062 19.0485L286.146 18.9792C286.397 18.768 286.667 18.5855 286.954 18.4343L287.286 18.2595L287.619 18.0837C287.944 17.9123 288.293 17.8013 288.657 17.7478L289.22 17.6648L290.77 16.9851L290.88 16.7409L291.087 16.28C291.259 15.8963 291.475 15.5449 291.748 15.2487L292.025 14.948L292.303 14.6462C292.774 14.1344 293.411 14.0169 294.006 14.1589L294.92 14.3776C295.136 14.4292 295.304 14.437 295.434 14.4235L295.825 14.3835L295.936 14.3718L296.074 13.8913L296.236 13.3269C296.393 12.7818 296.792 12.0886 297.652 12.0026L298.044 11.9636L298.437 11.9245C298.773 11.8909 299.116 11.8948 299.465 11.9323L299.895 11.9792L300.324 12.0251C300.326 12.0253 300.328 12.025 300.329 12.0251L300.6 11.7966L300.898 11.5446C301.086 11.3859 301.273 11.222 301.457 11.0525L301.748 10.7839L302.04 10.5144L302.152 10.4196C302.723 9.97912 303.399 10.0601 303.902 10.2732L304.405 10.486L304.643 10.5866L304.676 10.5368L304.922 10.1628C305.178 9.77296 305.532 9.44817 305.996 9.27023L306.347 9.13546L306.625 9.02902C306.635 9.01025 306.65 8.98294 306.665 8.94406L306.857 8.44796L307.05 7.95284C307.178 7.62314 307.451 7.21008 307.976 7.05441C308.46 6.91111 308.896 7.06968 309.173 7.21554L309.705 7.49581L309.92 7.60909L310.139 7.23409C310.418 6.75367 310.872 6.37205 311.5 6.29269L312.275 6.19503C312.727 6.13799 313.177 6.21414 313.602 6.36202L314.084 6.52999L314.177 6.56222L314.215 6.47531L314.42 6.00851C314.58 5.64296 314.766 5.3052 314.983 5.00363L315.238 4.65109L315.493 4.29757L315.608 4.15695C315.895 3.84872 316.298 3.68941 316.737 3.73019C317.144 3.76802 317.49 3.96862 317.743 4.15109L318.343 4.5837L318.615 4.78097L319.111 4.5632C319.145 4.49015 319.187 4.37777 319.226 4.20968L319.365 3.59347L319.504 2.97823C319.619 2.47106 319.865 1.86659 320.439 1.52999L320.766 1.33859L321.092 1.14816C321.399 0.968569 321.728 0.838869 322.075 0.760461L322.447 0.676477L322.82 0.592493C323.014 0.548847 323.198 0.49025 323.375 0.416711L323.722 0.27218L324.067 0.128625ZM431.476 144.276C431.517 144.354 431.555 144.414 431.586 144.459L431.74 144.463L432.115 144.469C432.24 144.472 432.372 144.452 432.517 144.402L432.892 144.272L433.267 144.141C433.447 144.079 433.63 144.028 433.814 143.988H431.32L431.476 144.276ZM479.049 143.995C479.245 144.095 479.435 144.17 479.618 144.221L480.368 144.434C480.437 144.454 480.495 144.454 480.564 144.433L480.939 144.324L481.314 144.214C481.327 144.208 481.413 144.165 481.562 143.988H479.035L479.049 143.995ZM492.504 144.006C492.709 144.097 492.91 144.169 493.106 144.222L493.481 144.324L493.856 144.425C493.938 144.447 494.011 144.448 494.092 144.426L494.467 144.328L494.842 144.23C494.819 144.236 494.905 144.22 495.083 144.01L495.103 143.988H492.465L492.504 144.006ZM317.368 143.988C317.483 144.075 317.566 144.112 317.617 144.127L317.992 144.232L318.289 144.315L318.651 144.065L318.763 143.988H317.368ZM81.9521 144.231C81.9705 144.262 81.9904 144.287 82.0059 144.309L82.1182 144.299L82.4932 144.259C82.6681 144.241 82.8475 144.203 83.0322 144.142L83.4072 144.019L83.502 143.988H81.8057L81.9521 144.231ZM513.932 144.039C513.975 144.105 514.013 144.154 514.043 144.189C514.051 144.198 514.059 144.206 514.065 144.213L514.318 144.238L514.693 144.275C514.791 144.285 514.896 144.274 515.017 144.232L515.392 144.101L515.714 143.988H513.898L513.932 144.039ZM488.322 144.134C488.367 144.181 488.401 144.208 488.422 144.223L488.735 144.229L489.11 144.234C489.163 144.235 489.243 144.224 489.362 144.158L489.67 143.988H488.185L488.322 144.134ZM111.933 144.229L112.299 144.117C112.301 144.116 112.358 144.094 112.466 143.988H111.792L111.933 144.229ZM603.694 144.223L603.984 144.154L604.359 144.063C604.541 144.019 604.724 143.995 604.908 143.988H603.384L603.694 144.223ZM331.073 144.089H331.074L331.409 144.154L331.694 144.209C331.698 144.206 331.702 144.203 331.706 144.2L331.96 143.988H330.973C331.019 144.04 331.052 144.072 331.073 144.089ZM419.237 144.206L419.288 144.182L419.663 144.003C419.673 143.998 419.682 143.993 419.691 143.988H419.055L419.237 144.206ZM396.116 144.007L396.491 144.169C396.547 144.192 396.567 144.188 396.589 144.182L397.32 143.988H396.073L396.116 144.007ZM605.113 143.988C605.257 143.994 605.401 144.011 605.544 144.04L605.919 144.116L606.2 144.173C606.202 144.171 606.206 144.17 606.208 144.168L606.425 143.988H605.113ZM344.287 144.156L344.316 144.144L344.669 143.988H344.159L344.287 144.156ZM572.083 144.156L572.287 144.058L572.433 143.988H571.857L572.083 144.156ZM534.962 144.022C534.993 144.076 535.023 144.119 535.047 144.153L535.188 144.149L535.524 144.138C535.544 144.127 535.584 144.1 535.643 144.043L535.698 143.988H534.942L534.962 144.022ZM626.245 144.139L626.51 143.988H626.134L626.245 144.139ZM408.823 144.134L409.136 143.988H408.726L408.823 144.134ZM364.652 144.131L364.746 143.988H364.406L364.652 144.131ZM12.8252 144.117L13.1016 143.988H12.7393L12.8252 144.117ZM559.924 144.097C559.933 144.101 559.939 144.102 559.941 144.102C559.943 144.102 559.943 144.102 559.943 144.102C559.944 144.102 559.945 144.102 559.947 144.101C559.951 144.1 559.959 144.098 559.972 144.093L560.234 143.988H559.61L559.924 144.097ZM597.098 144.093L597.156 143.988H596.923L597.098 144.093ZM593.357 144.018C593.384 144.05 593.408 144.072 593.426 144.09L593.686 144.082L594.061 144.069C594.21 144.064 594.364 144.038 594.525 143.988H593.332L593.357 144.018ZM505.843 144.017L505.926 144.084L506.031 143.988H505.806L505.843 144.017ZM348.612 144.069L348.664 144.035L348.734 143.988H348.535L348.612 144.069ZM241.943 143.988C242.082 144.031 242.211 144.05 242.335 144.049L242.71 144.046L243.028 144.042C243.042 144.032 243.062 144.014 243.091 143.988H241.943ZM539.255 144.038L539.416 143.988H539.206L539.255 144.038ZM132.477 144.037L132.534 143.988H132.421L132.477 144.037ZM68.2559 144.026L68.3047 144.005L68.3408 143.988H68.2246L68.2559 144.026ZM335.359 143.989L335.734 143.995L336.075 143.999C336.079 143.996 336.084 143.992 336.09 143.988H335.354C335.356 143.988 335.358 143.989 335.359 143.989ZM636.669 141.789L637.616 142.22C637.527 142.018 637.444 141.923 637.395 141.882L637.096 141.633L637.033 141.58L636.669 141.789ZM7.75684 141.026C7.61392 141.022 7.5024 141.04 7.41309 141.071L6.70215 141.317C6.5714 141.362 6.44683 141.428 6.32715 141.521L6.02246 141.759L5.93848 141.823L7.75684 141.026ZM632.503 139.893L632.301 139.435C632.3 139.434 632.299 139.432 632.298 139.43L632.036 139.368L631.665 139.28C631.468 139.233 631.261 139.201 631.044 139.183L630.919 139.173L632.503 139.893ZM607.527 128.527L607.508 128.413L607.453 128.405L607.165 128.362L607.527 128.527ZM594.043 122.391L595.425 123.019C595.326 122.945 595.226 122.875 595.124 122.81L594.805 122.608L594.484 122.406C594.465 122.393 594.426 122.373 594.327 122.378L594.043 122.391ZM71.2725 113.188L71.4932 113.092L71.2959 113.069L71.2725 113.188ZM92.2324 103.566L91.8936 103.729C91.9011 103.726 91.8967 103.725 91.8809 103.742C91.8632 103.761 91.8313 103.801 91.793 103.877L91.584 104.286L92.7627 103.769L92.4912 103.577C92.444 103.543 92.4026 103.519 92.3691 103.5L92.2324 103.566ZM550.335 102.5L550.253 102.095C550.249 102.077 550.243 102.061 550.239 102.046L550.084 101.997L549.724 101.884C549.478 101.806 549.234 101.727 548.99 101.646L548.632 101.527L548.274 101.408C548.055 101.335 547.832 101.268 547.606 101.208L547.332 101.134L550.335 102.5ZM100.401 100.309L100.031 100.398C100.012 100.403 99.978 100.414 99.9219 100.48L99.7178 100.72L100.802 100.246C100.777 100.237 100.758 100.231 100.744 100.228C100.742 100.228 100.741 100.228 100.739 100.227L100.401 100.309ZM165.312 71.7849L165.003 72.0144C164.92 72.0766 164.837 72.1438 164.756 72.2155L166.125 71.615L166.082 71.611L165.651 71.5642C165.63 71.5619 165.616 71.5618 165.608 71.5622L165.312 71.7849ZM180.101 65.2165L179.988 65.2536C179.983 65.2825 179.975 65.3156 179.97 65.3542L179.943 65.5593L180.761 65.2009L180.636 65.153C180.517 65.1077 180.457 65.1041 180.44 65.1042L180.101 65.2165ZM190.477 60.5964C190.299 60.6045 190.144 60.6348 190.005 60.6833L189.649 60.8073L189.295 60.9314C189.264 60.9422 189.21 60.9687 189.138 61.0622L188.614 61.736C188.606 61.7472 188.597 61.7589 188.589 61.7702L191.314 60.5749C191.255 60.554 191.247 60.5607 191.279 60.5593L190.477 60.5964ZM206.948 53.7234C206.803 53.709 206.709 53.727 206.646 53.7507L206.295 53.8835L206.139 53.9421C206.131 53.9727 206.121 54.0095 206.113 54.0544L206.106 54.0915L206.948 53.7234ZM421.363 43.4333C421.322 43.4352 421.257 43.4444 421.163 43.4734L420.845 43.571L422.719 44.4245L422.484 44.0954L422.232 43.7429C422.177 43.6647 422.146 43.6576 422.143 43.6569L421.78 43.5466L421.419 43.4362C421.418 43.436 421.402 43.4316 421.363 43.4333ZM406.714 37.1413L406.713 37.1228C406.71 37.0923 406.704 37.0653 406.7 37.0407L406.627 37.0193L406.265 36.9109C406.242 36.904 406.212 36.8987 406.175 36.8952L406.714 37.1413ZM248.945 35.1609L248.605 35.32C248.383 35.4245 248.162 35.5308 247.941 35.6384L247.604 35.8034L247.267 35.9675C247.055 36.0707 246.845 36.179 246.638 36.2917L246.307 36.4714L246.287 36.4812L249.273 35.1726L249.228 35.1433C249.183 35.115 249.145 35.0954 249.115 35.0798L248.945 35.1609ZM380.209 24.9392C380.187 24.9373 380.142 24.9379 380.069 24.9528L379.974 24.9724L380.771 25.3347C380.763 25.2729 380.753 25.2235 380.744 25.1853L380.572 25.1042L380.232 24.9441C380.232 24.9438 380.231 24.9426 380.229 24.9421C380.227 24.9414 380.22 24.9401 380.209 24.9392ZM274.64 23.8034L274.32 23.8103L274.099 24.112L273.903 24.3776L275.219 23.8015C275.156 23.796 275.099 23.7924 275.045 23.7937L274.64 23.8034ZM364.579 17.8444L364.316 17.8464L365.701 18.4773C365.666 18.4294 365.635 18.3941 365.608 18.3698L365.022 17.8444C365.021 17.8433 365.02 17.8421 365.02 17.8415C365.015 17.8408 365.006 17.8414 364.992 17.8415L364.579 17.8444ZM324.489 2.11886L324.144 2.26339C323.859 2.38189 323.564 2.47518 323.261 2.54366L322.888 2.62765L322.516 2.71163C322.366 2.74535 322.229 2.7991 322.102 2.87374L321.776 3.06515L321.521 3.21359C321.504 3.24838 321.479 3.31304 321.455 3.41964L321.425 3.54952L324.846 2.04952C324.809 2.03245 324.779 2.02004 324.756 2.01241C324.754 2.01177 324.752 2.01104 324.75 2.01046L324.489 2.11886Z" fill="var(--fill-0, #FAFAF8)"/>
</g>
</svg>
