<svg preserveAspectRatio="none" width="100%" height="100%" overflow="visible" style="display: block;" viewBox="0 0 240 179.777" fill="none" xmlns="http://www.w3.org/2000/svg">
<g id="house">
<mask id="mask0_0_6" style="mask-type:alpha" maskUnits="userSpaceOnUse" x="3" y="0" width="235" height="180">
<path id="Vector 52" d="M4.45545 83.9827L119.332 0.72291C119.933 0.287779 120.74 0.269265 121.359 0.676404L168.829 31.8642C170.016 32.6438 171.593 31.7927 171.593 30.3729V7.80669C171.593 6.8212 172.392 6.02231 173.378 6.02231H203.106C204.091 6.02231 204.89 6.8212 204.89 7.80669V55.1841C204.89 55.6936 205.108 56.1789 205.489 56.5175L236.495 84.0942C237.72 85.1844 236.949 87.2119 235.309 87.2119H215.905C214.92 87.2119 214.121 88.0108 214.121 88.9963V177.993C214.121 178.978 213.322 179.777 212.337 179.777H28.8174C27.8319 179.777 27.033 178.978 27.033 177.993V88.9963C27.033 88.0108 26.2341 87.2119 25.2486 87.2119H5.50262C3.77299 87.2119 3.05497 84.9977 4.45545 83.9827Z" fill="var(--fill-0, #D9D9D9)"/>
</mask>
<g mask="url(#mask0_0_6)">
<rect id="image 155" x="-86.9902" y="-166.84" width="413.978" height="513.903" fill="var(--fill-0, #F1D8C6)"/>
</g>
</g>
</svg>
