<svg preserveAspectRatio="none" width="100%" height="100%" overflow="visible" style="display: block;" viewBox="0 0 30 30" fill="none" xmlns="http://www.w3.org/2000/svg">
<g id="Footer / Social / Instagram &#226;&#128;&#148; project asset">
<path id="Vector" d="M19.6875 4.6875H10.3125C7.2059 4.6875 4.6875 7.2059 4.6875 10.3125V19.6875C4.6875 22.7941 7.2059 25.3125 10.3125 25.3125H19.6875C22.7941 25.3125 25.3125 22.7941 25.3125 19.6875V10.3125C25.3125 7.2059 22.7941 4.6875 19.6875 4.6875Z" stroke="var(--stroke-0, white)" stroke-width="1.875"/>
<path id="Vector_2" d="M15 19.6875C17.5888 19.6875 19.6875 17.5888 19.6875 15C19.6875 12.4112 17.5888 10.3125 15 10.3125C12.4112 10.3125 10.3125 12.4112 10.3125 15C10.3125 17.5888 12.4112 19.6875 15 19.6875Z" stroke="var(--stroke-0, white)" stroke-width="1.875"/>
<path id="Vector_3" d="M21.5625 9.8125C22.3219 9.8125 22.9375 9.19689 22.9375 8.4375C22.9375 7.67811 22.3219 7.0625 21.5625 7.0625C20.8031 7.0625 20.1875 7.67811 20.1875 8.4375C20.1875 9.19689 20.8031 9.8125 21.5625 9.8125Z" fill="var(--fill-0, white)"/>
</g>
</svg>
