<svg preserveAspectRatio="none" width="100%" height="100%" overflow="visible" style="display: block;" viewBox="0 0 146 146" fill="none" xmlns="http://www.w3.org/2000/svg">
<g id="Group 9">
<path id="Union" d="M85.415 12.415C85.415 5.55837 79.8566 0 73 0C66.1434 0 60.585 5.55837 60.585 12.415V26.0249L53.8608 14.1921C50.4732 8.23081 42.8944 6.14444 36.9331 9.53206C30.9718 12.9197 28.8854 20.4985 32.273 26.4598L39.9248 39.9248L26.4598 32.273C20.4985 28.8854 12.9197 30.9718 9.53208 36.9331C6.14446 42.8944 8.23083 50.4731 14.1921 53.8608L26.025 60.585H12.415C5.55836 60.585 0 66.1434 0 73C0 79.8566 5.55836 85.415 12.415 85.415H26.0249L14.1921 92.1392C8.23083 95.5268 6.14446 103.106 9.53208 109.067C12.9197 115.028 20.4985 117.115 26.4598 113.727L39.9249 106.075L32.273 119.54C28.8854 125.502 30.9718 133.08 36.9331 136.468C42.8944 139.856 50.4732 137.769 53.8608 131.808L60.585 119.975V133.585C60.585 140.442 66.1434 146 73 146C79.8566 146 85.415 140.442 85.415 133.585V119.975L92.1392 131.808C95.5268 137.769 103.106 139.856 109.067 136.468C115.028 133.08 117.115 125.502 113.727 119.54L106.075 106.075L119.54 113.727C125.502 117.115 133.08 115.028 136.468 109.067C139.856 103.106 137.769 95.5268 131.808 92.1392L119.975 85.415H133.585C140.442 85.415 146 79.8566 146 73C146 66.1434 140.442 60.585 133.585 60.585H119.975L131.808 53.8608C137.769 50.4731 139.856 42.8944 136.468 36.9331C133.08 30.9718 125.502 28.8854 119.54 32.273L106.075 39.9248L113.727 26.4598C117.115 20.4985 115.028 12.9197 109.067 9.53206C103.106 6.14444 95.5268 8.23081 92.1392 14.1921L85.415 26.0249V12.415Z" fill="var(--fill-0, #F2CCAD)"/>
</g>
</svg>
