<svg preserveAspectRatio="none" width="100%" height="100%" overflow="visible" style="display: block;" viewBox="0 0 74.4022 70.4758" fill="none" xmlns="http://www.w3.org/2000/svg">
<path id="Vector" d="M24.773 0C28.0882 0.72142 33.7289 7.86771 36.6053 10.7979C38.982 8.7477 46.2563 -0.43151 48.5306 0.999156C49.9656 3.38606 50.5741 11.6789 51.1923 15.2533C54.325 14.9874 64.78 12.6604 66.2695 13.4388C67.9063 16.6151 60.0105 24.6452 60.9395 27.3098C61.7434 29.6099 70.6417 32.3463 74.0691 35.0517L74.4022 35.3179C70.8947 38.3852 64.6326 40.2691 60.2091 43.0539C61.753 47.7188 65.2509 50.7512 66.6282 55.2191C66.862 55.9818 66.4392 56.5309 66.0388 57.0361C63.4635 58.1986 55.5934 55.5269 51.4998 55.1867L51.0034 55.1483C50.5837 58.93 50.0168 66.764 49.216 70.0309C48.8765 70.1523 48.1494 70.4019 47.8355 70.3336C45.0744 69.7352 38.9083 61.8547 37.1658 59.7154C33.4822 62.9535 29.898 67.3397 26.2656 70.2692C23.5974 72.4204 22.8511 57.096 22.598 55.5682C17.678 55.6323 12.7997 57.2895 8.16797 57.0335C7.56258 57.0002 7.42482 56.4896 7.18459 56.0305C7.31912 53.4882 11.9124 46.0994 13.4019 42.9786C10.8618 41.564 0.707891 37.3168 0 35.6331C0.762344 32.4543 9.97454 30.2394 13.2193 27.2464C12.0021 24.0939 6.22046 16.2848 7.11413 13.6272C9.88163 11.453 18.7543 16.1227 21.4898 14.9813C23.9209 13.9655 23.5205 3.40048 24.773 0Z" fill="var(--fill-0, #FCAE18)"/>
</svg>
