<svg preserveAspectRatio="none" width="100%" height="100%" overflow="visible" style="display: block;" viewBox="0 0 49 49" fill="none" xmlns="http://www.w3.org/2000/svg">
<path id="Vector" d="M23.0475 0.0808032C29.2529 -0.51789 33.5476 2.20828 35.4489 8.3274C35.8097 9.48914 35.9912 11.9303 36.7386 12.7626C37.5719 13.3325 39.0192 12.9447 39.9349 13.1503C47.9987 14.9606 51.5643 23.7911 46.9681 30.6672C44.171 34.8518 39.8811 34.9927 35.4033 35.7773C35.1213 42.5231 33.1455 47.2804 26.0828 48.8463C20.9744 49.609 16.427 47.5247 14.0894 42.7679C13.1498 40.8557 13.3154 38.2876 12.4542 36.3832C9.58603 35.4741 7.4746 36.1762 4.46396 33.948C2.09407 32.1674 0.525669 29.5194 0.102144 26.5838C-0.282053 23.7294 0.415863 20.1752 2.22477 17.9033C5.0347 14.374 9.36043 13.8047 13.4711 13.2878C13.8901 6.67943 15.8777 1.34566 23.0475 0.0808032Z" fill="var(--fill-0, #56D0FF)"/>
</svg>
