<svg preserveAspectRatio="none" width="100%" height="100%" overflow="visible" style="display: block;" viewBox="0 0 52.5162 53.0429" fill="none" xmlns="http://www.w3.org/2000/svg">
<path id="Vector" d="M25.7032 0C29.0338 0.598087 30.266 7.11649 31.7109 10.1793C34.8567 16.8486 39.7796 20.4548 46.7076 22.6703C48.7878 23.3356 51.5527 24.2512 52.5162 26.3139C52.0921 28.8796 48.0619 29.585 45.9552 30.3541C36.8299 33.686 32.2475 39.3597 29.3973 48.4495C29.0008 49.7139 28.0536 51.8945 27.174 53.043C26.97 52.9888 26.2076 52.7751 26.0344 52.697C23.3604 50.9876 22.0795 45.0875 20.5346 42.1803C17.2325 35.9662 14.1886 33.6056 7.72433 30.9535C5.54653 30.06 1.06632 28.6252 0 26.4363C0.672336 23.878 10.6545 21.3927 14.5694 18.3494C21.7835 12.7411 22.0141 4.1046 25.7032 0Z" fill="var(--fill-0, #FFB4EC)"/>
</svg>
