<svg preserveAspectRatio="none" width="100%" height="100%" overflow="visible" style="display: block;" viewBox="0 0 31 78" fill="none" xmlns="http://www.w3.org/2000/svg">
<path id="Vector" d="M23.9079 0.0474678C28.0981 -0.366677 32.4052 1.93876 30.4625 6.58738C29.1755 9.6629 26.6288 13.1122 24.7785 15.9889L14.5561 31.8795C22.8113 32.0522 37.0961 29.9044 28.1634 43.1236C24.2453 48.9211 11.0352 75.4737 6.90489 77.9378C5.18256 78.0202 4.58667 78.1265 2.91875 77.4833C0.793723 76.6592 -0.612987 73.9532 0.265867 71.7921C1.89297 67.8075 4.39892 63.8468 6.58653 60.0668C10.1047 54.0567 13.5466 48.0013 16.9151 41.9088C12.5562 42.0098 7.91706 41.9779 3.55816 41.9673C2.48612 41.3639 1.55013 40.7737 0.839975 39.7583C0.110771 38.7163 -0.158592 37.4484 0.132545 36.2123C0.766517 33.5355 18.9585 5.58739 21.4672 2.27556C22.1665 1.34918 22.9229 0.687292 23.9079 0.0474678Z" fill="var(--fill-0, #A9D239)"/>
</svg>
