<svg preserveAspectRatio="xMidYMid meet" width="100%" height="auto" overflow="visible" style="display: block;" viewBox="0 0 107 110.706" fill="none" xmlns="http://www.w3.org/2000/svg">
<g id="decoration5">
<path id="Vector" d="M49.6928 0.393719C57.9331 -1.23535 69.8791 2.38051 76.2415 7.74546C77.9343 9.17269 79.8286 12.2313 81.9636 12.7637C86.416 13.8742 93.0922 8.9588 100.023 11.6973C102.753 12.7758 104.635 15.0037 105.677 17.6878C107.674 22.8291 106.986 69.841 106.343 77.7496C106.207 79.4287 105.998 81.4671 105.267 83.0019C103.763 86.1568 100.758 87.3403 97.6925 88.4484C97.6851 90.061 97.6663 92.2513 97.0441 93.7459C96.1989 95.7763 94.2198 97.9089 93.1603 99.8994C91.7911 102.472 91.7193 105.109 89.6296 107.306C88.4303 108.596 85.7193 109.823 83.8941 109.983C75.0406 110.76 65.5437 110.498 56.6621 110.521C49.6864 110.502 27.2877 111.528 21.9823 108.947C18.4741 107.24 17.0686 103.654 15.8958 100.209C11.0083 96.6352 10.3642 95.5527 9.07171 89.606C3.51011 86.9356 1.40129 85.4276 0.849202 78.797C0.00535922 68.6626 -0.01251 58.4047 0.00281182 48.2377C0.33597 38.921 -0.315126 28.5679 1.08845 19.3457C2.9085 7.38707 18.3001 11.3731 25.5151 12.9716C32.6872 5.39088 39.1096 1.81022 49.6928 0.393719Z" fill="var(--fill-0, #EFEDB0)"/>
<path id="Vector_2" d="M50.0972 89.0059L50.0268 87.3892C48.4846 85.6857 47.5361 88.8821 44.2813 87.9018C43.4887 87.0284 43.6922 87.524 43.6081 86.3827C45.4031 83.1588 43.4948 83.8401 46.8568 80.2064C46.885 79.3384 43.9718 78.3403 43.8126 77.1126C43.2906 73.0921 46.302 72.2764 49.1659 73.9718L49.5072 74.1783C49.8505 73.483 48.9808 72.1208 48.5858 70.8551C48.8416 69.55 48.5416 70.082 49.4877 69.1859C50.8221 69.2204 50.5214 69.3086 51.8386 70.1692C53.1549 68.4278 54.6385 66.5302 56.5455 65.4339L57.4413 65.681C58.4756 67.4904 57.3994 70.8665 57.8078 72.5177C58.8981 72.4044 60.2925 72.1624 60.9838 73.1209C60.6925 74.1448 60.4286 74.4489 59.8456 75.3621C59.981 75.5921 60.1128 75.8238 60.2415 76.0578C62.0399 79.3357 58.8662 79.2144 58.1977 81.5569C58.7623 83.1273 59.3125 83.5561 57.9473 84.5002C56.6213 84.5864 57.0749 84.7386 56.0433 84.1063L55.889 83.4428C56.4895 82.848 56.5539 82.8842 56.8 82.0967C55.9715 80.9628 56.4325 81.3078 54.8158 80.9645C54.0588 80.0727 54.1808 80.54 54.102 79.6086C55.3472 78.7936 56.6665 79.5795 58.4545 78.4067C58.8716 77.3711 58.8793 77.8612 58.5487 76.8903L57.7894 76.7052C57.5225 76.8081 57.2546 76.9084 56.9854 77.0056C55.5145 77.532 55.364 77.6095 53.9968 76.95C52.5705 74.2745 56.807 72.3685 56.006 68.9756L55.4277 68.9592C52.5558 71.2182 52.5853 73.4665 52.1494 76.7951C50.12 77.2219 48.3183 74.2759 46.3519 76.1778C46.2467 77.7566 47.5599 78.3671 48.9637 78.4915L50.6437 78.6468C51.1255 79.4541 52.0341 80.6081 51.9587 81.3608C48.7806 80.9155 47.3899 81.177 46.6604 84.5867L46.9675 85.0122C48.842 85.1268 49.5363 83.9463 51.4293 83.8971C53.6545 85.4534 51.2589 87.6175 52.8102 90.4918L53.2495 90.413C53.6444 89.6134 53.6035 89.1282 53.6585 88.2455C53.1817 87.294 53.1341 87.2299 52.8853 86.2104C53.6142 85.5026 53.3869 85.7239 54.5805 85.5194C56.3453 86.484 54.6405 87.4264 56.2384 89.3066C58.761 89.6318 63.7682 89.3123 66.3052 88.9764C67.0204 88.4128 67.0455 87.7486 67.3781 86.7505C67.5065 86.5202 68.341 85.6502 68.5717 85.3991L69.8162 85.0178C71.3168 85.4842 75.6998 86.3465 76.8465 85.1888C76.3094 82.9902 76.356 83.2205 77.9931 81.9592C77.0218 81.1217 76.8032 81.0503 76.4529 79.8829C76.6081 78.5951 77.0473 78.3561 78.0082 77.3567L79.1528 74.1116C80.1382 73.318 80.2609 73.1276 81.445 72.8228C83.1754 73.7485 82.2698 77.1495 82.0096 78.8932C82.9253 78.9643 82.5182 78.8798 83.3071 78.6776C88.3965 77.3741 91.2416 80.8112 86.2756 84.2461C87.7977 85.8701 90.951 89.4095 88.8632 91.6119C86.8432 91.9579 86.0862 90.8606 84.7565 91.343C84.5983 92.6174 84.554 93.2979 84.557 94.5817C83.1734 94.4301 83.1861 94.6719 82.3918 93.9179C82.5997 92.9737 82.7318 92.6174 82.6446 91.6347C81.84 91.05 80.9086 91.3283 79.6959 91.3826L72.4095 91.5472C71.8627 92.5168 71.754 92.8893 70.8807 93.5189C69.5221 93.4072 69.5848 93.1072 68.9123 91.9274C68.2444 92.7253 67.7921 93.4817 66.8138 93.7248C65.7426 93.3529 66.1899 93.649 65.4312 92.788C65.2679 92.3626 65.0996 92.1466 64.8595 91.7547C62.8375 91.1693 57.8075 91.3695 55.4213 91.3903C54.2613 92.778 53.4338 94.0101 51.5335 93.711C50.6015 92.9399 50.6152 92.8289 50.2035 91.6401C50.3507 90.9246 50.1747 89.7803 50.0972 89.0059Z" fill="var(--fill-0, #8A5A18)"/>
<path id="Vector_3" d="M73.1065 89.3362L72.683 88.5989C73.253 87.8657 74.1924 87.1204 74.9602 86.5883C76.5145 87.3326 77.0593 88.0437 78.5489 87.8925L79.4099 87.3577C79.7143 85.3622 77.2823 83.9403 79.3603 82.4504C80.8261 81.3994 84.3669 80.1461 85.9229 81.1653C85.6194 82.7615 83.3889 83.1642 81.9502 83.6617C84.6579 85.8061 85.5963 86.6674 87.4208 89.5735C85.6033 88.5519 82.5393 86.5692 80.5763 86.7693L80.2561 87.2622C80.7557 88.7819 81.2716 87.8392 81.7658 88.969C80.8375 89.3646 76.5685 89.2151 75.1292 89.3308L73.1065 89.3362Z" fill="var(--fill-0, #EFEDB0)"/>
<path id="Vector_4" d="M79.1534 74.1111L79.4612 75.5333L79.8132 75.6956L80.7044 75.8169C81.3005 77.2415 80.0258 79.4147 79.0917 80.517L77.9937 81.9587C77.0224 81.1212 76.8038 81.0498 76.4535 79.8824C76.6087 78.5946 77.0479 78.3556 78.0088 77.3561L79.1534 74.1111Z" fill="var(--fill-0, #EFEDB0)"/>
<path id="Vector_5" d="M77.9937 81.9594C77.0224 81.1219 76.8038 81.0505 76.4535 79.8831C76.6087 78.5953 77.0479 78.3563 78.0088 77.3569C78.2525 78.1082 78.5402 78.8837 78.6652 79.6585L79.0917 80.5178L77.9937 81.9594Z" fill="var(--fill-0, #8A5A18)"/>
<path id="Vector_6" d="M79.1567 74.1111L79.4645 75.5333L79.8165 75.6956L78.6686 79.6578C78.5435 78.883 78.2559 78.1075 78.0121 77.3561L79.1567 74.1111Z" fill="var(--fill-0, #8A5A18)"/>
<path id="Vector_7" d="M72.4131 91.5483C72.4765 90.3946 72.514 90.3584 73.1094 89.3375L75.1321 89.3321C76.5359 89.3455 77.4609 89.1984 78.6461 89.9011C79.1084 90.4942 79.3089 90.7248 79.6995 91.3836L72.4131 91.5483Z" fill="var(--fill-0, #8A5A18)"/>
<path id="Vector_8" d="M65.4295 92.7892L65.6599 91.9493C66.7455 91.4079 67.6564 91.7291 68.9106 91.9285C68.2428 92.7265 67.7905 93.4829 66.8122 93.7259C65.741 93.3541 66.1882 93.6501 65.4295 92.7892Z" fill="var(--fill-0, #8A5A18)"/>
<path id="Vector_9" d="M35.5066 46.7292C35.5915 49.8223 36.6278 64.3297 34.5706 65.6054L34.0211 65.1182C32.6716 59.6132 33.6878 52.072 33.4803 46.3731C33.0287 33.9813 32.1191 21.0742 46.5538 16.5806C47.4983 16.2865 49.245 15.8101 50.1198 16.2829C49.0935 18.4437 43.3352 19.492 39.9108 22.958C34.2594 28.6784 35.6009 36.8405 35.5925 44.5979C40.9695 44.3085 46.356 44.2361 51.7388 44.3809C51.7565 37.5981 51.7847 30.8076 51.8397 24.0245C51.8544 22.1933 51.5849 18.906 53.451 17.8965C54.554 19.3814 54.3582 40.6746 54.3716 44.2804C59.1667 44.2351 65.7045 44.0668 70.3654 44.499C69.6094 37.0755 71.217 31.3501 67.695 24.1013C67.4516 23.6004 67.7017 23.0724 68.0175 22.6536C73.0221 23.7516 73.4371 43.4073 71.914 45.6033L70.244 46.7245C65.2197 46.9897 59.4047 46.8479 54.3193 46.8381C54.6033 50.2636 54.4387 58.7458 53.6857 62.0026L53.3514 62.3064C53.2659 62.0371 52.6259 60.0138 52.6427 60.0269C51.7301 59.3171 51.6637 59.2058 51.6496 57.6244C51.8682 54.623 51.7361 49.9735 51.7368 46.8448C46.3872 46.8562 40.8354 46.9444 35.5066 46.7292Z" fill="var(--fill-0, #8A5A18)"/>
<path id="Vector_10" d="M51.6453 57.6227L53.39 56.4526C54.9349 53.8519 53.7323 50.0292 54.315 46.8364C54.599 50.2619 54.4344 58.7441 53.6814 62.0009L53.3471 62.3047C53.2616 62.0354 52.6216 60.0121 52.6383 60.0252C51.7257 59.3154 51.6593 59.2041 51.6453 57.6227Z" fill="var(--fill-0, #8A5A18)"/>
<path id="Vector_11" d="M34.0973 83.2869C35.5041 83.7525 37.0266 84.4328 38.4374 84.2715C38.9738 83.3123 38.2852 81.1696 37.4363 80.4015C37.7025 78.3782 39.9388 78.6219 40.8326 77.0395C40.5476 76.0256 40.8145 76.4444 39.9699 75.7628C37.612 75.5137 36.7574 77.3067 35.3898 77.4036C33.574 77.5327 32.2731 75.4795 29.9303 76.898L29.6711 77.4398C30.5736 79.0521 32.5672 78.9062 33.1861 80.2865C31.0105 81.9485 28.0269 79.6717 28.0232 77.0425C28.7756 74.8576 30.2149 75.1747 29.5638 73.9121C28.7816 72.3947 28.5426 72.8339 28.557 71.3279C29.1199 70.4558 29.1484 70.3133 30.1321 69.9228C31.5144 69.9774 32.0512 70.7878 33.4211 71.5726C34.6847 69.5228 34.5329 64.876 38.5169 66.1249C40.1138 67.6859 39.5757 70.428 39.3296 72.5107C40.5583 73.3556 40.9838 72.0598 42.3839 72.9573C43.2418 79.09 39.5753 78.3896 39.1878 80.9809C40.7129 83.2862 42.2575 85.4859 38.2198 86.1068C37.3361 87.814 38.7941 89.1017 40.4866 89.3089C41.3643 90.1478 41.0887 89.791 41.428 91.0798C38.4069 91.0885 38.776 91.5545 35.9014 92.4323C34.9278 92.7297 34.6351 91.1821 33.6092 91.0148C33.1187 91.8878 32.8501 92.3166 32.2621 93.1263C30.4553 93.4988 30.3748 92.7719 29.543 91.4624C26.0505 89.9607 19.9043 92.8416 17.7623 90.5259C17.1062 87.1391 20.3509 84.6635 22.9603 83.3663C18.5113 81.114 15.0318 74.9068 22.2485 75.9002C23.1521 74.4844 22.796 74.5672 24.0795 73.9842L24.7161 74.1853C25.2033 75.2334 25.0947 75.4875 24.8224 76.6502C26.0515 77.4103 25.9496 77.1079 26.5705 78.2139C24.9572 78.8979 21.4895 76.7133 20.3298 78.3386C21.5244 81.6008 24.2893 79.5185 26.5095 80.6074L26.6862 81.1626C25.4246 82.6582 24.4724 82.3951 23.4025 83.3033C26.5256 83.9701 27.3249 84.8422 29.9065 82.2405C30.7885 83.25 29.2802 84.7416 30.4932 85.2931C32.0321 84.7503 32.7663 84.1803 34.0973 83.2869Z" fill="var(--fill-0, #8A5A18)"/>
<path id="Vector_12" d="M22.2568 75.9009C23.1604 74.485 22.8043 74.5679 24.0877 73.9848L24.7244 74.186C25.2116 75.234 25.1029 75.4881 24.8307 76.6509C23.5637 76.4899 23.3193 76.5322 22.2568 75.9009Z" fill="var(--fill-0, #8A5A18)"/>
<path id="Vector_13" d="M28.1855 85.1394C28.4497 85.4116 28.5339 85.9705 28.6459 86.3369C29.0727 86.6618 29.5722 86.9941 29.8595 87.4547C30.221 88.0344 30.1321 88.1266 29.9514 88.7395C29.7345 88.8467 29.5156 88.95 29.2946 89.0489C28.0947 89.5857 27.2622 89.7523 26.0395 89.2943C25.4175 88.5832 25.4008 88.1041 25.3438 87.1711C25.3371 87.0608 25.3331 86.9501 25.3277 86.8398C24.6055 86.5847 24.3849 86.7996 23.6828 87.0601C22.38 88.0005 20.999 88.8608 19.6619 89.754C22.8886 82.9869 24.0506 88.0686 28.1855 85.1394Z" fill="var(--fill-0, #EFEDB0)"/>
<path id="Vector_14" d="M36.7684 68.4859C37.1681 68.8269 37.4195 69.137 37.5493 69.6526C37.9871 71.3903 37.1986 73.1079 36.2893 74.5365L35.9889 74.5502L35.6221 74.0751C35.4082 71.9087 35.6684 70.35 36.7684 68.4859Z" fill="var(--fill-0, #EFEDB0)"/>
<path id="Vector_15" d="M30.9906 72.2455L32.0803 72.7225C32.8551 73.7464 32.8501 74.3526 33.0281 75.5639C31.6981 74.4623 31.1529 73.955 30.9906 72.2455Z" fill="var(--fill-0, #8A5A18)"/>
<path id="Vector_16" d="M95.9429 21.6882C92.5215 21.8116 92.2121 21.9732 89.0672 22.6907C86.5795 23.2579 82.5408 25.9327 81.2145 25.7761C80.6834 21.7191 94.0698 17.6918 97.341 19.7983C99.3972 22.3889 98.5604 56.8132 98.3324 62.4266C97.6941 61.8224 97.2803 60.6517 96.2816 59.505C96.19 58.0071 96.1025 56.4437 96.1267 54.9434C96.3044 43.8524 95.9956 32.7748 95.9429 21.6882Z" fill="var(--fill-0, #8A5A18)"/>
<path id="Vector_17" d="M61.7444 102.147C50.4569 102.511 38.8595 101.81 27.5448 102.141C24.2809 102.237 22.5097 94.7733 24.5642 92.4865L25.2294 92.8257C26.3727 94.5899 26.6969 97.4166 27.1304 99.574C39.8693 99.8593 53.8894 99.2699 66.401 99.9032C65.2383 100.616 63.0349 101.678 61.7444 102.147Z" fill="var(--fill-0, #8A5A18)"/>
<path id="Vector_18" d="M77.5673 26.4409C78.2613 26.9515 78.8916 27.6616 79.0974 28.4572C80.5002 33.8765 80.1284 66.0071 78.6478 69.1181L78.1231 69.1925C76.8032 67.2818 78.0759 33.7735 76.8263 27.0598L76.7321 26.5653L77.5673 26.4409Z" fill="var(--fill-0, #8A5A18)"/>
<path id="Vector_19" d="M71.4286 68.5251C74.437 69.9748 72.4297 72.1118 73.873 73.5571C74.6985 73.3747 75.3881 73.2054 76.2414 73.3265L76.5116 74.0413C74.8078 76.2135 72.5712 77.6075 70.2357 79.0156C69.2899 79.0703 69.1062 78.7655 68.3515 78.2284C67.5689 78.6994 66.8263 79.0666 65.9674 79.378C65.2472 79.2976 64.8744 79.1779 64.3125 78.6971C63.4669 77.9739 62.7629 76.9916 62.6995 75.8473C62.6452 74.87 63.1276 74.282 63.7583 73.6094C64.7071 73.2101 65.3347 73.3483 66.3375 73.5209C67.5227 73.7251 68.3246 71.0272 69.025 70.2024C69.6131 69.5105 70.6531 68.9908 71.4286 68.5251Z" fill="var(--fill-0, #8A5A18)"/>
<path id="Vector_20" d="M70.942 71.2332C71.1904 71.5286 71.3319 71.7857 71.4308 72.1713C71.8804 73.9187 70.5219 75.7794 69.5164 77.0635C69.2479 76.2806 68.9347 75.4606 68.9478 74.6217C68.9716 73.0953 69.9318 72.2403 70.942 71.2332Z" fill="var(--fill-0, #EFEDB0)"/>
<path id="Vector_21" d="M8.87519 31.6001C8.56104 29.7139 8.83311 27.6436 8.63352 25.8302C7.64696 16.8671 14.8525 18.1733 20.8015 20.8025C22.9871 21.5934 27.0224 23.488 27.6464 25.9529C25.9251 26.5721 22.7964 24.2115 21.1626 23.268C17.4448 22.4101 15.0171 21.8764 11.1816 21.4955C11.1752 23.72 11.2466 26.5 11.1286 28.6766C10.3122 29.7575 10.3541 30.2014 10.3008 31.5408L9.97427 31.9143L8.87519 31.6001Z" fill="var(--fill-0, #8A5A18)"/>
<path id="Vector_22" d="M8.50755 38.3023C10.8795 37.2914 8.69694 37.3136 10.8597 36.4003L10.8268 65.469C10.0973 65.8083 9.24766 66.2837 8.47362 66.3776C8.38088 57.0192 8.39218 47.6603 8.50755 38.3023Z" fill="var(--fill-0, #8A5A18)"/>
<path id="Vector_23" d="M82.3899 93.9189C83.1841 94.6729 83.1714 94.4312 84.5551 94.5827C83.8118 104.109 82.2954 102.433 73.5451 102.169C72.2134 101.946 71.3079 102.03 70.3929 101.275L70.4539 100.452C74.9315 99.5497 77.1402 99.6959 81.6815 99.7871C81.7847 97.411 81.7737 96.1954 82.3899 93.9189Z" fill="var(--fill-0, #8A5A18)"/>
<path id="Vector_24" d="M8.4674 66.3773C9.24144 66.2834 10.091 65.808 10.8206 65.4687C10.8209 67.652 10.7703 70.0495 10.8863 72.2116C10.9835 74.1045 10.7975 76.8651 11.4284 78.3742C12.4245 79.2231 12.6371 78.9773 14.1461 79.0923C13.9376 79.7176 13.5638 80.946 13.3137 81.4948C9.12614 81.3523 8.78688 80.608 8.75939 76.7578C8.33399 74.2038 8.46482 69.1784 8.4674 66.3773Z" fill="var(--fill-0, #8A5A18)"/>
<path id="Vector_25" d="M8.4674 66.3773C9.24144 66.2834 10.091 65.808 10.8206 65.4687C10.8209 67.652 10.7703 70.0495 10.8863 72.2116L9.31704 71.8469C8.25373 73.2784 8.94077 74.6939 8.75939 76.7578C8.33399 74.2038 8.46482 69.1784 8.4674 66.3773Z" fill="var(--fill-0, #8A5A18)"/>
<path id="Vector_26" d="M95.9659 68.0375C96.7353 67.0706 96.6689 67.3733 98.2973 67.0883C98.3392 69.5663 98.5887 77.4008 97.4176 79.6699C96.5821 81.2889 92.3865 80.4699 90.6475 79.5948L90.1855 78.9759C91.3247 77.9942 94.3448 78.0315 95.8703 77.9956L95.9659 68.0375Z" fill="var(--fill-0, #8A5A18)"/>
<path id="Vector_27" d="M26.5602 37.9851C28.9802 39.0435 28.5356 38.9567 28.6325 41.6278C28.6436 45.5155 28.432 52.7278 28.7314 56.2682C27.9113 56.7443 27.1214 56.9599 26.5739 57.3495C26.2611 50.7977 26.3926 44.5205 26.5602 37.9851Z" fill="var(--fill-0, #8A5A18)"/>
<path id="Vector_28" d="M74.7353 31.9332C74.8567 32.064 74.9935 32.182 75.0997 32.3255C76.4147 34.0998 75.3619 58.8157 75.1634 62.451L74.8044 62.1734C74.1177 60.5624 73.9967 34.9929 74.7353 31.9332Z" fill="var(--fill-0, #8A5A18)"/>
<path id="Vector_29" d="M70.0178 13.7603L71.7032 15.0373C74.0306 17.2836 79.161 22.3871 77.3039 25.8329L77.5694 26.4408L76.7343 26.5652C74.2637 21.8674 73.6313 20.6058 69.8616 16.8625L68.782 15.9174C69.1488 14.7098 69.1736 14.6776 70.0178 13.7603Z" fill="var(--fill-0, #8A5A18)"/>
<path id="Vector_30" d="M70.0178 13.7603L71.7032 15.0373C70.9478 15.9664 70.8214 16.1873 69.8616 16.8625L68.782 15.9174C69.1488 14.7098 69.1736 14.6776 70.0178 13.7603Z" fill="var(--fill-0, #8A5A18)"/>
<path id="Vector_31" d="M70.2394 46.7233L71.9094 45.6021C71.4219 47.8846 72.0854 48.9957 72.2423 51.0603C72.4774 54.1619 72.9484 61.9578 72.2557 64.7234C72.2195 63.6469 72.2745 62.3263 72.2889 61.2283L70.2304 61.2239C70.0238 58.3809 70.1623 54.5357 70.4527 51.7245C70.4852 50.1695 70.6599 48.1599 70.2394 46.7233Z" fill="var(--fill-0, #8A5A18)"/>
<path id="Vector_32" d="M70.2449 46.7233L71.9149 45.6021C71.4274 47.8846 72.0909 48.9957 72.2478 51.0603C72.4828 54.1619 72.9539 61.9578 72.2612 64.7234C72.225 63.6469 72.28 62.3263 72.2944 61.2283C72.2779 59.7863 72.3064 51.306 71.8642 50.5369L70.4581 51.7245C70.4906 50.1695 70.6653 48.1599 70.2449 46.7233Z" fill="var(--fill-0, #8A5A18)"/>
<path id="Vector_33" d="M28.7351 56.2669L28.947 56.978L30.3316 57.0702C30.9633 57.9405 30.9455 57.8839 31.031 58.954C30.6528 59.7446 30.9455 59.4834 30.2931 59.9163C28.5235 61.3673 29.9796 62.5313 29.1334 63.9898C28.4662 65.5913 28.0689 67.3478 27.6237 69.0342C26.3909 63.7655 26.4941 62.7238 26.5776 57.3481C27.1251 56.9585 27.915 56.7429 28.7351 56.2669Z" fill="var(--fill-0, #8A5A18)"/>
<path id="Vector_34" d="M28.9469 56.9787L30.3315 57.0709C30.9632 57.9413 30.9454 57.8846 31.0309 58.9548C30.6527 59.7453 30.9454 59.4842 30.293 59.917C28.5234 61.368 29.9795 62.5321 29.1333 63.9905C28.744 62.2438 28.9184 58.8854 28.9469 56.9787Z" fill="var(--fill-0, #8A5A18)"/>
<path id="Vector_35" d="M30.3293 57.0701C30.961 57.9405 30.9432 57.8838 31.0287 58.954C30.6505 59.7446 30.9432 59.4834 30.2908 59.9162C29.9998 58.5688 29.9739 58.3961 30.3293 57.0701Z" fill="var(--fill-0, #8A5A18)"/>
<path id="Vector_36" d="M48.7456 9.09378C51.4596 8.57646 53.7378 8.60093 56.4679 8.78063C59.1226 9.0522 59.6878 9.55209 62.0807 10.6829L62.8863 10.4952C61.7608 11.8745 61.4809 11.2509 60.1927 11.8292C58.4353 11.4859 56.7623 11.3575 54.9823 11.1895L49.907 11.2821C49.8205 10.175 49.5737 9.67212 48.7456 9.09378Z" fill="var(--fill-0, #8A5A18)"/>
<path id="Vector_37" d="M48.7456 9.09378C51.4596 8.57646 53.7378 8.60093 56.4679 8.78063C53.5614 9.88769 56.1259 10.4892 52.4115 10.6199L52.2053 10.7711C53.0971 10.8285 54.3151 10.7634 54.9823 11.1895L49.907 11.2821C49.8205 10.175 49.5737 9.67212 48.7456 9.09378Z" fill="var(--fill-0, #8A5A18)"/>
<path id="Vector_38" d="M67.3766 86.7512C65.7652 86.8846 64.5217 88.7025 63.0164 87.8204C62.7495 86.5856 62.7106 85.3126 62.9014 84.0637C63.3714 80.7898 65.8574 78.3454 67.9623 81.6082C67.3896 82.8598 65.9563 82.9533 64.6411 84.3614L64.6743 84.8938C67.46 84.9555 66.8099 84.1287 68.5701 85.3997C68.3395 85.6509 67.505 86.5209 67.3766 86.7512Z" fill="var(--fill-0, #8A5A18)"/>
<path id="Vector_39" d="M27.4311 28.4524C28.105 28.5476 28.6866 28.6347 29.3709 28.6743C28.7279 33.0894 29.2036 38.0876 28.6364 41.6267C28.5395 38.9556 28.984 39.0424 26.564 37.984C26.551 35.1037 26.3495 31.0584 27.4311 28.4524Z" fill="var(--fill-0, #8A5A18)"/>
<path id="Vector_40" d="M34.3252 16.2717C35.8202 16.1798 36.2145 16.0407 37.6568 15.5911L38.3498 15.8358C35.2083 18.4422 33.074 20.6137 31.1918 24.3067C30.889 23.1373 30.4106 23.1001 29.4581 22.7507C31.0989 19.678 31.7993 18.6501 34.3252 16.2717Z" fill="var(--fill-0, #8A5A18)"/>
<path id="Vector_41" d="M86.7364 62.0934C88.039 61.9841 89.5343 61.8168 90.8358 61.973C91.7507 62.0827 92.8354 62.3972 93.4338 63.1153C93.3373 63.2296 93.2464 63.349 93.1438 63.458C92.3589 64.2918 91.4242 64.2354 90.3567 64.3112C87.9015 64.3397 84.9484 64.6408 82.7839 63.299L82.9164 62.8069C84.175 62.1833 85.3635 62.1755 86.7364 62.0934Z" fill="var(--fill-0, #8A5A18)"/>
<path id="Vector_42" d="M84.452 68.762C86.7318 68.71 89.2423 68.4934 91.495 68.827C92.3573 68.9544 92.7563 69.0644 93.2515 69.7778C92.8844 70.6622 92.4465 70.7407 91.6335 71.2107L90.0691 71.1645C88.0639 71.0967 84.1365 71.2091 82.7143 69.6853C83.1645 68.939 83.6336 68.9946 84.452 68.762Z" fill="var(--fill-0, #8A5A18)"/>
<path id="Vector_43" d="M39.3152 12.4797C42.3333 10.5187 45.2666 9.74123 48.746 9.09517C49.5741 9.67351 49.8209 10.1764 49.9074 11.2835C47.1917 11.8078 44.7969 12.4616 42.2605 13.6042C40.7364 12.4277 41.3815 12.773 39.3152 12.4797Z" fill="var(--fill-0, #8A5A18)"/>
<path id="Vector_44" d="M19.5443 69.1425C20.5629 69.055 22.092 68.8971 23.0767 69.219C23.7091 69.4259 23.8308 69.5717 24.0929 70.1289L23.5884 70.7847C22.1842 71.582 20.6524 71.4264 19.0816 71.4344C18.226 71.4495 17.3664 71.4649 16.5115 71.4314C15.5774 71.3945 14.6447 71.2269 13.9932 70.5101L14.4221 69.9224C15.9797 69.0812 17.818 69.2022 19.5443 69.1425Z" fill="var(--fill-0, #8A5A18)"/>
<path id="Vector_45" d="M62.8898 10.4949C65.6316 10.8751 67.8209 12.0948 70.0143 13.7591C69.1701 14.6764 69.1453 14.7086 68.7785 15.9162C65.7607 14.1111 63.445 13.0695 60.1962 11.829C61.4843 11.2506 61.7643 11.8742 62.8898 10.4949Z" fill="var(--fill-0, #8A5A18)"/>
<path id="Vector_46" d="M91.1579 28.9327C91.3604 28.8636 91.5498 28.7858 91.7704 28.7808C92.6163 28.7614 92.7648 28.8837 93.2865 29.4657L92.9992 30.095C90.6728 31.1971 87.4257 31.007 84.8743 31.0985C83.7259 31.1381 82.8553 31.4063 81.9423 30.664L81.9393 30.0598C83.8309 28.5696 88.7902 28.9836 91.1579 28.9327Z" fill="var(--fill-0, #8A5A18)"/>
<path id="Vector_47" d="M14.1204 28.7593C17.2381 29.1499 21.2885 28.3295 24.1336 29.5911C24.6801 30.3411 24.6285 30.3015 24.4866 31.2259C22.2135 31.2198 19.9078 31.2748 17.6397 31.1313C16.3181 31.0475 14.8084 30.9734 13.9062 29.9545L14.1204 28.7593Z" fill="var(--fill-0, #8A5A18)"/>
<path id="Vector_48" d="M82.9272 55.7437C85.6318 55.5657 88.6707 55.1352 91.3559 55.4923C92.2259 55.6079 92.6075 55.7146 93.1302 56.4143L92.8707 57.4828C90.5047 57.761 87.8 57.8019 85.425 57.6199C84.3223 57.5354 83.4114 57.4559 82.6707 56.5963L82.9272 55.7437Z" fill="var(--fill-0, #8A5A18)"/>
<path id="Vector_49" d="M14.1479 35.9108C16.2326 35.8353 18.3485 35.7062 20.4329 35.7847C21.7012 35.8323 23.5797 35.8819 24.4598 36.8187L24.2687 37.7286C21.8182 37.9783 19.0522 38.1363 16.6031 37.9073C15.4856 37.8027 14.6474 37.6753 13.9236 36.8126L14.1479 35.9108Z" fill="var(--fill-0, #8A5A18)"/>
<path id="Vector_50" d="M88.982 48.6803C90.2144 48.6924 91.2736 48.7701 92.4644 49.0997C92.5942 49.2613 92.9415 49.5989 92.9673 49.7987C91.0013 51.2682 88.8328 50.9574 86.5067 50.891C86.1087 50.8971 85.7087 50.9038 85.3111 50.888C84.4002 50.8521 83.5006 50.7667 82.871 50.0971C84.2208 48.6186 87.1434 48.7836 88.982 48.6803Z" fill="var(--fill-0, #8A5A18)"/>
<path id="Vector_51" d="M18.5311 42.7081C19.0957 42.6347 19.6623 42.5767 20.2302 42.5344C21.8352 42.4067 22.847 42.35 24.1308 43.438L24.0409 44.0173C22.9054 44.8501 21.5633 44.7623 20.2054 44.8387C19.2264 44.8508 18.2126 44.836 17.2369 44.7374C16.2767 44.6402 15.2904 44.4152 14.6637 43.6733C15.7141 42.6625 17.136 42.7852 18.5311 42.7081Z" fill="var(--fill-0, #8A5A18)"/>
<path id="Vector_52" d="M14.687 62.6769C17.1871 62.5609 20.1512 62.1543 22.6088 62.6112C23.4355 62.7648 23.691 62.9354 24.1416 63.6244L23.6676 64.6161C21.1829 64.7103 18.2107 65.0902 15.7827 64.5487C14.9626 64.366 14.6521 64.2232 14.2371 63.5027L14.687 62.6769Z" fill="var(--fill-0, #8A5A18)"/>
<path id="Vector_53" d="M15.2654 49.4206C16.6273 49.324 17.9905 49.2479 19.3547 49.1919C20.7863 49.1409 23.0139 48.8838 24.1236 49.9191L24.074 50.6017L23.1892 51.343C20.8232 51.404 18.1645 51.5797 15.8542 51.0252C14.9617 50.8109 14.6046 50.7251 14.15 49.9463C14.5919 49.6432 14.7196 49.4735 15.2654 49.4206Z" fill="var(--fill-0, #8A5A18)"/>
<path id="Vector_54" d="M85.8176 42.3702C86.4935 42.2878 87.1714 42.2237 87.8507 42.1775C89.5213 42.0605 91.7153 42.032 93.0571 43.189L92.8623 43.6624L93.0477 43.3144C92.3674 44.1763 91.3814 44.0637 90.3561 44.1948C87.7792 44.3128 85.5235 44.4972 83.0808 43.5105L82.9929 43.0317C83.8978 42.3632 84.7236 42.4135 85.8176 42.3702Z" fill="var(--fill-0, #8A5A18)"/>
<path id="Vector_55" d="M87.8419 35.62C88.8665 35.5547 90.0258 35.3971 91.0437 35.496C91.8584 35.5755 92.2674 35.7947 92.7898 36.3972L92.4146 36.9695C91.0873 37.6625 89.6456 37.527 88.1832 37.5368C86.419 37.628 84.5743 37.9817 83.0539 36.9071L83.2021 36.3781C84.6125 35.5614 86.2513 35.6797 87.8419 35.62Z" fill="var(--fill-0, #8A5A18)"/>
<path id="Vector_56" d="M16.4419 56.0802C18.7465 55.9324 21.884 55.4315 24.0512 56.4115L24.2114 56.9834C23.4953 57.7183 23.2522 57.7418 22.2923 58.0006C19.9243 58.0523 16.1549 58.4231 14.1848 56.9871L14.3984 56.5452C15.0441 56.1319 15.6935 56.158 16.4419 56.0802Z" fill="var(--fill-0, #8A5A18)"/>
<path id="Vector_57" d="M62.0626 19.9606C59.7338 18.8991 55.4631 18.2531 54.3359 17.209L54.6635 16.7554C58.1077 15.6457 59.4488 16.3836 62.6443 17.7954C62.4518 18.4696 62.1873 19.286 62.0626 19.9606Z" fill="var(--fill-0, #8A5A18)"/>
<path id="Vector_58" d="M44.3569 89.072L50.1041 89.0056C50.1816 89.78 50.3576 90.9243 50.2104 91.6398C49.3541 91.4356 45.6474 91.3836 44.653 91.3575C44.6677 90.5897 44.4877 89.8414 44.3569 89.072Z" fill="var(--fill-0, #8A5A18)"/>
<path id="Vector_59" d="M96.2842 59.5061C97.283 60.6527 97.6967 61.8235 98.3351 62.4277C98.3082 63.646 98.1989 65.9758 98.2988 67.0875C96.6704 67.3725 96.7368 67.0698 95.9674 68.0367C96.0006 65.2124 96.2906 62.6204 96.2842 59.5061Z" fill="var(--fill-0, #8A5A18)"/>
<path id="Vector_60" d="M66.394 99.9032C67.3103 100.051 69.6364 100.507 70.4525 100.452L70.3915 101.275C71.3064 102.03 72.212 101.946 73.5437 102.169C70.2433 102.335 65.2752 102.115 61.7375 102.147C63.0279 101.678 65.2313 100.616 66.394 99.9032Z" fill="var(--fill-0, #8A5A18)"/>
<path id="Vector_61" d="M39.3185 12.4781C41.3848 12.7715 40.7397 12.4261 42.2639 13.6026C40.961 14.3318 39.6223 15.0577 38.3503 15.8351L37.6573 15.5904C36.2149 16.04 35.8207 16.1791 34.3257 16.271C35.651 14.8498 37.5959 13.3931 39.3185 12.4781Z" fill="var(--fill-0, #8A5A18)"/>
<path id="Vector_62" d="M8.86763 31.6001L9.96671 31.9142L10.2933 31.5408C10.3466 30.2014 10.3047 29.7575 11.1211 28.6766C11.1207 31.2387 11.1945 33.8689 10.8508 36.4011C8.68809 37.3144 10.8706 37.2923 8.4987 38.3031C9.04918 35.8245 9.70339 34.007 8.86763 31.6001Z" fill="var(--fill-0, #8A5A18)"/>
<path id="Vector_63" d="M29.4569 22.751C30.4094 23.1003 30.8878 23.1376 31.1906 24.307C30.7048 25.4868 29.9092 27.605 29.3691 28.6745C28.6848 28.635 28.1031 28.5478 27.4292 28.4526C28.0793 25.9894 28.4065 25.0808 29.4569 22.751Z" fill="var(--fill-0, #8A5A18)"/>
<path id="Vector_64" d="M62.6326 17.7963C64.0549 18.8279 65.5622 19.5924 65.629 21.4957C64.5242 22.2141 63.0091 20.6796 62.0509 19.9615C62.1757 19.2869 62.4402 18.4705 62.6326 17.7963Z" fill="var(--fill-0, #8A5A18)"/>
<path id="Vector_65" d="M70.2362 61.2237L72.2947 61.2281C72.2803 62.3261 72.2253 63.6467 72.2615 64.7232C71.9085 65.5423 71.8518 65.9252 71.079 66.3516C70.5205 65.6925 70.3823 62.4146 70.2362 61.2237Z" fill="var(--fill-0, #8A5A18)"/>
<path id="Vector_66" d="M40.4907 89.3093C42.1262 89.0769 42.7447 89.0575 44.3507 89.0726C44.4814 89.842 44.6615 90.5903 44.6467 91.3581C43.6758 91.0339 42.4775 91.0976 41.4322 91.0801C41.0929 89.7914 41.3685 90.1481 40.4907 89.3093Z" fill="var(--fill-0, #8A5A18)"/>
<path id="Vector_67" d="M72.9131 79.0288L73.941 79.644L74.0587 80.4848C73.5686 81.4303 73.0492 81.9379 72.2389 82.6201C71.6354 82.4059 71.2371 82.1823 70.7325 81.789L70.8663 81.208C71.687 80.627 72.2137 80.1194 72.7622 79.2698C72.8135 79.19 72.8628 79.1092 72.9131 79.0288Z" fill="var(--fill-0, #8A5A18)"/>
<path id="Vector_68" d="M14.1465 79.0941C15.208 79.3002 16.1923 79.3331 16.8672 80.13C16.3969 81.5311 14.6172 81.4074 13.314 81.4966C13.5642 80.9478 13.938 79.7193 14.1465 79.0941Z" fill="var(--fill-0, #8A5A18)"/>
</g>
</svg>
