<svg preserveAspectRatio="xMidYMid meet" width="100%" height="auto" overflow="visible" style="display: block;" viewBox="0 0 137 99.615" fill="none" xmlns="http://www.w3.org/2000/svg">
<g id="decoration3">
<path id="Vector" d="M105.456 0.188317C111.515 -0.600952 119.847 0.972398 122.301 7.1666C128.465 22.73 131.13 40.9683 135.587 57.1314C138.262 66.8253 138.11 77.47 126.378 80.2754C95.2813 87.713 63.2162 92.3033 31.9507 99.0449C24.669 99.9701 16.8575 100.641 12.196 93.731C11.7246 92.9505 10.8469 91.6954 10.6031 90.8294C6.11063 74.876 3.70833 57.5049 0.795676 41.2232C-1.16451 30.2764 -0.205546 21.2041 11.8091 17.8474C17.3906 16.2884 22.8584 15.2946 28.6382 14.1965L54.1824 9.42681C70.0492 6.52491 89.6868 2.23138 105.456 0.188317Z" fill="var(--fill-0, #DEE3B0)"/>
<g id="Group 98">
<path id="Vector_2" d="M29.0287 91.1414C24.2013 91.9593 19.6406 92.4924 17.8137 86.7657C16.2793 81.9582 15.5577 77.0357 14.6019 72.091C12.7523 62.7807 11.0717 53.4376 9.56332 44.0658C7.48935 30.8312 5.3439 26.7285 20.4858 24.3949C19.2343 25.4221 18.9514 25.6071 18.207 27.0933C15.0311 27.7398 9.94693 28.6474 10.402 32.9023C12.2354 50.0731 16.1818 67.2134 19.5593 84.1449C20.5118 88.9014 22.6118 89.8389 27.1725 89.0996L29.136 89.3207C29.3083 90.002 29.1587 90.4503 29.0287 91.1414Z" fill="var(--fill-0, #565D19)"/>
<path id="Vector_3" d="M49.6622 18.648C66.0036 15.2686 82.8001 12.3894 99.2975 9.95952C103.38 9.35814 110.958 6.79758 114.654 10.1747C114.41 11.1204 113.718 11.6824 112.707 11.7958C111.969 11.4952 109.508 10.4289 108.864 10.4848C100.546 11.2091 92.1296 13.0474 84.0093 14.6734C74.3222 16.6127 64.6058 17.9751 54.9836 19.9596C53.3517 20.1228 51.164 19.3056 49.6622 18.648Z" fill="var(--fill-0, #565D19)"/>
<path id="Vector_4" d="M60.8417 54.7546C64.6223 53.203 65.9063 55.1014 67.561 58.2926C69.014 61.5046 67.795 67.2792 64.3948 67.1742C59.0408 67.0091 57.2399 58.3053 60.8417 54.7546Z" fill="var(--fill-0, #DEE3B0)"/>
<path id="Vector_5" d="M60.8417 54.7547C61.2318 55.2972 61.2513 55.4997 61.7682 55.7432C60.6044 58.8356 59.9673 63.1282 63.6374 64.7971C66.511 64.6917 66.3939 62.2238 66.0526 59.9727C65.9811 59.4656 65.8868 58.9617 65.7731 58.4624L67.561 58.2927C69.014 61.5047 67.795 67.2793 64.3948 67.1743C59.0408 67.0092 57.2399 58.3054 60.8417 54.7547Z" fill="var(--fill-0, #565D19)"/>
<path id="Vector_6" d="M60.8466 54.7546C64.6272 53.203 65.9113 55.1014 67.5659 58.2926L65.778 58.4623C64.5102 56.43 64.1624 56.2028 61.7731 55.7431C61.2562 55.4997 61.2367 55.2971 60.8466 54.7546Z" fill="var(--fill-0, #565D19)"/>
<path id="Vector_7" d="M72.9482 32.2195C74.8791 32.596 76.3354 33.3924 77.4634 35.0525C78.6239 36.7669 78.9945 38.8552 78.6044 40.8787C78.1851 43.0333 77.1286 44.1405 75.357 45.2994C74.9636 45.2597 74.5703 45.2181 74.1802 45.142C72.6946 44.8521 71.4106 43.7433 70.6207 42.4856C69.4472 40.6138 69.1806 38.1761 69.7429 36.057C70.2663 34.075 71.2058 33.2045 72.9482 32.2195Z" fill="var(--fill-0, #565D19)"/>
<path id="Vector_8" d="M72.9699 33.9881C73.6201 34.2264 74.2995 34.5501 74.8261 35.0052C75.9801 36.0009 76.6172 37.4098 76.6855 38.9252C76.7733 40.8045 76.1719 42.0784 74.9561 43.458C74.3742 43.3377 73.7826 43.2129 73.3048 42.8417C72.1247 41.9273 71.4843 40.3575 71.3771 38.9025C71.2243 36.8571 71.6404 35.5289 72.9699 33.9881Z" fill="var(--fill-0, #DEE3B0)"/>
<path id="Vector_9" d="M114.908 46.4789C112.158 38.343 110.854 29.3659 108.439 21.0955C107.483 17.8314 101.651 19.2292 100.556 18.2215C101.57 17.0584 103.508 16.6843 105.003 16.578C106.319 16.484 107.87 16.7594 108.848 17.7268C110.984 19.8407 116.455 43.4931 117.014 47.0731C117.294 48.295 118.081 51.089 117.304 52.1357C115.792 51.3299 115.291 48.0538 114.908 46.4789Z" fill="var(--fill-0, #565D19)"/>
<path id="Vector_10" d="M114.907 46.4788C115.619 47.3334 115.811 47.5642 116.35 48.5254C116.802 47.9848 116.809 47.7508 117.013 47.073C117.293 48.2949 118.08 51.0889 117.303 52.1356C115.791 51.3298 115.29 48.0537 114.907 46.4788Z" fill="var(--fill-0, #565D19)"/>
<path id="Vector_11" d="M110.39 73.2161C111.469 73.2008 111.963 73.1842 113.023 73.3341C113.559 74.253 113.42 73.7612 113.39 74.8791C108.173 75.6603 103.069 76.8439 97.8941 77.8525C90.6124 79.2224 83.3406 80.6348 76.0784 82.0898L74.8367 81.5014C84.1565 77.0821 95.014 76.4131 105.029 74.137C106.726 73.7511 108.661 73.4345 110.39 73.2161Z" fill="var(--fill-0, #565D19)"/>
<path id="Vector_12" d="M94.7558 18.0524C95.6367 17.9838 96.2609 18.0322 97.1191 18.2611L97.2556 18.7617C94.0406 21.3301 67.4822 25.1594 61.5073 26.0709C60.4509 26.1209 59.5341 26.1222 58.4907 25.9285V25.6138C62.6223 23.1381 88.6997 18.9392 94.7558 18.0524Z" fill="var(--fill-0, #565D19)"/>
<path id="Vector_13" d="M21.7742 66.5489C19.3069 57.2792 18.4422 46.1407 16.6413 36.6506C16.1472 34.0416 20.5097 30.5055 23.8807 32.1282L23.9425 32.8024C22.808 34.0351 18.3252 33.8391 18.7218 36.6252C20.0383 45.8354 22.0701 54.9423 23.4451 64.1525C22.9445 64.8741 22.2976 65.8822 21.7742 66.5489Z" fill="var(--fill-0, #565D19)"/>
<path id="Vector_14" d="M77.074 51.2793L78.215 51.9867C79.7916 54.5076 80.6953 58.9363 81.1991 61.8935C81.3487 62.7618 81.4494 63.2884 80.9228 64.0035L80.1654 63.8342C78.6798 62.5014 77.8314 57.2476 77.295 55.2208C76.9602 56.7795 76.7424 59.1203 75.6892 60.3309C73.69 60.587 73.2511 58.5485 71.8338 57.6445C71.72 57.572 71.603 57.5057 71.486 57.4362C71.9378 59.5381 72.5522 61.7901 72.7115 63.9343C72.7732 64.7736 72.6985 64.9927 72.1459 65.6211L71.5542 65.5707C70.1759 63.8293 69.7956 59.8287 69.5225 57.5873C69.3405 56.0897 69.1227 54.3779 70.0914 53.1387C71.9508 53.5015 73.651 56.5646 74.753 58.0889C75.2536 55.7624 75.6404 53.2356 77.074 51.2793Z" fill="var(--fill-0, #565D19)"/>
<path id="Vector_15" d="M87.1419 29.7353C87.8246 29.8839 88.2667 30.0516 88.6308 30.6468C89.6905 32.3834 91.9823 39.5219 91.3679 41.4973C91.2118 42.0077 91.3029 41.8312 90.7698 42.0883L90.1586 41.84C88.7901 40.4587 88.1302 35.1884 87.6816 33.1885C87.2525 34.9729 86.9631 37.2269 85.7864 38.6637L85.1427 38.7271C84.1253 37.89 83.3093 36.8625 82.4544 35.8668L81.944 35.7842C82.4544 38.2031 82.864 40.4942 82.968 42.9748L82.3634 43.4601L82.955 43.2378L82.3861 43.5196L82.929 43.4624L82.3926 43.5498C80.582 41.0042 79.48 35.5063 79.545 32.4399C79.5612 31.6253 79.6198 31.5544 80.2016 30.9963C82.0741 31.4614 83.9855 34.588 85.1785 36.1077C85.7214 33.9528 86.1862 31.7521 87.1419 29.7353Z" fill="var(--fill-0, #565D19)"/>
<path id="Vector_16" d="M44.6083 79.0584C48.9415 77.791 69.0505 73.4861 72.8733 74.0143L73.0554 74.3472C70.0159 76.558 50.6481 79.6917 45.7655 80.5716C44.7481 80.0752 44.7936 80.0336 44.6083 79.0584Z" fill="var(--fill-0, #565D19)"/>
<path id="Vector_17" d="M33.5689 48.8494C33.7022 46.876 33.4518 43.8762 35.0869 42.664C36.9659 43.413 37.8566 46.3045 38.7408 48.2777C38.705 46.4332 38.8806 44.4074 38.9976 42.5506C40.2719 42.8302 39.8883 42.5564 40.6229 43.4618C40.7107 45.6771 41.2211 49.747 39.8363 51.3717C37.7135 51.2579 36.0394 47.0642 35.152 45.3185C35.1552 47.3044 35.373 51.3333 34.1703 52.826C31.9533 52.1713 31.5567 48.6489 30.6562 46.8678C31.2023 46.2596 31.3454 46.0379 32.0735 45.6199C32.4961 46.9234 32.9317 47.6629 33.5689 48.8494Z" fill="var(--fill-0, #565D19)"/>
<path id="Vector_18" d="M53.9405 55.4292L54.9254 55.6499C55.7024 56.4326 55.9364 57.6006 56.2355 58.6386C56.8954 60.9326 58.303 65.8272 57.0937 68.0328L56.5963 67.8436C55.5951 66.3723 55.3708 64.6533 55.023 62.9422L51.0213 63.9548C51.4472 65.6913 51.7072 67.485 52.0193 69.2459L51.0213 69.4822C50.3809 69.0954 50.2509 68.954 49.9583 68.2512C48.8661 65.6536 47.6438 59.8257 48.7133 57.1397L49.1294 57.2668C50.0624 58.8027 50.2997 60.5955 50.6572 62.3314C51.9835 61.9084 53.3521 61.5665 54.6914 61.1887C54.3046 59.2542 53.9275 57.4092 53.9405 55.4292Z" fill="var(--fill-0, #565D19)"/>
<path id="Vector_19" d="M24.8912 23.5972C28.2037 22.6022 41.5057 19.87 44.6849 19.58C45.5009 19.7149 46.177 19.8365 46.9832 20.0218C46.6484 20.9691 46.216 20.7188 45.4228 21.6946C39.1457 23.1639 30.6678 24.6664 24.3061 25.5915C24.2736 24.8878 24.6182 24.2679 24.8912 23.5972Z" fill="var(--fill-0, #565D19)"/>
<path id="Vector_20" d="M85.8976 49.829C86.7558 49.8693 87.1133 49.7848 87.8187 50.2965L87.5847 50.9096C86.2129 51.8584 85.0817 52.0668 83.4693 52.3243C83.5766 52.8301 83.6903 53.3346 83.8073 53.8381C84.6558 57.4334 86.0276 54.3368 88.2934 55.7404L88.1568 56.3064C87.3376 57.2627 85.8748 57.4425 84.698 57.7617C84.9419 58.8412 85.0914 59.9052 85.7285 60.8313C86.8825 61.2003 87.8188 60.7813 88.9825 60.5154C89.7594 60.4139 90.065 60.3678 90.7834 60.7566L90.8322 61.3098C90.1333 62.0786 89.3401 62.5363 88.3454 62.8504C87.2239 63.204 85.7155 63.2869 84.6818 62.6348C82.3445 61.1603 81.9479 54.0374 81.3726 51.2792C82.8451 50.7204 84.3925 50.3001 85.8976 49.829Z" fill="var(--fill-0, #565D19)"/>
<path id="Vector_21" d="M48.6044 26.4828C50.0868 26.341 51.8811 26.145 53.1847 26.9902C50.3988 29.1919 37.6722 30.8436 33.6673 31.6309C32.0875 31.8835 30.4068 32.3405 28.9082 31.5916C30.7156 29.2651 44.9506 27.2044 48.6044 26.4828Z" fill="var(--fill-0, #565D19)"/>
<path id="Vector_22" d="M96.0355 28.0588C96.3053 28.0266 96.4191 28.0026 96.7149 28.024C97.235 28.0621 97.6901 28.156 97.9924 28.5874L97.7746 29.0126C96.4906 29.9231 95.057 30.1575 93.5487 30.49C93.7307 31.1905 93.8965 31.9281 94.1435 32.6082C95.1578 35.3768 96.4126 33.008 98.5743 33.9767L98.4085 34.4874C97.4268 35.3943 96.1818 35.6212 94.927 35.9752C95.0798 37.0662 95.1448 38.122 95.7136 39.0884C96.7181 39.4281 97.4008 39.1437 98.4118 38.9311C99.1984 38.7078 99.6048 38.6561 100.414 38.7916L100.772 39.3156C100.401 40.0633 100.07 40.3698 99.2862 40.7245C98.1452 41.2394 95.6226 41.622 94.4589 41.1471C92.6254 38.7754 92.0923 32.4131 91.816 29.388C93.1911 28.8546 94.6214 28.472 96.0355 28.0588Z" fill="var(--fill-0, #565D19)"/>
<path id="Vector_23" d="M82.7655 71.5146C87.7912 70.0898 96.4478 68.5718 101.812 67.4734C101.955 68.1547 102.192 68.8965 101.88 69.5226C95.4271 70.8993 88.9582 72.1992 82.473 73.4221L81.8196 73.1806L81.6766 72.7041L82.7655 71.5146Z" fill="var(--fill-0, #565D19)"/>
<path id="Vector_24" d="M46.0173 48.7465C47.4476 48.3743 49.3136 47.7036 50.6269 48.3694L50.6854 48.9587C48.2148 51.7849 44.1124 51.4624 43.7581 47.0685C43.3908 42.4765 39.997 37.6941 47.6134 37.1262C48.5659 37.5969 48.2571 37.2471 48.6699 38.1157C47.0153 39.7674 45.4387 39.0165 43.394 39.1182L43.238 39.5493L43.8653 39.5389C44.483 40.1113 44.8796 42.4599 45.1331 43.4842L45.494 45.0062C45.533 46.0237 45.8515 47.6861 46.0173 48.7465Z" fill="var(--fill-0, #565D19)"/>
<path id="Vector_25" d="M63.1533 33.8545C63.8522 33.8385 64.6551 33.8912 65.302 34.1903C66.1277 34.5722 66.3422 34.9103 66.6933 35.7171L66.4365 36.1459C65.3508 36.0731 64.4731 36.0152 63.4198 36.3159C62.7859 36.8094 62.4511 37.165 62.2561 37.9663C61.8302 39.7135 62.2008 42.1753 63.2346 43.6641C63.7059 44.3484 64.4633 44.9923 65.3248 45.0687C66.417 45.165 67.0574 44.5711 67.8863 43.9472L68.3122 44.0334L68.6373 44.5876C68.53 45.1695 68.3479 45.4686 67.9286 45.8723C67.1809 46.5969 66.1667 47.1359 65.0972 47.0614C63.8684 46.9756 62.8184 46.1512 62.0805 45.2153C60.6925 43.4583 60.0878 40.9923 60.3381 38.7838C60.5885 36.5844 61.4564 35.2116 63.1533 33.8545Z" fill="var(--fill-0, #565D19)"/>
<path id="Vector_26" d="M46.0873 85.4931C51.451 84.5023 56.8114 83.4835 62.1621 82.4371L62.9293 82.9121C62.4514 83.9767 62.0321 83.8583 61.0407 84.7546C56.7172 86.0048 51.2299 86.8994 46.7504 87.7341L46.3018 87.5619C45.7004 86.7755 45.9378 86.8522 46.0873 85.4931Z" fill="var(--fill-0, #565D19)"/>
<path id="Vector_27" d="M125.644 60.1537C126.42 60.4275 127.233 60.695 127.987 61.0126C130.104 69.2053 128.735 71.6183 120.507 73.4237C120.082 72.4505 120.296 72.391 120.462 71.1398C128.231 69.7245 126.983 66.3629 125.644 60.1537Z" fill="var(--fill-0, #565D19)"/>
<path id="Vector_28" d="M121.12 41.483C121.659 41.0276 122.488 40.4607 123.08 40.03C124.214 44.5972 125.316 49.1729 126.383 53.7567C125.004 55.3599 125.713 55.7796 124.962 57.2167C123.493 52.026 122.596 46.7345 121.12 41.483Z" fill="var(--fill-0, #565D19)"/>
<path id="Vector_29" d="M51.7937 36.2364C52.213 36.3466 52.5771 36.5166 52.9737 36.6915C54.5438 39.3785 54.9014 43.8563 55.4703 46.9331C56.3382 46.7303 57.2712 46.451 58.1554 46.3665C59.0396 46.2823 59.3549 46.3854 60.0213 46.9487L60.0668 47.8869C58.0514 48.445 56.0619 48.7659 53.9944 49.0474C52.99 45.3581 51.3548 40.0566 51.7937 36.2364Z" fill="var(--fill-0, #565D19)"/>
<path id="Vector_30" d="M116.898 16.2757C117.964 20.6368 119.011 25.2362 120.282 29.5226C120.113 30.6275 119.967 32.5305 119.375 33.3646C117.691 28.6673 117.064 23.3264 115.458 18.7069C115.965 17.9348 116.433 17.0802 116.898 16.2757Z" fill="var(--fill-0, #565D19)"/>
<path id="Vector_31" d="M62.1518 82.4365C64.9344 81.4808 70.142 80.6753 73.1165 81.0595L73.1392 81.2188C73.8772 81.6856 73.7829 81.5195 74.8361 81.5006L76.0779 82.089C71.6179 82.9169 65.357 84.3297 61.0303 84.7539C62.0218 83.8577 62.4411 83.976 62.9189 82.9114L62.1518 82.4365Z" fill="var(--fill-0, #565D19)"/>
<path id="Vector_32" d="M24.8864 74.5634C26.2647 76.1387 25.7413 78.589 26.9246 80.192C28.0526 81.7182 30.4126 80.9497 32.0965 81.1776L32.4053 81.6434L31.9762 82.4818C30.4094 82.9066 28.8198 83.4748 27.2041 82.9707C26.1867 82.6537 25.27 81.9239 24.7953 80.965C23.7389 78.8299 24.2395 76.7017 24.8864 74.5634Z" fill="var(--fill-0, #565D19)"/>
<path id="Vector_33" d="M118.33 58.2063C119.217 59.0661 119.89 60.513 120.059 61.7417C120.215 62.9162 119.829 63.9233 119.11 64.8419C117.755 66.5804 116.061 66.8349 114.016 67.0872C113.415 66.8648 113.126 66.714 112.703 66.2274C113.529 64.6046 116.542 65.008 117.625 63.4718C118.655 62.0086 117.283 59.9496 118.33 58.2063Z" fill="var(--fill-0, #565D19)"/>
<path id="Vector_34" d="M35.7798 87.5519C38.4454 86.8283 43.2175 86.0533 46.0781 85.4929C45.9286 86.852 45.6912 86.7753 46.2926 87.5616L46.7412 87.7339C44.4007 88.189 41.371 88.6909 39.1215 89.2982C38.2308 89.2575 36.2934 88.151 35.7798 87.5519Z" fill="var(--fill-0, #565D19)"/>
<path id="Vector_35" d="M27.1729 89.1011C29.8613 88.5634 33.1023 87.8216 35.7874 87.5528C36.301 88.1519 38.2384 89.2584 39.1291 89.2991C35.7809 89.8458 32.3188 90.3435 29.0291 91.1429C29.1591 90.4518 29.3087 90.0035 29.1364 89.3221L27.1729 89.1011Z" fill="var(--fill-0, #565D19)"/>
<path id="Vector_36" d="M110.391 73.2162C113.632 72.2588 115.885 72.8502 120.462 71.1403C120.296 72.3915 120.082 72.451 120.508 73.4242C118.128 73.8712 115.755 74.3562 113.392 74.8792C113.421 73.7613 113.561 74.2531 113.024 73.3342C111.965 73.1843 111.471 73.2009 110.391 73.2162Z" fill="var(--fill-0, #565D19)"/>
<path id="Vector_37" d="M29.8135 73.3696L30.649 73.9261C30.9155 75.1776 29.8688 76.9974 29.3844 78.1923C30.5937 77.2984 31.5884 76.2806 32.9732 75.6353L33.4121 75.8239L33.5811 76.4649L33.1813 77.0299C32.6059 77.8188 32.1833 78.4862 31.2926 78.9293C30.3336 79.0476 30.0151 79.0369 29.1699 78.5687C28.7928 78.0548 28.4937 77.6455 28.4027 77.0003C28.1947 75.5355 29.0138 74.4972 29.8135 73.3696Z" fill="var(--fill-0, #565D19)"/>
<path id="Vector_38" d="M113.741 58.6702C114.826 59.2335 114.947 59.3177 115.564 60.3684C115.662 61.7489 115.808 61.1209 115.103 62.3188C113.097 63.7133 110.799 63.4276 109.492 61.2808C110.184 60.7357 112.197 61.1459 113.078 61.3341C113.468 60.8017 113.351 61.0861 113.464 60.4974L113.741 58.6702Z" fill="var(--fill-0, #565D19)"/>
<path id="Vector_39" d="M44.6906 19.5794C46.5793 19.1276 47.743 18.8945 49.6675 18.6475C51.1693 19.3051 53.3571 20.1223 54.9889 19.9591C51.852 20.4584 48.5265 21.0098 45.4285 21.694C46.2217 20.7182 46.6541 20.9685 46.9889 20.0212C46.1827 19.8359 45.5065 19.7144 44.6906 19.5794Z" fill="var(--fill-0, #565D19)"/>
<path id="Vector_40" d="M120.018 36.7595C120.304 35.6 120.876 35.6006 121.858 35.1566C122.264 36.6269 122.859 38.5656 123.08 40.03C122.488 40.4607 121.659 41.0277 121.12 41.4831C120.899 40.1233 120.362 38.1553 120.018 36.7595Z" fill="var(--fill-0, #565D19)"/>
<path id="Vector_41" d="M21.3037 35.7767C22.2952 35.7374 23.1307 35.9025 24.0961 36.1171L24.379 36.7188C23.602 37.2977 22.7926 37.6374 21.9637 38.1266L22.1684 39.3586L22.2595 39.9529L21.7654 40.4102L21.0795 40.1697C20.5854 39.6372 20.2278 39.2289 20.1367 38.4826C20.0002 37.3565 20.6211 36.5871 21.3037 35.7767Z" fill="var(--fill-0, #565D19)"/>
<path id="Vector_42" d="M126.385 53.7556C126.606 57.2943 126.941 57.7247 127.99 61.0131C127.236 60.6955 126.424 60.428 125.647 60.1543C125.344 59.4538 125.123 58.0254 124.964 57.2157C125.715 55.7785 125.006 55.3589 126.385 53.7556Z" fill="var(--fill-0, #565D19)"/>
<path id="Vector_43" d="M115.456 18.7061C114.77 16.9254 113.798 14.6753 114.981 12.9254L115.547 12.9966C116.372 13.8714 116.558 15.0715 116.896 16.2749C116.431 17.0795 115.963 17.9341 115.456 18.7061Z" fill="var(--fill-0, #565D19)"/>
<path id="Vector_44" d="M45.7635 80.5716C44.2389 81.0533 40.9654 81.6414 39.548 80.7003L39.7399 80.2263C41.2157 79.4137 42.9061 79.3145 44.6062 79.0584C44.7915 80.0336 44.746 80.0752 45.7635 80.5716Z" fill="var(--fill-0, #565D19)"/>
<path id="Vector_45" d="M20.4839 24.3965C20.874 24.2853 21.2998 24.4147 21.7419 24.4791L20.9715 24.796C21.7712 25.7228 24.1637 24.0406 24.8918 23.5985C24.6188 24.2691 24.2742 24.889 24.3067 25.5928L18.2051 27.0949C18.9495 25.6087 19.2323 25.4237 20.4839 24.3965Z" fill="var(--fill-0, #565D19)"/>
<path id="Vector_46" d="M120.285 29.5216C120.795 31.3807 121.296 33.3207 121.862 35.1554C120.88 35.5994 120.308 35.5988 120.022 36.7583L119.378 33.3636C119.97 32.5295 120.116 30.6265 120.285 29.5216Z" fill="var(--fill-0, #565D19)"/>
<path id="Vector_47" d="M101.816 67.4728C103.955 67.2027 105.32 67.5603 107.453 67.938C105.681 68.4965 103.689 69.1827 101.884 69.522C102.196 68.896 101.959 68.1541 101.816 67.4728Z" fill="var(--fill-0, #565D19)"/>
<path id="Vector_48" d="M30.659 46.8683C30.646 46.7429 30.6428 45.4491 30.6525 45.3948C30.9353 43.7483 29.1637 42.318 29.2742 40.797L29.7228 40.5113C30.8606 41.3669 31.6602 44.1699 32.0763 45.6204C31.3482 46.0384 31.2051 46.2601 30.659 46.8683Z" fill="var(--fill-0, #565D19)"/>
<path id="Vector_49" d="M23.4479 64.15C23.929 66.4105 23.4252 68.6922 23.1163 71.0158C22.7133 69.7165 22.0696 67.8168 21.777 66.5464C22.3004 65.8797 22.9473 64.8717 23.4479 64.15Z" fill="var(--fill-0, #565D19)"/>
<path id="Vector_50" d="M38.9992 42.5508C38.9504 41.297 38.7327 40.0913 39.3373 39.0673C40.5758 39.6512 40.514 42.1769 40.6246 43.4619C39.8899 42.5566 40.2735 42.8303 38.9992 42.5508Z" fill="var(--fill-0, #565D19)"/>
<path id="Vector_51" d="M104.786 21.8075C104.998 21.1443 104.942 21.4197 105.765 20.8625C106.617 21.7925 106.773 21.8536 106.909 23.0382C106.526 24.2423 106.893 23.8684 105.992 24.3853C104.725 23.6958 104.92 23.2193 104.786 21.8075Z" fill="var(--fill-0, #565D19)"/>
<path id="Vector_52" d="M113.459 60.4971C111.96 59.9543 111.118 59.7839 110.062 58.5526L110.124 57.9297C111.999 57.8709 112.146 58.5337 113.735 58.6699L113.459 60.4971Z" fill="var(--fill-0, #565D19)"/>
<path id="Vector_53" d="M77.2116 73.5638C79.6009 72.4089 80.1958 72.1735 82.7671 71.5139L81.6781 72.7034L81.8211 73.1799L82.4745 73.4215C80.9987 73.7127 78.7915 73.5902 77.2116 73.5638Z" fill="var(--fill-0, #565D19)"/>
<path id="Vector_54" d="M45.1276 43.485C46.3174 43.2113 47.2048 42.8372 48.2905 43.2614L48.5084 43.7197C47.7509 44.6969 46.7399 44.7408 45.4884 45.007L45.1276 43.485Z" fill="var(--fill-0, #565D19)"/>
<path id="Vector_55" d="M104.787 21.8058C103.844 22.3067 103.327 22.6331 102.368 22.1591L102.323 21.4619L103.044 20.7175C104.553 20.3014 103.971 20.3849 105.765 20.8608C104.943 21.418 104.998 21.1427 104.787 21.8058Z" fill="var(--fill-0, #565D19)"/>
</g>
</g>
</svg>
