<svg preserveAspectRatio="xMidYMid meet" width="100%" height="auto" overflow="visible" style="display: block;" viewBox="0 0 100 80.7504" fill="none" xmlns="http://www.w3.org/2000/svg">
<g id="decoration2">
<path id="Vector" d="M79.0477 0.252229L79.3771 0.209916C83.2755 -0.255469 87.6876 -0.128525 90.8517 2.49758C92.6437 3.9844 93.8163 6.2297 94.466 8.43273C95.708 12.6333 95.7413 17.3264 96.2369 21.6569C97.5092 32.6721 98.6062 43.7053 99.5218 54.7567C99.9026 59.1991 100.966 65.5906 97.7661 69.1807C96.1432 71.0029 93.4355 71.7947 91.1176 72.3266C83.5445 74.0733 75.1584 74.3845 67.4069 75.3183C56.7664 76.5876 46.1168 77.7692 35.4581 78.8662C30.3721 79.4192 25.3072 80.1656 20.2091 80.5856C16.7428 81.051 12.3065 80.5947 9.4779 78.3766C7.51057 76.8384 6.58885 74.4994 5.91494 72.1664C4.52783 67.3524 4.30424 61.8856 3.71797 56.9023C2.63306 47.8999 1.63579 38.8853 0.723139 29.8616C0.197309 24.4523 -1.25932 15.8759 2.47891 11.4487C4.33745 9.24869 6.6644 8.40252 9.3963 7.72559C16.5736 5.94564 28.2114 5.42887 35.7755 4.65524C50.1814 3.18052 64.6145 1.37641 79.0477 0.252229Z" fill="var(--fill-0, #F9CFD6)"/>
<path id="Vector_2" d="M87.0976 28.2359C87.3606 26.4318 87.3666 26.3411 88.9864 25.7005C89.9081 34.159 90.7845 42.6176 91.6156 51.0821C91.8634 53.5541 93.2384 62.3844 92.1414 64.0253C91.0867 64.6509 90.1136 64.9984 88.9048 65.1888C82.5435 66.1951 17.277 73.5113 15.4729 73.0641C14.6418 72.8586 14.116 72.3781 13.5448 71.7707L12.8709 69.6099C14.1825 69.3108 14.2671 69.5404 14.8564 68.7275C14.9954 69.214 14.9924 69.5284 14.9622 70.033C16.5608 71.949 19.2716 71.0333 21.5743 70.7341C41.9155 67.6426 62.7432 66.5789 83.1449 63.6445C85.5957 63.291 88.1946 63.0703 90.6636 62.7923C89.8628 51.9162 88.3276 39.1453 87.0976 28.2359Z" fill="var(--fill-0, #DD2D0A)"/>
<path id="Vector_3" d="M14.8564 68.7278C14.9954 69.2143 14.9924 69.5286 14.9622 70.0333C16.5608 71.9492 19.2716 71.0335 21.5743 70.7344C18.4466 73.0311 17.6548 72.6926 14.1462 71.4294L13.5448 71.7709L12.8709 69.6102C14.1825 69.311 14.2671 69.5407 14.8564 68.7278Z" fill="var(--fill-0, #DD2D0A)"/>
<path id="Vector_4" d="M12.8714 69.6098C12.2186 67.3614 11.0824 55.7449 10.7983 53.0493C9.69222 42.5297 8.32628 31.9135 7.55567 21.3728C7.58891 19.9888 6.97542 17.3989 8.18121 16.444C10.7952 14.3679 15.7332 14.655 18.9305 14.5462C14.5456 16.4319 13.6329 16.722 9.13315 17.8431C9.0304 20.3937 10.478 30.871 10.8587 34.1135C12.2035 45.5034 13.1887 57.4312 14.8569 68.7273C14.2676 69.5402 14.1829 69.3106 12.8714 69.6098Z" fill="var(--fill-0, #DD2D0A)"/>
<path id="Vector_5" d="M52.5653 11.2069C51.5136 12.0319 51.1903 12.2071 50.5859 13.3827C46.5696 13.6154 22.0006 17.1542 20.0031 15.6643C20.8281 14.797 23.288 13.9146 24.4817 13.8209C33.7895 13.0987 43.2665 11.8143 52.5653 11.2069Z" fill="var(--fill-0, #DD2D0A)"/>
<path id="Vector_6" d="M10.5794 18.3718C12.9547 18.955 32.3742 33.515 33.9788 35.6938L33.444 36.546L33.3654 36.7001C31.2893 35.8993 11.7278 21.3575 10.6006 19.8193C10.3316 19.4506 10.5341 18.813 10.5794 18.3718Z" fill="var(--fill-0, #DD2D0A)"/>
<path id="Vector_7" d="M78.8515 8.38404C79.6221 9.21509 79.3683 8.74363 79.613 9.87083L79.326 10.5175C72.2907 11.548 62.5629 12.4456 55.4188 12.7659C55.8963 12.3519 58.3169 11.3063 59.426 10.578C65.2827 9.55657 72.7108 9.16069 78.8515 8.38404Z" fill="var(--fill-0, #DD2D0A)"/>
<path id="Vector_8" d="M40.4981 43.3127C42.9973 48.1932 47.1949 50.4325 51.737 53.0586C53.517 50.9673 55.3755 49.0726 57.2794 47.0962C57.9291 47.4195 58.4217 47.6764 59.1107 47.9212C57.095 50.4899 54.3994 52.838 52.0271 55.1589C50.5826 54.7539 47.4125 53.2671 46.2853 52.2064C44.9919 51.1608 44.8196 48.8248 42.9218 48.6465C40.7943 48.444 39.8635 46.1775 38.9025 44.4882C39.3951 43.9201 39.8454 43.7237 40.4981 43.3127Z" fill="var(--fill-0, #DD2D0A)"/>
<path id="Vector_9" d="M46.2744 36.6943C47.3896 36.7729 49.9764 37.335 50.6412 36.6248C52.9198 34.1982 56.1081 32.0224 59.3598 34.1559L59.3175 34.6062C53.7177 37.8155 53.9413 33.2614 50.3542 41.3331C49.1 39.8916 47.6283 38.0875 46.1898 36.8877L46.2744 36.6943Z" fill="var(--fill-0, #DD2D0A)"/>
<path id="Vector_10" d="M77.3842 53.321L77.9041 53.2424L78.1398 52.8012L78.3392 53.0218L78.5115 52.8737L78.0975 52.369L78.2697 51.8855C81.2464 53.6232 87.7981 57.4823 89.7141 60.06L89.6355 60.4861C86.0272 60.1809 80.1736 54.5872 77.3842 53.321Z" fill="var(--fill-0, #DD2D0A)"/>
<path id="Vector_11" d="M75.5345 21.4996C76.3353 21.0221 76.6859 20.7652 77.5623 20.4842C77.9219 21.8954 77.4323 20.9556 77.3447 22.3397C74.8606 25.3073 72.1559 28.0331 69.4935 30.8375L68.8105 28.6194C71.0801 26.2713 73.3194 23.899 75.5345 21.4996Z" fill="var(--fill-0, #DD2D0A)"/>
<path id="Vector_12" d="M30.5268 53.8077C28.9705 55.2069 22.7239 62.6229 21.4789 62.78L21.355 61.5863C22.177 59.5404 27.7556 54.119 29.6716 52.0097C30.1914 52.8196 30.2548 52.8981 30.5268 53.8077Z" fill="var(--fill-0, #DD2D0A)"/>
<path id="Vector_13" d="M57.2812 47.0957C60.0101 43.5177 60.6477 41.1726 61.3216 36.6366C64.8362 37.8787 60.8018 46.0743 59.1125 47.9207C58.4235 47.6759 57.9309 47.4191 57.2812 47.0957Z" fill="var(--fill-0, #DD2D0A)"/>
<path id="Vector_14" d="M73.5159 50.7043C71.7178 49.7403 64.063 45.3463 63.927 43.4485C65.7704 43.0708 72.2134 47.6521 74.078 48.87L73.404 49.5348L73.5159 50.7043Z" fill="var(--fill-0, #DD2D0A)"/>
<path id="Vector_15" d="M29.6735 52.0097C31.3628 50.2026 35.2431 45.8146 37.5126 45.2949L37.706 45.6786C36.9082 47.6762 32.212 52.2635 30.5287 53.8078C30.2567 52.8981 30.1933 52.8196 29.6735 52.0097Z" fill="var(--fill-0, #DD2D0A)"/>
<path id="Vector_16" d="M85.4062 10.3187C85.8957 10.1676 86.5515 10.2854 87.1045 10.3247C87.5911 13.0263 87.9024 14.9514 88.1441 17.7104C87.3131 19.0341 87.2647 19.5146 86.9413 20.9953L86.624 21.2583L86.3672 21.0377C86.2493 17.5473 85.4122 14.0931 85.4062 10.3187Z" fill="var(--fill-0, #DD2D0A)"/>
<path id="Vector_17" d="M75.5357 21.5001C76.947 19.8592 82.8641 12.9751 84.5504 12.7847C84.638 14.4498 81.61 17.5534 80.4223 18.877C79.3797 20.0194 78.3552 21.1737 77.3459 22.3402C77.4335 20.9562 77.9231 21.896 77.5635 20.4847C76.6871 20.7658 76.3365 21.0227 75.5357 21.5001Z" fill="var(--fill-0, #DD2D0A)"/>
<path id="Vector_18" d="M86.3684 21.0377L86.6252 21.2583L86.9425 20.9954C87.2659 19.5146 87.3143 19.0341 88.1453 17.7105C88.3629 18.9646 89.0428 24.5432 88.9884 25.7006C87.3686 26.3412 87.3626 26.4319 87.0997 28.236C86.7733 26.03 86.5588 23.283 86.3684 21.0377Z" fill="var(--fill-0, #DD2D0A)"/>
<path id="Vector_19" d="M39.3822 38.2056L39.0558 38.0848L38.8473 37.5589C39.8899 34.8512 44.4108 33.4128 46.4356 35.5554L46.224 35.9634L45.9793 36.0993L46.2754 36.6947L46.1908 36.8881C42.5372 36.1054 42.513 36.4166 39.8748 38.7013L39.3822 38.2056Z" fill="var(--fill-0, #DD2D0A)"/>
<path id="Vector_20" d="M78.8534 8.38469C80.2405 8.05227 82.6491 8.01598 84.1601 7.94346C85.5381 8.72615 86.073 9.03742 87.1065 10.3248C86.5535 10.2855 85.8977 10.1677 85.4082 10.3188C82.9483 10.1072 81.7636 10.2523 79.3279 10.5182L79.615 9.87148C79.3702 8.74428 79.6241 9.21574 78.8534 8.38469Z" fill="var(--fill-0, #DD2D0A)"/>
<path id="Vector_21" d="M52.5664 11.2069C54.8813 11.0618 57.1267 10.8201 59.4264 10.5783C58.3174 11.3066 55.8967 12.3522 55.4192 12.7663C53.7209 13.0533 52.3096 13.3253 50.587 13.3827C51.1915 12.2072 51.5148 12.0319 52.5664 11.2069Z" fill="var(--fill-0, #DD2D0A)"/>
<path id="Vector_22" d="M74.0782 48.8695C75.1148 49.6432 77.6895 51.1965 78.2698 51.8855L78.0975 52.369L78.5115 52.8737L78.3393 53.0217L78.1398 52.8012L77.9041 53.2423L77.3843 53.3209L73.5161 50.7039L73.4043 49.5344L74.0782 48.8695Z" fill="var(--fill-0, #FDD7E3)"/>
<path id="Vector_23" d="M68.8109 28.6199L69.4938 30.838L66.3691 33.7784L64.9548 32.8537C66.1152 31.4334 67.5446 29.9707 68.8109 28.6199Z" fill="var(--fill-0, #DD2D0A)"/>
<path id="Vector_24" d="M39.3808 38.205L39.8734 38.7006C39.4443 40.4322 39.9369 41.644 40.499 43.3121C39.8462 43.7231 39.396 43.9196 38.9034 44.4877C38.3745 43.2789 38.1509 42.8619 37.9817 41.5292C38.4833 40.2358 38.4229 40.4534 39.4473 39.5166L39.3808 38.205Z" fill="var(--fill-0, #DD2D0A)"/>
<path id="Vector_25" d="M64.9586 32.8533L66.3729 33.778C64.5839 35.3344 63.9644 35.8421 61.9336 37.0237C62.955 35.2407 63.6319 34.4519 64.9586 32.8533Z" fill="var(--fill-0, #DD2D0A)"/>
<path id="Vector_26" d="M18.5877 64.3995C18.908 64.7591 18.8778 65.0341 18.9654 65.4965C18.5907 66.6207 17.7566 67.3097 16.9377 68.1256C16.5539 67.636 16.5841 67.488 16.5267 66.8594C16.9618 65.7806 17.7506 65.1641 18.5877 64.3995Z" fill="var(--fill-0, #DD2D0A)"/>
</g>
</svg>
