<svg preserveAspectRatio="xMidYMid meet" width="100%" height="auto" overflow="visible" style="display: block;" viewBox="0 0 107 113.513" fill="none" xmlns="http://www.w3.org/2000/svg">
<g id="decoration4">
<path id="Vector" d="M42.3105 0.17327C55.4107 -1.27707 66.1455 6.52324 71.5189 18.1079C76.1689 28.1335 75.3714 38.5218 75.0227 49.2302C80.5708 48.1345 82.5756 48.7435 87.1722 51.7891C91.3071 50.0531 94.4966 47.8628 99.2504 49.0589C107.53 51.1419 106.463 59.77 104.796 65.8574C107.474 70.6833 107.435 73.4038 105.512 78.5384C107.951 85.3451 106.929 88.7654 105.715 95.6409C104.883 100.35 104.709 109.116 99.6514 111.425C92.4285 114.723 79.6648 113.623 72.3106 111.498C51.6193 110.901 30.6551 111.562 9.95529 110.617C6.03774 110.438 2.36474 108.907 0.998781 104.909C-0.380602 100.872 -0.348216 95.1305 1.20188 91.1296C2.54186 87.8645 6.24698 86.4499 9.27334 85.315C9.75861 81.3508 9.44199 77.513 9.55579 73.62C9.95382 60.0014 8.22194 40.4579 11.5115 27.5817C12.7998 22.518 15.0774 17.7589 18.2126 13.5787C24.4425 5.41275 32.3382 1.56927 42.3105 0.17327Z" fill="var(--fill-0, #B0CDE3)"/>
<path id="Vector_2" d="M95.769 55.9075C96.5183 55.7666 96.6543 55.8725 97.3876 56.0732C98.3092 56.9239 98.2914 58.0362 98.3167 59.2382L98.7798 59.804C98.3602 62.1519 97.179 64.9547 95.1287 66.29C90.6997 69.1748 89.163 65.7831 87.584 72.6537C87.1935 74.3526 86.7949 76.8881 86.4512 78.6958C88.5621 76.9368 87.4177 77.259 88.6401 75.2969C89.9121 73.2548 91.7362 70.6499 94.4404 71.1191L95.1614 71.8471C93.9837 72.7348 93.4295 72.794 92.1724 73.9817C92.7797 74.0333 93.3499 73.9569 93.9574 73.9041L94.1319 74.1434C93.5944 75.0827 92.0499 76.1726 91.1452 76.9053L91.4799 76.9966C93.1149 76.3427 98.0311 74.5942 97.2942 72.2942L95.9671 71.8401C97.1892 70.8413 98.4101 69.8267 99.615 71.4745C99.9089 75.9902 93.281 79.6684 89.0311 78.2981C88.0632 79.6565 86.7404 81.2737 86.6619 82.9445C87.748 84.4879 89.8508 83.8427 91.6591 83.7318L91.5684 82.4607C92.1356 81.674 92.3589 81.0919 93.445 80.974C94.6712 80.8409 95.989 81.2777 97.1705 81.5576C102.249 82.7601 99.3635 87.1261 98.9135 90.4168C98.6164 92.5882 98.495 94.7863 98.2032 96.9358C97.5925 96.8086 96.7824 96.2498 96.1994 95.9051C96.3567 94.5392 96.9791 90.8046 96.6966 89.7661C95.9645 89.7124 95.792 89.7541 95.1226 89.439L95.0418 88.7932C95.8617 87.2137 97.6359 87.9149 98.2336 85.8436C97.8069 84.8328 98.074 85.0394 97.2805 84.658C91.831 85.7368 86.2496 85.9831 80.7262 85.3893C79.029 85.2209 75.2944 84.1404 74.6072 84.4085C74.1012 85.4027 74.0942 85.0663 74.2147 86.0196C77.1611 90.0357 92.686 87.237 93.5786 89.3281L93.1377 89.8589C89.5873 91.4449 79.3628 90.1282 75.5489 89.0865L73.8605 89.0573C72.2792 87.6712 73.0204 88.4705 72.4881 86.7456C71.2888 82.859 76.6776 79.1729 79.4291 81.7516C79.0664 82.3087 78.2721 82.5439 77.5784 82.8771L77.4976 83.1558C79.3754 83.9364 82.3276 83.8226 84.3688 83.8025C83.4429 80.7484 83.0213 76.2911 79.1866 76.2657C75.6052 76.242 70.5645 68.749 73.0846 65.7878C81.3574 61.9024 83.3274 75.7877 85.2256 80.133C85.2241 78.7571 85.2892 76.3544 85.1628 75.0316C84.9618 72.9295 84.164 70.7181 84.2545 68.4847L84.642 68.3172C85.5232 69.3052 85.628 70.0198 85.9814 71.2717C86.1856 70.7908 86.565 69.998 86.7231 69.5235C89.165 62.2035 87.3689 59.7021 95.769 55.9075Z" fill="var(--fill-0, #411E19)"/>
<path id="Vector_3" d="M96.2439 57.4968C97.2565 58.2033 97.2585 58.1665 97.2118 59.6188C94.8272 63.7345 95.5911 64.3662 90.3902 66.4915C92.0996 64.457 93.3944 62.7254 94.6182 60.3703C92.2464 61.7598 90.9756 63.1462 88.9148 64.9204C91.0634 60.9258 92.4577 59.8651 96.2439 57.4968Z" fill="var(--fill-0, #B0CDE3)"/>
<path id="Vector_4" d="M95.7711 55.9075C96.5205 55.7666 96.6565 55.8725 97.3898 56.0732C98.3113 56.9239 98.2935 58.0362 98.3189 59.2382L98.782 59.804C98.2445 59.7529 97.7487 59.6878 97.2153 59.6184C97.262 58.1661 97.2599 58.2028 96.2473 57.4964C95.9395 56.4961 96.505 56.8713 95.7711 55.9075Z" fill="var(--fill-0, #C5D5F4)"/>
<path id="Vector_5" d="M91.5673 82.4624C92.5939 82.632 94.1122 82.7426 94.8703 83.3472C94.167 83.7896 92.5396 83.7478 91.6581 83.7335L91.5673 82.4624Z" fill="var(--fill-0, #EAEDFA)"/>
<path id="Vector_6" d="M73.8278 66.9775C77.068 67.4753 79.27 68.2722 80.7787 71.4477L80.6479 71.7012C79.6642 71.0531 79.0389 70.5334 77.8947 70.2533L77.7234 70.5606L78.2052 71.4459C78.9823 72.4165 79.7979 73.1699 79.9152 74.2902C77.0397 75.0054 74.4499 69.1555 73.8278 66.9775Z" fill="var(--fill-0, #B0CDE3)"/>
<path id="Vector_7" d="M33.3805 90.8814C36.8035 90.4833 57.9185 90.3123 60.3793 91.879L60.4313 92.4025C58.8949 93.6728 56.5073 93.1385 54.4133 92.9826C46.5193 92.3013 34.7374 93.987 26.2356 92.5668C28.5701 91.8137 30.9772 91.3745 33.3805 90.8814Z" fill="var(--fill-0, #411E19)"/>
<path id="Vector_8" d="M16.6467 73.2912L17.2343 73.698C17.1474 74.3265 17.0531 74.9539 16.9516 75.5804L17.3981 75.804L17.8323 75.4623L17.8994 74.0199L18.2224 74.0266L18.5633 74.5787C19.1084 78.1215 19.1119 88.8349 18.8627 92.6059C14.4584 97.6895 11.2324 92.1154 8.85387 96.8762C7.95802 96.4303 7.122 94.5633 7.91018 93.903C9.75821 92.3552 14.6095 92.4101 16.9472 92.0716C16.4042 88.3762 16.5451 77.3074 16.6467 73.2912Z" fill="var(--fill-0, #411E19)"/>
<path id="Vector_9" d="M22.7737 58.7065C23.6955 59.09 23.7626 59.1136 24.5205 59.7456C24.2894 68.7578 24.9614 77.9319 24.6261 86.9595C24.5771 88.275 24.7767 91.2249 23.6439 91.8458L23.1443 91.4178C22.2861 89.4014 22.3369 62.3071 22.7737 58.7065Z" fill="var(--fill-0, #411E19)"/>
<path id="Vector_10" d="M65.3558 33.1583C65.9313 32.8443 66.9211 31.9187 67.4513 31.4562C67.9944 36.3562 68.9571 57.9796 66.5435 61.4842C66.4665 61.596 66.3606 61.685 66.2689 61.7854C65.1279 59.565 65.7378 37.8161 65.3558 33.1583Z" fill="var(--fill-0, #411E19)"/>
<path id="Vector_11" d="M19.0687 101.269C27.6298 101.288 36.1904 101.418 44.7483 101.661L46.4798 102.103L46.4974 102.395C45.4915 102.769 44.6006 102.967 43.9049 103.741L42.9694 103.91C35.8256 103.982 26.0392 104.123 19.0022 103.419C18.2864 102.324 18.324 102.186 19.0687 101.269Z" fill="var(--fill-0, #411E19)"/>
<path id="Vector_12" d="M76.2951 94.9814C76.7725 97.2388 77.4816 100.572 77.155 102.839C80.0311 104.545 93.1258 104.9 95.4112 102.327C96.291 102.577 96.0549 102.56 96.7693 103.39C97.2187 106.438 88.4968 106.069 86.2137 106.189C75.7689 106.736 75.8486 105.159 74.3181 95.9563C75.0009 95.6914 75.7867 95.4731 76.2951 94.9814Z" fill="var(--fill-0, #411E19)"/>
<path id="Vector_13" d="M65.6594 67.1141L66.5769 67.7605C66.6458 70.5922 67.6108 76.4149 67.3887 78.8448C67.2361 80.5154 66.5401 93.8448 66.302 94.2647C65.5427 93.5804 64.8707 91.1374 64.9159 90.1231C65.25 82.6298 64.6577 74.5158 65.6594 67.1141Z" fill="var(--fill-0, #411E19)"/>
<path id="Vector_14" d="M27.6101 28.3639C30.4558 23.4831 39.9714 14.5045 45.9427 18.0254C46.2161 18.8005 46.205 18.422 46.0034 19.1988L45.603 19.2271C40.2547 19.626 35.287 22.1428 31.8022 26.2197C30.857 27.3236 29.7907 28.9116 29.1167 30.2066C28.7458 29.5445 28.1321 28.944 27.6101 28.3639Z" fill="var(--fill-0, #411E19)"/>
<path id="Vector_15" d="M59.4876 60.6758C60.1833 60.9005 60.9528 60.9729 61.117 61.6668C61.7205 64.2172 61.1296 67.3503 61.3245 69.9634C61.3003 73.4995 61.4205 79.8787 60.9344 83.2418L60.1196 83.3967L59.452 82.7694C58.9002 77.5947 59.3131 66.1953 59.4876 60.6758Z" fill="var(--fill-0, #411E19)"/>
<path id="Vector_16" d="M16.9178 43.4194L16.9607 43.2184C17.2285 42.0155 17.3137 41.7342 18.3024 41.1016C19.0748 41.1862 18.7208 41.0397 19.3313 41.6899C19.1411 47.3127 19.0115 52.937 18.9432 58.5624C18.7801 59.2584 18.7211 60.1493 18.261 60.4869C17.7471 59.8764 17.394 59.4562 16.8206 58.9041C16.3055 57.5265 16.8352 45.6421 16.9178 43.4194Z" fill="var(--fill-0, #411E19)"/>
<path id="Vector_17" d="M59.4078 16.9314C59.6445 16.222 59.8096 15.9083 60.14 15.2579L60.2871 16.203L60.7805 16.0052C61.2556 16.2226 62.0922 16.6676 62.2897 17.1718C63.5547 20.4018 65.792 23.9473 66.7702 27.1846L67.4484 31.4575C66.9181 31.92 65.9283 32.8456 65.3529 33.1596L65.176 31.0224C63.8071 24.2776 63.0569 22.5492 59.4078 16.9314Z" fill="var(--fill-0, #411E19)"/>
<path id="Vector_18" d="M66.7732 27.184L67.4513 31.457C66.9211 31.9195 65.9313 32.8451 65.3559 33.1591L65.179 31.0219C65.8306 30.0534 66.5838 28.3437 66.7732 27.184Z" fill="var(--fill-0, #411E19)"/>
<path id="Vector_19" d="M31.637 11.2302C36.0962 8.47729 41.6598 7.23857 46.8727 7.52582C46.6319 8.18215 46.3358 9.07368 46.0658 9.69891C40.9218 9.86019 36.9693 10.847 32.4754 13.468C32.0281 12.5926 31.9242 12.1817 31.637 11.2302Z" fill="var(--fill-0, #411E19)"/>
<path id="Vector_20" d="M59.6594 31.5848C61.4592 42.0364 62.1803 45.0219 61.5398 56.0364C60.5199 54.6413 59.9932 47.1366 59.8458 44.96C59.7174 42.5208 59.0606 38.7691 58.6844 36.2689C58.9905 35.6132 59.2415 33.0041 59.6594 31.5848Z" fill="var(--fill-0, #411E19)"/>
<path id="Vector_21" d="M25.1268 17.8039C25.3185 18.6273 25.3623 19.1616 25.7618 19.8877C24.3915 21.9674 22.9479 24.1924 22.0339 26.5169C21.9653 26.7235 21.7652 27.3792 21.6805 27.5321C21.3855 28.4843 20.6744 30.6127 20.5183 31.4855C19.0099 31.7041 19.3399 31.8827 18.1575 31.3484C18.6507 29.1321 19.0464 27.7991 19.9134 25.7311C20.1261 25.0719 20.8468 23.5898 21.1608 22.893C22.2049 20.8958 23.1956 19.0254 25.1268 17.8039Z" fill="var(--fill-0, #411E19)"/>
<path id="Vector_22" d="M19.9134 25.7312L20.5623 27.2845L20.7059 27.7584L21.4842 27.4228L21.6805 27.5322C21.3855 28.4844 20.6744 30.6128 20.5183 31.4856C19.0099 31.7042 19.3399 31.8828 18.1575 31.3485C18.6507 29.1322 19.0464 27.7992 19.9134 25.7312Z" fill="var(--fill-0, #411E19)"/>
<path id="Vector_23" d="M21.1653 22.8918L21.8651 23.4244C21.8948 23.8428 21.9435 23.919 21.8583 24.315C21.8478 25.097 21.7078 25.9161 22.0384 26.5158C21.9698 26.7224 21.7696 27.3781 21.685 27.531L21.4886 27.4215L20.7104 27.7571L20.5668 27.2832L19.9178 25.7299C20.1305 25.0708 20.8513 23.5887 21.1653 22.8918Z" fill="var(--fill-0, #411E19)"/>
<path id="Vector_24" d="M20.5608 27.2828C20.6983 26.019 20.6055 24.8949 21.8524 24.3145C21.8419 25.0966 21.7018 25.9157 22.0324 26.5153C21.9639 26.7219 21.7637 27.3776 21.6791 27.5305L21.4827 27.4211L20.7044 27.7567L20.5608 27.2828Z" fill="var(--fill-0, #9BBAF0)"/>
<path id="Vector_25" d="M18.9989 103.42C15.3524 102.98 11.6628 104.195 8.49169 103.375C7.09742 103.015 6.61505 99.0009 7.57161 97.4651L7.95826 97.5561C8.78379 99.1202 9.01257 99.5451 9.38375 101.279L9.46283 101.659C13.1075 101.504 15.3002 101.244 19.0654 101.27C18.3207 102.186 18.2831 102.325 18.9989 103.42Z" fill="var(--fill-0, #411E19)"/>
<path id="Vector_26" d="M78.7737 55.6622C81.6401 55.9207 83.6705 58.9266 83.6901 61.6696L83.349 61.84C81.9953 60.9804 80.1717 58.3535 79.1142 57.0036C79.2625 58.3264 79.5808 59.8907 79.8184 61.2258C80.6649 62.6469 81.7437 64.0224 81.7035 65.6029L81.2354 65.8424C77.9382 64.143 76.8644 58.8079 78.7737 55.6622Z" fill="var(--fill-0, #411E19)"/>
<path id="Vector_27" d="M16.8196 58.9036C17.393 59.4557 17.7461 59.8758 18.26 60.4863C18.7202 60.1487 18.7791 59.2578 18.9422 58.5618C18.9364 63.8532 18.4981 69.2306 18.5567 74.5785L18.2159 74.0264L17.8929 74.0197L17.8257 75.4621L17.3915 75.8038L16.9451 75.5803C17.0466 74.9538 17.1409 74.3264 17.2278 73.6979L16.6401 73.2911C16.5409 72.4866 16.7583 70.4626 16.7685 69.5125C16.8059 66.0586 17.2057 62.3206 16.8196 58.9036Z" fill="var(--fill-0, #411E19)"/>
<path id="Vector_28" d="M28.6613 53.4329C33.0997 53.2389 33.6527 56.9673 30.5213 59.5851C26.4299 59.682 25.7677 55.8896 28.6613 53.4329Z" fill="var(--fill-0, #411E19)"/>
<path id="Vector_29" d="M29.4824 55.4979C30.0377 55.3995 30.5743 55.7491 30.7083 56.2971C30.8425 56.8451 30.5282 57.4031 29.9901 57.5723C29.6096 57.6923 29.194 57.5904 28.9122 57.3082C28.63 57.0261 28.5284 56.6105 28.6481 56.2303C28.768 55.8498 29.0896 55.5673 29.4824 55.4979Z" fill="var(--fill-0, #B0CDE3)"/>
<path id="Vector_30" d="M47.126 19.4495C48.3469 18.5919 48.9203 17.6902 50.4444 18.4737C53.1224 19.8505 55.5473 22.6007 56.9483 25.2057C56.5097 26.1911 56.4814 26.3178 56.2902 27.389L55.8677 27.8775C53.2697 23.131 51.867 21.9039 47.126 19.4495Z" fill="var(--fill-0, #411E19)"/>
<path id="Vector_31" d="M27.6081 28.3656C28.1301 28.9457 28.7438 29.5463 29.1147 30.2084C27.0195 34.9126 26.0046 37.8067 25.4648 42.9705C24.6372 41.7251 25.1309 41.0954 24.3801 40.3425L23.7197 40.8506C24.5604 35.3156 25.3486 33.3847 27.6081 28.3656Z" fill="var(--fill-0, #411E19)"/>
<path id="Vector_32" d="M56.8347 101.667C58.4438 101.708 60.3213 101.709 61.8959 101.9C64.0255 102.444 64.3856 102.536 66.5292 102.537L65.8832 103.772C65.3238 103.306 64.109 103.527 63.3246 103.585C59.6915 104.249 55.7261 104.007 52.021 103.893L52.0587 103.684C52.7281 102.965 53.3392 103.006 54.4241 102.724C55.3045 102.798 55.3135 102.378 56.4113 101.862L56.8347 101.667Z" fill="var(--fill-0, #411E19)"/>
<path id="Vector_33" d="M61.8938 101.9C64.0234 102.444 64.3835 102.536 66.5271 102.536L65.881 103.771C65.3216 103.306 64.1068 103.527 63.3225 103.585C62.5614 103.009 62.2827 103.447 61.4736 102.834L61.8938 101.9Z" fill="var(--fill-0, #411E19)"/>
<path id="Vector_34" d="M59.407 16.9298C58.282 15.638 57.3424 14.56 55.9954 13.4943C54.5933 12.3846 52.8474 11.4864 51.7076 10.157L51.7732 9.74277C54.2647 8.98559 60.1026 12.6341 60.1391 15.2563C59.8088 15.9067 59.6436 16.2204 59.407 16.9298Z" fill="var(--fill-0, #411E19)"/>
<path id="Vector_35" d="M31.6322 11.2309C31.9194 12.1825 32.0233 12.5933 32.4706 13.4688C30.4134 15.0457 29.172 16.0206 27.2875 17.8532C26.7147 18.7767 26.4871 19.0773 25.7613 19.887C25.3618 19.161 25.3181 18.6267 25.1264 17.8033C25.8325 17.1336 26.4967 16.437 26.8486 15.5362C28.0059 13.4871 29.7075 12.5248 31.6322 11.2309Z" fill="var(--fill-0, #411E19)"/>
<path id="Vector_36" d="M26.8486 15.5356C27.6814 14.947 27.7649 14.8808 28.7118 14.5365C28.2829 16.1274 27.2484 16.0142 27.2875 17.8526C26.7147 18.7761 26.4871 19.0767 25.7613 19.8865C25.3618 19.1604 25.3181 18.6261 25.1264 17.8027C25.8325 17.133 26.4967 16.4364 26.8486 15.5356Z" fill="var(--fill-0, #411E19)"/>
<path id="Vector_37" d="M59.8444 44.9598C59.9917 47.1364 60.5184 54.641 61.5383 56.0362C61.6542 58.4179 61.791 67.8549 61.3247 69.9635C61.1298 67.3504 61.7207 64.2173 61.1172 61.6669C60.9529 60.973 60.1834 60.9006 59.4878 60.6759C59.4694 60.3485 59.46 60.4533 59.5012 60.1326C60.1493 55.0866 59.4942 50.0658 59.8444 44.9598Z" fill="var(--fill-0, #C5D5F4)"/>
<path id="Vector_38" d="M44.7412 101.661C48.6836 101.687 52.9866 102.009 56.8248 101.666L56.4014 101.861C55.3036 102.376 55.2945 102.797 54.4141 102.722C53.3292 103.004 52.7181 102.963 52.0487 103.682L52.0111 103.892C49.0031 103.814 45.9948 103.973 42.9624 103.911L43.8979 103.741C44.5936 102.967 45.4845 102.769 46.4903 102.395L46.4728 102.103L44.7412 101.661Z" fill="var(--fill-0, #411E19)"/>
<path id="Vector_39" d="M43.8979 103.743C47.7696 103.198 49.8975 101.719 54.4141 102.724C53.3292 103.005 52.7181 102.964 52.0487 103.683L52.0111 103.893C49.0031 103.815 45.9948 103.975 42.9624 103.912L43.8979 103.743Z" fill="var(--fill-0, #9BBAF0)"/>
<path id="Vector_40" d="M56.9517 25.2047C57.7557 27.496 59.1476 29.653 59.6606 31.5833C59.2427 33.0027 58.9918 35.6117 58.6857 36.2674C57.967 33.0829 57.1195 30.8223 55.8712 27.8765L56.2937 27.388C56.4848 26.3168 56.5132 26.1902 56.9517 25.2047Z" fill="var(--fill-0, #411E19)"/>
<path id="Vector_41" d="M18.1639 31.3477C19.3463 31.882 19.0162 31.7034 20.5246 31.4848C20.1161 33.7017 19.8776 35.1429 19.7122 37.3781C18.9214 37.803 18.0606 36.847 17.3859 36.3527C17.7215 34.6357 17.9342 33.0836 18.1639 31.3477Z" fill="var(--fill-0, #411E19)"/>
<path id="Vector_42" d="M23.7165 40.8501L24.3769 40.342C25.1277 41.0949 24.634 41.7246 25.4616 42.97L25.0472 47.7069L23.2779 48.2526C23.2721 45.3305 23.3497 43.7293 23.7165 40.8501Z" fill="var(--fill-0, #411E19)"/>
<path id="Vector_43" d="M73.8599 89.0595L75.5483 89.0887C75.6183 89.9425 75.67 90.7954 75.8197 91.6388C75.9811 92.7269 76.1804 93.8974 76.2965 94.9829C75.7882 95.4746 75.0023 95.6928 74.3195 95.9578L73.9314 93.0981C73.8567 92.5997 73.8689 89.7312 73.8599 89.0595Z" fill="var(--fill-0, #411E19)"/>
<path id="Vector_44" d="M73.8599 89.0595L75.5483 89.0887C75.6183 89.9425 75.67 90.7954 75.8197 91.6388C74.9154 92.1112 74.3773 92.2478 73.9314 93.0981C73.8567 92.5997 73.8689 89.7312 73.8599 89.0595Z" fill="var(--fill-0, #411E19)"/>
<path id="Vector_45" d="M23.2773 48.2524L25.0465 47.7067C25.0171 48.8249 25.0101 50.9922 24.8458 52.0196L24.774 54.9091C24.1772 54.694 23.6966 54.6809 23.0698 54.6167L23.0687 52.9257L23.2773 48.2524Z" fill="var(--fill-0, #411E19)"/>
<path id="Vector_46" d="M23.0687 52.9264C23.5073 51.9786 23.8542 51.2546 24.3722 50.3492L24.6739 50.4542L24.8458 52.0203L24.774 54.9098C24.1772 54.6947 23.6966 54.6816 23.0698 54.6174L23.0687 52.9264Z" fill="var(--fill-0, #411E19)"/>
<path id="Vector_47" d="M17.382 36.3532C18.0567 36.8476 18.9175 37.8035 19.7083 37.3786C19.6549 37.9564 19.4043 41.4709 19.3342 41.6904C18.7238 41.0402 19.0777 41.1867 18.3053 41.1021C17.3167 41.7347 17.2315 42.016 16.9636 43.2189L16.9207 43.4199C16.8991 41.5144 17.2341 38.3413 17.382 36.3532Z" fill="var(--fill-0, #411E19)"/>
<path id="Vector_48" d="M96.2042 95.9057C96.7872 96.2504 97.5973 96.8092 98.2081 96.9364C98.0403 98.3768 97.6084 100.711 96.9197 101.973C96.3822 101.635 96.1441 101.551 95.5727 101.297C95.4379 100.463 96.0738 97.1906 96.2042 95.9057Z" fill="var(--fill-0, #411E19)"/>
<path id="Vector_49" d="M66.5244 102.535C67.9113 102.144 70.2076 101.237 70.739 103.169C69.6952 104.824 67.349 104.659 65.8783 103.77L66.5244 102.535Z" fill="var(--fill-0, #411E19)"/>
<path id="Vector_50" d="M23.0712 54.6173C23.6981 54.6815 24.1787 54.6946 24.7754 54.9097C24.6774 56.4828 24.5396 58.1817 24.518 59.7466C23.7602 59.1146 23.6931 59.091 22.7713 58.7075C22.8066 57.8251 22.7468 57.9757 23.1821 57.226C24.3219 55.263 23.2624 56.835 23.0712 54.6173Z" fill="var(--fill-0, #411E19)"/>
<path id="Vector_51" d="M59.448 82.7679L60.1157 83.3952L60.9304 83.2403C60.6427 85.1157 61.1837 87.7887 60.376 89.3385C59.9759 87.161 59.7244 84.9643 59.448 82.7679Z" fill="var(--fill-0, #411E19)"/>
<path id="Vector_52" d="M46.8718 7.52746C48.0609 7.76569 48.8652 7.70458 49.6227 8.4245C48.9559 9.28798 47.1415 9.72266 46.065 9.70054C46.3349 9.07531 46.6311 8.18379 46.8718 7.52746Z" fill="var(--fill-0, #411E19)"/>
<path id="Vector_53" d="M83.7125 63.2037C84.4143 63.5425 84.3519 63.5547 84.7271 64.2545C84.8112 65.2674 84.6119 65.5017 84.1818 66.4725C83.8287 66.1159 83.6378 65.8163 83.3437 65.4136C83.1482 64.3339 83.2439 64.256 83.7125 63.2037Z" fill="var(--fill-0, #411E19)"/>
<path id="Vector_54" d="M65.6613 67.1147L66.0628 65.8135L66.3371 65.7035C66.5461 66.6699 66.5624 66.7753 66.5787 67.761L65.6613 67.1147Z" fill="var(--fill-0, #411E19)"/>
</g>
</svg>
