<svg preserveAspectRatio="xMidYMid meet" width="100%" height="auto" overflow="visible" style="display: block;" viewBox="0 0 126 124.818" fill="none" xmlns="http://www.w3.org/2000/svg">
<g id="decoration6">
<path id="Vector" d="M54.3727 0.364091C67.9022 -2.03028 81.7164 7.68412 84.9572 20.7095C85.5457 22.41 85.5332 29.097 86.9644 30.0642C91.633 33.2195 99.6005 33.989 102.87 39.1288C104.975 42.4397 106.677 47.0897 108.157 50.7574L114.136 65.4758L121.11 82.4785C124.157 89.922 128.757 99.2222 123.842 106.892C117.995 116.017 100.619 119.698 91.0899 122.713C61.7327 132 60.2227 108.848 54.7042 86.7234C53.7483 82.6975 52.2472 73.432 50.9793 70.2348L46.6393 73.8234C46.0843 78.7536 45.2854 79.772 43.6504 84.2869C42.296 88.0275 41.37 91.7508 39.305 95.3299C38.8164 96.1771 38.4993 99.6848 37.9698 100.407C35.2097 104.172 34.575 107.297 33.7409 111.789C32.6339 116.952 28.1641 118.524 23.8193 120.208C19.5171 121.988 15.0286 123.94 10.3316 122.364C1.24789 119.317 -2.63922 108.316 1.90688 99.976C5.04741 94.2143 6.37046 86.8289 8.35156 80.6159C8.88605 78.9397 8.5892 75.9283 9.03912 74.1064C9.61014 71.2183 10.6371 68.8996 11.518 66.0972C5.98917 53.8164 9.96666 41.6643 19.8176 32.9683C22.1928 25.7493 23.0539 21.7776 28.1371 15.3273C34.5436 7.04816 43.9852 1.66325 54.3727 0.364091Z" fill="var(--fill-0, #F9D4AF)"/>
<path id="Vector_2" d="M49.8285 53.7469C49.9372 55.2625 49.9417 55.3466 50.7441 56.5722C48.6501 61.7685 45.8319 65.4181 40.5371 67.6822C39.9326 67.9346 39.319 68.164 38.697 68.3699L38.1696 68.3089C35.1828 69.9341 39.1341 72.3061 38.7065 75.1651C38.2475 78.2372 36.5014 78.8719 34.1282 80.3392C35.8074 86.3495 36.2062 87.3342 30.5885 90.8774C30.721 92.2289 30.9159 93.3788 30.7058 94.7178C30.6892 95.4139 30.9497 97.0622 30.8978 97.3962C30.5405 98.086 30.1191 98.9639 29.7283 99.6143C29.3013 99.1598 27.719 97.9366 27.156 97.4788C27.549 96.9707 27.7982 96.4175 28.1019 95.8441L28.1259 94.7001C27.5961 92.9518 27.5498 91.6558 27.3955 89.8421C28.754 87.8166 30.3114 86.9001 32.2677 85.508C30.3197 79.8358 30.0919 78.4518 35.4563 75.2816C35.0684 73.4329 34.2817 71.1288 33.7095 69.2879C33.8583 68.8007 34.3733 67.0715 34.6767 66.8072C37.3838 64.4465 41.0038 64.531 43.753 61.6269C46.7078 58.5059 46.5146 56.4039 49.8285 53.7469Z" fill="var(--fill-0, #624940)"/>
<path id="Vector_3" d="M28.1019 95.8448C29.0394 96.5938 29.2785 96.5924 30.4795 96.7782L30.8978 97.3968C30.5405 98.0866 30.1191 98.9646 29.7283 99.615C29.3013 99.1605 27.719 97.9373 27.156 97.4795C27.549 96.9714 27.7982 96.4181 28.1019 95.8448Z" fill="var(--fill-0, #624940)"/>
<path id="Vector_4" d="M28.1263 94.7007C28.9889 93.8074 28.75 93.7472 29.6621 93.6998C30.0322 94.0489 30.3528 94.3481 30.7063 94.7185C30.6897 95.4145 30.9501 97.0629 30.8983 97.3968L30.4799 96.7781C29.279 96.5924 29.0398 96.5938 28.1023 95.8448L28.1263 94.7007Z" fill="var(--fill-0, #624940)"/>
<path id="Vector_5" d="M38.1695 68.3087C37.805 67.354 37.5751 66.8387 38.0758 65.9918L38.6877 65.8674L39.2288 66.3554C39.4572 67.4328 39.366 67.1148 38.6969 68.3697L38.1695 68.3087Z" fill="var(--fill-0, #624940)"/>
<path id="Vector_6" d="M77.2032 36.2663C76.6728 37.6909 76.0651 38.6711 76.4224 40.0522L77.4607 41.0614C78.4785 42.0973 79.1615 43.1969 79.1043 44.7113C79.032 46.2503 78.3046 47.6851 77.106 48.6534C74.8301 50.4852 72.2533 49.838 70.7232 47.4628C63.127 51.4763 60.7921 53.9813 51.3484 53.5022C51.0826 52.9774 51.3457 51.3145 51.413 50.681L51.6503 50.6902C53.7541 49.8878 57.4817 50.27 59.8427 49.5625C61.3491 49.1112 65.5902 46.7908 66.7692 47.0687L66.8765 47.7511C67.8179 47.475 70.5039 44.1172 71.1318 43.1779L70.8877 42.9284C70.3845 43.2645 69.9644 43.4917 69.439 43.7788L68.9619 43.5788C68.5314 41.5752 69.5229 40.3171 71.0986 39.2883C72.4729 39.1354 73.1704 39.0696 74.5912 39.107L77.2032 36.2663Z" fill="var(--fill-0, #624940)"/>
<path id="Vector_7" d="M77.2082 36.2663C76.6778 37.6909 76.0701 38.6711 76.4274 40.0522L77.4657 41.0614C74.4786 40.3524 75.2843 39.4774 71.1036 39.2883C72.4779 39.1354 73.1754 39.0696 74.5962 39.107L77.2082 36.2663Z" fill="var(--fill-0, #624940)"/>
<path id="Vector_8" d="M74.204 42.6899C73.3791 42.5338 73.3068 42.5746 72.5966 42.0878L72.8043 41.769C73.828 41.6682 73.8766 41.7379 74.8215 42.2463C75.4853 43.356 75.7611 43.6485 75.8989 44.9249C75.3161 46.6477 73.9228 46.4649 72.2976 46.1161C72.9856 45.0316 73.8114 43.8897 74.204 42.6899Z" fill="var(--fill-0, #FCF9FB)"/>
<path id="Vector_9" d="M74.2036 42.6899C73.3786 42.5338 73.3063 42.5746 72.5961 42.0878L72.8038 41.769C73.8275 41.6682 73.8761 41.7379 74.8211 42.2463L74.2596 42.3859L74.2036 42.6899Z" fill="var(--fill-0, #FDE9EE)"/>
<path id="Vector_10" d="M93.3024 41.5105C95.0734 42.0391 96.2577 42.4992 97.0782 44.2791C99.1053 48.6763 100.938 53.4845 102.717 57.9893C105.645 65.4005 108.808 72.8052 111.675 80.2209L111.031 80.8775C111.042 81.8364 111.123 81.9973 111.407 82.9327C111.009 83.7292 111.236 83.4631 110.189 83.8578C108.363 80.0733 106.307 74.6613 104.685 70.6831C101.294 62.2253 97.7722 53.8202 94.1205 45.4718C92.7242 44.7832 90.9665 44.0708 89.5146 43.4379C91.0646 42.3523 91.8131 42.3949 93.3024 41.5105Z" fill="var(--fill-0, #624940)"/>
<path id="Vector_11" d="M14.5029 91.6183C15.1163 92.2898 15.754 93.0836 16.5122 93.558C13.4484 98.6971 15.8799 100.184 10.8045 106.659C11.8021 108.274 12.6409 110.07 13.4821 111.779C16.0055 112.215 16.4177 109.911 18.7298 108.931C19.6187 108.555 21.6621 109.271 21.9528 109.124C23.0962 108.544 24.3241 107.081 25.7852 107.118C26.7349 108.164 26.6982 109.879 25.8673 110.991C24.4184 112.933 21.1948 112.252 19.3888 112.978C17.8915 113.755 16.4355 115.492 14.6241 115.497C10.2064 115.507 10.5389 113.688 9.04894 110.657C6.55348 105.581 7.59758 104.279 11.6153 100.96C11.5196 100.324 11.4433 99.6847 11.3866 99.0438C11.1369 95.8742 12.6048 93.8356 14.5029 91.6183Z" fill="var(--fill-0, #624940)"/>
<path id="Vector_12" d="M18.9422 46.4943C20.3805 47.6413 20.0465 47.5393 20.8235 49.4467C20.0815 52.6921 19.9716 53.6213 19.9307 56.8997C20.8729 60.9351 21.4419 61.3632 24.6713 64.038C23.2455 68.3279 21.7675 72.6001 20.2374 76.8539C20.7192 77.9259 21.2576 79.0631 21.7038 80.1417C20.9052 82.2105 20.1618 84.2539 18.4272 85.7274C17.4923 84.9208 17.7635 84.6026 17.7341 83.4079C18.4939 80.6588 15.8321 77.4785 16.5649 74.5228C17.282 71.6291 20.2421 72.5177 20.7206 70.0548C20.4694 69.7135 20.2694 69.4512 19.9959 69.1226L19.7567 68.8391C19.7464 67.4366 20.2145 66.5193 20.7138 65.2022C16.6173 60.5801 15.8342 58.3187 16.9925 52.2432C17.6734 50.3374 18.3232 48.4208 18.9422 46.4943Z" fill="var(--fill-0, #624940)"/>
<path id="Vector_13" d="M18.9445 46.4943C20.3828 47.6413 20.0488 47.5393 20.8257 49.4467C20.0838 52.6921 19.9739 53.6213 19.933 56.8997C19.6909 55.6386 19.9555 54.8249 19.3318 53.7123C18.0896 53.357 17.8428 53.2186 16.9948 52.2432C17.6757 50.3374 18.3255 48.4208 18.9445 46.4943Z" fill="var(--fill-0, #624940)"/>
<path id="Vector_14" d="M48.0679 10.0497C59.0764 5.35572 69.9931 8.20193 76.0028 18.7813C75.6748 20.8208 75.8781 21.4329 73.8448 22.3358L73.7701 22.1458C68.9157 10.1151 56.5101 9.98668 46.0708 14.3556C45.4767 12.5007 47.1864 11.5748 48.0679 10.0497Z" fill="var(--fill-0, #624940)"/>
<path id="Vector_15" d="M63.6955 89.9695C62.4237 85.3868 56.5831 62.3051 57.0362 59.6558C57.2516 58.3959 57.7776 57.4388 58.8303 56.7167C59.713 56.6741 59.3157 56.5564 60.0422 57.1425C60.2968 58.051 60.1427 58.238 59.8215 59.1968L59.7178 59.4964C61.8168 66.0445 65.0087 81.5807 66.4037 88.6008C65.5779 89.7307 64.9417 89.2927 63.6955 89.9695Z" fill="var(--fill-0, #624940)"/>
<path id="Vector_16" d="M41.1814 13.7352L41.9118 13.2439C44.7866 13.2239 44.0853 11.4726 48.0674 10.0486C47.1859 11.5736 45.4762 12.4996 46.0703 14.3545C44.7434 15.0179 43.7744 15.4301 42.6449 16.4017C36.2431 21.8614 34.0463 25.4322 31.322 33.6245C31.2053 34.3594 30.9676 35.5956 30.9318 36.294L30.6127 36.5858L27.9118 38.9806L28.148 38.1041C28.0114 35.3627 27.9491 33.7306 28.6558 31.0825C30.4568 24.3549 33.8377 20.2516 38.6148 15.5083C39.5334 14.7584 40.1924 14.3533 41.1814 13.7352Z" fill="var(--fill-0, #624940)"/>
<path id="Vector_17" d="M41.1878 13.7352L41.9182 13.2439C44.793 13.2239 44.0917 11.4726 48.0738 10.0486C47.1923 11.5736 45.4826 12.4996 46.0767 14.3545C44.7498 15.0179 43.7808 15.4301 42.6513 16.4017L41.7562 15.4156C40.8625 15.2028 40.6589 15.5942 39.6544 16.1975C39.9241 15.0852 40.786 15.2588 41.1878 13.7352Z" fill="var(--fill-0, #624940)"/>
<path id="Vector_18" d="M28.6558 31.0829C30.5104 31.6243 29.0624 29.9599 30.439 31.1979C30.4956 32.1437 30.2452 33.7751 29.9554 34.6572L30.3738 35.0537C30.621 34.6202 30.7804 34.3544 31.0737 33.9583L31.322 33.6249C31.2053 34.3598 30.9676 35.5959 30.9318 36.2943L30.6127 36.5862L27.9118 38.981L28.148 38.1045C28.0114 35.3631 27.9491 33.731 28.6558 31.0829Z" fill="var(--fill-0, #624940)"/>
<path id="Vector_19" d="M29.9554 34.6583L30.3738 35.0547C30.621 34.6212 30.7804 34.3554 31.0737 33.9593L31.322 33.6259C31.2053 34.3608 30.9676 35.597 30.9318 36.2954L30.6127 36.5872L27.9118 38.982L28.148 38.1055C28.348 36.9804 28.9918 35.325 29.9554 34.6583Z" fill="var(--fill-0, #624940)"/>
<path id="Vector_20" d="M27.9195 38.9818L30.6203 36.587C30.5534 37.9133 30.3362 37.8608 30.8998 38.7874L31.5036 39.0383L31.0032 39.369C30.9469 40.6701 31.0411 41.186 31.2423 42.4494C31.7475 43.701 31.5392 43.8213 32.448 44.3529C33.8077 44.0095 34.2033 43.8827 35.6161 44.2216C35.8674 44.9799 35.9246 45.2427 35.9379 46.0389L36.1548 46.0727C36.8523 46.1859 37.0106 46.1823 37.6565 46.5157C37.9913 47.3136 37.8257 47.9904 37.5546 48.8286C37.5869 49.3329 37.6026 49.9792 37.6941 50.4616C34.4777 57.3149 24.5264 53.4566 29.6176 46.382C28.5142 43.9979 28.3248 43.3357 27.8318 40.7593C27.5805 39.8606 27.6528 39.849 27.9195 38.9818Z" fill="var(--fill-0, #624940)"/>
<path id="Vector_21" d="M27.9195 38.9818L30.6203 36.587C30.5534 37.9133 30.3362 37.8608 30.8998 38.7874L31.5036 39.0383L31.0032 39.369C30.9469 40.6701 31.0411 41.186 31.2423 42.4494C29.5246 41.7756 29.9255 40.6674 28.2928 40.2867L27.8318 40.7593C27.5805 39.8606 27.6528 39.849 27.9195 38.9818Z" fill="var(--fill-0, #624940)"/>
<path id="Vector_22" d="M33.4853 46.4958C35.1503 47.2322 35.131 47.2728 35.6368 49.1004L35.1067 50.365L34.7595 50.5185C33.1161 51.2329 32.629 51.2889 30.8888 50.5846L30.6807 50.0189L31.194 49.0266L31.7409 48.8784C32.4752 49.2248 32.8761 49.4945 33.6907 49.4995C34.4415 48.4764 33.8936 47.49 33.4853 46.4958Z" fill="var(--fill-0, #FCF9FB)"/>
<path id="Vector_23" d="M35.6087 44.2207C35.8599 44.9789 35.9171 45.2417 35.9305 46.0379L36.1474 46.0717C36.8449 46.1849 37.0031 46.1813 37.6491 46.5147C37.9839 47.3126 37.8182 47.9894 37.5471 48.8276C36.8816 48.9506 36.3002 49.0202 35.633 49.0994C35.1272 47.2717 35.1464 47.2311 33.4815 46.4948C35.1393 46.3997 35.0587 45.5789 35.6087 44.2207Z" fill="var(--fill-0, #624940)"/>
<path id="Vector_24" d="M35.6374 49.0999C36.3046 49.0208 36.886 48.9511 37.5515 48.8282C37.5838 49.3325 37.5995 49.9787 37.6911 50.4611C36.2353 51.2386 36.2566 51.3343 35.1073 50.3645L35.6374 49.0999Z" fill="var(--fill-0, #624940)"/>
<path id="Vector_25" d="M75.0713 27.8592C75.9689 27.1605 76.7535 26.3981 77.8285 26.1415L78.3989 26.7741C78.2629 40.7536 76.5321 33.6212 66.6979 37.627C65.2208 38.2285 63.7754 46.0059 62.1389 46.8537C61.6565 46.56 60.9489 46.1336 60.935 45.4744C60.7427 36.4779 65.7491 30.6332 74.7181 34.0363C74.9798 31.6664 75.0847 30.2371 75.0713 27.8592Z" fill="var(--fill-0, #624940)"/>
<path id="Vector_26" d="M26.8652 72.6516C26.9393 72.6747 27.0167 72.689 27.0878 72.7204C27.7471 73.0128 28.0905 73.3062 28.3228 74.0022C29.0256 76.109 22.7616 94.1132 21.4306 97.342C20.6596 99.2114 20.1858 100.523 18.2154 101.353C17.7096 101.075 17.7273 101.071 17.5282 100.526C17.8995 98.0884 18.6216 94.0068 20.3052 92.1522C20.7675 92.3039 20.6116 92.2198 20.9968 92.4645C21.0825 92.519 21.166 92.5768 21.2505 92.6331C22.0449 91.3996 20.9607 89.7083 21.2635 88.3547C21.9838 85.1359 25.2507 75.2814 26.8652 72.6516Z" fill="var(--fill-0, #624940)"/>
<path id="Vector_27" d="M36.8743 35.1057L39.8762 35.6233C41.1424 35.8497 41.5133 35.8915 42.6681 36.4293C46.6881 38.4708 49.5051 41.2167 50.9558 45.6095C51.2356 46.4296 51.4581 47.2679 51.6222 48.1189L50.0542 47.9858L49.8429 48.3287C49.613 49.0881 49.1958 50.6621 48.8257 51.2817C47.7459 43.7759 45.5126 41.209 38.688 38.2625L36.1649 37.8394L35.0564 38.0868C35.4532 36.949 36.1682 36.0944 36.8743 35.1057Z" fill="var(--fill-0, #624940)"/>
<path id="Vector_28" d="M36.8743 35.1057L39.8762 35.6233C41.1424 35.8497 41.5133 35.8915 42.6681 36.4293C41.3853 38.3399 40.2991 37.0942 38.688 38.2625L36.1649 37.8394L35.0564 38.0868C35.4532 36.949 36.1682 36.0944 36.8743 35.1057Z" fill="var(--fill-0, #624940)"/>
<path id="Vector_29" d="M36.8743 35.1057L39.8762 35.6233C38.1861 36.346 37.0568 36.2906 36.1649 37.8394L35.0564 38.0868C35.4532 36.949 36.1682 36.0944 36.8743 35.1057Z" fill="var(--fill-0, #624940)"/>
<path id="Vector_30" d="M72.2937 109.475C72.9601 110.799 73.1178 111.029 74.0959 112.143C78.9877 115.34 84.9957 113.119 90.192 111.774C90.5799 113.952 88.741 113.896 87.1806 115.374C86.1557 116.237 81.9854 117.099 80.6138 117.132C76.8717 117.222 74.5596 116.792 71.7396 114.29C70.9449 113.368 70.6904 112.931 70.0685 111.876C71.0439 111.35 71.609 110.39 72.2937 109.475Z" fill="var(--fill-0, #624940)"/>
<path id="Vector_31" d="M72.2937 109.475C72.9601 110.799 73.1178 111.029 74.0959 112.143C72.5862 112.782 72.4244 112.788 71.7396 114.29C70.9449 113.368 70.6904 112.931 70.0685 111.876C71.0439 111.35 71.609 110.39 72.2937 109.475Z" fill="var(--fill-0, #624940)"/>
<path id="Vector_32" d="M66.4005 88.6001C66.7759 90.2659 67.1422 92.0106 67.5617 93.6587C68.736 96.9263 69.1624 99.8944 70.0525 103.221C70.5687 105.151 71.5501 107.568 72.284 109.474C71.5993 110.389 71.0342 111.349 70.0587 111.875C68.7405 109.371 65.5157 97.7098 64.8238 94.6682C64.6955 93.309 64.0748 91.3409 63.6922 89.9687C64.9385 89.292 65.5747 89.7299 66.4005 88.6001Z" fill="var(--fill-0, #624940)"/>
<path id="Vector_33" d="M66.4005 88.6001C66.7759 90.2659 67.1422 92.0106 67.5617 93.6587L67.4121 94.075C67.205 94.6634 67.1594 94.9429 67.0482 95.5527C66.6293 94.8267 66.2183 94.0963 65.8156 93.3615L65.4242 93.3277C65.1539 93.8655 65.0236 94.0898 64.8238 94.6682C64.6955 93.309 64.0748 91.3409 63.6922 89.9687C64.9385 89.292 65.5747 89.7299 66.4005 88.6001Z" fill="var(--fill-0, #624940)"/>
<path id="Vector_34" d="M114.729 87.6888C117.51 93.9124 122.057 103.549 112.447 106.924C112.119 106.271 111.764 104.584 111.584 103.81C117.646 99.9108 114.164 94.0428 112.167 88.8162L112.836 88.3638C113.39 88.4814 113.6 88.5152 114.163 88.5575L114.729 87.6888Z" fill="var(--fill-0, #624940)"/>
<path id="Vector_35" d="M95.3198 110.267C97.6855 109.155 100.31 108.252 102.774 107.345C103.453 109.148 103.931 108.398 104.498 110.181C100.716 111.822 95.428 113.59 91.3747 114.469C90.0067 115.046 88.6534 115.155 87.1775 115.374C88.7379 113.896 90.5768 113.952 90.1889 111.773L95.3198 110.267Z" fill="var(--fill-0, #624940)"/>
<path id="Vector_36" d="M90.1889 111.774L95.3198 110.267C93.9263 112.446 91.5611 112.55 91.3747 114.469C90.0067 115.046 88.6534 115.155 87.1775 115.374C88.7379 113.896 90.5768 113.952 90.1889 111.774Z" fill="var(--fill-0, #624940)"/>
<path id="Vector_37" d="M86.8326 80.044C87.469 80.2535 87.8836 80.439 88.1944 81.0357C89.417 83.3816 90.1341 87.3533 89.2878 89.9261C88.9654 90.9063 88.5328 91.4622 87.6359 91.9502C86.8625 92.0497 86.3173 91.9028 85.6862 91.4177C85.1655 91.0174 84.8153 90.7181 84.762 90.0636C85.4633 89.6541 86.4945 89.8452 87.2936 89.7797L87.8415 89.0991C87.7393 88.3059 87.5914 87.5201 87.4522 86.7328C86.458 86.6143 85.9528 87.1408 84.9557 87.0336C83.7667 86.0895 82.9142 84.5718 82.7035 83.0589C82.6001 82.3146 82.7148 82.0512 83.1924 81.5033C84.8227 81.679 84.8589 84.1081 86.2189 84.6687C86.52 83.1161 86.325 81.5439 86.8326 80.044Z" fill="var(--fill-0, #624940)"/>
<path id="Vector_38" d="M79.5166 82.2493L80.6624 82.4537C81.8654 83.2813 82.7748 85.0275 83.1013 86.4311C83.3043 87.3028 83.1644 87.8285 82.7286 88.5846L82.1798 88.7165C81.0438 87.5256 80.9679 85.7244 79.9824 84.4023C79.3681 85.5232 79.7809 87.8445 79.6108 89.2172L79.198 89.4881C78.497 89.0066 78.345 88.5926 78.0617 87.8051C77.939 87.3956 77.8232 86.9751 77.667 86.5772C77.4297 85.9724 77.3375 85.7469 76.731 85.5007C75.8734 86.9215 77.2857 89.5355 76.1493 90.8804C75.7881 90.758 75.6411 90.7533 75.3682 90.4641C74.647 89.6993 73.8766 86.4894 73.9187 85.4307C74.0171 82.9598 77.0605 84.0011 78.4928 83.2135C78.8191 83.0339 79.2312 82.518 79.5166 82.2493Z" fill="var(--fill-0, #624940)"/>
<path id="Vector_39" d="M90.2259 96.5882C90.1625 95.886 90.169 96.11 90.316 95.4036C91.9561 94.3363 95.1882 93.3949 97.2002 93.7588C98.0687 94.3209 98.0962 94.6379 98.5327 95.6418L98.9988 97.2608C99.2889 98.4484 99.3991 98.1652 99.0871 99.1794L98.5493 99.3382C97.332 98.489 96.9691 97.1939 96.5501 95.7929L96.0247 95.3731C95.5882 96.2555 95.9583 98.5311 96.0686 99.62L95.6297 100.22C94.2658 99.5092 93.9082 97.0282 93.0024 96.4244C92.7763 98.169 93.4498 100.201 92.8951 101.306C91.887 101.472 91.5255 100.504 91.1845 99.7163C90.9836 98.2478 90.8073 97.9154 90.2259 96.5882Z" fill="var(--fill-0, #624940)"/>
<path id="Vector_40" d="M99.0023 93.6705C100.356 91.2197 101.572 90.802 103.813 92.5674L104.443 92.501C104.479 94.2157 104.594 94.4676 105.236 96.0478L105.061 96.1438C103.874 99.3726 101.436 99.1329 99.3502 96.8351L98.9925 97.2617L98.5264 95.6427L99.0023 93.6705Z" fill="var(--fill-0, #624940)"/>
<path id="Vector_41" d="M103.811 92.5675L104.441 92.5011C104.477 94.2158 104.592 94.4677 105.234 96.0479L105.059 96.1439C103.422 95.1169 103.093 96.7235 101.918 96.2485C103.329 94.6585 103.492 94.7613 103.811 92.5675Z" fill="var(--fill-0, #FCF9FB)"/>
<path id="Vector_42" d="M99.0023 93.6696C99.0823 94.5751 99.1626 95.9876 99.3502 96.8342L98.9925 97.2609L98.5264 95.6419L99.0023 93.6696Z" fill="var(--fill-0, #624940)"/>
<path id="Vector_43" d="M90.592 100.437C90.0939 101.479 88.5587 103.631 87.172 102.79C83.7253 100.702 84.6948 92.4655 89.9273 97.074L90.2204 96.5877C90.8018 97.9149 90.9781 98.2474 91.179 99.7159L90.592 100.437Z" fill="var(--fill-0, #624940)"/>
<path id="Vector_44" d="M90.2205 96.5894C90.8018 97.9166 90.9781 98.249 91.179 99.7175L90.592 100.438C90.4978 98.8268 90.4131 98.5525 89.9274 97.0757L90.2205 96.5894Z" fill="var(--fill-0, #624940)"/>
<path id="Vector_45" d="M86.8842 97.5023C87.753 97.7029 88.0289 97.916 88.599 98.6019C88.7892 99.5442 88.6757 100.017 88.3447 100.911C87.6472 100.728 87.5364 100.582 87.0181 100.064C86.6892 99.1169 86.7212 98.4837 86.8842 97.5023Z" fill="var(--fill-0, #F9D4AF)"/>
<path id="Vector_46" d="M79.5792 99.1147C83.671 93.0312 87.9897 104.441 82.0241 104.326C80.6631 104.3 80.0385 102.973 79.5031 101.895C79.3238 101.193 79.1279 100.755 78.8657 100.086C78.8906 99.9319 78.8506 98.8578 78.8453 98.6287L79.5792 99.1147Z" fill="var(--fill-0, #624940)"/>
<path id="Vector_47" d="M78.8453 98.6296L79.5792 99.1155L79.5031 101.896C79.3238 101.194 79.1279 100.756 78.8657 100.087C78.8906 99.9328 78.8506 98.8587 78.8453 98.6296Z" fill="var(--fill-0, #FDE9EE)"/>
<path id="Vector_48" d="M81.6625 98.8598C82.243 99.1991 82.7905 99.5046 83.0477 100.161C83.4042 101.071 83.0454 101.866 82.6856 102.709C82.0664 102.376 81.5537 102.087 81.2758 101.407C80.9039 100.497 81.293 99.6984 81.6625 98.8598Z" fill="var(--fill-0, #F9D4AF)"/>
<path id="Vector_49" d="M104.445 92.5005C105.819 88.6963 108.621 88.9943 109.723 92.6475C110.797 96.2071 108.411 98.3814 105.239 96.0473C104.596 94.4671 104.481 94.2153 104.445 92.5005Z" fill="var(--fill-0, #624940)"/>
<path id="Vector_50" d="M106.652 91.6421C107.451 92.0107 107.741 92.2531 108.188 93.0152C108.338 93.9323 108.201 94.3904 107.851 95.242C107.052 94.8888 106.827 94.6935 106.365 93.953C106.193 92.9921 106.284 92.5402 106.652 91.6421Z" fill="var(--fill-0, #F9D4AF)"/>
<path id="Vector_51" d="M27.1559 97.4801C27.7189 97.9379 29.3012 99.1611 29.7281 99.6156C28.3838 101.01 27.6623 101.323 25.9686 102.239L26.0053 102.443C26.2308 103.753 26.3988 104.275 25.7167 105.233C24.6079 105.637 25.1632 105.609 23.9895 105.261C20.7165 102.191 24.2568 98.9175 27.1559 97.4801Z" fill="var(--fill-0, #624940)"/>
<path id="Vector_52" d="M18.9445 46.4947C20.2684 44.0703 22.5455 40.2844 25.0558 38.9019L25.7045 38.9442C26.2049 39.7028 26.2189 39.8708 26.4559 40.7165C24.2229 44.404 22.723 44.8606 20.8257 49.4471C20.0488 47.5398 20.3827 47.6417 18.9445 46.4947Z" fill="var(--fill-0, #624940)"/>
<path id="Vector_53" d="M85.7389 41.9888C83.6786 41.2267 78.2757 39.6305 77.772 37.3353L78.1323 36.8787C80.8201 36.1628 83.9394 37.6992 86.4328 38.7339L85.7389 41.9888Z" fill="var(--fill-0, #624940)"/>
<path id="Vector_54" d="M14.051 87.9543C15.0264 85.3542 15.3449 84.7257 17.7338 83.4083C17.7631 84.603 17.492 84.9213 18.4269 85.7278L18.1522 85.8451C15.5935 88.2683 17.551 90.2486 16.513 93.5583C15.7547 93.0839 15.1171 92.2901 14.5037 91.6187C14.1458 90.0281 14.027 89.6044 14.051 87.9543Z" fill="var(--fill-0, #624940)"/>
<path id="Vector_55" d="M14.0543 87.9543C15.0298 85.3542 15.3483 84.7257 17.7372 83.4083C17.7665 84.603 17.4954 84.9213 18.4302 85.7278L18.1556 85.8451L17.0524 85.596C15.7501 86.6961 16.6595 87.9397 15.3326 88.8956C14.3175 88.5472 14.7394 88.8355 14.0543 87.9543Z" fill="var(--fill-0, #624940)"/>
<path id="Vector_56" d="M76.0052 18.7809C76.7241 20.5718 78.1327 24.8869 78.3988 26.7735L77.8284 26.1409C76.7534 26.3975 75.9688 27.1599 75.0712 27.8586C74.8777 25.4994 74.6594 24.5352 73.8472 22.3354C75.8805 21.4326 75.6772 20.8204 76.0052 18.7809Z" fill="var(--fill-0, #624940)"/>
<path id="Vector_57" d="M78.8653 100.087C77.4376 100.395 77.7769 100.125 76.7908 100.994C75.9833 103.263 78.3953 104.122 76.3674 106.032C74.9883 105.784 73.1008 100.249 74.7836 99.1356C76.7309 99.9973 75.8995 98.5445 78.8448 98.6301C78.8501 98.8591 78.8902 99.9333 78.8653 100.087Z" fill="var(--fill-0, #624940)"/>
<path id="Vector_58" d="M86.4298 38.7336C88.2619 39.5392 91.5065 41.0679 93.3072 41.5106C91.8179 42.395 91.0695 42.3524 89.5195 43.438L85.7359 41.9885L86.4298 38.7336Z" fill="var(--fill-0, #624940)"/>
<path id="Vector_59" d="M107.187 105.898C108.668 106.466 109.372 106.574 110.294 107.908C108.197 108.964 106.704 109.439 104.499 110.181C103.932 108.397 103.454 109.147 102.775 107.344C104.685 107.044 105.492 106.743 107.187 105.898Z" fill="var(--fill-0, #624940)"/>
<path id="Vector_60" d="M30.9321 36.2936C32.9811 35.1857 34.5752 35.2307 36.8666 35.1057C36.1605 36.0944 35.4455 36.949 35.0487 38.0868L31.4963 39.0368L30.8924 38.7858C30.3288 37.8593 30.546 37.9117 30.613 36.5854L30.9321 36.2936Z" fill="var(--fill-0, #624940)"/>
<path id="Vector_61" d="M111.679 80.2202L111.858 80.667C113.093 83.7913 112.254 84.0079 113.168 86.8554L113.432 86.9559L113.785 85.9668C114.026 86.4009 114.542 87.2741 114.731 87.6877L114.166 88.5565C113.602 88.5141 113.392 88.4804 112.839 88.3627L112.17 88.8152C111.815 87.0394 111.021 85.4426 110.193 83.8571C111.239 83.4624 111.013 83.7285 111.41 82.932C111.127 81.9966 111.045 81.8357 111.035 80.8768L111.679 80.2202Z" fill="var(--fill-0, #624940)"/>
<path id="Vector_62" d="M49.8422 48.3295L50.0535 47.9867L51.6216 48.1197C51.6352 48.9298 51.6785 49.8964 51.6559 50.6911L51.4186 50.6819C51.3513 51.3154 51.0882 52.9783 51.354 53.503C50.2621 54.416 51.1096 55.4133 50.7504 56.5725C49.948 55.347 49.9436 55.2628 49.8348 53.7472C49.5175 52.8035 49.1302 52.4677 48.825 51.2825C49.1951 50.6629 49.6123 49.089 49.8422 48.3295Z" fill="var(--fill-0, #FDE9EE)"/>
<path id="Vector_63" d="M49.8348 48.3295L50.046 47.9867L51.6141 48.1197C51.6278 48.9298 51.671 49.8964 51.6485 50.6911L51.4111 50.6819L50.364 51.2807L50.0102 51.023C50.0902 49.9059 50.2007 49.3841 49.8348 48.3295Z" fill="var(--fill-0, #624940)"/>
<path id="Vector_64" d="M111.585 103.81C111.764 104.585 112.119 106.271 112.448 106.924L110.289 107.909C109.368 106.574 108.664 106.466 107.183 105.898C108.396 105.198 110.267 104.409 111.585 103.81Z" fill="var(--fill-0, #624940)"/>
</g>
</svg>
