<svg preserveAspectRatio="xMidYMid meet" width="100%" height="auto" overflow="visible" style="display: block;" viewBox="0 0 91 107.028" fill="none" xmlns="http://www.w3.org/2000/svg">
<g id="decoration1">
<path id="Vector" d="M65.8837 0.201315C67.1979 0.00309563 68.9032 -0.0409461 70.2283 0.0357893C76.0744 0.341428 81.5513 2.99075 85.418 7.3849C93.6238 16.7392 92.7549 32.2164 82.9932 40.2003C74.9992 46.7391 68.7946 45.8452 59.4293 45.127C57.5584 47.0038 50.9845 56.659 48.9751 59.3333C48.8041 59.5604 48.4565 60.9376 48.4456 61.5173C48.5841 64.7282 47.5767 80.3324 48.9914 82.4178C51.3674 85.9225 64.7975 86.4066 62.6986 96.7176C60.2167 108.92 35.64 107.521 26.4648 106.15C20.3824 105.078 12.9504 102.991 12.1575 95.8489C10.9383 84.8749 22.2207 86.7604 27.1355 81.8047C28.3818 80.5472 27.9175 62.9833 27.3608 60.5091C25.3976 58.1432 22.8669 55.9916 20.8005 53.5961C14.2674 46.0168 7.25357 38.1084 1.61648 29.8562C-2.14158 24.4524 0.970242 16.6618 7.67447 15.9507C20.3579 14.6061 34.3312 16.6409 46.963 15.2366C48.1985 13.0461 48.7715 11.4514 50.3518 9.36329C54.4846 3.89472 59.2256 1.2364 65.8837 0.201315Z" fill="var(--fill-0, #F2E4CF)"/>
<path id="Vector_2" d="M24.6419 23.2654C27.102 22.8122 30.1513 23.0207 32.6603 22.9917C38.8595 22.9202 47.1468 23.5543 53.1993 22.4182C53.4926 20.7659 52.5503 20.4058 53.5116 17.7299C56.4089 9.66887 65.3153 4.75123 73.5917 7.52402C74.7457 7.91069 76.0572 8.49638 76.5569 9.59067L76.3641 10.0713C74.7321 10.7664 71.5497 8.98026 69.5458 8.88251C65.7009 8.68401 61.9455 10.0963 59.1867 12.7804C57.1828 14.7387 54.3153 19.9961 54.2882 22.4787L54.8937 22.7763C53.7614 24.0686 53.1097 22.8282 50.9456 24.5614C45.151 25.6114 29.4236 25.269 23.0452 25.0401C22.9339 24.8636 22.6868 24.2478 22.589 24.0213L24.6419 23.2654Z" fill="var(--fill-0, #FF6C37)"/>
<path id="Vector_3" d="M53.5128 92.7452C59.2883 95.5072 53.7463 98.1785 50.2 98.8568C40.7777 100.658 29.3759 100.966 20.475 97.1041C19.3427 96.6126 18.8729 95.3437 19.3046 94.2011C20.236 94.0116 20.3989 94.5598 21.2353 94.9796C29.6746 99.2085 45.717 99.067 54.2921 95.278C53.1761 94.7312 51.8564 94.1338 50.8164 93.4848C51.7071 93.2774 52.6276 92.9958 53.5128 92.7452Z" fill="var(--fill-0, #FF6C37)"/>
<path id="Vector_4" d="M19.9355 38.8704C25.0187 44.4868 29.5886 50.3202 35.242 55.4505C35.4837 55.6702 35.7416 56.1902 35.7878 56.5176L34.7288 57.4943C27.5521 51.188 23.8945 46.8595 17.7958 39.4827C18.4855 39.1642 19.1942 39.0426 19.9355 38.8704Z" fill="var(--fill-0, #FF6C37)"/>
<path id="Vector_5" d="M80.033 29.9446C80.8503 30.4165 81.1164 30.5987 81.836 31.2075C77.5783 37.4305 69.2829 41.0394 61.821 38.0045C61.0906 37.7069 60.8897 37.4593 60.6398 36.7777C60.7593 36.6216 61.0607 36.116 61.2535 36.1491C69.1471 37.5206 74.7163 37.0199 80.033 29.9446Z" fill="var(--fill-0, #FF6C37)"/>
<path id="Vector_6" d="M55.1719 30.7975C56.1522 30.7714 56.1848 30.8871 56.7713 31.4201L56.7686 31.913C55.6118 33.0157 53.0051 33.0287 51.4383 33.4287C45.3179 34.9897 37.2478 35.8847 30.9563 34.9965C29.9544 34.9061 28.8628 34.9121 27.9993 34.4567C29.3217 33.9106 29.9897 33.5017 31.456 33.4509C38.5268 33.206 48.5627 33.4909 55.1719 30.7975Z" fill="var(--fill-0, #FF6C37)"/>
<path id="Vector_7" d="M52.9189 39.0047C53.7905 38.8529 54.3933 38.6229 55.1564 39.0076C53.4022 41.8134 43.3907 56.3535 41.0691 56.3277L40.6265 55.7719C40.621 55.228 40.7432 54.6618 41.1179 54.2526C45.4761 49.5138 49.1065 44.2072 52.9189 39.0047Z" fill="var(--fill-0, #FF6C37)"/>
<path id="Vector_8" d="M34.7284 57.4942L35.7873 56.5175C36.0969 58.459 36.6454 61.1173 36.2544 62.9963C36.2055 64.6358 36.2082 64.8971 35.5864 66.4166L35.7982 66.6626C37.3459 68.4892 36.6291 76.5866 36.602 79.1213C36.5938 79.9302 36.3277 81.5565 36.0915 82.3724L35.8607 82.3865C35.5321 81.0905 34.951 79.0497 34.7392 77.7938L34.7338 68.8614C34.6632 66.6224 34.6224 64.3825 34.6116 62.1426C34.5736 60.722 34.446 58.8527 34.7284 57.4942Z" fill="var(--fill-0, #FF6C37)"/>
<path id="Vector_9" d="M34.7331 68.8606C35.2897 69.0683 35.9822 69.1636 36.194 69.8324C36.6529 71.2848 36.8945 77.1103 36.0718 78.1087C35.4608 78.0582 35.2517 77.8679 34.7385 77.7929L34.7331 68.8606Z" fill="var(--fill-0, #FF6C37)"/>
<path id="Vector_10" d="M34.7284 57.4942L35.7873 56.5175C36.0969 58.459 36.6454 61.1173 36.2544 62.9963L35.3312 64.2361L35.0108 64.269L34.6116 62.1426C34.5736 60.722 34.446 58.8527 34.7284 57.4942Z" fill="var(--fill-0, #FF6C37)"/>
<path id="Vector_11" d="M39.6628 69.7943L40.8114 68.7521L41.1915 68.7969C41.4386 69.5276 41.4875 69.721 41.6232 70.4802C41.3761 72.9815 42.3157 84.4451 40.7435 85.3578C40.2683 85.0205 39.7388 83.5684 39.7551 83.0343C39.8827 78.6579 39.5922 74.169 39.6628 69.7943Z" fill="var(--fill-0, #FF6C37)"/>
<path id="Vector_12" d="M16.4161 37.8214C14.3769 35.4841 8.69361 28.9665 8.20484 26.4002L8.53611 26.0355C10.5509 26.3912 16.1283 34.1699 17.6842 36.1616C17.209 36.8931 17.0379 37.2251 16.4161 37.8214Z" fill="var(--fill-0, #FF6C37)"/>
<path id="Vector_13" d="M81.995 23.7457C82.0792 20.7593 81.8049 17.6375 80.0318 15.0827C79.2335 13.9327 78.503 13.3943 77.7292 12.0502C78.1555 11.4666 78.2233 11.5473 78.9375 11.2187C82.5163 11.6926 84.1782 19.7335 84.2895 22.8531C83.5373 23.2376 82.6467 23.8947 81.995 23.7457Z" fill="var(--fill-0, #FF6C37)"/>
<path id="Vector_14" d="M58.7838 22.3372C61.0267 22.18 63.9022 21.7059 65.8492 22.7105C67.0955 24.5944 63.3049 28.3207 62.0042 29.9423C61.1244 29.9947 60.5732 30.1449 59.8645 29.6626C60.5976 28.5746 63.7828 24.7563 63.8724 24.1155L61.806 24.0451C60.3994 23.8567 59.7532 24.2645 58.7485 23.5803L58.7838 22.3372Z" fill="var(--fill-0, #FF6C37)"/>
<path id="Vector_15" d="M28.8982 44.2572C30.9402 44.7796 32.7757 47.8233 34.6493 49.0851C35.654 49.7606 36.5637 50.1652 37.6552 50.6668C39.1514 49.815 41.1282 47.9286 42.2958 47.5381L42.6651 47.8406L42.4886 48.6259C38.0435 55.0575 32.344 50.4175 28.9145 45.8074C28.4963 45.2445 28.7434 44.863 28.8982 44.2572Z" fill="var(--fill-0, #FF6C37)"/>
<path id="Vector_16" d="M34.762 85.2714C35.4951 85.8166 35.2344 85.4805 35.5929 86.3073C35.3403 89.409 29.2905 91.906 26.7435 92.7828L26.4693 92.8319L26.119 92.5696C26.1108 92.2889 26.1027 92.0081 26.0945 91.7274C27.3816 90.4574 30.5477 89.1451 31.9651 88.1355C33.1871 87.2639 33.999 86.1878 34.762 85.2714Z" fill="var(--fill-0, #FF6C37)"/>
<path id="Vector_17" d="M17.0521 24.4942C15.5533 24.832 8.59376 25.475 8.30321 23.3662C9.65546 22.2187 18.0297 22.8525 20.2481 22.9592C19.276 23.4637 17.8966 24.0255 17.0521 24.4942Z" fill="var(--fill-0, #FF6C37)"/>
<path id="Vector_18" d="M47.2969 92.1399C44.6928 90.968 41.0705 89.4422 40.4161 86.3503L40.8126 85.7725C42.5912 85.272 42.7351 87.4804 43.8918 88.2942C45.464 89.3964 47.4815 90.3188 49.2112 91.2222C48.106 91.5225 47.8481 91.3723 47.2969 92.1399Z" fill="var(--fill-0, #FF6C37)"/>
<path id="Vector_19" d="M17.04 30.9864C18.7832 31.2918 20.6215 31.899 22.3784 32.2998C23.8908 32.6446 25.8567 32.8116 27.2389 33.3134L27.0162 33.4617C24.404 34.7297 19.3236 34.456 17.1214 32.5409C16.7304 31.6647 16.7983 32.0391 17.04 30.9864Z" fill="var(--fill-0, #FF6C37)"/>
<path id="Vector_20" d="M76.1833 13.8657C76.949 14.1063 76.6259 13.904 77.1717 14.5193C76.7861 16.3481 72.1781 20.2511 70.6032 21.6742L69.957 21.4223L69.7479 20.9047C70.2964 19.298 74.7632 15.2193 76.1833 13.8657Z" fill="var(--fill-0, #FF6C37)"/>
<path id="Vector_21" d="M81.9978 23.7456C82.6495 23.8947 83.5402 23.2376 84.2923 22.8531C83.6515 26.3219 83.5917 28.1778 81.8349 31.2073C81.1153 30.5986 80.8492 30.4164 80.0319 29.9444C81.0257 28.0013 81.691 25.9065 81.9978 23.7456Z" fill="var(--fill-0, #FF6C37)"/>
<path id="Vector_22" d="M52.9179 39.0047C54.1154 37.0342 58.3187 31.3798 59.8638 29.6629C60.5725 30.1451 61.1237 29.995 62.0035 29.9426C60.8277 31.4922 60.0403 31.7838 58.5523 32.8118C57.3575 33.6365 55.7283 35.5065 55.8994 36.9867C55.951 37.4396 55.9917 37.486 55.9102 38.0378L55.1554 39.0077C54.3923 38.6229 53.7895 38.8529 52.9179 39.0047Z" fill="var(--fill-0, #FF6C37)"/>
<path id="Vector_23" d="M70.2317 25.2173C72.1949 25.457 74.6904 29.0652 75.9666 30.554C76.5857 31.273 76.5042 31.4555 76.3495 32.2777L75.8743 32.2915C74.3645 31.7088 70.1584 27.1519 70.2317 25.2173Z" fill="var(--fill-0, #FF6C37)"/>
<path id="Vector_24" d="M59.367 14.0793C60.9473 14.5438 64.2248 17.894 65.2023 19.2973C65.7155 20.031 65.5227 20.1904 65.3353 20.9352C63.5188 20.1062 60.6812 17.0868 59.348 15.4399C58.9678 14.9702 59.1986 14.6614 59.367 14.0793Z" fill="var(--fill-0, #FF6C37)"/>
<path id="Vector_25" d="M39.7163 65.2097C39.6131 63.7106 39.0483 57.4637 40.6965 56.8853C41.6659 58.8004 41.446 61.2206 41.3591 63.3307L39.7163 65.2097Z" fill="var(--fill-0, #FF6C37)"/>
<path id="Vector_26" d="M54.8942 22.7765C56.1731 22.35 57.4303 22.3861 58.7799 22.3378L58.7446 23.5808C59.7492 24.2651 60.3955 23.8573 61.8021 24.0457C58.0874 24.5258 54.4624 24.0392 50.946 24.5616C53.1102 22.8284 53.7619 24.0688 54.8942 22.7765Z" fill="var(--fill-0, #FF6C37)"/>
<path id="Vector_27" d="M74.2065 22.2237C74.6301 22.1897 75.0537 22.1615 75.4773 22.1389C76.672 22.0781 76.9789 22.042 77.8749 22.8574L77.8152 23.3364C76.7453 23.9905 76.6014 23.7939 75.2573 23.8529C73.6227 23.8203 72.6397 23.9864 71.2413 23.1797L71.2603 22.7773C72.2026 22.1835 73.0633 22.2771 74.2065 22.2237Z" fill="var(--fill-0, #FF6C37)"/>
<path id="Vector_28" d="M67.4343 30.9619C67.399 29.6672 67.1492 28.0595 68.1811 27.1343L68.5938 27.4146C69.05 28.5672 68.8029 29.6468 68.6807 30.9155C68.773 32.3215 68.9767 34.1052 68.2218 35.3542L67.9014 35.2353C67.152 33.2517 67.9041 32.8023 67.4343 30.9619Z" fill="var(--fill-0, #FF6C37)"/>
<path id="Vector_29" d="M20.2451 22.9593C21.6869 23.028 23.2537 23.2664 24.6439 23.2647L22.5911 24.0207C22.6889 24.2471 22.936 24.863 23.0473 25.0395L20.4026 24.7731C19.7617 24.8499 17.7877 24.5768 17.0491 24.4942C17.8936 24.0256 19.273 23.4638 20.2451 22.9593Z" fill="var(--fill-0, #FF6C37)"/>
<path id="Vector_30" d="M20.4026 24.7736C21.0407 24.3965 21.8607 24.2216 22.5911 24.0212C22.6889 24.2477 22.936 24.8635 23.0473 25.04L20.4026 24.7736Z" fill="var(--fill-0, #FF6C37)"/>
<path id="Vector_31" d="M39.7148 65.2097L41.3576 63.3307C40.9286 66.2877 41.811 67.8968 41.621 70.4796C41.4852 69.7204 41.4363 69.5271 41.1892 68.7964L40.8091 68.7516L39.6605 69.7937L39.7148 65.2097Z" fill="var(--fill-0, #FF6C37)"/>
<path id="Vector_32" d="M67.6423 16.1966C67.3328 14.5242 67.273 12.7315 67.9817 11.171L68.3673 11.0879C69.0027 11.9343 68.9864 13.1239 69.1086 14.2353L68.7774 17.003L67.6152 16.3975L67.6423 16.1966Z" fill="var(--fill-0, #FF6C37)"/>
<path id="Vector_33" d="M67.6422 16.1979C67.6694 15.12 67.6205 14.7471 67.9654 13.7514L68.4731 13.6835L69.1085 14.2367L68.7773 17.0044L67.6151 16.3989L67.6422 16.1979Z" fill="var(--fill-0, #FF6C37)"/>
<path id="Vector_34" d="M49.2073 91.2227C51.1542 91.8977 51.1922 92.2779 53.5111 92.746C52.6259 92.9966 51.7054 93.2782 50.8148 93.4856C49.8753 93.017 48.3248 92.5114 47.293 92.1405C47.8442 91.3728 48.1021 91.523 49.2073 91.2227Z" fill="var(--fill-0, #FF6C37)"/>
<path id="Vector_35" d="M17.6867 36.1608C18.3927 37.0302 19.1829 38.0594 19.935 38.8696C19.1938 39.0418 18.485 39.1634 17.7953 39.4819L16.4186 37.8207C17.0405 37.2244 17.2115 36.8923 17.6867 36.1608Z" fill="var(--fill-0, #FF6C37)"/>
<path id="Vector_36" d="M67.6194 16.3987L68.7815 17.0043C68.8223 18.0909 68.9933 18.8349 68.4068 19.7003L68.0022 19.5988C67.3913 18.5338 67.5705 17.6557 67.6194 16.3987Z" fill="var(--fill-0, #FF6C37)"/>
</g>
</svg>
